<svg xmlns="http://www.w3.org/2000/svg" viewBox="0 0 25 25"><defs><style>.cls-1{fill:#88b44e;}</style></defs><title>Asset 7</title><g id="Layer_2" data-name="Layer 2"><g id="Блок_СОСТАВ_ЧАЯ" data-name="Блок СОСТАВ ЧАЯ"><path class="cls-1" d="M12.5,0A12.5,12.5,0,1,1,0,12.5,12.5,12.5,0,0,1,12.5,0Zm0,23.09A10.59,10.59,0,1,0,1.91,12.5,10.6,10.6,0,0,0,12.5,23.09Zm0-20.83A10.24,10.24,0,1,1,2.26,12.5,10.25,10.25,0,0,1,12.5,2.26ZM15.65,12.5h0l-4.4-4.4h0a.5.5,0,0,0-.7.71h0l3.7,3.7-3.7,3.71h0a.49.49,0,0,0,0,.69.5.5,0,0,0,.7,0h0l4.4-4.4Z"/></g></g></svg>