<svg xmlns="http://www.w3.org/2000/svg" viewBox="0 0 62.83 62.83"><defs><style>.cls-1{fill:#5e7461;}</style></defs><title>Ресурс 3</title><g id="Слой_2" data-name="Слой 2"><g id="БЛОК_СОСТАВ_" data-name="БЛОК &quot;СОСТАВ&quot;"><path class="cls-1" d="M31.41,62.83A31.42,31.42,0,1,1,62.83,31.41,31.45,31.45,0,0,1,31.41,62.83Zm0-61.67A30.26,30.26,0,1,0,61.67,31.41,30.28,30.28,0,0,0,31.41,1.16Zm-17.1,48.5a.74.74,0,0,0,.5.22c.42,0,.84,0,1.26-.05a31.77,31.77,0,0,0,5.3-1.1c.95-.28,1-.38.66-1.31L22,47.29c-.68-1.65-1.35-3.31-2-4.95-1.1-2.6-2-5.29-3.15-7.87-.05-.11-.06-.27-.19-.31a12.87,12.87,0,0,0-3.72-1c-1.94,0-3.89.27-5.84.24a5.91,5.91,0,0,1-1.39-.14c-.41-.11-.54,0-.47.43l.33,1.74c.39,2.21.74,4.43,1.33,6.6a.81.81,0,0,0,.19.42c1.85,1.76,3.47,3.75,5.2,5.3C13,48.53,13.63,49.13,14.31,49.66ZM13.14,33.85l0-.07,2.86.79c.17,0,.21.2.27.35,1,2.19,1.76,4.51,2.72,6.74.73,1.71,1.4,3.45,2.12,5.22a.89.89,0,0,1-.48-.34l-6.83-6.75a.59.59,0,0,1-.22-.35A34.76,34.76,0,0,1,13.14,33.85Zm-2.83.09c.64,0,1.28-.1,1.91-.17.23,0,.34,0,.34.29,0,.66.06,1.31.1,2-1.8-.64-3.45-1.34-5.1-2.06C8.48,34,9.4,34,10.31,33.94Zm2.21,2.72a.22.22,0,0,1,.18.18c.08.69.17,1.38.27,2.12L7.66,34.84C9.31,35.42,10.9,36.08,12.52,36.66ZM7.26,41.48c-.58-2.35-1-4.73-1.36-7.11,0,0,0,0,.07-.11l6.67,5.18C11.38,40,10.18,40.56,9,41.08a11,11,0,0,1-1.37.58C7.4,41.72,7.32,41.71,7.26,41.48Zm5.4-1.42a.62.62,0,0,1,.81.16c2,2,4.06,4,6.1,6a.29.29,0,0,1,.1.24L7.87,42.22C9.51,41.48,11.09,40.78,12.66,40.06ZM9,43.68c-.15-.17-.32-.33-.48-.5l.05-.09c1.13.42,2.25.86,3.4,1.24,2.91.94,5.72,2.14,8.64,3.06.37.11.53.44.84.7a25.66,25.66,0,0,1-6.37,1.2.79.79,0,0,1-.58-.21A57.21,57.21,0,0,1,9,43.68Zm12-3.27c.32,2.51.64,5,.89,7.53A2.5,2.5,0,0,0,23.27,50c1.24.74,2.5,1.46,3.74,2.2a2,2,0,0,0,1.95.21,65.54,65.54,0,0,0,7.8-3.26.65.65,0,0,0,.29-.28,23.14,23.14,0,0,0,1.52-3.5c1.25-3.52,2.65-7,3.78-10.56a3.45,3.45,0,0,0,0-2.43c-2.27-6-4.4-12.15-6.89-18.11-.5-1.22-1-2.46-1.58-3.63-.12-.23-.23-.46-.56-.39a1.09,1.09,0,0,0-.65.2c-1.18.82-2.51,1.39-3.74,2.11-.77.46-1.55.93-2.35,1.33a.79.79,0,0,0-.53.62,69.5,69.5,0,0,1-1.63,7.55C23.1,27,22.11,32,20.69,36.88a1.66,1.66,0,0,0-.11.91A18,18,0,0,1,21,40.41Zm8.9,11A34.83,34.83,0,0,0,32.53,49a1.29,1.29,0,0,1,1.65-.35,12.62,12.62,0,0,0,1.57.42A46.72,46.72,0,0,1,29.94,51.38ZM40,39.85c-.86,2.35-1.74,4.69-2.62,7-.19.49-.46.95-.65,1.44-.08.2-.18.21-.35.19a13.75,13.75,0,0,1-2.54-.58c-.29-.08-.14-.26-.09-.4.49-1.47,1.09-2.91,1.46-4.42.68-2.8,1.85-5.43,2.6-8.21,0-.14.1-.24.28-.24A19.56,19.56,0,0,0,42,34.19C41.29,36.13,40.67,38,40,39.85Zm-2.82-6.37a67.68,67.68,0,0,1-2.36-7.13,89.67,89.67,0,0,1,6.94,7.27,22.37,22.37,0,0,1-3.62.48A.81.81,0,0,1,37.18,33.48Zm4.63-.72c-1-1.24-2.22-2.32-3.26-3.53a37.77,37.77,0,0,0-3.67-3.6.86.86,0,0,1-.32-.72,60.09,60.09,0,0,0-.23-7.1c-.17-2-.37-3.94-.58-6C36.81,18.7,39.2,25.76,41.81,32.76Zm-5,1.35A2.11,2.11,0,0,1,37,35.73c-.66,2.15-1.57,4.22-2.11,6.4-.42,1.69-1,3.32-1.64,5.09-.55-2.33-1.32-4.46-1.89-6.65A100.84,100.84,0,0,0,28.11,30.5c-.05-.14-.1-.29-.14-.44-.11-.4-.43-.93-.29-1.16s.76-.49,1.18-.69c1.33-.64,2.68-1.24,4-2s1.17-.64,1.52.6A57.73,57.73,0,0,0,36.84,34.11ZM27.06,14.4c0-.22.5-.35.78-.52C29,13.19,30.12,12.55,31.3,12c.61-.31,1.17-.69,1.79-1.07.4,4.59,1,9.09.88,13.7a3.47,3.47,0,0,1-.58-.85c-1.8-2.84-3.68-5.62-5.61-8.38l-.14-.18C27.44,14.9,27,14.68,27.06,14.4Zm-.27.7c2.45,3.25,4.67,6.66,6.84,10.1-1.8.89-3.55,1.86-5.4,2.64l-.17.08c-.48.28-.61.2-.63-.4-.06-1.95-.08-3.9-.23-5.84C27,19.5,26.78,17.33,26.79,15.1Zm3.34,23.27C31,41.5,32,44.57,32.78,47.7a.32.32,0,0,1-.1.36c-1.4,1.35-2.85,2.65-4.38,3.86-.15.11-.27.19-.46.08-1.55-.9-3.13-1.73-4.62-2.73a.67.67,0,0,1-.32-.91,80,80,0,0,0,1.86-8.93c.4-2.08,1-4.1,1.46-6.16.25-1.11.51-2.21.77-3.32a.85.85,0,0,1,.19-.44C28.17,32.49,29.34,35.37,30.13,38.37Zm-3.9-21.3c.37,3.58.6,7.16.63,10.76a1.27,1.27,0,0,1-.25.77q-2.43,3.52-4.84,7.06a1.58,1.58,0,0,1-.13.13Zm-5,20.39c1.6-2.49,3.39-4.85,5.09-7.3-1.54,5.72-2.61,11.53-3.71,17.34l-.17,0c-.19-1.56-.37-3.12-.55-4.69s-.39-3.27-.7-4.89A.52.52,0,0,1,21.26,37.46ZM57.68,24.61c0-.38-.14-.51-.54-.42a13.3,13.3,0,0,0-2.25,1q-5.07,2.22-10,4.7A7.78,7.78,0,0,0,43,31.13c-.17.12-.2.32-.27.49-1.56,4.34-3.19,8.66-4.37,13.13-.29,1.12-.7,2.22-1,3.34-.23.76-.14.93.63,1a46.18,46.18,0,0,1,5.58,1.08.77.77,0,0,0,.37,0c.84-.2,1.69-.4,2.54-.58a1.83,1.83,0,0,0,1-.51c.71-.73,1.44-1.43,2.13-2.17,1.82-1.93,3.53-4,5.5-5.75a3.71,3.71,0,0,0,1.3-2.84C56.63,33.78,57,29.18,57.68,24.61Zm-.88,2.11c-.12,1.11-.26,2.22-.36,3.33q-.31,3.57-.59,7.12c0,.27-.09.37-.37.4-1.08.13-2.15.3-3.27.46,1.29-3.9,3-7.56,4.48-11.34ZM50.93,40.29a48.87,48.87,0,0,1-4.26-2.89c-.6-.45-1.17-.94-1.77-1.38-.26-.18-.2-.29,0-.44.35-.27.69-.54,1-.82.15-.13.24-.14.43,0,.74.5,1.41,1.08,2.11,1.63a27.57,27.57,0,0,0,2.79,2c.13.08.17.14.13.3C51.21,39.2,51.09,39.72,50.93,40.29ZM56.6,25.42C55,29.53,53.17,33.49,51.74,37.6c-.12.33-.2.35-.49.15-1.6-1.09-3-2.37-4.63-3.54C50.05,31.4,53,28.09,56.6,25.42Zm-11,4.72,6.1-2.9c1-.48,2.07-.94,3.1-1.41a.56.56,0,0,1,.37-.1c-.72.62-1.45,1.21-2.14,1.84-1.32,1.2-2.64,2.42-3.94,3.65-.87.83-1.79,1.6-2.69,2.39-.2.17-.28.09-.35-.13-.28-.95-.56-1.91-.78-2.88C45.24,30.26,45.48,30.22,45.65,30.14Zm-1.91,1.1c.32-.18.63-.39,1-.63a24.45,24.45,0,0,0,1,3.37.24.24,0,0,1-.1.32c-.37.3-.75.59-1.12.9-.21.18-.28.09-.32-.13-.21-1.1-.43-2.2-.65-3.3A.44.44,0,0,1,43.74,31.24ZM39,45.05A93.31,93.31,0,0,1,43,32.57c.22,1.1.38,2.13.66,3.13a.48.48,0,0,1-.08.39C42,39,40.52,42,39,44.94A.87.87,0,0,1,39,45.05ZM38,48.35c1.23-2.44,2.36-4.89,3.62-7.26.8-1.52,1.54-3.05,2.39-4.54.15-.27.24-.28.47-.11.88.68,1.76,1.36,2.65,2a40.74,40.74,0,0,0,3.41,2.31l-2.58,3c-.87,1-1.74,2-2.54,3.12a.74.74,0,0,1-.49.33C42.66,47.57,40.37,48,38,48.35Zm5.24,1.18c-1.19-.31-2.4-.53-3.6-.76,0,0,0,0-.06-.07,1.71-.37,3.45-.59,5.25-.9-.46.59-.88,1.12-1.3,1.67A.24.24,0,0,1,43.26,49.53Zm1,0a11.43,11.43,0,0,1,1.06-1.37c.18-.2.26-.18.4,0s.4.55.65.88Zm6.37-4.59c-1.12,1.25-2.34,2.41-3.49,3.64-.18.19-.29.19-.43,0l-.06-.08c-.27-.39-.78-.76-.75-1.18s.5-.75.79-1.12c1.27-1.62,2.67-3.13,4-4.71a1.77,1.77,0,0,1,1.15-.63c1.08-.17,2.16-.38,3.32-.59C53.55,41.79,52.09,43.35,50.65,44.94Zm4.89-5.33c-1.32.22-2.64.46-4,.71a.52.52,0,0,1,0-.17c.17-.49.09-1.18.49-1.46s1-.2,1.49-.27l2.2-.29c0,.44-.06.86-.09,1.28C55.66,39.49,55.68,39.58,55.54,39.61Z"/></g></g></svg>