<svg xmlns="http://www.w3.org/2000/svg" viewBox="0 0 62.83 62.83"><defs><style>.cls-1{fill:#5e7461;}</style></defs><title>Ресурс 13</title><g id="Слой_2" data-name="Слой 2"><g id="БЛОК_СОСТАВ_" data-name="БЛОК &quot;СОСТАВ&quot;"><path class="cls-1" d="M31.41,62.83A31.42,31.42,0,1,1,62.83,31.41,31.45,31.45,0,0,1,31.41,62.83Zm0-61.67A30.26,30.26,0,1,0,61.67,31.41,30.28,30.28,0,0,0,31.41,1.16ZM24.55,24.57a.12.12,0,0,1-.15.19A27.55,27.55,0,0,1,22,22.5c-.52-.51-1-1-1.58-1.52l-1.18-1a55,55,0,0,1-4.27-4,.12.12,0,0,1,0-.14,1,1,0,0,1,.28-.39,1,1,0,0,1,.42-.21h.08a5.88,5.88,0,0,1,1.19,1c.48.5,1.07,1.17,1.76,2a6.24,6.24,0,0,0,.9.78c.42.32.94.73,1.52,1.26,1.53,1.41,3,2.68,4.34,3.8a33.06,33.06,0,0,0,4,2.82l.9.54c.95.57,1.95,1.18,3,1.8l-.15.19c-1.08-.62-2.08-1.22-3-1.78l-.9-.54a35.55,35.55,0,0,1-4-2.84c-1.38-1.12-2.82-2.39-4.35-3.81a19.21,19.21,0,0,0-1.51-1.25,6.12,6.12,0,0,1-.94-.82c-.68-.84-1.26-1.51-1.74-2a5.53,5.53,0,0,0-1.09-.93.65.65,0,0,0-.27.15.71.71,0,0,0-.19.23,57.13,57.13,0,0,0,4.2,3.9c.44.37.84.71,1.18,1,.55.5,1.07,1,1.59,1.53a27.09,27.09,0,0,0,2.43,2.24ZM34,29.68l1.16.63-.18.16h0l-1.11-.6a1.46,1.46,0,0,1,.16-.19ZM51.67,42.59a4.22,4.22,0,0,0-.52,1.21c0,.19,0,.29.22.29a.49.49,0,0,0,.44-.25,2.32,2.32,0,0,0,.26-.64,2.41,2.41,0,0,1,.08-.25c.1-.29.17-.49-.07-.74a.09.09,0,0,0-.14,0,1.19,1.19,0,0,0-.27.39Zm-.76,1.17a4.48,4.48,0,0,1,.54-1.29,1.66,1.66,0,0,1,.33-.46.3.3,0,0,1,.47,0c.35.35.26.62.13,1,0,.07-.05.15-.08.24A2.41,2.41,0,0,1,52,44a.71.71,0,0,1-.64.36c-.37,0-.51-.2-.46-.57Zm-2.6,1a.2.2,0,0,0,0,.11.09.09,0,0,0,0,0,.18.18,0,0,0,.11,0,.57.57,0,0,0,.27-.08.9.9,0,0,0,.39-.38,1.54,1.54,0,0,0,.15-.63.24.24,0,0,0-.07-.19.25.25,0,0,0-.1-.08H49a.28.28,0,0,0-.16.12c-.07.13-.16.27-.25.44a3.23,3.23,0,0,0-.24.61Zm-.24.16a.56.56,0,0,1,0-.22,3.81,3.81,0,0,1,.25-.66l.27-.46a.55.55,0,0,1,.3-.23.57.57,0,0,1,.26,0,.54.54,0,0,1,.22.15.48.48,0,0,1,.12.36,1.82,1.82,0,0,1-.17.73,1.1,1.1,0,0,1-.51.49.82.82,0,0,1-.37.1.36.36,0,0,1-.24-.07.3.3,0,0,1-.14-.2Zm3,2a3.56,3.56,0,0,0,.62-.52,1.31,1.31,0,0,0,.32-.63.18.18,0,0,0,0-.11,0,0,0,0,0,0,0h-.07a.58.58,0,0,0-.25.14,3.44,3.44,0,0,0-.5.52,1.91,1.91,0,0,0-.26.54l-.06.22s.09,0,.22-.14Zm.8-.36a3.54,3.54,0,0,1-.65.56c-.23.16-.38.21-.49.15s-.13-.22,0-.49A1.84,1.84,0,0,1,51,46.2a4.15,4.15,0,0,1,.55-.57.87.87,0,0,1,.35-.19.36.36,0,0,1,.21,0,.28.28,0,0,1,.15.15.58.58,0,0,1,0,.24,1.53,1.53,0,0,1-.38.75ZM49.33,47a.57.57,0,0,0,0-.22l0,0h0a.22.22,0,0,0-.15.05,1.1,1.1,0,0,0-.4.4,2,2,0,0,0-.23.67.21.21,0,0,0,0,.16h0l0,0h0a.11.11,0,0,0,.1,0,1.63,1.63,0,0,0,.47-.48,1.31,1.31,0,0,0,.2-.56Zm.18-.34a.65.65,0,0,1,.06.36,1.61,1.61,0,0,1-.23.67,1.86,1.86,0,0,1-.54.55.33.33,0,0,1-.28.07.29.29,0,0,1-.13,0,.3.3,0,0,1-.08-.08h0a.46.46,0,0,1-.07-.35,2.4,2.4,0,0,1,.26-.74,1.44,1.44,0,0,1,.49-.49.51.51,0,0,1,.29-.08.33.33,0,0,1,.14,0,.36.36,0,0,1,.1.11Zm-1.46,3.62c-.08.13-.13.18-.12.18s.06,0,.19-.1a1.33,1.33,0,0,0,.43-.32,1.14,1.14,0,0,0,.17-.37v0c0-.07.14,0,.08-.07s0,0-.15.09l0,0a.79.79,0,0,0-.29.21,2.19,2.19,0,0,0-.29.39Zm-.3.35c-.08-.09,0-.24.09-.48a4.37,4.37,0,0,1,.32-.43,1.09,1.09,0,0,1,.37-.26l0,0c.19-.09.28-.13.37-.09s.08.16,0,.35v0a1.16,1.16,0,0,1-.21.45,1.33,1.33,0,0,1-.51.38c-.23.11-.38.14-.46.07ZM51.41,50a1.17,1.17,0,0,1-.4.09A.44.44,0,0,1,50.8,50a.26.26,0,0,1-.1-.2.45.45,0,0,1,0-.25h0a3.2,3.2,0,0,1,.36-.69,1.71,1.71,0,0,1,.47-.46.77.77,0,0,1,.44-.13h0a.49.49,0,0,1,.17.06.3.3,0,0,1,.12.13.51.51,0,0,1,.07.36,1.27,1.27,0,0,1-.29.7,1.6,1.6,0,0,1-.68.47ZM51,49.83a1.13,1.13,0,0,0,.3-.07,1.46,1.46,0,0,0,.58-.4,1,1,0,0,0,.24-.57.36.36,0,0,0,0-.22l0,0-.07,0h0a.56.56,0,0,0-.29.09,1.52,1.52,0,0,0-.4.4,2.75,2.75,0,0,0-.33.64h0a.29.29,0,0,0,0,.14s0,0,0,0l.07,0Zm3.28-6.62a.18.18,0,0,0,0,.11s0,0,0,0h0a.26.26,0,0,0,.15-.05,1.46,1.46,0,0,0,.52-.53,1.09,1.09,0,0,0,.13-.66.25.25,0,0,0,0-.13l0,0A.11.11,0,0,0,55,42a.66.66,0,0,0-.22.13,1.41,1.41,0,0,0-.34.45,2.52,2.52,0,0,0-.17.67Zm-.19.24a.33.33,0,0,1,0-.26,2.57,2.57,0,0,1,.19-.75,1.58,1.58,0,0,1,.4-.53,1.09,1.09,0,0,1,.29-.18.38.38,0,0,1,.23,0,.31.31,0,0,1,.18.16.64.64,0,0,1,.06.22,1.43,1.43,0,0,1-.16.79,1.74,1.74,0,0,1-.61.63.47.47,0,0,1-.3.08.33.33,0,0,1-.14,0,.43.43,0,0,1-.09-.1Zm-1.88-3.37a1.55,1.55,0,0,0,.36-.57,2,2,0,0,0,.12-.55.37.37,0,0,0-.08-.24l-.07-.06h-.05s0,0-.06.06a3.27,3.27,0,0,0-.26.62,5.83,5.83,0,0,0-.15.6.24.24,0,0,0,0,.15l0,0h0a.27.27,0,0,0,.1-.06Zm.59-.48a1.88,1.88,0,0,1-.41.64.43.43,0,0,1-.25.14.41.41,0,0,1-.19,0,.38.38,0,0,1-.14-.14.54.54,0,0,1,0-.32c0-.17.09-.38.16-.61a3.39,3.39,0,0,1,.27-.66.39.39,0,0,1,.22-.19.31.31,0,0,1,.21,0,.45.45,0,0,1,.15.13A.51.51,0,0,1,53,39a2.15,2.15,0,0,1-.13.62Zm1.89-.27a1,1,0,0,0,.29-.52,2.11,2.11,0,0,0,0-.77.17.17,0,0,0-.06-.11.42.42,0,0,0-.13-.07.17.17,0,0,0-.12,0,.13.13,0,0,0-.07.06A2.61,2.61,0,0,0,54.35,39a1.49,1.49,0,0,0,0,.17.35.35,0,0,0,0,.21s0,0,0,0h.09a.39.39,0,0,0,.23-.14Zm.53-.46a1.39,1.39,0,0,1-.36.64.75.75,0,0,1-.35.2.38.38,0,0,1-.24,0,.35.35,0,0,1-.17-.17.53.53,0,0,1,0-.34,1,1,0,0,1,0-.17,2.83,2.83,0,0,1,.35-1.22.36.36,0,0,1,.2-.17.5.5,0,0,1,.27,0,.61.61,0,0,1,.22.13.43.43,0,0,1,.15.27,2.32,2.32,0,0,1-.06.85Zm-1.83-2.69a.25.25,0,0,0,0,.1l0,0h.09a.42.42,0,0,0,.14-.09.85.85,0,0,0,.2-.45,1.12,1.12,0,0,0,0-.56.28.28,0,0,0-.14-.16l-.09,0h0c0,.06,0,.12,0,.19a3.57,3.57,0,0,0-.14,1Zm-.18.23a.44.44,0,0,1-.07-.22,3.83,3.83,0,0,1,.15-1c0-.07,0-.14,0-.2a.21.21,0,0,1,.1-.15.25.25,0,0,1,.19,0,.43.43,0,0,1,.18.06.53.53,0,0,1,.26.29,1.49,1.49,0,0,1,.06.68,1,1,0,0,1-.26.57.56.56,0,0,1-.25.16.41.41,0,0,1-.22,0,.29.29,0,0,1-.19-.14Zm-4,7a1.76,1.76,0,0,1-.15-.32.45.45,0,0,1,0-.19.12.12,0,0,0-.19-.13,2.91,2.91,0,0,0-1,1,2,2,0,0,0-.23,1.27.12.12,0,0,0,.14.11l0,0a1.3,1.3,0,0,1,.27-.1l.13,0a.11.11,0,0,0,.13-.1.12.12,0,0,0-.1-.14.5.5,0,0,0-.23,0l-.16.06a1.67,1.67,0,0,1,.22-1,2.54,2.54,0,0,1,.79-.82s0,.05,0,.07a1.67,1.67,0,0,0,.17.37.12.12,0,0,0,.17,0,.12.12,0,0,0,0-.16Zm-.17-.5a.11.11,0,0,1-.16.07.12.12,0,0,1-.07-.15c0-.1-.07-.3-.35-.58a7.58,7.58,0,0,0-1.24-1h0a10.27,10.27,0,0,1-1.14-.84,13.3,13.3,0,0,0-1.64-1.13c-.82-.51-1.89-1.15-3.22-1.9-1-.56-1.82-1-2.54-1.49s-1.33-.82-1.84-1.13a31.49,31.49,0,0,0-2.91-1.62l.12-.21c1,.48,1.94,1,2.92,1.62.49.31,1.09.69,1.83,1.13s1.58.94,2.54,1.49c1.33.76,2.41,1.39,3.23,1.9a13.58,13.58,0,0,1,1.67,1.16,9.93,9.93,0,0,0,1.12.82h0a8.09,8.09,0,0,1,1.28,1c.34.36.47.65.4.83ZM32.56,32.5l-.23-.1.09-.23.29.13-.15.2Zm-1-.43-2.48-1-1.66-.68c-1.5-.62-3-1.29-4.59-2-2.68-1.17-5.46-2.38-8.41-3.53a17.87,17.87,0,0,1-3.07-1.64c-.7-.43-1.19-.74-1.37-.68l0,0a2.23,2.23,0,0,0-.18.61,1.51,1.51,0,0,0,0,.64.21.21,0,0,0,.06.1c.52.28,1.21.57,2.07.93s1.78.75,2.89,1.26a9.3,9.3,0,0,0,1.49.53,5.43,5.43,0,0,1,1.3.5,7.91,7.91,0,0,0,1.36.63c.53.2,1.15.4,1.85.61a37.49,37.49,0,0,1,4.51,1.77c1.7.76,3.62,1.7,5.76,2.75l.15.08a2.17,2.17,0,0,1-.07.24l-.19-.1c-2.13-1.05-4-2-5.75-2.75a37.69,37.69,0,0,0-4.48-1.76c-.7-.21-1.32-.41-1.87-.61a8.75,8.75,0,0,1-1.4-.66,5.56,5.56,0,0,0-1.23-.47,9.76,9.76,0,0,1-1.53-.54c-1.1-.51-2.07-.92-2.89-1.26s-1.55-.65-2.08-.93a.41.41,0,0,1-.18-.24,1.7,1.7,0,0,1,0-.75,2.38,2.38,0,0,1,.2-.69.35.35,0,0,1,.17-.17c.29-.09.82.24,1.57.71a17.81,17.81,0,0,0,3,1.61C17.47,25.77,20.26,27,23,28.16c1.55.68,3.07,1.35,4.58,2l1.66.68c.81.33,1.64.66,2.48,1l-.09.22Zm.39,1.3h0l-.06.1,0-.11Zm1.44.79q1.3.75,2.43,1.53a29.88,29.88,0,0,1,3.55,2.89c.31.29.67.59,1.08.93a24.56,24.56,0,0,1,2.83,2.67,15.55,15.55,0,0,0,2,2,5.09,5.09,0,0,0,1.77,1,.89.89,0,0,0,.33.06.4.4,0,0,0,.24-.15.12.12,0,0,1,.17,0,.12.12,0,0,1,0,.17.6.6,0,0,1-.39.24,1.35,1.35,0,0,1-.43-.06,5.5,5.5,0,0,1-1.85-1,16.75,16.75,0,0,1-2-2,23.29,23.29,0,0,0-2.8-2.64c-.41-.34-.77-.65-1.08-.94a29.36,29.36,0,0,0-3.53-2.87c-.74-.51-1.53-1-2.39-1.51,0-.08.07-.15.1-.22Zm16,12.42a.13.13,0,0,1,0,.17.12.12,0,0,1-.17,0,1.58,1.58,0,0,1-.25-.48A1.43,1.43,0,0,1,49,46a1.63,1.63,0,0,0-.51.3,2.1,2.1,0,0,0-.54.73.12.12,0,0,1-.21-.11,2.43,2.43,0,0,1,.59-.81,2.34,2.34,0,0,1,.75-.4h0a.12.12,0,0,1,.11.13,1,1,0,0,0,.06.37,1.42,1.42,0,0,0,.22.42Zm-2,1.42a.11.11,0,0,1-.12-.12.12.12,0,0,1,.12-.12,1.81,1.81,0,0,1,.49.07,3.42,3.42,0,0,1,.54.18.12.12,0,0,1,.07.16.12.12,0,0,1-.16.06,4.35,4.35,0,0,0-.51-.17,1.77,1.77,0,0,0-.43-.06Zm1.71-2.13a.5.5,0,0,0,.12-.51,1.1,1.1,0,0,0-.44-.46.13.13,0,0,0-.17,0,.12.12,0,0,0,0,.17.88.88,0,0,1,.35.35.23.23,0,0,1-.07.25.12.12,0,0,0,.18.17ZM47.35,47.8a.12.12,0,0,1,.19.16.39.39,0,0,1-.49.14,2.36,2.36,0,0,1-.54-.38c-.15-.13-.43-.32-.82-.59-.76-.52-1.95-1.33-3.47-2.56a21.08,21.08,0,0,1-1.92-1.74,13.78,13.78,0,0,1-1.42-1.74A19.91,19.91,0,0,0,36.32,38a16.14,16.14,0,0,0-3-2.35L33,35.4l.08-.24.39.24a16.36,16.36,0,0,1,3.07,2.39A20.56,20.56,0,0,1,39.09,41a12.26,12.26,0,0,0,1.39,1.7,19.41,19.41,0,0,0,1.9,1.72c1.51,1.22,2.69,2,3.45,2.55.39.27.68.47.84.6a1.79,1.79,0,0,0,.47.34.16.16,0,0,0,.21-.07ZM32.24,35l0,0a1.47,1.47,0,0,1,.1-.22h0a1.55,1.55,0,0,0-.08.23Zm-1.31-.74c-1.14-.63-2.39-1.29-3.75-2C25.06,31.23,22.68,30.14,20,29a74.55,74.55,0,0,0-9.63-3.23c-1.12-.31-2-.55-2.66-.8a.12.12,0,0,1-.08-.11,7.82,7.82,0,0,1,0-.84,1.94,1.94,0,0,1,.16-.68.11.11,0,0,1,.09-.07h0a3.87,3.87,0,0,1,1.24.13l.53.09a.13.13,0,0,1,.1.14.12.12,0,0,1-.14.1l-.54-.1A4.84,4.84,0,0,0,8,23.54a2,2,0,0,0-.11.54c0,.22,0,.46,0,.73.64.24,1.5.47,2.57.77a75.69,75.69,0,0,1,9.66,3.23c2.66,1.11,5,2.2,7.17,3.25,1.33.66,2.56,1.31,3.69,1.93,0,.09,0,.17-.05.25ZM9.71,23.1a8.41,8.41,0,0,1-1.49-.5,15.7,15.7,0,0,1-1.73-.92.14.14,0,0,0-.14,0,1.22,1.22,0,0,0-.44.72,2.69,2.69,0,0,0,0,1.09.1.1,0,0,0,.06.09c.32.15.62.27.9.38l.84.3a.12.12,0,0,0,.15-.08A.11.11,0,0,0,7.8,24L7,23.74c-.26-.1-.54-.21-.83-.34a2.45,2.45,0,0,1,0-.94.89.89,0,0,1,.29-.52,16.31,16.31,0,0,0,1.69.88,8.93,8.93,0,0,0,1.53.52.12.12,0,0,0,.05-.24ZM48.92,49.34a1.1,1.1,0,0,1-.28-.3.47.47,0,0,1-.07-.25.12.12,0,0,0-.11-.13h0a2.09,2.09,0,0,0-1.11.61,1.52,1.52,0,0,0-.34,1.1.11.11,0,0,0,.12.11,1.79,1.79,0,0,1,.73.16.12.12,0,1,0,.1-.22,2.39,2.39,0,0,0-.71-.18,1.2,1.2,0,0,1,.29-.81,1.76,1.76,0,0,1,.84-.5,1.09,1.09,0,0,0,.09.23,1.35,1.35,0,0,0,.33.36.12.12,0,0,0,.16-.19Zm-.43-.44c.42-.13.53-.41.35-.83a.11.11,0,0,0-.15-.06.13.13,0,0,0-.07.16c.11.26,0,.42-.2.5a.12.12,0,0,0-.08.15.12.12,0,0,0,.15.08ZM47,50.31a.12.12,0,0,1,.17,0,.13.13,0,0,1,0,.17.5.5,0,0,1-.5.28,1.41,1.41,0,0,1-.64-.32c-.34-.25-.81-.68-1.45-1.27s-1.31-1.21-2.21-2l-.74-.63a39.48,39.48,0,0,1-5.84-5.82,20.46,20.46,0,0,0-3.08-3.19l-.2-.16c0-.09,0-.19,0-.28l.32.26A20,20,0,0,1,36,40.54a39,39,0,0,0,5.81,5.78l.74.64c.9.78,1.63,1.45,2.22,2s1.09,1,1.43,1.26a1.23,1.23,0,0,0,.52.27.26.26,0,0,0,.26-.17ZM31.8,36.78l-.39-.27c0-.06.08-.14.12-.21l.32.22a2.38,2.38,0,0,0-.05.26ZM30.65,36a18.78,18.78,0,0,0-2.19-1.14c-.87-.39-1.69-.76-2.46-1.13s-1.48-.74-2.14-1.12a7.59,7.59,0,0,0-1.65-.74,10.05,10.05,0,0,0-1.87-.4A4.75,4.75,0,0,1,18.71,31a12.31,12.31,0,0,1-1.62-1,6.57,6.57,0,0,0-1.74-.83,19.77,19.77,0,0,0-2.75-.64,2.86,2.86,0,0,0-.35,0,5.86,5.86,0,0,1-1.42-.21A7,7,0,0,0,9.65,28a3.22,3.22,0,0,0-.94,0A.11.11,0,0,1,8.59,28a1.67,1.67,0,0,1-.27-.65,1,1,0,0,1,.06-.61.12.12,0,0,1,.11-.07,7.57,7.57,0,0,1,1.63.12l.71.09c.37,0,.73.1,1.08.17s.68.16,1,.25l.09,0a45.34,45.34,0,0,1,5.63,1.86c1.19.47,2.46.94,3.83,1.4s2.83.89,4.39,1.3A.12.12,0,0,1,27,32a.12.12,0,0,1-.15.08c-1.56-.41-3-.85-4.4-1.3s-2.65-.93-3.84-1.41A46.67,46.67,0,0,0,13,27.53l-.09,0c-.33-.09-.67-.17-1-.24s-.69-.13-1.06-.17L10.09,27a10.13,10.13,0,0,0-1.51-.13.77.77,0,0,0,0,.4,1.31,1.31,0,0,0,.19.49,3.57,3.57,0,0,1,.93,0,7.26,7.26,0,0,1,1.21.25,5.91,5.91,0,0,0,1.37.21,3.67,3.67,0,0,1,.38,0,19.83,19.83,0,0,1,2.78.65,6.73,6.73,0,0,1,1.82.86,11.3,11.3,0,0,0,1.58,1,4.72,4.72,0,0,0,1.55.48,10.78,10.78,0,0,1,1.92.41,8.85,8.85,0,0,1,1.7.76c.65.38,1.35.75,2.11,1.11s1.58.74,2.45,1.12a19.35,19.35,0,0,1,2.13,1.11l0,.26ZM8.48,27.24l-.82-.18L7.07,27a3.08,3.08,0,0,1,0-.8,1.71,1.71,0,0,1,.16-.58c.72.18,1.7.39,2.92.63s2.83.55,4.66.88a.12.12,0,0,0,.14-.09.12.12,0,0,0-.1-.14c-1.82-.34-3.37-.63-4.65-.89s-2.28-.47-3-.64A.12.12,0,0,0,7,25.4a2.07,2.07,0,0,0-.22.74,3.41,3.41,0,0,0,0,.95.11.11,0,0,0,.1.11l.68.1.8.18a.12.12,0,0,0,.14-.09.12.12,0,0,0-.08-.15Zm22.15,8.91,0-.25q-2.71-.78-5.2-1.74a30.16,30.16,0,0,0-2.84-1c-1.07-.34-2.27-.66-3.59-1h0c-2-.4-3.63-.68-4.88-.85a12.47,12.47,0,0,0-2.57-.15,1.78,1.78,0,0,1-.21-.58,1.26,1.26,0,0,1,0-.58.12.12,0,0,0-.08-.15.12.12,0,0,0-.15.08,1.47,1.47,0,0,0,0,.69,2,2,0,0,0,.28.72.14.14,0,0,0,.12.07,11.32,11.32,0,0,1,2.59.14c1.24.17,2.86.45,4.86.85,1.31.31,2.5.64,3.56,1a28.79,28.79,0,0,1,2.82,1h0q2.52,1,5.26,1.77ZM16.69,29.42c-1.56-.28-3.2-.51-4.94-.72s-3.56-.37-5.49-.5a.11.11,0,0,0-.12.11v0a5.25,5.25,0,0,0,.24,1.21.13.13,0,0,0,.11.08q3.39.25,6.73.7c2.24.3,4.45.66,6.65,1.09a.12.12,0,1,0,.05-.23c-2.21-.44-4.43-.8-6.66-1.1s-4.43-.53-6.67-.7a5.4,5.4,0,0,1-.2-.93c1.86.13,3.64.3,5.33.49s3.37.44,4.92.72a.12.12,0,0,0,.14-.1.11.11,0,0,0-.09-.14ZM52.27,42.06a.12.12,0,0,1,0,.17.11.11,0,0,1-.16,0c-.09-.13-.17-.25-.25-.35a2.49,2.49,0,0,0-.22-.23.12.12,0,0,1,0-.17.12.12,0,0,1,.17,0,3.18,3.18,0,0,1,.25.26c.08.11.17.23.26.37Zm-1.17-.14a.12.12,0,1,1,.18.16,2.29,2.29,0,0,0-.56,2.13l.21-.07.34-.06a.12.12,0,0,1,.13.12.13.13,0,0,1-.12.13,1.29,1.29,0,0,0-.61.17h0a.12.12,0,0,1-.13-.11v0a2.58,2.58,0,0,1,.61-2.45Zm-.59,2.4c-.2.34-.58.31-1.13-.08a.12.12,0,0,0-.17,0,.11.11,0,0,0,0,.16c.69.5,1.18.51,1.48,0a.13.13,0,0,0,0-.17.14.14,0,0,0-.17,0Zm1.27-2.73a.12.12,0,0,1-.17,0,.14.14,0,0,1,0-.17.4.4,0,0,0,.05-.48,1.69,1.69,0,0,0-.68-.55c-.65-.35-1.5-.75-2.57-1.21s-2.34-1-3.83-1.59a19.74,19.74,0,0,1-2-1c-.75-.42-1.63-.91-2.65-1.41l-.2-.09c-.59-.28-1.73-.84-3.43-1.76-.6-.33-1.23-.67-1.88-1l.14-.2q1,.49,1.86,1c1.7.92,2.83,1.47,3.42,1.75L40,35c1,.5,1.92,1,2.66,1.41a19.38,19.38,0,0,0,1.94,1c1.49.6,2.77,1.12,3.84,1.59s1.93.87,2.58,1.22a1.89,1.89,0,0,1,.78.64.64.64,0,0,1-.06.74Zm-18.6-9.88-.43-.21.12-.21.48.24-.17.18ZM32,31.15l-.67-.32c-1.78-.84-3.71-1.66-5.77-2.45l-.91-.33a24.57,24.57,0,0,1-3.37-1.44,14.39,14.39,0,0,0-3.26-1.31l-.36-.1A16.38,16.38,0,0,1,15,24.13a16.24,16.24,0,0,1-1.74-1,3.6,3.6,0,0,0-.74-.35,3.08,3.08,0,0,1-.89-.44c-.24-.18-.47-.38-.68-.57a4.52,4.52,0,0,0-1.17-.85A8.26,8.26,0,0,0,9,20.59c-.45-.14-.77-.25-.84-.48a1.23,1.23,0,0,1,.07-.85.83.83,0,0,1,.13-.18.31.31,0,0,1,.16-.1.18.18,0,0,1,.16,0l3.12,1.58c1.6.8,2.74,1.38,3.43,1.77l.19.11A53.47,53.47,0,0,0,22.87,26c.77.29,2.1.84,4,1.68,1.42.63,3.17,1.43,5.24,2.42l.47.22-.13.2-.45-.2c-2-1-3.8-1.78-5.23-2.42-1.88-.84-3.2-1.38-4-1.68a54.1,54.1,0,0,1-7.51-3.52l-.19-.11c-.68-.39-1.83-1-3.42-1.76L8.55,19.21l-.05,0a.36.36,0,0,0-.08.12.92.92,0,0,0-.05.67c0,.11.3.2.67.32s.54.17.85.3a5,5,0,0,1,1.23.89c.21.19.43.38.67.56a3,3,0,0,0,.82.41,3.35,3.35,0,0,1,.79.37,17,17,0,0,0,1.72,1A15.87,15.87,0,0,0,17.76,25l.35.1a14.4,14.4,0,0,1,3.32,1.33,24,24,0,0,0,3.33,1.42l.91.34c2.08.78,4,1.61,5.79,2.45l.68.33-.11.21Zm1.27-.54.73.31-.22.17-.65-.28c.05-.06.09-.13.14-.2Zm1.89.81c.85.37,1.74.77,2.65,1.25a18.39,18.39,0,0,0,1.88.84c.73.28,1.56.57,2.52.85l1,.34a15.74,15.74,0,0,0,2.35.63,14.07,14.07,0,0,1,2.26.7c.86.31,1.9.69,3.13,1l.28.08h0c.6.17.9.25.84.84a.12.12,0,0,1-.14.11.14.14,0,0,1-.11-.13c.05-.39-.19-.46-.66-.58h0a1.72,1.72,0,0,1-.28-.08c-1.25-.36-2.29-.74-3.15-1.05a13.93,13.93,0,0,0-2.22-.69,15.94,15.94,0,0,1-2.39-.64l-1-.34c-1-.28-1.81-.57-2.54-.85a18.69,18.69,0,0,1-1.91-.86c-.92-.48-1.83-.89-2.7-1.27a1.54,1.54,0,0,1,.17-.19ZM52,40.1a3.5,3.5,0,0,0-.48.06l-.26.07A2.93,2.93,0,0,1,51.41,39a1.79,1.79,0,0,1,.58-.82,1.59,1.59,0,0,0,.13.22,1.16,1.16,0,0,0,.23.26.12.12,0,0,0,.17,0,.13.13,0,0,0,0-.17,1,1,0,0,1-.18-.21,1.58,1.58,0,0,1-.17-.32l0,0a.11.11,0,0,0-.16,0,2.07,2.07,0,0,0-.79,1A3.45,3.45,0,0,0,51,40.4v0a.14.14,0,0,0,.16.07,1.79,1.79,0,0,1,.37-.11,3.06,3.06,0,0,1,.45-.06.11.11,0,0,0,.11-.12A.12.12,0,0,0,52,40.1ZM12.78,22.69a1.87,1.87,0,0,0-.23.52h0a2,2,0,0,0-.06.6.12.12,0,0,0,.12.12.12.12,0,0,0,.12-.13,1.8,1.8,0,0,1,0-.53h0a1.46,1.46,0,0,1,.2-.46.13.13,0,0,0,0-.17.13.13,0,0,0-.17,0ZM53.65,34.81l-.3-.22-.2-.18a.12.12,0,0,0-.17,0h0a1.8,1.8,0,0,0-.58,1.14,2.08,2.08,0,0,0,.36,1.3.12.12,0,0,0,.16,0l.28-.16.35-.2a.12.12,0,0,0,.05-.16.13.13,0,0,0-.17,0l-.35.19-.18.1a1.85,1.85,0,0,1-.26-1,1.58,1.58,0,0,1,.44-.92l.13.11.3.23a.12.12,0,0,0,.17,0,.12.12,0,0,0,0-.17Zm-.91,1.95a.6.6,0,0,1-.5.38A3.31,3.31,0,0,1,51,37.08a.12.12,0,0,0-.14.09.13.13,0,0,0,.1.15,3.36,3.36,0,0,0,1.31.06.82.82,0,0,0,.67-.54.11.11,0,0,0-.07-.15.11.11,0,0,0-.15.07Zm.44-2.25a.11.11,0,0,1-.13.11.12.12,0,0,1-.11-.13q0-.24-.39-.42a4.27,4.27,0,0,0-1.38-.28,9.84,9.84,0,0,1-1.23-.17c-.4-.08-.8-.18-1.19-.29-.86-.23-2.21-.45-4-.75s-4-.64-6.66-1.15a19.93,19.93,0,0,1-2.25-.57l.23-.18a20.68,20.68,0,0,0,2.06.51c2.65.51,4.88.87,6.66,1.15s3.21.52,4.07.75c.39.11.78.21,1.18.29a9.37,9.37,0,0,0,1.2.17,4.56,4.56,0,0,1,1.46.3c.37.16.55.39.53.66Zm-18.37-4-1.12-.44.16-.2c.41.17.83.34,1.26.49l-.11.1h0l-.2.05Zm-1.88-.78c-.55-.25-1.09-.52-1.66-.79l-1.75-.83c-2-.93-4.2-2-6.55-3.19h0c-2.35-1.21-4.88-2.57-7.55-4.12-.89-.52-1.75-1.09-2.58-1.68S11.22,18,10.42,17.36a.88.88,0,0,0-.28.26A1,1,0,0,0,10,18a35.11,35.11,0,0,0,3.15,2.29,30.63,30.63,0,0,0,3.45,1.95c1.06.52,2.31,1.17,3.73,2s2.83,1.6,4.47,2.58a.14.14,0,0,1,0,.17.13.13,0,0,1-.17,0c-1.64-1-3.13-1.84-4.46-2.58S17.57,23,16.5,22.43a34.89,34.89,0,0,1-3.48-2,36.64,36.64,0,0,1-3.21-2.35A.16.16,0,0,1,9.76,18a1.11,1.11,0,0,1,.18-.52,1.19,1.19,0,0,1,.42-.38.12.12,0,0,1,.14,0c.81.61,1.63,1.23,2.47,1.82s1.68,1.15,2.56,1.66c2.67,1.54,5.19,2.91,7.54,4.12h0c2.36,1.21,4.54,2.26,6.54,3.18l1.76.84c.58.28,1.14.55,1.71.81l-.16.2ZM12.65,20.05a1.68,1.68,0,0,0-.3.43,1.48,1.48,0,0,0-.15.48.12.12,0,1,0,.24,0,1.52,1.52,0,0,1,.12-.4,1.84,1.84,0,0,1,.27-.37.12.12,0,0,0,0-.17.14.14,0,0,0-.18,0Zm16.79,7.76c-1.37-1-2.48-1.79-3.38-2.37a11.94,11.94,0,0,0-2.16-1.16,9.42,9.42,0,0,1-2.14-1.19c-.8-.55-1.67-1.25-2.63-2s-1.86-1.56-2.61-2.2a26.34,26.34,0,0,0-3.32-2.61.14.14,0,0,0-.14,0,2.41,2.41,0,0,0-.32.32,1.18,1.18,0,0,0-.19.31.11.11,0,0,0,0,.12,12.56,12.56,0,0,0,1.77,1.66c.72.57,1.56,1.17,2.52,1.82.72.49,1.76,1.38,3.16,2.58l.91.79a.12.12,0,0,0,.17,0,.13.13,0,0,0,0-.18l-.92-.78c-1.4-1.2-2.44-2.1-3.18-2.6-.94-.64-1.78-1.24-2.49-1.81a12.68,12.68,0,0,1-1.7-1.56.68.68,0,0,1,.13-.18,1.7,1.7,0,0,1,.23-.24A29,29,0,0,1,16.37,19c.74.63,1.61,1.37,2.61,2.2s1.84,1.49,2.64,2.05a9.71,9.71,0,0,0,2.2,1.22,11.2,11.2,0,0,1,2.11,1.14c.9.58,2,1.36,3.37,2.36a.12.12,0,1,0,.14-.2ZM50.77,47.1l-.46.18-.22.07a1.38,1.38,0,0,1,.19-.62,6.83,6.83,0,0,1,.89-1.18.12.12,0,0,0,0-.17.12.12,0,0,0-.17,0,6.59,6.59,0,0,0-.93,1.23,1.26,1.26,0,0,0-.2.9.13.13,0,0,0,.15.1l.37-.11.48-.18a.12.12,0,0,0,.06-.16.12.12,0,0,0-.16-.07Zm-.84.3a.42.42,0,0,1-.27.07.34.34,0,0,1-.22-.15.12.12,0,1,0-.19.15.57.57,0,0,0,.37.24.69.69,0,0,0,.44-.11.13.13,0,0,0,0-.16.12.12,0,0,0-.17,0Zm2.15-1.81a2.73,2.73,0,0,0,.08-.34,1.41,1.41,0,0,0,0-.2.39.39,0,0,0,.15-.51,1.31,1.31,0,0,0-.63-.49.12.12,0,0,0-.16.06.11.11,0,0,0,.06.16c.28.14.46.26.51.38s0,.16-.13.25a.11.11,0,0,0,0,.12.66.66,0,0,1,0,.2,2.11,2.11,0,0,1-.07.3.12.12,0,0,0,.07.15.12.12,0,0,0,.16-.08ZM51,49.82a4.44,4.44,0,0,0-.59.08l-.29.07a1.87,1.87,0,0,1,.33-.86,4.17,4.17,0,0,1,1-1,.11.11,0,0,0,0-.16.12.12,0,0,0-.17,0A4.26,4.26,0,0,0,50.2,49a2.18,2.18,0,0,0-.39,1.16h0s0,0,0,0a.14.14,0,0,0,.16.07,2.79,2.79,0,0,1,.43-.13l.56-.07a.13.13,0,0,0,.11-.13.12.12,0,0,0-.13-.11Zm-1.12.27-.06.08a.25.25,0,0,1-.2.09.61.61,0,0,1-.33-.1,2.76,2.76,0,0,1-.42-.31.12.12,0,0,0-.17,0,.12.12,0,0,0,0,.17,2.49,2.49,0,0,0,.47.34.86.86,0,0,0,.45.14.53.53,0,0,0,.37-.18A.6.6,0,0,0,50,50.2.12.12,0,0,0,50,50a.12.12,0,0,0-.16.05Zm2.37-1.72c0-.15-.07-.31-.1-.46s-.05-.26-.08-.38a.6.6,0,0,0,.11-.12.34.34,0,0,0,0-.22.48.48,0,0,0-.09-.21,1.43,1.43,0,0,0-.44-.35.13.13,0,0,0-.17,0,.12.12,0,0,0,.05.16,1.39,1.39,0,0,1,.37.29.18.18,0,0,1,0,.09.17.17,0,0,1,0,.07l-.1.1a.14.14,0,0,0,0,.11l.09.46c0,.15.06.31.1.47a.14.14,0,0,0,.15.09.12.12,0,0,0,.09-.15ZM55,37.66a1.86,1.86,0,0,1-.28-.29.93.93,0,0,1-.15-.24.12.12,0,0,0-.16-.07l0,0a2.25,2.25,0,0,0-.67.8,3.7,3.7,0,0,0-.27,1.4.12.12,0,0,0,.12.12.11.11,0,0,0,.12-.11A3.51,3.51,0,0,1,53.92,38a1.76,1.76,0,0,1,.5-.62l.11.16a1.84,1.84,0,0,0,.31.32.12.12,0,0,0,.16-.18Zm-.43-.46c.12-.45-.14-.77-.78-1a.12.12,0,0,0-.15.08.13.13,0,0,0,.08.16c.49.15.7.37.62.67a.12.12,0,0,0,.09.15.11.11,0,0,0,.14-.09Zm-.26,2.29c-.17.12-.32.24-.44.34a2.81,2.81,0,0,0-.29.26.13.13,0,0,0,0,0,.41.41,0,0,1-.4.31,2.12,2.12,0,0,1-1-.3.12.12,0,0,0-.16.05.11.11,0,0,0,0,.16,2.12,2.12,0,0,0,1.08.33.62.62,0,0,0,.61-.45A3.09,3.09,0,0,1,54,40l.43-.32a.14.14,0,0,0,0-.17.13.13,0,0,0-.17,0Zm1,2.33c-.12-.17-.21-.32-.29-.45l-.16-.26A1,1,0,0,0,55,41a.51.51,0,0,0,0-.42.84.84,0,0,0-.27-.38,2.52,2.52,0,0,0-.65-.41.12.12,0,0,0-.16.05A.13.13,0,0,0,54,40a2.52,2.52,0,0,1,.59.37.61.61,0,0,1,.2.28.29.29,0,0,1,0,.24.8.8,0,0,1-.09.14.12.12,0,0,0,0,.14l.21.35.29.45a.13.13,0,0,0,.17,0,.13.13,0,0,0,0-.17Zm-1,1.51-.46.05-.33,0a.11.11,0,0,0-.09.07.31.31,0,0,1-.35.21,2,2,0,0,1-.82-.46.12.12,0,0,0-.17,0,.12.12,0,0,0,0,.17A2.23,2.23,0,0,0,53,44a.51.51,0,0,0,.58-.29l.26,0,.45-.06a.11.11,0,0,0,.11-.13.13.13,0,0,0-.13-.11Zm-.82-.3a2.63,2.63,0,0,1,1-1.5.12.12,0,0,0,0-.17.11.11,0,0,0-.16,0A3,3,0,0,0,53.23,43a.12.12,0,0,0,.23.07Zm-5.75,1.23a1.58,1.58,0,0,1-.68.05,1.68,1.68,0,0,1-.65-.25.12.12,0,1,0-.13.2,1.83,1.83,0,0,0,.75.29,1.75,1.75,0,0,0,.78-.06.12.12,0,0,0,.08-.15.12.12,0,0,0-.15-.08Zm.29-.58a2.76,2.76,0,0,1-.47-.1,1.43,1.43,0,0,1-.37-.19.13.13,0,0,0-.17,0,.11.11,0,0,0,0,.16,1.93,1.93,0,0,0,.43.22,2.65,2.65,0,0,0,.52.11.12.12,0,0,0,0-.24Zm.57-.51a2.3,2.3,0,0,0-.23-.28,1.33,1.33,0,0,0-.24-.19.13.13,0,0,0-.17,0,.12.12,0,0,0,0,.16l.19.15a1.29,1.29,0,0,1,.2.25.12.12,0,0,0,.17,0,.12.12,0,0,0,0-.17Zm2-.18a1.84,1.84,0,0,1-.51-.1,2.75,2.75,0,0,1-.5-.27.12.12,0,0,0-.17,0,.12.12,0,0,0,0,.17,2,2,0,0,0,.56.29,1.94,1.94,0,0,0,.58.12.11.11,0,0,0,.12-.11A.12.12,0,0,0,50.6,43Zm.28-.61-.45-.2-.19-.09a.12.12,0,1,0-.11.21l.2.1.45.2a.12.12,0,0,0,.1-.22Zm-7.11-14.2h0a7.11,7.11,0,0,0,2-1.81c.42-.58.57-1.11.36-1.45s-.75-.43-1.45-.32a7.37,7.37,0,0,0-2.54,1h0a7.17,7.17,0,0,0-2,1.82c-.41.58-.56,1.11-.35,1.44s.74.44,1.45.33a7.18,7.18,0,0,0,2.53-1Zm.14.21a7.54,7.54,0,0,1-2.63,1.05c-.81.13-1.43,0-1.7-.43S39.47,28,40,27.3a7.26,7.26,0,0,1,2.12-1.89h0a7.51,7.51,0,0,1,2.63-1.06c.8-.13,1.43,0,1.7.44s.1,1.05-.37,1.71a7.55,7.55,0,0,1-2.12,1.89Zm0,0a7.56,7.56,0,0,0,1.29-.59q.73-.4,1.8-1.11A5.53,5.53,0,0,0,48.72,25a1.45,1.45,0,0,0-1.44-2.33,5.6,5.6,0,0,0-2.34.79c-.45.26-.91.56-1.39.89s-1,.71-1.49,1.11a.12.12,0,0,0,0,.17.12.12,0,0,0,.17,0c.52-.39,1-.76,1.49-1.1s.93-.63,1.37-.88a5.25,5.25,0,0,1,2.23-.75,1.35,1.35,0,0,1,1.33.53,1.39,1.39,0,0,1-.11,1.43,5.28,5.28,0,0,1-1.68,1.66c-.7.47-1.29.83-1.78,1.1a7.49,7.49,0,0,1-1.24.57.11.11,0,0,0-.08.14.12.12,0,0,0,.15.09ZM40.65,16.2v0a7.17,7.17,0,0,0-.78,2.62c0,.71.11,1.24.46,1.41s.87,0,1.41-.49a7.4,7.4,0,0,0,1.62-2.21h0a7.22,7.22,0,0,0,.78-2.62c0-.72-.11-1.24-.46-1.42s-.87,0-1.4.49a7.11,7.11,0,0,0-1.62,2.21Zm-.22-.1a7.35,7.35,0,0,1,1.68-2.29c.61-.53,1.22-.75,1.67-.53s.64.84.59,1.65a7.33,7.33,0,0,1-.81,2.72,7.5,7.5,0,0,1-1.67,2.29c-.62.53-1.22.75-1.67.53s-.65-.84-.6-1.65a7.38,7.38,0,0,1,.81-2.72Zm0,0a6.71,6.71,0,0,0-.78,1.18c-.28.49-.6,1.12-1,1.89a5.42,5.42,0,0,0-.57,2.41,1.44,1.44,0,0,0,2.45,1.21,5.31,5.31,0,0,0,1.57-1.9c.25-.46.48-.95.71-1.49s.45-1.11.69-1.73a.12.12,0,0,0-.07-.15.12.12,0,0,0-.16.07c-.23.61-.45,1.18-.68,1.71s-.46,1-.7,1.47a5.15,5.15,0,0,1-1.5,1.82,1.2,1.2,0,0,1-2.06-1,5.16,5.16,0,0,1,.54-2.3c.35-.77.67-1.39.94-1.87a6.68,6.68,0,0,1,.75-1.14.12.12,0,0,0-.18-.16Zm-4.33,6.12h0a6.26,6.26,0,0,1,1.65,2.05,1.61,1.61,0,0,1,0,1.7v0a1.61,1.61,0,0,1-1.68.26A6.23,6.23,0,0,1,33.81,25h0a6.36,6.36,0,0,1-1.65-2.05,1.61,1.61,0,0,1,0-1.71,1.61,1.61,0,0,1,1.69-.27,6.34,6.34,0,0,1,2.3,1.27Zm-.15.2h0a6,6,0,0,0-2.21-1.23c-.64-.17-1.18-.12-1.44.2s-.23.84,0,1.45a6.13,6.13,0,0,0,1.59,2h0A6,6,0,0,0,36.17,26a1.41,1.41,0,0,0,1.44-.19h0c.27-.31.23-.85,0-1.45a6,6,0,0,0-1.59-2Zm.77,3.7A7.32,7.32,0,0,1,33,25.65a6.58,6.58,0,0,1-2.81-2.29,1.74,1.74,0,0,0-.65-.55,1.55,1.55,0,0,0-.78-.1.88.88,0,0,1-.33,0,.26.26,0,0,1-.14-.07.31.31,0,0,1-.06-.13.58.58,0,0,1,0-.22,1.18,1.18,0,0,0,0-.5,1.24,1.24,0,0,1,0-.18,1.43,1.43,0,0,1,.17-.81,1.15,1.15,0,0,1,.56-.48,2,2,0,0,0,.3-.16,1.88,1.88,0,0,0,.2-.19l.08-.08h0a.34.34,0,0,1,.15-.07.19.19,0,0,1,.11,0l0,0a1.5,1.5,0,0,0,.61.52,1.12,1.12,0,0,0,.63,0,3.69,3.69,0,0,1,2.06.21,8.42,8.42,0,0,1,2.15,1.25.13.13,0,0,0,.17,0,.12.12,0,0,0,0-.17,8.7,8.7,0,0,0-2.2-1.29,3.9,3.9,0,0,0-2.2-.22.82.82,0,0,1-.49,0,1.34,1.34,0,0,1-.51-.44L30,19.66a.39.39,0,0,0-.29-.09.54.54,0,0,0-.27.12h0a.57.57,0,0,0-.11.11l-.16.15a1.17,1.17,0,0,1-.25.14,1.29,1.29,0,0,0-.68.58,1.7,1.7,0,0,0-.2.94.89.89,0,0,0,0,.22,1,1,0,0,1,0,.39.81.81,0,0,0,0,.3.48.48,0,0,0,.12.27.51.51,0,0,0,.26.15,1.16,1.16,0,0,0,.42,0,1.26,1.26,0,0,1,.65.08,1.36,1.36,0,0,1,.55.48,7.09,7.09,0,0,0,2.92,2.37,7.57,7.57,0,0,0,3.85.45.12.12,0,0,0,.1-.13.11.11,0,0,0-.13-.11ZM29.23,22.2a1.84,1.84,0,0,0,.31.16,1.07,1.07,0,0,0,.27.09.12.12,0,0,0,.13-.11.11.11,0,0,0-.1-.13l-.21-.07L29.36,22a.12.12,0,1,0-.13.21Zm.62-1.26a1.33,1.33,0,0,1,.24.1,1,1,0,0,1,.2.14.14.14,0,0,0,.18,0,.13.13,0,0,0,0-.17,1.43,1.43,0,0,0-.24-.16,1.48,1.48,0,0,0-.29-.12.12.12,0,0,0-.15.08.12.12,0,0,0,.08.15Zm-.32.62.3.12.28.09a.12.12,0,0,0,.15-.08.12.12,0,0,0-.08-.15l-.26-.08-.29-.12a.12.12,0,1,0-.1.22Zm6.21,1.1A4.78,4.78,0,0,1,37,24.12c.25.49.29.93.07,1.19a1.12,1.12,0,0,1-1.19.14A5.51,5.51,0,0,1,33,23c-.25-.49-.29-.93-.07-1.19s.66-.3,1.19-.14a4.9,4.9,0,0,1,1.65.95Zm1.08,1.53a4.88,4.88,0,0,0-1.18-1.41h0a4.91,4.91,0,0,0-1.6-.93c-.46-.14-.84-.12-1,.09s-.13.58.08,1a4.91,4.91,0,0,0,1.18,1.42,4.69,4.69,0,0,0,1.6.92c.46.14.84.12,1-.08s.13-.59-.08-1Zm-1.67-.83h0a3,3,0,0,0-.73-.47c-.18-.08-.31-.11-.35-.06s0,.17.12.34h0a3,3,0,0,0,.59.63,3.12,3.12,0,0,0,.73.48c.18.08.31.1.35.06s0-.17-.12-.34h0a3,3,0,0,0-.59-.63Zm.1-.13h0a3.11,3.11,0,0,1,.62.67h0c.15.23.2.42.1.53s-.29.1-.54,0a3.77,3.77,0,0,1-.76-.5,3.36,3.36,0,0,1-.62-.67h0c-.15-.23-.2-.43-.1-.54s.29-.09.54,0a3.39,3.39,0,0,1,.76.5ZM41,16.36a5.76,5.76,0,0,1,1.19-1.68c.43-.4.85-.57,1.15-.42s.42.58.37,1.17a5.7,5.7,0,0,1-.62,2,5.82,5.82,0,0,1-1.19,1.69c-.43.39-.85.56-1.15.41s-.42-.58-.36-1.17a5.88,5.88,0,0,1,.61-2Zm1.3-1.57a6,6,0,0,0-1.16,1.64,5.72,5.72,0,0,0-.59,1.91c0,.51,0,.89.27,1s.59,0,1-.39a5.62,5.62,0,0,0,1.16-1.64,5.77,5.77,0,0,0,.6-1.91c0-.51,0-.89-.28-1s-.59,0-1,.39Zm-.64,1.89a4,4,0,0,1,.53-.83c.19-.22.37-.33.5-.27s.15.28.09.56a3.82,3.82,0,0,1-.34.93h0a3.88,3.88,0,0,1-.53.82c-.2.22-.38.33-.5.27s-.15-.27-.1-.56a4.29,4.29,0,0,1,.34-.93Zm.65-.72a3.6,3.6,0,0,0-.51.79,4.15,4.15,0,0,0-.33.89c0,.21,0,.36,0,.38s.16-.06.3-.22a3.57,3.57,0,0,0,.51-.8h0a3.68,3.68,0,0,0,.33-.89c0-.21,0-.36,0-.38s-.16.06-.3.23ZM43.6,27.89h0a5.93,5.93,0,0,1-1.9.8c-.57.11-1,0-1.19-.25h0c-.17-.29,0-.71.31-1.18a6.14,6.14,0,0,1,1.56-1.35,6.07,6.07,0,0,1,1.9-.79c.58-.11,1,0,1.2.25s.05.72-.31,1.18a5.64,5.64,0,0,1-1.56,1.35Zm-.08-.14h0A5.62,5.62,0,0,0,45,26.45c.31-.41.43-.78.29-1s-.52-.27-1-.17a5.58,5.58,0,0,0-1.85.77h0a5.82,5.82,0,0,0-1.52,1.31c-.31.41-.43.77-.3,1h0c.14.21.52.27,1,.17a5.76,5.76,0,0,0,1.84-.77Zm-.3-.48h0a4.37,4.37,0,0,1-.88.43c-.28.08-.49.08-.57,0h0c-.07-.12,0-.31.22-.52a4.24,4.24,0,0,1,.78-.6,3.75,3.75,0,0,1,.89-.43c.28-.09.49-.08.56,0s0,.31-.21.52a4.15,4.15,0,0,1-.78.61Zm-.09-.14h0a3.55,3.55,0,0,0,.75-.58c.15-.16.23-.28.2-.33s-.18,0-.38,0a4.64,4.64,0,0,0-.86.41,4.14,4.14,0,0,0-.74.59c-.15.15-.22.27-.2.32h0c0,.05.18,0,.38,0a3.72,3.72,0,0,0,.85-.4ZM35.52,29.9a.51.51,0,0,1,.39-.09.5.5,0,0,1,.34.21.54.54,0,0,1-.12.74,6.45,6.45,0,0,0-1.21,1.15,9.66,9.66,0,0,0-1.06,1.6,11.91,11.91,0,0,0-.78,1.88,12.54,12.54,0,0,0-.43,2,.56.56,0,0,1-.2.35.54.54,0,0,1-.39.1.49.49,0,0,1-.35-.2.55.55,0,0,1-.11-.38,13.59,13.59,0,0,1,.48-2.2,12.58,12.58,0,0,1,.85-2,11,11,0,0,1,1.19-1.8,7.45,7.45,0,0,1,1.4-1.32Zm.35.15a.27.27,0,0,0-.21.05,6.68,6.68,0,0,0-1.35,1.28,10.42,10.42,0,0,0-1.16,1.75,11.87,11.87,0,0,0-.84,2,12.23,12.23,0,0,0-.46,2.15.3.3,0,0,0,0,.21.32.32,0,0,0,.19.1.3.3,0,0,0,.21,0,.29.29,0,0,0,.11-.19,11.8,11.8,0,0,1,.44-2,11.52,11.52,0,0,1,.8-1.92,9.13,9.13,0,0,1,1.08-1.64A6.64,6.64,0,0,1,36,30.56a.26.26,0,0,0,.12-.19.28.28,0,0,0-.05-.21.27.27,0,0,0-.18-.11Zm-2.52-1a.54.54,0,0,1,.36-.18.52.52,0,0,1,.43.87A10.44,10.44,0,0,0,33,31.35,9.83,9.83,0,0,0,32.22,33a12.74,12.74,0,0,0-.45,1.77c-.11.61-.19,1.23-.25,1.89a.55.55,0,0,1-.19.35.5.5,0,0,1-.39.12.48.48,0,0,1-.35-.19.51.51,0,0,1-.12-.38c.06-.69.15-1.35.27-2a14,14,0,0,1,.49-1.9,10.8,10.8,0,0,1,.84-1.84A11.28,11.28,0,0,1,33.35,29Zm.38.06a.35.35,0,0,0-.2.1A11.42,11.42,0,0,0,32.28,31a10.32,10.32,0,0,0-.82,1.8A13.15,13.15,0,0,0,31,34.62c-.12.64-.2,1.29-.27,2a.31.31,0,0,0,.06.21.35.35,0,0,0,.2.1.28.28,0,0,0,.2-.06.26.26,0,0,0,.1-.2c.07-.66.15-1.29.26-1.91A12,12,0,0,1,32,32.94a10,10,0,0,1,.78-1.71A10.31,10.31,0,0,1,34,29.56a.31.31,0,0,0,.07-.21.3.3,0,0,0-.1-.19.31.31,0,0,0-.2-.07Zm-2.22,7.49c.14-.24.29-.54.46-.87s.35-.73.55-1.16a.13.13,0,0,0-.06-.16.12.12,0,0,0-.16.06c-.2.43-.38.82-.55,1.15s-.31.62-.45.86a.13.13,0,0,0,.05.17.12.12,0,0,0,.16-.05Zm.54-3a9.91,9.91,0,0,1,1.51-2.06,3.26,3.26,0,0,1,1.47-.9.11.11,0,0,0,.09-.14.11.11,0,0,0-.14-.09,3.31,3.31,0,0,0-1.59,1,10.12,10.12,0,0,0-1.55,2.11.13.13,0,0,0,.05.17.12.12,0,0,0,.16-.05Z"/></g></g></svg>