<svg xmlns="http://www.w3.org/2000/svg" viewBox="0 0 62.83 62.83"><defs><style>.cls-1{fill:#5e7461;}</style></defs><title>Ресурс 14</title><g id="Слой_2" data-name="Слой 2"><g id="БЛОК_СОСТАВ_" data-name="БЛОК &quot;СОСТАВ&quot;"><path class="cls-1" d="M31.41,62.83A31.42,31.42,0,1,1,62.83,31.41,31.45,31.45,0,0,1,31.41,62.83Zm0-61.67A30.26,30.26,0,1,0,61.67,31.41,30.28,30.28,0,0,0,31.41,1.16ZM21.48,16.39a2.78,2.78,0,0,0,.69,1.74,14.7,14.7,0,0,1,1.45,2.06c0,.06.13,0,.12,0a3.53,3.53,0,0,0-1-1.68A7.74,7.74,0,0,1,22,17.42c-.18-.34-.28-.72-.49-1.05a0,0,0,0,0-.06,0Zm2.92,3.53A3.42,3.42,0,0,0,23.46,18c-.27-.35-.55-.69-.8-1.06A6.07,6.07,0,0,1,22,15.54s-.07,0-.07,0a3.56,3.56,0,0,0,.93,1.94c.27.35.56.69.81,1.06a10.45,10.45,0,0,1,.69,1.38s0,0,0,0Zm-2.73-3.25a2.2,2.2,0,0,0-.84-1.58s0,0,0,0a4.89,4.89,0,0,1,.71,1.58.08.08,0,0,0,.16,0Zm.44-1.15,0,.05h0l0-.07s-.05,0,0,0Zm0,.08a.72.72,0,0,1,.21-.18,2.77,2.77,0,0,1,.26-.1.06.06,0,0,0,0-.1.48.48,0,0,0-.33.08l-.11.09a.61.61,0,0,0-.09.18s0,.06.06,0Zm-.15,0a.42.42,0,0,0,0,.31s.05,0,.07,0a.41.41,0,0,0,.08-.29c0-.13-.19-.16-.2,0Zm.22.28a.38.38,0,0,1,.09-.51c.14-.1.28,0,.44,0s.06,0,0,0c-.11-.22-.45-.17-.61,0a.5.5,0,0,0-.06.68c0,.05.14,0,.1-.07ZM22,15.12a1.13,1.13,0,0,1,.36-.06c.1,0,.19,0,.29,0a0,0,0,0,0,0,0,.46.46,0,0,0-.32-.09.64.64,0,0,0-.2,0,.62.62,0,0,0-.16.1s0,0,0,0Zm.63.22c.15.58.13,1.09.68,1.45a1.15,1.15,0,0,0,1.21.09s0-.07,0-.07a1.56,1.56,0,0,1-1.25-.31c-.35-.32-.35-.79-.57-1.17,0,0-.05,0,0,0Zm1.87,1.5c0-.13,0-.36-.09-.46a0,0,0,0,0-.07,0c-.06.12,0,.33.06.45a.05.05,0,0,0,.1,0Zm-.08-.47c.09.42.58.74.94.91a2,2,0,0,0,1.39.14s0-.08,0-.08a3,3,0,0,1-1.27-.21,5.45,5.45,0,0,1-1-.79s-.06,0-.06,0Zm2.36,1.08a3.65,3.65,0,0,1-.1-.65l-.11.05c.66,1,2,.8,2.94.41,0,0,0-.07,0-.06-1,.14-2.11.51-2.83-.43a.06.06,0,0,0-.1,0,1.21,1.21,0,0,0,.17.66s.06,0,.05,0Zm2.68-.21a5,5,0,0,0-.11-.53l-.09.08c.5.12,1.67.26,1.72-.54a0,0,0,0,0-.09,0,1.06,1.06,0,0,1-.68.49,2.6,2.6,0,0,1-.92-.06.07.07,0,0,0-.07.08c.05.18.11.35.17.53s.08,0,.07,0ZM22.69,15c1.26-.56,2.38-1.23,3.79-1a.05.05,0,0,0,0-.09c-1.07-.75-3,.41-3.85,1,0,0,0,.07,0,.06Zm3.76-1c-.07,0-.1,0-.15.08a.44.44,0,0,0-.14.22,0,0,0,0,0,.06.05.45.45,0,0,0,.22-.25s0-.08,0-.1Zm-.18.43a4.43,4.43,0,0,1,1.19-.2,5.58,5.58,0,0,1,1.08.21s.05,0,0-.06a2.47,2.47,0,0,0-2.33,0s0,.1,0,.09Zm2.26,0-.28.18c-.07,0-.17.11-.2.19s.08.21.16.11a.06.06,0,0,0,0-.09c.07,0,.15-.09.21-.13l.22-.15c.06,0,0-.15-.07-.11Zm-.43.59a7.83,7.83,0,0,0,1.17-.16,1.78,1.78,0,0,1,1.29.43,0,0,0,0,0,.07-.06c-.37-.84-1.91-.54-2.54-.26,0,0,0,.05,0,.05Zm2.46.25a.53.53,0,0,0-.39,0c-.1,0-.26.13-.26.25a0,0,0,0,0,0,0c.1,0,.16-.13.25-.18a1.37,1.37,0,0,1,.35-.08,0,0,0,0,0,0-.07Zm-.62.3c.17.08.36.07.53.14a.65.65,0,0,1,.28.21.31.31,0,0,1,.09.18l0,.18s-.06,0-.06,0v0a.05.05,0,0,0,0,0c.28.09.13-.41.07-.5a1,1,0,0,0-1-.36,0,0,0,0,0,0,.06Zm-6.23,4.53c-.11,0-.16.08-.27.14a2.37,2.37,0,0,1-.53.18,3.17,3.17,0,0,0-1,.47s0,.07,0,0a5.53,5.53,0,0,1,1.12-.4,1.15,1.15,0,0,0,.64-.27.09.09,0,0,0,0-.11l0-.06Zm0,.38a9.37,9.37,0,0,1-1,.26.83.83,0,0,0-.56.31s0,.06,0,0a4.22,4.22,0,0,1,.91-.3,1.54,1.54,0,0,0,.67-.24,0,0,0,0,0,0-.07Zm-.1.13a.31.31,0,0,1,.21.07,1.25,1.25,0,0,0,.12.08s.05,0,.05,0-.25-.2-.38-.17,0,.05,0,.06Zm0,0c.53.06.72.67.93,1.08s.45.82.69,1.22A14.09,14.09,0,0,0,26.75,25s0,0,0,0c-.69-1.08-1.4-2.13-2-3.24-.25-.45-.53-1.26-1.16-1.21a.05.05,0,0,0,0,.1Zm.14-.05a.89.89,0,0,1,.42.29s0,0,0,0a.46.46,0,0,0-.43-.39.06.06,0,0,0,0,.11Zm.51-1.17a.77.77,0,0,0,.21.6,0,0,0,0,0,.07,0,2,2,0,0,0-.26-.56s0,0,0,0Zm.08.28c0,.14,0,.3.15.4a.05.05,0,0,0,.09,0c0-.16-.13-.26-.2-.39s-.05,0,0,0ZM22,15c-.38.16-.73-.59-.88-.81a5.6,5.6,0,0,0-.59-.79s0,0,0,0a7.94,7.94,0,0,0,.9,1.4c.17.23.35.42.64.27.06,0,0-.11,0-.09Zm-1,.28c-.39-.68-.52-1.67-1.21-2.13,0,0-.08,0-.06.06a3.85,3.85,0,0,1,.74,1.27,1.62,1.62,0,0,0,.48.84s.07,0,.05,0Zm-.25-.41a1.16,1.16,0,0,0,.3.36s0,0,0,0a1.19,1.19,0,0,0-.31-.36s0,0,0,0Zm-.22-.61c.09.39.28,1,.66,1.17,0,0,0,0,0,0a2.5,2.5,0,0,0-.35-.56c-.11-.2-.22-.39-.31-.6,0,0,0,0,0,0Zm.07-.65a.91.91,0,0,0-.32-.43,2.28,2.28,0,0,0-.5-.38c-.06,0-.12.05-.06.09a4.7,4.7,0,0,1,.5.38,1.75,1.75,0,0,0,.37.35Zm-.85-.75s0,0,.05-.08a2.33,2.33,0,0,1,.07-.25c0-.07.06-.15.09-.21s.08-.12.08-.19,0-.05,0,0-.17.26-.21.38-.12.3,0,.38Zm-.21-.14a7.45,7.45,0,0,1,2.23-2.63s0-.11-.05-.08a5.38,5.38,0,0,0-2.21,2.7s0,0,0,0Zm.36-.39a4.44,4.44,0,0,0,.51-.81,5.89,5.89,0,0,1,.59-.73s0-.05,0,0a1.6,1.6,0,0,0-.59.62,3.4,3.4,0,0,0-.5.94s0,0,0,0Zm-.13.88a1.11,1.11,0,0,0-.36-.25s0,0,0,0a1.14,1.14,0,0,0,.38.23s0,0,0,0Zm-.33-.17a1.83,1.83,0,0,1,.42.26c.11.09.18.22.29.32s0,0,0,0a.68.68,0,0,0-.26-.39.77.77,0,0,0-.47-.2s0,0,0,0Zm0-.06A1.86,1.86,0,0,0,18,13.3s0,.07,0,.06c.52-.08.91-.4,1.46-.31,0,0,0,0,0,0Zm-.29-.15a1.36,1.36,0,0,0-1.33.45s0,0,0,0c.2-.1.38-.23.58-.31a2.61,2.61,0,0,1,.73-.13s0,0,0,0Zm0,0a.25.25,0,0,0,.22-.08s0,0,0,0a.73.73,0,0,1-.2,0,0,0,0,1,0,0,.06Zm-1.2.31a6.4,6.4,0,0,0-.51.4,4,4,0,0,1-.73.4,0,0,0,0,0,0,.05A2.47,2.47,0,0,0,18,13.23Zm.09.1a1.32,1.32,0,0,0-.47.34.89.89,0,0,1-.82.32s0,0,0,0a.62.62,0,0,0,.57-.09,4,4,0,0,0,.73-.58,0,0,0,0,0,0,0Zm4.57,1.9.14.41s0,0,0,0a.42.42,0,0,0-.14-.42s0,0,0,0ZM21.86,21c-1.16,1.16-3,1.52-4,2.86a7.83,7.83,0,0,1-.95,1.2c-.27.25-.57.47-.86.7a4,4,0,0,0-1.34,1.46s0,.07.06,0a6.81,6.81,0,0,1,1.63-1.67A10,10,0,0,0,17.89,24c1.07-1.34,2.84-1.73,4-3,0,0,0-.07,0,0Zm-7.29,6.76a3.54,3.54,0,0,0,.54-.73s0,0,0,0a3.61,3.61,0,0,0-.51.76Zm-.08,0c.06-.08.1-.17.16-.26a1.25,1.25,0,0,0,.16-.22s0,0,0,0a.8.8,0,0,0-.31.5Zm.63-.73a21.77,21.77,0,0,1,2.06-1.89h0A8.3,8.3,0,0,0,15.08,27s0,.05,0,0Zm2.08-2a7,7,0,0,0,.84-1A10.36,10.36,0,0,1,19.27,23s0,0,0,0a7.28,7.28,0,0,0-2.05,2.05s0,0,0,0ZM19.36,23a7.68,7.68,0,0,0,3.05-2.06s0,0,0,0c-.49.3-.92.7-1.39,1s-1.11.67-1.66,1a0,0,0,0,0,0,0Zm5-3.29A1.7,1.7,0,0,0,25.41,21s.06,0,0-.05a3.71,3.71,0,0,0-.56-.56,2.49,2.49,0,0,1-.5-.7s-.05,0,0,0Zm.85,1.15a2,2,0,0,1,.21.2.75.75,0,0,0,.13.18s0,0,0,0c0-.18-.21-.31-.36-.38s0,0,0,0Zm0,.05a1.52,1.52,0,0,1,.46.65,0,0,0,0,0,0,0,.86.86,0,0,0-.49-.67s0,0,0,0Zm-.1-.14a1.9,1.9,0,0,0,.2.34,1.94,1.94,0,0,0,.23.33s.13,0,.11-.05a1.09,1.09,0,0,0-.49-.66,0,0,0,0,0-.05,0Zm.07.11a5.28,5.28,0,0,1,.37.55c.1.17.16.36.25.53s.06,0,.06,0a1.56,1.56,0,0,0-.65-1.09,0,0,0,0,0,0,0Zm.46.7c.23,1.1,1.21,1.72,1.63,2.72s.54,2.05,1.47,2.63c0,0,.09,0,.07-.05A14.56,14.56,0,0,1,28,25.4c-.2-.47-.32-1-.55-1.46a4.49,4.49,0,0,0-.81-1c-.38-.43-.58-.95-.92-1.41,0,0-.05,0,0,0Zm-.42-.59c.27.42.54.84.79,1.28,0,0,.09,0,.07,0a3.08,3.08,0,0,0-.76-1.35.07.07,0,0,0-.1.09Zm1.22,3.66a12.78,12.78,0,0,0,2.26,4,0,0,0,0,0,.05,0,5.07,5.07,0,0,0-1-1.62c-.51-.75-.84-1.61-1.3-2.39,0,0-.05,0,0,0Zm2.27,4.08c0-.11,0-.32-.19-.3s0,0,0,0,.16.14.19.26a0,0,0,0,0,0,0Zm0-.29s-.05-.09-.07-.14,0,0,0,0,0,.1.06.15,0,0,0,0Zm-.32-.48a4.38,4.38,0,0,0,.25.69,0,0,0,1,0,0,0,1.15,1.15,0,0,0-.21-.72s-.08,0-.07,0Zm-.1.1c.05.12.1.24.14.36a1.39,1.39,0,0,0,.12.36s.06,0,.07,0a.84.84,0,0,0-.25-.76,0,0,0,0,0-.08,0ZM23,20.44c-.86-.23-1.73-.48-2.61-.63a2.43,2.43,0,0,0-2.11.41c-.05,0,0,.13.06.1a3.92,3.92,0,0,1,2.46-.27c.73.14,1.45.33,2.18.47.05,0,.07-.07,0-.08Zm-4.69-.23c-.09.11,0,.41.15.38,0,0,0,0,0,0s0-.08-.08-.12a1.29,1.29,0,0,1-.06-.21,0,0,0,0,0,0,0Zm.19.42a1.42,1.42,0,0,0-1.19.05c-.48.17-1.06.43-1.22.95,0,0,0,.08.06.05a3.09,3.09,0,0,1,.94-.78,1.84,1.84,0,0,1,1.37-.21s.07,0,0-.06Zm-2.41,1c0,.05,0,.09,0,.14a.49.49,0,0,0,.41.21s0,0,0,0-.16-.09-.23-.15l-.11-.1s-.07,0-.09-.06,0,0,0,0Zm.4.27a7.1,7.1,0,0,0-1.72,1.32,1.62,1.62,0,0,0-.64,1.24c0,.06.07.06.1,0a4.49,4.49,0,0,1,1-1.49,9.91,9.91,0,0,1,1.33-1c.06,0,0-.13-.07-.1Zm-2.32,2.62a.6.6,0,0,0,.56.2s0,0,0,0-.18,0-.26-.06a1.43,1.43,0,0,1-.28-.13s0,0,0,0Zm.53.23a1.65,1.65,0,0,0-.93.85,1.47,1.47,0,0,0-.22,1.18,0,0,0,0,0,.08,0,1.71,1.71,0,0,0,.1-.51,2.18,2.18,0,0,1,.25-.64,5,5,0,0,1,.73-.85s0,0,0,0Zm-1.16,2c0,.11.22.14.32.16H14a.55.55,0,0,0,.22-.06s0-.05,0,0a1.7,1.7,0,0,1-.39,0c-.09,0-.22-.1-.31-.07a0,0,0,0,0,0,0Zm.69.08A2,2,0,0,0,13.83,29s.09,0,.09,0c0-.35-.05-.69,0-1a6.85,6.85,0,0,1,.33-1.09s0,0,0,0Zm-.27,2.23a2.74,2.74,0,0,0,2.2-1.4c0-.05-.05-.08-.09,0A3.3,3.3,0,0,1,13.93,29s0,.06,0,.06ZM16,27.67c0,.12,0,.23,0,.35a1.35,1.35,0,0,0,.06.35s.09,0,.1,0a.65.65,0,0,0,0-.31c0-.13,0-.26-.06-.38s-.11-.07-.11,0Zm.37.71A2.63,2.63,0,0,0,17.73,27a0,0,0,0,0-.07,0,4.49,4.49,0,0,1-1.33,1.24c-.09.05,0,.19.06.15Zm1.34-1.32a.76.76,0,0,0-.08.51.48.48,0,0,0,.26.37,0,0,0,0,0,0,0c-.09-.27-.29-.54-.2-.84Zm.2.92a3.06,3.06,0,0,0,1.47-1.82,0,0,0,0,0-.06,0c-.2.31-.35.64-.57.94a7.85,7.85,0,0,1-.86.87s0,0,0,0Zm1.38-1.78a1.14,1.14,0,0,0,.44.89s.05,0,0,0a2.22,2.22,0,0,0-.2-.41c-.08-.15-.13-.32-.22-.47a0,0,0,0,0-.06,0Zm.44.92a5.68,5.68,0,0,0,2.56-2.74,5.64,5.64,0,0,0,.77-3.59c0-.1-.17-.08-.15,0,.48,2.45-1.34,4.9-3.21,6.25,0,0,0,.08,0,.06Zm3.31-11.89a5.35,5.35,0,0,0,1.84.21c.82.11,1.62.39,2.45.44,0,0,0,0,0,0-1.36-.61-2.86-.47-4.29-.64,0,0,0,0,0,0Zm4.35.66a3.08,3.08,0,0,0,2,.5s0,0,0,0a8.92,8.92,0,0,1-1-.14,6.56,6.56,0,0,1-1-.34s0,0,0,0Zm-4.05-.78a22.55,22.55,0,0,1,3.41.44s0,0,0,0a2.5,2.5,0,0,0-1.48-.28,16,16,0,0,0-1.95-.16s0,0,0,0Zm-3.23-3.47a1.92,1.92,0,0,1-.05-1.91s0,0,0,0a1.7,1.7,0,0,0,.06,1.95s0,0,0,0Zm-.05-1.9a.8.8,0,0,1,.11.25.07.07,0,0,0,.14,0,.72.72,0,0,1,.26-.42,2.79,2.79,0,0,1,.33-.19,0,0,0,0,0,0-.05c-.33,0-.62.36-.71.63h.13a.53.53,0,0,0-.19-.29c-.05,0-.09,0-.06.06Zm.84-.39a.58.58,0,0,1,.11.34s0,0,0,0a.2.2,0,0,0,0-.21c0-.09-.08-.12-.17-.16a0,0,0,0,0,0,0Zm-.63,2.51c.55.14,1.89.36,2-.46,0,0,0-.05-.06,0a1.77,1.77,0,0,1-1.92.39c-.06,0-.1.08,0,.09Zm2-.51c-.05-.11-.24-.27-.36-.22s0,0,0,.06.09,0,.15.06a.7.7,0,0,1,.21.11s0,0,0,0Zm-.37-.21c.16.2.57.07.76,0s.53-.37.53-.65a0,0,0,0,0-.07,0c-.18.22-.28.44-.56.56a.93.93,0,0,1-.37.1c-.11,0-.19,0-.28,0v0ZM21.09,9.7A2.5,2.5,0,0,1,21.48,9,4.44,4.44,0,0,1,22,8.61a0,0,0,0,0,0,0c-.51,0-.92.68-.94,1.13,0,0,0,0,0,0ZM22,8.59a.9.9,0,0,0,0,.23,2.3,2.3,0,0,1,0,.26,0,0,0,0,0,.08,0,.59.59,0,0,0,0-.52s0,0,0,0Zm0,.51A2.57,2.57,0,0,1,23.46,9s0,0,0,0a1.55,1.55,0,0,0-1.5.14s0,0,0,0ZM23.44,9c-.07.1-.11.21-.18.31s-.17.15-.21.25,0,.05,0,.05.21-.14.28-.23A.67.67,0,0,0,23.5,9s0-.06-.06,0Zm-.35.62c.12,0,.24,0,.35,0s.17.12.26.2a0,0,0,0,0,.07,0c0-.14-.12-.24-.23-.28a.66.66,0,0,0-.46,0,0,0,0,0,0,0,.07Zm.64.22a2.76,2.76,0,0,1-.3.29.88.88,0,0,1-.22.1.3.3,0,0,0-.15.07s0,.06,0,.07.32-.06.42-.13a.61.61,0,0,0,.27-.38s0,0,0,0Zm-.72.51a.22.22,0,0,0,.11.19,0,0,0,0,0,.05,0,.2.2,0,0,0-.07-.2.05.05,0,0,0-.09,0Zm-1.22-.26c.32-.14.65-.25,1-.37,0,0,0,0,0,0a2.52,2.52,0,0,0-1,.39s0,0,0,0Zm1-.37A3.1,3.1,0,0,0,20.89,11s0,0,0,0a4.63,4.63,0,0,1,1-.88,7.43,7.43,0,0,0,.9-.43s0,0,0,0ZM18.35,13a1,1,0,0,0-1-.13,16.61,16.61,0,0,0-1.83.66s0,0,0,0c.92,0,2-1,2.84-.55,0,0,0,0,0,0Zm-2.79.53a.21.21,0,0,0,.36.18s0,0,0,0a.46.46,0,0,1-.33-.15Zm.29.2a1.59,1.59,0,0,0-.83.19,1,1,0,0,0-.43.63s.05.06.07,0c.2-.21.3-.49.6-.62s.46,0,.6-.22a0,0,0,0,0,0,0Zm-1.22.89a.52.52,0,0,0,.47,0s0,0,0,0a1,1,0,0,0-.25,0,.71.71,0,0,0-.21,0s0,0,0,0Zm2-.56a1.63,1.63,0,0,0-1.12.72s0,.06,0,0a3.84,3.84,0,0,0,.45-.37,5.14,5.14,0,0,1,.64-.38s0,0,0,0Zm.14,0a2.15,2.15,0,0,0-1.15.69s0,0,0,0c.19-.11.36-.25.55-.36s.41-.19.59-.31c0,0,0,0,0,0Zm-1.7.55a.84.84,0,0,0-.47.4.68.68,0,0,0-.1.58s0,0,0,0a1.18,1.18,0,0,0,0-.2.77.77,0,0,1,.12-.33,1.15,1.15,0,0,1,.4-.39s0-.06,0-.05Zm-.58.95a.34.34,0,0,0,.38-.07s0,0,0,0l-.17.07h-.18s0,0,0,0Zm.35,0a.65.65,0,0,0-.22.34c0,.11-.06.27,0,.36a0,0,0,0,0,0,0,3.31,3.31,0,0,0,0-.33,1,1,0,0,1,.15-.34s0,0,0,0Zm-.18.71A2.17,2.17,0,0,0,16,15.44s0,0,0,0a4.48,4.48,0,0,1-1.26.75s0,0,0,0ZM16,15.45a.7.7,0,0,0-.11.37s.05,0,.06,0a.59.59,0,0,0,.11-.36,0,0,0,0,0-.06,0Zm0,.4a1.84,1.84,0,0,0,1-1s0,0,0,0a5.7,5.7,0,0,1-.45.55,3.07,3.07,0,0,1-.58.42,0,0,0,1,0,0,.06Zm1-1a1.26,1.26,0,0,0,0,.28s0,0,0,0a.27.27,0,0,0,0-.3s0,0,0,0Zm.07.31A4.24,4.24,0,0,0,18.36,14c.23-.26.44-.57.11-.85,0,0,0,0,0,0a.86.86,0,0,1-.07.67,3,3,0,0,1-.5.56,11.69,11.69,0,0,1-.91.81s0,0,0,0Zm-1.44-.4a1.28,1.28,0,0,0-.42.79,0,0,0,0,0,0,0c.06-.13.09-.27.15-.4a2.59,2.59,0,0,1,.25-.39s0,0,0,0Zm-.41.79A4.35,4.35,0,0,1,17,14.1s0,0,0,0a3.15,3.15,0,0,0-1.89,1.5Zm4.13-2.73a.12.12,0,0,0,.12-.17,0,0,0,0,0,0,0c0,.06,0,.1-.09.11a0,0,0,0,0,0,0Zm-.18,0a.21.21,0,0,0,.16-.33s0,0,0,0a.2.2,0,0,1-.15.27,0,0,0,0,0,0,0Zm.09,0c.14,0,.24-.29.07-.33,0,0,0,0,0,0a.29.29,0,0,1,0,.1.18.18,0,0,1-.09.17s0,0,0,0Zm.09,0c.14-.11.07-.28,0-.38a2.36,2.36,0,0,0-.38-.22,1.29,1.29,0,0,1-.44-.54s0,0,0,0a.89.89,0,0,0,.28.46c.19.17.72.34.59.66Zm.28-.13a1,1,0,0,0-.33-.49c-.11-.09-.22-.14-.33-.22a1,1,0,0,1-.36-.71,0,0,0,0,0,0,0,1,1,0,0,0,.27.69,3.7,3.7,0,0,0,.33.21,1.21,1.21,0,0,1,.42.53s0,0,0,0Zm-.3-.14c-.57,0-1.09,0-1.4-.56,0,0,0,0,0,0,.12.61.94.63,1.42.58,0,0,0,0,0,0ZM17.84,12a.39.39,0,0,0,.21,0s0-.05,0-.07c-.47-.23-.48-.81-.54-1.25,0,0,0,0,0,0A1.26,1.26,0,0,0,18,12v-.06a.4.4,0,0,0-.2.09Zm.59-.4a3.43,3.43,0,0,1,0-1,4.19,4.19,0,0,1,.29-.91s0,0,0,0a2.32,2.32,0,0,0-.26,1.89,0,0,0,0,0,0,0Zm.3-1.79a3.88,3.88,0,0,0-.3.93,1.09,1.09,0,0,0,.05.78s.05,0,0,0a1.5,1.5,0,0,1,0-.89,3.19,3.19,0,0,1,.23-.8Zm-1.24.86a.57.57,0,0,0,.27.16s0,0,0,0a.56.56,0,0,0-.26-.17s0,0,0,0Zm.23.1a3.74,3.74,0,0,1,.6-1.39s0,0,0,0a1.9,1.9,0,0,0-.6,1.41s0,0,0,0Zm.61-1.45a.66.66,0,0,0,0,.15s.06,0,.08,0A4,4,0,0,1,18.91,9c.15-.15.33-.27.48-.42a0,0,0,0,0,0,0,2.81,2.81,0,0,0-1,1h.08a.58.58,0,0,0-.1-.12,0,0,0,0,0,0,0Zm1-.79c0,.2,0,.4-.06.61a4.21,4.21,0,0,1-.11.6c0,.05.07.07.09,0a2.57,2.57,0,0,0,.1-1.23s0,0,0,0Zm-.13,1.29a.44.44,0,0,0,.31-.18s0,0,0,0a2,2,0,0,0-.29.15s0,.06,0,.06Zm.32-.19a3.9,3.9,0,0,1,0,.59c0,.2-.14.37-.17.56,0,0,0,0,0,0a.88.88,0,0,0,.22-.57.92.92,0,0,0-.1-.61,0,0,0,0,0,0,0Zm-.1,1.22a.43.43,0,0,0,.36-.15s0,0,0,0a.27.27,0,0,0-.14,0l-.21.07s0,.07,0,.07Zm-.05,1.59a3.33,3.33,0,0,0,.43-.67.87.87,0,0,0,.09-.65h0c0,.1,0,.2,0,.3a1.1,1.1,0,0,1-.11.35,3.22,3.22,0,0,1-.39.64s0,.07,0,0Zm1.06-2.54h0s0,0,0,0l0,0s0,0,0,0Zm-.66,2.9a4.93,4.93,0,0,0,.39.4c.12.14.23.29.36.43s0,0,0,0a2.67,2.67,0,0,0-.73-.84s-.06,0,0,0Zm.52.56c.19.26.33.58.54.82,0,0,0,0,0,0a2.75,2.75,0,0,0-.56-.8Zm.53.79a2,2,0,0,0,.39.58h0c-.14-.19-.26-.39-.39-.59Zm.33.51a.63.63,0,0,0,.32.38.52.52,0,0,0,.46.1,0,0,0,0,0,0,0c-.14-.07-.3-.06-.43-.14a1.08,1.08,0,0,1-.33-.31Zm0,11.23a2.25,2.25,0,0,0,.44,2.21,0,0,0,0,0,0,0,2.61,2.61,0,0,1-.43-2.18s0,0,0,0Zm.52,2.27c.09-.12.15-.26.24-.37s.2-.22.29-.34,0,0,0,0a1.29,1.29,0,0,0-.5.73s0,0,0,0Zm.43-.65A2.69,2.69,0,0,0,23,29.14s.07,0,.05-.05a7.46,7.46,0,0,1-.54-.8c-.13-.25-.21-.52-.32-.78,0,0-.06,0-.05,0ZM23,29.19a1.27,1.27,0,0,0,.41-.23,1.27,1.27,0,0,0,.43-.33s0-.06,0-.06a1.55,1.55,0,0,0-.41.25,1.69,1.69,0,0,0-.41.34,0,0,0,0,0,0,0Zm.82-.51A1.89,1.89,0,0,0,25,29.89s0,0,0,0c-.22-.2-.48-.34-.68-.56s-.31-.43-.49-.62Zm1.1,1.2c.11-.08.13-.28.17-.4a2.54,2.54,0,0,0,.14-.47s0,0,0,0a3.14,3.14,0,0,0-.18.46c0,.12-.14.29-.1.42Zm.28-.78a2.76,2.76,0,0,0,2.07,1.63s.06-.06,0-.08c-.36-.2-.76-.32-1.12-.56a3.45,3.45,0,0,1-.94-1,0,0,0,0,0,0,0Zm2.05,1.6a3,3,0,0,0-.59-2.51s0,0,0,0a6.18,6.18,0,0,1,.58,2.5,0,0,0,0,0,0,0ZM21.19,26A2.36,2.36,0,0,0,21.58,28s.07,0,.05,0a3,3,0,0,1-.35-1c0-.34,0-.68-.07-1,0,0,0,0,0,0Zm.3,1.93a.8.8,0,0,0,.2.28s0,0,0,0a.79.79,0,0,0-.21-.27ZM21.07,26a1.21,1.21,0,0,0,0,.88s.06,0,.06,0a2.56,2.56,0,0,0,0-.39c0-.16,0-.31,0-.47s0,0,0,0Zm0,.12a1.71,1.71,0,0,0,.21,1.38,0,0,0,0,0,0,0c0-.23-.14-.44-.18-.67s0-.46,0-.68c0,0,0,0,0,0Zm1.52-5.84,0,0s0,0,0,0l0,0Zm0,.08a4.29,4.29,0,0,1,.26-.58c.09-.17.22-.32.32-.49a0,0,0,0,0-.06-.06,2,2,0,0,0-.56,1.12s0,0,0,0Zm.8-.91a1.44,1.44,0,0,0-.34.43.93.93,0,0,0-.17.53s0,0,.07,0A2.1,2.1,0,0,0,23.1,20c.07-.17.18-.33.27-.5,0,0,0,0,0,0Zm-.28,1.61a3.9,3.9,0,0,1,1,.49c.29.21.54.48.84.66A0,0,0,0,0,25,22.2a2.89,2.89,0,0,0-1.92-1.15s0,0,0,.05Zm3.6,7.13c.09.15.2.3.3.44s.14.3.27.38a0,0,0,0,0,0,0,.74.74,0,0,0-.19-.41,1.56,1.56,0,0,0-.4-.41s0,0,0,0Zm.63.78a1.22,1.22,0,0,0,.18-.82,1.8,1.8,0,0,0-.23-.94s-.07,0-.06,0a6.91,6.91,0,0,1,.15.91,4.57,4.57,0,0,0-.05.82ZM27,26.88c0,.17.11.33.15.51a3.78,3.78,0,0,0,.1.46s0,0,0,0a1.69,1.69,0,0,0-.22-1s-.08,0-.07,0Zm.06,0a4.84,4.84,0,0,1,.18.49c0,.15,0,.31.08.46s0,0,0,0a1.21,1.21,0,0,0-.29-.95Zm0,.1c.17.15.4.22.58.36s.33.31.52.44a0,0,0,0,0,.05,0,1.36,1.36,0,0,0-.49-.52,1.23,1.23,0,0,0-.65-.28s0,0,0,0Zm1,.19a6.88,6.88,0,0,1,.44.66c.11.21.18.43.28.64a0,0,0,0,0,0,0,2.37,2.37,0,0,0-.74-1.3,0,0,0,1,0,0,0Zm.36.19c.1.2.19.4.28.6a2.35,2.35,0,0,0,.25.53,0,0,0,0,0,.05,0,2.71,2.71,0,0,0-.57-1.12s0,0,0,0Zm.14.06a3.71,3.71,0,0,0,.53,1.05s.06,0,.05,0a4.15,4.15,0,0,0-.55-1s0,0,0,0Zm-.77-.57c.21.25.38.53.58.79,0,0,0,0,0,0a3.48,3.48,0,0,0-.58-.8,0,0,0,0,0,0,0Zm-1.57-2.48c.13.26.29.51.43.76s.22.45.36.66c0,0,0,0,0,0a3.54,3.54,0,0,0-.78-1.42s-.06,0-.05,0Zm-4.82,1.38a3.15,3.15,0,0,0,0,1.4,0,0,0,0,0,0,0,6.46,6.46,0,0,1,0-1.39s0,0,0,0Zm.05,1.57c.06.18.11.36.18.53s0,0,0,0a1,1,0,0,0-.2-.54s0,0,0,0Zm1.33-3.82a4.29,4.29,0,0,0,.84,1.61s0,0,0,0a11.65,11.65,0,0,1-.83-1.61s0,0,0,0Zm.84,1.67a9.6,9.6,0,0,1,1.12,1.5c.25.46.38,1,.61,1.45,0,0,0,0,0,0a6.16,6.16,0,0,0-1.75-2.95s0,0,0,0Zm1.88,3.1a2.9,2.9,0,0,0,1.09,1.38s0,0,0,0a6.29,6.29,0,0,1-1.11-1.35Zm-2.64-5.16a1.22,1.22,0,0,0,.26.68s0,0,0,0a5.6,5.6,0,0,0-.26-.68s0,0,0,0Zm.17.54a5.5,5.5,0,0,0,1.42,2.28s.05,0,0,0a4.24,4.24,0,0,0-.64-1A7.17,7.17,0,0,1,23,23.62Zm1.32,2.14a12.3,12.3,0,0,1,1.18,2.71c0,.07.12.05.11,0a6.07,6.07,0,0,0-1.28-2.71s0,0,0,0Zm-1.1-4.4c.24.17.51.3.76.46s.5.33.76.48c0,0,0,0,0,0a6.55,6.55,0,0,0-1.54-.94s0,0,0,0Zm.06-.09c.52.33,1.08.64,1.62.93,0,0,0,0,0,0a8.35,8.35,0,0,0-1.62-.92s0,0,0,0Zm0,.38A6.57,6.57,0,0,1,23,23.19s0,0,0,0a4.06,4.06,0,0,0,.2-1.55Zm.1,0a4.3,4.3,0,0,1-.2,1.55s0,0,0,0a2.5,2.5,0,0,0,.21-1.57s0,0,0,0ZM22.7,23.8A7.22,7.22,0,0,1,21.37,26a0,0,0,1,0,0,0,5.3,5.3,0,0,0,1.3-2.26Zm.1.07c-.2.44-.39.89-.63,1.31s-.49.73-.71,1.11c0,0,0,0,0,0a6.56,6.56,0,0,0,1.33-2.43s0,0,0,0Zm0,.22c-.16.35-.29.71-.47,1.06s-.38.67-.56,1c0,0,0,0,0,0a6.53,6.53,0,0,0,1-2.08s0,0,0,0Zm-.3-.08c-.28.55-.6,1.09-.88,1.64,0,0,0,.05.05,0A12.47,12.47,0,0,0,22.54,24s0,0,0,0Zm.34-.73c-.17.44-.39.84-.59,1.27a0,0,0,0,0,0,0,3.17,3.17,0,0,0,.57-1.27s0,0,0,0Zm.27-1a5.61,5.61,0,0,1-.13.59,4.71,4.71,0,0,1-.21.52s0,0,0,0a2,2,0,0,0,.31-1.13Zm.37-.6a5.5,5.5,0,0,1-.21,1.62s0,0,0,0a3.49,3.49,0,0,0,.21-1.63s0,0,0,0Zm.65,3.58a4.07,4.07,0,0,1,.33.48,1.74,1.74,0,0,1,.1.19c0,.05.14.19,0,.1s0,0,0,0l.08.1s0,0,0,0a2.63,2.63,0,0,0-.55-.87s0,0,0,0Zm-.3-.6c.11.15.23.3.33.46s.2.33.31.48,0,0,0,0a2.93,2.93,0,0,0-.65-.94s0,0,0,0Zm.14,0a9.48,9.48,0,0,1,.55.85h0a2.79,2.79,0,0,0-.56-.85Zm.16,0a5,5,0,0,1,.44.69s0,0,0,0a2.1,2.1,0,0,0-.46-.68s0,0,0,0Zm.49-2.64a1.81,1.81,0,0,0,.46.95s0,0,0,0a3.7,3.7,0,0,1-.47-.93s0,0,0,0Zm.22.48a7.67,7.67,0,0,0,.77,1.33s0,0,0,0c-.25-.45-.54-.87-.78-1.33,0,0,0,0,0,0Zm.75,1.3c.31.42.56.88.83,1.33,0,0,0,0,0,0a4.75,4.75,0,0,0-.84-1.33s0,0,0,0Zm1,1.58a3.9,3.9,0,0,0,.89,1.68s0,0,0,0a12.19,12.19,0,0,1-.91-1.66ZM24.43,22a4.55,4.55,0,0,0,.63,1.49s0,0,0,0c-.21-.49-.44-1-.62-1.48,0,0,0,0,0,0Zm.8,1.63c.42.63.84,1.27,1.28,1.89,0,0,0,0,0,0a14.25,14.25,0,0,0-1.28-1.89s0,0,0,0Zm-.32-1.14a6.88,6.88,0,0,0,1,1.65s0,0,0,0c-.28-.55-.64-1.11-1-1.64,0,0,0,0,0,0Zm.69,1.1c.26.43.49.88.77,1.29,0,0,0,0,0,0a5,5,0,0,0-.77-1.29s0,0,0,0Zm.55.85a8.71,8.71,0,0,1,.65,1.34s0,0,0,0a2.48,2.48,0,0,0-.67-1.35s0,0,0,0Zm.34.6a11.71,11.71,0,0,0,.76,1.6s0,0,0,0a13,13,0,0,0-.78-1.59s0,0,0,0Zm-2.29-6a2.28,2.28,0,0,0,.38.94c.37.51.94.77,1.1,1.43,0,0,0,0,0,0a1.4,1.4,0,0,0-.49-.84,3.25,3.25,0,0,1-1-1.53Zm1.45,2.08a7.64,7.64,0,0,0,.42.92h0a7.64,7.64,0,0,0-.42-.92Zm-4.57-5.92c.16.29.28.58.43.87,0,0,0,0,0,0a2.62,2.62,0,0,0-.43-.87s0,0,0,0Zm.1.09a3.45,3.45,0,0,1,.4.79s0,0,0,0a1.82,1.82,0,0,0-.41-.79s0,0,0,0Zm.15.06a4.54,4.54,0,0,0,.36.81s0,0,0,0a4.13,4.13,0,0,0-.37-.8s0,0,0,0Zm.14.07c.11.25.18.51.3.75,0,0,0,0,0,0a2.29,2.29,0,0,0-.31-.74Zm.14.07c.1.21.15.43.24.64,0,0,0,0,0,0a1.33,1.33,0,0,0-.25-.64Zm0,.54a3.25,3.25,0,0,0,.32,1.22s0,0,0,0a4.92,4.92,0,0,1-.33-1.21s0,0,0,0Zm.27.92c.42,1.16,1.51,1.9,2,3a0,0,0,0,0,0,0c-.31-1.2-1.53-1.91-2-3,0,0,0,0,0,0Zm1.17,1.47a8.25,8.25,0,0,1,.88,1.45s0,0,0,0a3.85,3.85,0,0,0-.9-1.45s0,0,0,0Zm.32.21c.25.41.45.85.71,1.26,0,0,0,0,0,0a5.88,5.88,0,0,0-.71-1.27s0,0,0,0Zm.15.1c.26.37.45.77.68,1.15,0,0,0,0,0,0a2.65,2.65,0,0,0-.68-1.15s0,0,0,0Zm.07-.16a6,6,0,0,0,.57,1s0,0,0,0a5.71,5.71,0,0,0-.59-1s0,0,0,0Zm-.75-1c.4.52.77,1,1.12,1.58,0,0,0,0,0,0a4.3,4.3,0,0,0-1.13-1.57s0,0,0,0Zm-1.12,4.33a8.07,8.07,0,0,0-.33.94s0,0,0,0a6.51,6.51,0,0,0,.32-.94s0,0,0,0Zm.09-.09c-.11.36-.22.71-.31,1.07,0,0,0,0,0,0,.11-.35.2-.71.29-1.07Zm-.23.95a4.65,4.65,0,0,1-.16,1,4.21,4.21,0,0,1-.45.9s0,0,0,0a2.91,2.91,0,0,0,.59-1.91Zm-.64,2a2.27,2.27,0,0,0-.75,1.31,0,0,0,0,0,0,0A2.9,2.9,0,0,1,21,24.78a0,0,0,0,0,0,0Zm-.16.34a1.75,1.75,0,0,0-.36.85s0,0,0,0a2.86,2.86,0,0,1,.34-.85s0,0,0,0ZM21,25a2.15,2.15,0,0,0-.41.88s0,0,0,0,.1-.29.16-.43.16-.3.24-.45,0,0,0,0Zm.24-.15a8,8,0,0,0-.47.92s0,0,0,0a10,10,0,0,0,.46-.93s0,0,0,0Zm.14-.07a4.22,4.22,0,0,1-.18.45,4.39,4.39,0,0,0-.21.44s0,0,0,0a2.45,2.45,0,0,0,.39-.89s0,0,0,0Zm-.17.67A4.65,4.65,0,0,0,22.05,24s0,0,0,0a11.18,11.18,0,0,1-.86,1.4s0,0,0,0Zm1.52-2.56a8.9,8.9,0,0,1-1.24,2.21,0,0,0,0,0,0,0,5,5,0,0,0,1.22-2.23s0,0,0,0Zm.2-1.88a5,5,0,0,1-.48,2.23s0,0,0,0A3.36,3.36,0,0,0,22.92,21s0,0,0,0Zm-.34-.09a8.3,8.3,0,0,0-.72.85s0,0,0,0a8.2,8.2,0,0,0,.71-.85s0,0,0,0Zm.15,0a2,2,0,0,0-.57.71s0,0,0,0c.18-.25.35-.48.55-.71,0,0,0,0,0,0Zm.11,0a4,4,0,0,0-.53.83s0,0,0,0a4.28,4.28,0,0,0,.51-.84s0,0,0,0Zm.1,0a2.51,2.51,0,0,0-.24.46s0,0,0,0A2.88,2.88,0,0,0,23,21s0,0,0,0Zm-.24-1a1.25,1.25,0,0,0,0,.43s0,0,0,0a1.3,1.3,0,0,0,0-.44s0,0,0,0Zm.16-.26a1.76,1.76,0,0,0-.06.4.82.82,0,0,0,0,.35s0,0,0,0a1.53,1.53,0,0,0,0-.37,2.35,2.35,0,0,1,.05-.37s0,0,0,0Zm.18-.13c0,.14-.05.27-.07.41a1.49,1.49,0,0,0-.05.36s0,0,0,0A1.55,1.55,0,0,0,23,20c0-.14.05-.28.07-.41s-.05-.05-.06,0Zm.16-.28-.06.35a.87.87,0,0,0,0,.32s0,0,0,0a1.07,1.07,0,0,0,.06-.31c0-.12,0-.24,0-.36s0,0,0,0Zm.14.1a.73.73,0,0,0-.14.26,0,0,0,0,0,0,0,.71.71,0,0,0,.16-.26s0-.05,0,0Zm-.12,0a1.21,1.21,0,0,0-.55.74s0,0,0,0a2.82,2.82,0,0,1,.21-.38,1.57,1.57,0,0,1,.34-.34s0-.07,0,0Zm-1.49-3.2a2.67,2.67,0,0,0,.58,1.56s0,0,0,0a6.26,6.26,0,0,1-.56-1.55s0,0,0,0Zm.14.08A3.43,3.43,0,0,0,22.62,18s0,0,0,0a6.35,6.35,0,0,1-.75-1.78s0,0,0,0Zm.24.46a10.28,10.28,0,0,0,.81,1.75s.05,0,0,0c-.26-.59-.55-1.16-.82-1.75,0,0,0,0,0,0Zm.4-1.66.33,0s0,0,0,0a.42.42,0,0,0-.33,0,0,0,0,0,0,0,0Zm.33.36a2.05,2.05,0,0,0,.56,1h0a3.23,3.23,0,0,1-.56-1Zm.51.93a1.13,1.13,0,0,0,.79.26s0,0,0,0a1.53,1.53,0,0,1-.78-.25s0,0,0,0ZM23.21,16a1.26,1.26,0,0,0,1.16.58s0,0,0,0a1.53,1.53,0,0,1-1.15-.58Zm.39.18a1.37,1.37,0,0,0,.73.34s0,0,0,0a3.17,3.17,0,0,1-.73-.32s0,0,0,0ZM25,15.57a3.92,3.92,0,0,1,.67.94s0,0,0,0a1.86,1.86,0,0,0-.69-.94s0,0,0,0Zm.16-.06c.19.33.36.69.55,1,0,0,0,0,0,0a3.13,3.13,0,0,0-.56-1s0,0,0,0Zm.35.46a2.4,2.4,0,0,0,.73,1.09s0,0,0,0A5.26,5.26,0,0,1,25.54,16s0,0,0,0Zm1.17.75a2.19,2.19,0,0,0,1.27.69s0,0,0,0a3.09,3.09,0,0,1-1.26-.68s0,0,0,0Zm.25,0a2.23,2.23,0,0,0,1.49.51s0,0,0,0a2.74,2.74,0,0,1-1.49-.5s0,0,0,0Zm1.66.48c.17,0,.33,0,.49-.09s0,0,0,0l-.49.09Zm-2.47-1.94a8.81,8.81,0,0,1,2.05-.08s0,0,0,0a5.45,5.45,0,0,0-2.05.07s0,0,0,0Zm.61.07a8.92,8.92,0,0,1,1.37-.08h0a4.84,4.84,0,0,0-1.37.08s0,0,0,0Zm1.73-.08a2.38,2.38,0,0,0,.92,0s0,0,0,0l-.91,0s0,0,0,0Zm0-.2a5.22,5.22,0,0,1,1.47.21,0,0,0,0,0,0,0,4.13,4.13,0,0,0-1.48-.18Zm1.11,1.51a1.72,1.72,0,0,0,1.26-.41s0,0,0,0a2.26,2.26,0,0,1-1.26.42Zm-7-1.65a.42.42,0,0,0-.19,0s0,0,0,0a1,1,0,0,0,.68-.16s0,0,0,0a1.93,1.93,0,0,1-.34.11c-.11,0-.21,0-.32.05v0a.3.3,0,0,1,.18,0s0,0,0,0Zm.22.08c.45-.16.9-.33,1.35-.53,0,0,0,0,0,0-.46.15-.91.34-1.35.53Zm1.52-.52A5.91,5.91,0,0,1,26,14.16s0,0,0,0a4.44,4.44,0,0,0-1.61.36Zm-3.88-3.35c0-.17,0-.34,0-.5a3.25,3.25,0,0,1,.12-.54h0a1.59,1.59,0,0,0-.13,1.05Zm.14-.16a2.87,2.87,0,0,1,0-1h0a2,2,0,0,0,0,1Zm.6-.46a1.07,1.07,0,0,0,.94.06s0,0,0,0a2,2,0,0,1-.93-.07s0,0,0,0Zm.19-.1a1.93,1.93,0,0,0,.85.2s0,0,0,0l-.41-.08-.43-.12s0,0,0,0Zm-3.93,3.15a7.11,7.11,0,0,0-.79-.1s0,0,0,0a5.18,5.18,0,0,0,.79.11s0,0,0,0Zm-.8,0a1.38,1.38,0,0,0,.64,0s0,0,0,0c-.2,0-.41,0-.62,0,0,0,0,0,0,0Zm.47.38a1.29,1.29,0,0,0-.19.54s0,0,0,0a5,5,0,0,0,.16-.55Zm0,0a1.23,1.23,0,0,1-.17.52h0a.68.68,0,0,0,.16-.53Zm2.56-2.82a1.84,1.84,0,0,1,0,.66,2.63,2.63,0,0,1-.24.51s0,0,0,0a1.28,1.28,0,0,0,.26-1.19s0,0,0,0Zm.05-.2,0,.07h0l0-.07Zm0,.22a3.09,3.09,0,0,1,0,.61s0,0,0,0a1.84,1.84,0,0,0,0-.62s-.05,0,0,0Zm-.06-.29a2.83,2.83,0,0,1,0,.65,4.48,4.48,0,0,1-.2.62s0,0,0,0a1.69,1.69,0,0,0,.22-1.28Zm-.11.15a3.28,3.28,0,0,1-.23,1.16s0,0,0,0A1.9,1.9,0,0,0,19.6,11Zm-.1-.06a3.77,3.77,0,0,1-.28,1.29h0a2.18,2.18,0,0,0,.28-1.3Zm-.1,0a6.17,6.17,0,0,1-.08.62c0,.23-.15.44-.21.66,0,0,0,0,0,0a2.38,2.38,0,0,0,.29-1.29Zm-.14.12a6.68,6.68,0,0,1-.2,1s0,0,0,0a2.29,2.29,0,0,0,.2-1ZM18.9,9.66a2.51,2.51,0,0,0-.36,1.42h0a5.79,5.79,0,0,1,.35-1.42Zm0,.19a3.88,3.88,0,0,0-.15.61h0a6.06,6.06,0,0,0,.16-.61ZM25.3,22.5a7.8,7.8,0,0,0,1.06,1.6s0,0,0,0c-.36-.53-.72-1.06-1.07-1.6a0,0,0,0,0,0,0Zm.32.21a5.59,5.59,0,0,0,.87,1.37s0,0,0,0c-.3-.46-.61-.89-.88-1.36,0,0,0,0,0,0Zm.19.1A10.72,10.72,0,0,0,26.63,24s0,0,0,0a11.33,11.33,0,0,0-.84-1.21s0,0,0,0Zm.4.57a10.11,10.11,0,0,1,1.07,1.72s0,0,0,0a5.72,5.72,0,0,0-1.09-1.71Zm.12.9a6.33,6.33,0,0,1,.78,1.42s0,0,0,0a3.33,3.33,0,0,0-.79-1.42Zm.28.15a10.45,10.45,0,0,1,.68,1.28s0,0,0,0a4.41,4.41,0,0,0-.71-1.27s0,0,0,0Zm.29.09c.21.32.35.66.53,1,0,0,0,0,0,0a2.6,2.6,0,0,0-.54-1s0,0,0,0Zm.21,0c.1.22.19.44.3.66,0,0,0,0,0,0a6.58,6.58,0,0,0-.29-.66s0,0,0,0ZM25,20.78a2.2,2.2,0,0,1,.66.85s0,0,0,0a1.37,1.37,0,0,0-.68-.86s0,0,0,0Zm-.12-.17a9.11,9.11,0,0,1,1.21,1.62s0,0,0,0A4.14,4.14,0,0,0,24.9,20.6s0,0,0,0Zm.86.81a4.93,4.93,0,0,0,.59,1.14,12.35,12.35,0,0,1,.89,1.37s0,0,0,0a5,5,0,0,0-.64-1.1,7.69,7.69,0,0,1-.85-1.4s0,0,0,0Zm-1.5-.65c.32.51.62,1,.89,1.54,0,0,0,0,0,0a4,4,0,0,0-.91-1.53Zm.26.19c.23.36.42.72.62,1.09,0,0,0,0,0,0A4.52,4.52,0,0,0,24.53,21s0,0,0,0Zm.29.22a3.42,3.42,0,0,1,.4.66s0,0,0,0a1.57,1.57,0,0,0-.41-.66,0,0,0,1,0,0,0Zm-3.56.17A16.3,16.3,0,0,0,19.17,21s0,0,0,0c.69.14,1.38.22,2.07.35,0,0,0,0,0,0Zm-2.07-.49c.26,0,.52,0,.77.08s.5.12.75.17c0,0,0,0,0,0a3.65,3.65,0,0,0-1.53-.25s0,0,0,0Zm.12-.23a4.4,4.4,0,0,0,1.2.23s0,0,0,0c-.4-.07-.8-.17-1.2-.21,0,0,0,0,0,0Zm.11-.06a4.15,4.15,0,0,1,1.1.23s0,0,0,0a2.12,2.12,0,0,0-1.11-.23s0,0,0,0Zm-.31-.5a15.21,15.21,0,0,1,3.35.54s0,0,0,0a10.14,10.14,0,0,0-3.36-.53s0,0,0,0Zm2.19.19c.42.08.82.2,1.23.29,0,0,0,0,0,0a6.6,6.6,0,0,0-1.23-.27,0,0,0,0,0,0,0Zm-4.07,1.21a2.7,2.7,0,0,0,1.29.14s0,0,0,0a4.68,4.68,0,0,1-1.29-.14s0,0,0,0Zm1.65.27a5,5,0,0,1,1.67.2s0,0,0,0a2.9,2.9,0,0,0-1.67-.19s0,0,0,0Zm1.47.39a4.91,4.91,0,0,0-2-.47s0,0,0,0c.33,0,.66.07,1,.14s.71.22,1.06.31Zm-3.43-1a4.56,4.56,0,0,0,1.51.35s0,0,0,0c-.51-.09-1-.21-1.51-.35,0,0,0,0,0,0Zm.17-.06a10.91,10.91,0,0,0,1.25.32s0,0,0,0a11.4,11.4,0,0,0-1.25-.31s0,0,0,0Zm.2,0c.37.05.72.15,1.08.21,0,0,0,0,0,0A3.83,3.83,0,0,0,17.28,21s0,0,0,0ZM17.21,21a7.2,7.2,0,0,0,1.05-.19s0,0,0,0A3.25,3.25,0,0,0,17.2,21s0,0,0,0Zm-.07,0A1.46,1.46,0,0,1,18,20.8s0,0,0,0a1,1,0,0,0-.83.23s0,0,0,0Zm2.57,1.85a.66.66,0,0,0-.19.38,1,1,0,0,0-.07.41s0,0,0,0,.06-.29.1-.42a2.21,2.21,0,0,0,.15-.37s0,0,0,0Zm.16-.21c-.22.6-.41,1.21-.61,1.82a2.92,2.92,0,0,1-1.05,1.75s0,0,0,0a2,2,0,0,0,.89-1.19c.29-.79.56-1.6.79-2.4,0,0,0,0,0,0Zm-.33,1.15A5,5,0,0,1,19,25.36s0,0,0,0a2.89,2.89,0,0,0,.58-1.55s0,0,0,0ZM20,22.71s-.22.7-.23.77,0,0,0,0A3.34,3.34,0,0,0,20,23c0-.08.11-.24,0-.31h0a0,0,0,0,0,0,0h0Zm.17-.18c0,.13-.07.26-.12.38s-.1.25-.14.38a0,0,0,0,0,0,0,1.57,1.57,0,0,0,.26-.76s0,0,0,0Zm.17-.09c0,.14-.08.26-.13.39s-.1.23-.13.35a0,0,0,0,0,0,0,1.71,1.71,0,0,0,.25-.74s0,0,0,0Zm.22-.09a2.71,2.71,0,0,0-.25.67s0,0,0,0a2.74,2.74,0,0,0,.26-.67s0,0,0,0Zm.09,0a1.71,1.71,0,0,0-.13.44s0,0,0,0a1.65,1.65,0,0,0,.11-.45s0,0,0,0Zm.07-.12a2,2,0,0,0-.19.48s0,0,0,0a2.58,2.58,0,0,0,.17-.49s0,0,0,0Zm0,.14a1.44,1.44,0,0,0-.3,1.06s0,0,0,0a2.38,2.38,0,0,1,.28-1.05s0,0,0,0Zm-.24.8a12.93,12.93,0,0,1-.74,2.36s0,0,0,0a5.54,5.54,0,0,0,.75-2.37s0,0,0,0Zm-1,2.94a4.54,4.54,0,0,0,.32.62s0,0,0,0a4.42,4.42,0,0,0-.34-.6Zm.09.1a2.92,2.92,0,0,1,.14.31c0,.1.07.22.13.32s0,0,0,0a1.5,1.5,0,0,0-.26-.64s-.05,0,0,0Zm-.45-3.39a18.94,18.94,0,0,1-2.25.41,3,3,0,0,0-1.74.53s0,0,0,0a4.89,4.89,0,0,1,2.26-.57,8.31,8.31,0,0,0,1.71-.39ZM14.83,24a2.22,2.22,0,0,1,.44-.37s0,0,0,0a1.38,1.38,0,0,0-.45.38s0,0,0,0Zm.29-.21a3.53,3.53,0,0,1,2-.41,6.53,6.53,0,0,0,1.53-.18s0,0,0,0a10.85,10.85,0,0,1-2.13.14,2.58,2.58,0,0,0-1.39.47s0,0,0,0Zm1.25-.66a4,4,0,0,0,1-.09s0,0,0,0a8,8,0,0,1-1,.1Zm-.09-.09a4.55,4.55,0,0,0,1.1-.1s0,0,0,0c-.37,0-.73.08-1.1.09,0,0,0,0,0,0Zm.19-.17c.33,0,.67,0,1,0,0,0,0,0,0,0a4.86,4.86,0,0,0-1,0s0,0,0,0Zm.34-.11a6.54,6.54,0,0,0,.89-.08s0,0,0,0a6.54,6.54,0,0,0-.89.07s0,0,0,0Zm.07-.35.83-.1s0,0,0,0a2.43,2.43,0,0,0-.84.11s0,0,0,0Zm1.21-.06a3.36,3.36,0,0,1,1.29.21h0a2.39,2.39,0,0,0-1.29-.2Zm3.06-1.92a4.26,4.26,0,0,1,.62.13c.18.06.35.14.54.2,0,0,0,0,0,0a2.19,2.19,0,0,0-1.17-.34s0,0,0,0Zm-2.71.13c-.07-.15-.11-.31-.18-.46s0,0,0,0a.76.76,0,0,0,.19.45Zm-.16-.41c.29-.29.81-.29,1.18-.42a0,0,0,0,0,0,0,7.37,7.37,0,0,0-.81.2.62.62,0,0,0-.39.24s0,0,0,0Zm-.61,4.06c-1.1.52-2.39.83-3.21,1.78,0,0,0,.06,0,0,.85-1,2.09-1.18,3.17-1.79,0,0,0,0,0,0Zm-3.45,2.15a.49.49,0,0,1,.23-.24s0,0,0,0a.35.35,0,0,0-.25.25s0,0,0,0Zm3.24-1.9a6.65,6.65,0,0,0-3.08,1.82s0,0,0,0a9.38,9.38,0,0,1,3.06-1.82s0,0,0,0Zm0,.29a3.24,3.24,0,0,1-.51,2.38s0,0,0,0a2.83,2.83,0,0,0,.54-2.4s-.05,0,0,0Zm-.21.28a1.92,1.92,0,0,1,0,1.45s0,0,0,0a1.56,1.56,0,0,0,0-1.47s0,0,0,0Zm-3.14,2.34a3.86,3.86,0,0,0-.26,1.3s0,0,0,0a7.28,7.28,0,0,1,.25-1.3Zm0-.11c-.06.35-.09.7-.13,1.05a1,1,0,0,0,.07.67s0,0,0,0a4.3,4.3,0,0,1,.06-1.71Zm.05.38a5.22,5.22,0,0,0,0,1.25h0c0-.42,0-.83,0-1.25Zm.16,1.14A2.24,2.24,0,0,0,15.61,28s0,0,0,0a2.81,2.81,0,0,1-1.28.77Zm1.9-2.55a1.56,1.56,0,0,0-.11.88h0c0-.14,0-.28,0-.42a3.63,3.63,0,0,1,.1-.45s0,0,0,0Zm.14-.16c0,.16-.05.31-.07.47a1.9,1.9,0,0,0,0,.41h0a1.85,1.85,0,0,0,.07-.41c0-.15,0-.31,0-.46s0,0,0,0Zm.16-.15a3.86,3.86,0,0,1-.22.95s0,0,0,0a2.43,2.43,0,0,0,.2-1Zm.12,0a2.26,2.26,0,0,0-.15,1,0,0,0,0,0,0,0c0-.16,0-.33.06-.49s.06-.33.09-.49,0,0,0,0Zm.1,0a6.18,6.18,0,0,1-.11.85s0,0,0,0a2.22,2.22,0,0,0,.12-.85s0,0,0,0Zm.39-.71c-.19.16-.36.35-.55.53s-.39.33-.56.51c0,0,0,0,0,0a4.43,4.43,0,0,0,1.1-1.06Zm-.68.61c-.36.33-.71.67-1.06,1a1.2,1.2,0,0,0-.43.63s0,0,0,0a7.41,7.41,0,0,1,1.47-1.65s0,0,0,0Zm2-5.72c.08-.38,1.41-.36,1.66-.35a5.1,5.1,0,0,1,1.39.37s0,0,0,0a3.18,3.18,0,0,0-1.65-.43,2.36,2.36,0,0,0-1.43.33,0,0,0,0,0,0,0l0,.07s0,0,0,0Zm4.37,3.38c-.25.59-.54,1.18-.77,1.78,0,0,0,.06.05,0a7.26,7.26,0,0,0,.74-1.8s0,0,0,0Zm.18-.06a.54.54,0,0,0-.05-.11s0,0,0,0a.49.49,0,0,0,0,.11s0,0,0,0Zm0-.35a17.29,17.29,0,0,0-.62,1.84s.05,0,.06,0a16.31,16.31,0,0,0,.6-1.83,0,0,0,0,0,0,0Zm.26-.3a12.09,12.09,0,0,0-.61,1.75,0,0,0,0,0,0,0,14,14,0,0,0,.59-1.76s0,0,0,0Zm.14,0c-.21.57-.41,1.15-.57,1.74,0,0,0,0,0,0,.22-.57.4-1.16.56-1.74Zm.11,0c-.16.5-.29,1-.41,1.52,0,0,0,0,0,0,.15-.5.29-1,.41-1.52Zm.13.29a4,4,0,0,0-.35,1.21s0,0,0,0c.13-.4.21-.82.35-1.21,0,0,0,0,0,0Zm.11.17c-.06.33-.18.63-.27,1,0,0,0,0,0,0a2.47,2.47,0,0,0,.28-1s0,0,0,0Zm-.53-1.88a2.88,2.88,0,0,0,0,.59,3.87,3.87,0,0,0,0,.59s0,0,0,0a4.35,4.35,0,0,0,0-.63,3.37,3.37,0,0,0,0-.55s0,0,0,0Zm0-.11a3.24,3.24,0,0,0-.11.76,5.12,5.12,0,0,0-.07.77,0,0,0,0,0,.06,0,4,4,0,0,0,.1-.77,3.24,3.24,0,0,0,.05-.76s0,0,0,0Zm0-.05c0,.55-.14,1.14-.14,1.69,0,0,0,0,.05,0a5.11,5.11,0,0,0,.12-1.7s0,0,0,0Zm.14.1c0,.21,0,.41,0,.61a5.11,5.11,0,0,0-.05.55s0,0,0,0a1.91,1.91,0,0,0,.05-1.16Zm.14.07a4,4,0,0,0,0,1.09,0,0,0,1,0,0,0,4,4,0,0,0,0-1.09s0,0-.05,0Zm.08.22a4.88,4.88,0,0,0-.07.85s0,0,0,0a4.59,4.59,0,0,0,.11-.84,0,0,0,0,0-.07,0Zm.16.08c0,.15-.06.3-.09.45a2.3,2.3,0,0,0,0,.45s0,0,0,0a2,2,0,0,0,.1-.42c0-.15.05-.31.06-.47a0,0,0,0,0-.05,0Zm.09.06a1.34,1.34,0,0,0,0,.35,1.09,1.09,0,0,0,0,.36s0,0,0,0a1.39,1.39,0,0,0,0-.35,2.17,2.17,0,0,0,0-.36,0,0,0,1,0,0,0Zm.13.06,0,.3a1.09,1.09,0,0,0,0,.26s0,0,0,0a1.11,1.11,0,0,0,.07-.57,0,0,0,1,0,0,0Zm.12.17a.37.37,0,0,1,0,.23s0,0,0,0a.4.4,0,0,0,0-.24s0,0,0,0Zm-1.73,5.33a2.24,2.24,0,0,0,.34.9,0,0,0,0,0,0,0,4.38,4.38,0,0,1-.35-.91,0,0,0,0,0,0,0Zm.42,1a2.33,2.33,0,0,0,.38.58s0,0,0,0a2.76,2.76,0,0,0-.38-.58s0,0,0,0Zm0-.56a2.26,2.26,0,0,0,.52,1.05s0,0,0,0a5.65,5.65,0,0,1-.53-1s0,0,0,0Zm.15,0a2.87,2.87,0,0,0,.53,1s0,0,0,0c-.16-.32-.37-.62-.52-.95,0,0,0,0,0,0Zm.25.15c.12.19.18.39.29.57,0,0,0,0,0,0a1.5,1.5,0,0,0-.3-.59s0,0,0,0Zm.09-3.62A5.84,5.84,0,0,1,23,25.91s0,0,0,0a3.18,3.18,0,0,0,.23-1.56ZM23,26.12a3,3,0,0,0,.05,1.74s.05,0,0,0a4,4,0,0,1-.07-1.73s0,0,0,0Zm.33-1.37A11.32,11.32,0,0,0,23,26.58s0,0,0,0a8.27,8.27,0,0,0,.33-1.84s0,0,0,0Zm-.1-.58C24,25.09,25,25.29,25.86,26c0,0,0,0,0,0a2.73,2.73,0,0,0-1-.66,5.17,5.17,0,0,1-1.6-1.17s0,0,0,0Zm.46.79a4,4,0,0,0,1.19.75,3.85,3.85,0,0,1,1.69,1.15s.06,0,0,0c-.68-1-2-1.2-2.9-1.88,0,0,0,0,0,0Zm1.92.87a4.08,4.08,0,0,1,1,1.09s0,0,0,0a2.47,2.47,0,0,0-1-1.08s0,0,0,0Zm.34-.28a9.78,9.78,0,0,1,.86,1s0,0,0,0a4.23,4.23,0,0,0-.87-1s0,0,0,0Zm-.21-.45c.36.38.68.79,1,1.17a0,0,0,1,0,0,0,7.75,7.75,0,0,0-1.05-1.16s0,0,0,0Zm0-.33a10.92,10.92,0,0,0,.85.94s0,0,0,0a10.76,10.76,0,0,0-.85-.94s0,0,0,0Zm-.13-.56c.18.26.37.52.57.76,0,0,0,0,0,0-.18-.26-.37-.51-.57-.76,0,0,0,0,0,0Zm-.77-1.81a8.87,8.87,0,0,0,.76,1.25s.06,0,0,0a9.43,9.43,0,0,0-.74-1.26s-.08,0-.06,0Zm-.12-.21a4.71,4.71,0,0,0,.83,1.44,0,0,0,0,0,.05,0c-.26-.49-.58-.94-.82-1.44a0,0,0,1,0-.06,0Zm-.05.15a3.76,3.76,0,0,0,.74,1.21s0,0,0,0c-.22-.41-.49-.81-.73-1.21a0,0,0,0,0,0,0Zm-.2-.17a3.24,3.24,0,0,0,.71,1.18s0,0,0,0c-.23-.4-.47-.79-.72-1.18,0,0,0,0,0,0Zm-.14-.26a2.67,2.67,0,0,0,.57,1.17s.05,0,0,0a9.65,9.65,0,0,1-.58-1.16s0,0,0,0Zm-.07.13a1.8,1.8,0,0,0,.43,1s0,0,0,0a5.85,5.85,0,0,1-.44-1Zm-.17-.1a2.43,2.43,0,0,0,.46,1s0,0,0,0c-.16-.33-.33-.64-.46-1,0,0,0,0,0,0Zm0-.11a1.75,1.75,0,0,0,.26.46,4.11,4.11,0,0,0,.34.51s.05,0,0,0a4.25,4.25,0,0,0-.27-.46,3,3,0,0,0-.35-.5s0,0,0,0Zm.33.11a7.52,7.52,0,0,0,.54.91s0,0,0,0a8.29,8.29,0,0,0-.53-.91s-.05,0,0,0Zm.22.12a2.21,2.21,0,0,0,.18.34c.06.11.12.23.19.34s.05,0,0,0a1.43,1.43,0,0,0-.17-.38,1.05,1.05,0,0,0-.22-.3s0,0,0,0Zm.65,7a2.27,2.27,0,0,0,.85.89s0,0,0,0a6.51,6.51,0,0,1-.86-.88Zm.88.89a3.4,3.4,0,0,0,.95.48s0,0,0,0l-1-.49a0,0,0,0,0,0,0Zm-1.58-3.58a10.92,10.92,0,0,1,.05,2s0,0,0,0a5.28,5.28,0,0,0-.06-2Zm.07,2.13a1.66,1.66,0,0,0,.22.61s0,0,0,0a4.31,4.31,0,0,1-.22-.6Zm.25.56c-.23-.78.14-1.62-.15-2.37,0,0,0,0,0,0,.18.77-.16,1.64.17,2.37Zm-.4-2.83a2.81,2.81,0,0,0,.2.7s.05,0,.05,0a2.64,2.64,0,0,0-.24-.7ZM24.33,26a6.28,6.28,0,0,1,.45,1s0,0,0,0a1.78,1.78,0,0,0-.46-1s0,0,0,0Zm.29.49c0,.12.07.23.1.36s0,.24.05.37a0,0,0,1,0,0,0,1,1,0,0,0-.16-.74s0,0,0,0Zm0-.34c.14.17.28.35.43.51s0,0,0,0a5.27,5.27,0,0,0-.43-.51s0,0,0,0Zm-.68-3.58a3.4,3.4,0,0,1-.13.65s0,0,0,0a2.54,2.54,0,0,0,.11-.67Zm.15-.15c0,.18-.09.37-.13.56a3.56,3.56,0,0,0-.13.65s0,0,0,0a3.63,3.63,0,0,0,.13-.57c.05-.21.09-.42.12-.64,0,0,0,0,0,0Zm.18,0q0,.3-.12.6c0,.11-.05.23-.08.34s0,.25-.08.27,0,0,0,0h0s0,0,0,0a0,0,0,0,0,0,0c.11-.05.13-.33.15-.44a7,7,0,0,0,.14-.8s0,0,0,0Zm.17.19-.12.57a3.75,3.75,0,0,0-.09.57s0,0,0,0a3.23,3.23,0,0,0,.11-.54c0-.2.07-.4.1-.61Zm.25.16c0,.15-.07.31-.1.47a1.84,1.84,0,0,0-.07.47s0,0,0,0a2.85,2.85,0,0,0,.09-.44c0-.17.05-.34.07-.5Zm.09.12c0,.3-.1.59-.15.88a0,0,0,0,0,0,0l.06-.21s0,0,0,0l-.09.2h0a3.25,3.25,0,0,0,.15-.88s0,0,0,0ZM25,23a4.9,4.9,0,0,0-.08.76,0,0,0,1,0,0,0A6.36,6.36,0,0,0,25,23s0,0,0,0Zm.08.1a4.48,4.48,0,0,1-.05.64,0,0,0,0,0,.05,0,1.81,1.81,0,0,0,.06-.66,0,0,0,0,0-.06,0Zm.11.16a4.06,4.06,0,0,0,0,.6,0,0,0,1,0,0,0,2.88,2.88,0,0,0,.07-.59,0,0,0,0,0-.08,0Zm.14.3a1.35,1.35,0,0,0,0,.4s0,0,0,0a1.33,1.33,0,0,0,0-.4s-.07-.05-.07,0Zm.16-.07c0,.11,0,.22,0,.33s0,.15,0,.2,0,0,0,0,0,0,0,0,0,0,0,0a0,0,0,0,0,0,0h0s0-.05,0-.06,0-.11,0-.17a2.44,2.44,0,0,0,0-.27,0,0,0,0,0-.05,0Zm.13.16a.66.66,0,0,0,0,.5s0,0,0,0,0-.12,0-.19a.9.9,0,0,1,0-.28s0-.06-.05,0Zm.15.3a1.74,1.74,0,0,0,0,.32,1.19,1.19,0,0,0,0,.33s0,0,.05,0a1,1,0,0,0,0-.3,1.86,1.86,0,0,0,0-.34s0,0,0,0Zm.18.48c0,.16.05.3.08.46s0,0,0,0a3.47,3.47,0,0,0-.06-.45s-.06,0-.05,0Zm-5.26-10a2.87,2.87,0,0,0,.55.9s.05,0,0,0c-.17-.3-.37-.6-.55-.9,0,0-.05,0,0,0Zm.08.06a2.15,2.15,0,0,0,.79,1.06,0,0,0,0,0,0,0c-.13-.16-.29-.3-.42-.46a5,5,0,0,1-.38-.59s0,0,0,0Zm.19.44a1.59,1.59,0,0,0,.65.73s0,0,0,0-.23-.23-.33-.35-.2-.26-.3-.39-.05,0,0,0Zm.14.16a1.56,1.56,0,0,0,.68.8,0,0,0,0,0,0,0c-.11-.13-.24-.24-.36-.37s-.2-.29-.31-.41,0,0,0,0Zm.17.26a2.82,2.82,0,0,1,.41.44,2.77,2.77,0,0,1,.26.55s0,0,0,0a1.29,1.29,0,0,0-.68-1s0,0,0,0Zm-.43-.72a8.77,8.77,0,0,0-.63-1.31s0,0,0,0a9.16,9.16,0,0,0,.63,1.3s0,0,0,0ZM20,13.19c.17.27.33.55.49.83,0,0,0,0,0,0a2.19,2.19,0,0,0-.5-.84s0,0,0,0Zm2.76,2.06c.11.17.18.36.3.53h0a2.13,2.13,0,0,0-.3-.53,0,0,0,1,0,0,0Zm0,0a1.11,1.11,0,0,0,.4.58s0,0,0,0a2.46,2.46,0,0,1-.38-.57s-.05,0,0,0Zm0,0a1.26,1.26,0,0,0,.57.86s0,0,0,0a2.13,2.13,0,0,1-.57-.84s0,0,0,0Zm.15.11a1.39,1.39,0,0,0,.56.68s0,0,0,0a4.05,4.05,0,0,1-.56-.68s0,0,0,0Zm.1,0a1.56,1.56,0,0,0,.6.67s0,0,0,0A4.72,4.72,0,0,1,23,15.3s0,0,0,0Zm.1,0a1.59,1.59,0,0,0,.61.72s0,0,0,0-.22-.22-.32-.33a4.5,4.5,0,0,1-.28-.37s0,0,0,0Zm.15.16a1.47,1.47,0,0,0,.69.68s0,0,0,0-.25-.19-.37-.31a3.65,3.65,0,0,1-.31-.36s0,0,0,0Zm.23.29a1.57,1.57,0,0,0,.66.51s0,0,0,0-.23-.16-.34-.24l-.33-.25s0,0,0,0Zm5.35,11c.6.27,1-.31,1.14-.83a8.63,8.63,0,0,1,.4-1.49,5.64,5.64,0,0,1,1-1.46s0-.05,0,0a4.28,4.28,0,0,0-1,1.54c-.26.65-.29,2.62-1.4,2.24a0,0,0,0,0,0,0Zm-.36-.35c0,.28.37.42.57.44s.62-.07.63-.36a.06.06,0,0,0-.07-.06c-.18,0-.33.16-.53.15a.6.6,0,0,1-.29-.08.64.64,0,0,0-.22-.14.07.07,0,0,0-.09.05ZM31.33,23c-.48,0-.85.8-1,1.19a11,11,0,0,0-.62,2.19,0,0,0,0,0,.07,0c.42-.47.38-1.27.62-1.84a4.82,4.82,0,0,1,.6-1c.16-.21.34-.31.38-.57Zm-.1,0a1.91,1.91,0,0,1,.16.32,1.08,1.08,0,0,0,.11.3.06.06,0,0,0,.09,0c.13-.23-.11-.57-.31-.67a0,0,0,0,0-.05.05Zm.45.58a6.08,6.08,0,0,1,.55-1.35c.24-.39.59-.68.84-1.05,0-.05,0-.1-.07-.08a3.13,3.13,0,0,0-1.41,2.46c0,.05.07.08.09,0ZM33,21.36a5.19,5.19,0,0,1,.36.46c0,.06.13,0,.14,0A3.06,3.06,0,0,1,34,20.44a9.16,9.16,0,0,1,.94-.93s0-.11-.05-.09a3,3,0,0,0-1.57,2.34l.15,0a1.31,1.31,0,0,0-.39-.48c-.07-.05-.16,0-.1.1Zm1.82-1.81a4.44,4.44,0,0,0,.42.55.11.11,0,0,0,.17,0,2.89,2.89,0,0,1,2-1.16c.08,0,.09-.15,0-.15A3,3,0,0,0,35.19,20h.18a4.85,4.85,0,0,0-.49-.52c-.07-.07-.15,0-.1.11Zm2.58-.73a2.92,2.92,0,0,0,.09.5.07.07,0,0,0,.09.06l1-.19a1.9,1.9,0,0,1,.75.06s.05-.05,0-.07C39.25,19,39,19,38.78,19a11.25,11.25,0,0,0-1.27.22l.09.06a.55.55,0,0,0-.22-.48s0,0,0,0Zm1.89.47c0,.26.15.5.19.76s0,.54,0,.79c0,0,.08.07.11,0a1.72,1.72,0,0,0-.24-1.62.06.06,0,0,0-.1.05ZM39.56,21a.41.41,0,0,1,.56.52c-.07.18-.29.43-.2.62a0,0,0,0,0,.07,0c.15-.07.22-.33.29-.48a.77.77,0,0,0,.06-.54.52.52,0,0,0-.38-.3.33.33,0,0,0-.41.15s0,0,0,0ZM40,22.15a.28.28,0,0,0,.17.15l.19.07c.14.07.11.2.05.32a1.91,1.91,0,0,1-.32.51c-.07.08-.16.13-.22.21s0,.1-.07.15,0,0,0,0,.13,0,.23-.08l.22-.24a1.84,1.84,0,0,0,.34-.65c.11-.41-.34-.33-.56-.5,0,0-.07,0-.05,0ZM29.72,27.48a3.71,3.71,0,0,0,.71,2.3c.22.39.46.75.7,1.12s.48.9.79,1.29a.08.08,0,0,0,.14-.06,6.54,6.54,0,0,0-1.17-2,8.19,8.19,0,0,1-.7-1.22,11.8,11.8,0,0,1-.39-1.41,0,0,0,0,0-.08,0Zm.16.42a1.06,1.06,0,0,1,0-.5,3.3,3.3,0,0,1,.26-.39,0,0,0,0,0,0-.06.53.53,0,0,0-.36.4.71.71,0,0,0,0,.57s.08,0,.07,0Zm1-1.91s0,0,0,0,0,0,0,0Zm.33-.44c-.56.62-1.12.87-.88,1.81a2.5,2.5,0,0,0,1.54,1.78.05.05,0,0,0,.05-.09,3.22,3.22,0,0,1-1.38-1.88A1.17,1.17,0,0,1,31,26.08a1.25,1.25,0,0,0,.33-.49s0-.07-.07,0Zm.66,3.5A2.83,2.83,0,0,1,32,28.4a5.38,5.38,0,0,1,.24-.55s0-.06-.06,0a1.67,1.67,0,0,0-.3,1.23,0,0,0,0,0,0,0Zm-.77-3.27a1.16,1.16,0,0,0,.54-.53,3,3,0,0,1,.88-.9,13,13,0,0,1,2.33-.69s0-.09,0-.1a4.17,4.17,0,0,0-2.33.55,4.65,4.65,0,0,0-1.43,1.62s0,.06,0,.05Zm1,2.24c-.32.78.87,2,1.63,2.05a.05.05,0,0,0,0-.09,4.71,4.71,0,0,1-1.09-.85c-.27-.34-.31-.78-.56-1.11Zm1.68,2.13a1.25,1.25,0,0,0,.2-.42.76.76,0,0,0,.1-.41s0-.06-.07,0a1,1,0,0,0-.2.4,1.34,1.34,0,0,0-.1.44s0,0,.07,0Zm.23-.68a1.35,1.35,0,0,0,.48.5,1,1,0,0,0,.63.19,0,0,0,0,0,0-.09,5.29,5.29,0,0,0-.54-.25,2.88,2.88,0,0,1-.52-.4,0,0,0,0,0-.07,0Zm1.22.72a4.17,4.17,0,0,0,.37-.56,2,2,0,0,0,.25-.5s-.05-.07-.08,0a1.62,1.62,0,0,0-.32.52,2.81,2.81,0,0,0-.25.56s0,0,0,0Zm-3-4.32a2.52,2.52,0,0,0,1,.19,1.42,1.42,0,0,0,.84-.15s0-.09,0-.09a4.59,4.59,0,0,0-.82.06,8.11,8.11,0,0,1-1,0s0,0,0,0Zm-.46-.36a1,1,0,0,0,.82.11,4.11,4.11,0,0,1,1.6.11s0,0,0,0A2.46,2.46,0,0,0,33,25.42a8,8,0,0,1-1.2.06s0,0,0,0Zm2.33.5a18.2,18.2,0,0,1,3.11.44,7.14,7.14,0,0,0,2.49.51,0,0,0,1,0,0,0,13.55,13.55,0,0,1-1.55-.26c-.52-.14-1-.36-1.51-.5a7.49,7.49,0,0,0-2.54-.22s0,.06,0,.07Zm6.53,1.14.69.22a0,0,0,0,0,0,0l-.69-.22s-.05,0,0,0Zm.9.19s0,0,0,0,0,0,0,0Zm.24.18c.21.1.41.19.61.31a2.09,2.09,0,0,0,.46.26s0,0,0-.05a1.06,1.06,0,0,0-.48-.37,2.27,2.27,0,0,0-.62-.21,0,0,0,0,0,0,.06Zm-6.93-1.81c.76.29,1.6.13,2.37.4.59.21,1.17.66,1.83.58,0,0,0-.06,0-.06-.76-.14-1.39-.56-2.13-.73s-1.39-.1-2.07-.2c0,0,0,0,0,0Zm4.34,1.06a3.22,3.22,0,0,0,1.31.17s0,0,0,0l-.65-.09c-.21,0-.43-.1-.64-.12a0,0,0,0,0,0,.07Zm2,.3a.12.12,0,0,0-.1-.21.12.12,0,0,0,.1.21Zm0-.06s0,0,0,0a0,0,0,0,0,0,0Zm.31.11a1.67,1.67,0,0,0,.23.23s0,0,0,0a2.5,2.5,0,0,0-.24-.22s0,0,0,0ZM40.84,27v0s0,0,0,0-.1.11,0,.16.48.13.7.21.49.24.75.31c0,0,.07,0,0-.05a2,2,0,0,0-.74-.39,4.67,4.67,0,0,0-.79-.21,0,0,0,0,0,0,0Zm1.08.34c.22.12.42.27.63.41a3.36,3.36,0,0,0,.49.35s.05,0,0,0a1.38,1.38,0,0,0-.5-.43,3.07,3.07,0,0,0-.66-.31s0,0,0,0Zm-7.15-3.68c1.17.13,2.4-.21,3.58-.18a4.77,4.77,0,0,1,1.67.29,6,6,0,0,1,1.66,1.18s.12,0,.07-.09a4.67,4.67,0,0,0-3-1.5,10.33,10.33,0,0,0-1.67,0,12.53,12.53,0,0,0-2.29.24s0,0,0,0Zm1,5.65a1.66,1.66,0,0,0,1.58.62,0,0,0,1,0,0,0,2.83,2.83,0,0,1-.81-.2,3.32,3.32,0,0,1-.69-.46c-.06-.05-.11,0-.08.08Zm1.56.66a3.7,3.7,0,0,0,.33-.36,1.08,1.08,0,0,0,.28-.39s0-.09-.07-.07a1.17,1.17,0,0,0-.31.35,4,4,0,0,0-.28.43s0,.06,0,0Zm.52-.61c.56.45,1.94,1,2.43.16,0,0,0-.1-.06-.07a1.87,1.87,0,0,1-1.15.24,8.2,8.2,0,0,1-1.17-.43c-.06,0-.09.06,0,.1Zm2.47.14a1.18,1.18,0,0,0-.25-.57s-.09,0-.09,0a1.22,1.22,0,0,0,.27.56,0,0,0,0,0,.07,0Zm-.18-.54a5,5,0,0,0,1.49-.12s0-.09,0-.08a8.16,8.16,0,0,1-1.48.15s0,0,0,.05Zm1.54-.13a4,4,0,0,1,0-.49,1.91,1.91,0,0,0-.06-.48,0,0,0,0,0-.08,0,3.11,3.11,0,0,0,0,.43,3.22,3.22,0,0,1,.1.54s0,0,0,0ZM41.51,28a2.13,2.13,0,0,0,2.36.31.06.06,0,0,0,0-.1c-.37,0-.73.09-1.11.05a6.4,6.4,0,0,1-1.15-.36c-.06,0-.11,0-.07.1Zm2.31.2a2.9,2.9,0,0,0-1.68-1.78s0,0,0,0a4,4,0,0,1,1.54,1.81c0,.07.16,0,.14,0Zm-1.69-1.76c.11.1.27.05.4,0s.35-.05.45-.17a.07.07,0,0,0,0-.09,1.31,1.31,0,0,0-.47.09.53.53,0,0,0-.34.13Zm.89-.22a2.16,2.16,0,0,0-1.09-1s-.08,0,0,.06a6.28,6.28,0,0,0,.54.49c.17.18.31.38.47.58s.17,0,.13-.09Zm-1.13-1a.86.86,0,0,0,.52-.15.08.08,0,0,0,0-.12,2.84,2.84,0,0,0-.47-.37,3.63,3.63,0,0,0-.5-.22,0,0,0,1,0,0,.05,4.53,4.53,0,0,1,.46.3,3,3,0,0,1,.43.35V25a1.3,1.3,0,0,1-.42.18s0,.09,0,.09Zm-11.5,1.43a.93.93,0,0,0-.66.67s0,.07.08,0a3,3,0,0,0,.31-.31c.1-.11.22-.21.33-.31a.05.05,0,0,0-.06-.09Zm4.75-3.31c.29-.39.19-.92.26-1.38a6.75,6.75,0,0,1,.73-1.78s0-.06-.05,0c-1,.75-.78,2.13-1,3.19,0,0,0,0,0,0Zm.9,0a2.86,2.86,0,0,0,1-1.14s0,0,0,0c-.17.17-.3.37-.45.55s-.34.39-.5.6c0,0,0,0,0,0Zm1.38-1.63a12.4,12.4,0,0,0,1.23-1.28c.06-.06,0-.14-.09-.06a4.3,4.3,0,0,1-1.16,1.32s0,0,0,0Zm-4.27,2.17a1.33,1.33,0,0,0,.15-.55.68.68,0,0,0,0-.49.09.09,0,0,0-.13,0c-.09.12,0,.34,0,.49a4.69,4.69,0,0,0,0,.53,0,0,0,0,0,.09,0Zm-.68.15a1.34,1.34,0,0,0,.11-.65s0,0-.06,0a1.58,1.58,0,0,0-.1.65s0,.05,0,0ZM23.2,21.4c-.15.18-.08.55-.11.78s-.19.57-.08.8a.08.08,0,0,0,.11,0c.26-.13.27-.55.3-.8s.08-.67-.14-.83a.06.06,0,0,0-.08,0Zm.1.1a3.77,3.77,0,0,0,0,.67c0,.19-.12.43,0,.6a.08.08,0,0,0,.11.05c.24-.09.24-.47.23-.68a.81.81,0,0,0-.27-.68.05.05,0,0,0-.08,0Zm.27.08a3.15,3.15,0,0,1,0,.53.75.75,0,0,0,0,.42s.05,0,.08,0c.29-.21.16-.74,0-1,0-.08-.15,0-.14,0Zm.2.5a.59.59,0,0,0,0,.23s0,0,.06,0a.62.62,0,0,0,.07-.23c0-.08-.11-.09-.12,0Zm4.75,5.35A6.46,6.46,0,0,0,29,28.81s.09,0,.08,0a6.84,6.84,0,0,0-.48-1.38c0-.05-.1,0-.09,0Zm.06.11a3.07,3.07,0,0,0,.5,1.32,0,0,0,0,0,.08,0,3.13,3.13,0,0,0-.24-.6c-.1-.23-.18-.47-.27-.7,0,0-.08,0-.07,0Zm.16-.06a5,5,0,0,0,.54,1.36s.07,0,.07,0a5.05,5.05,0,0,0-.53-1.36c0-.05-.1,0-.08,0Zm.21.17a6.29,6.29,0,0,0,.36,1c0,.05.13,0,.12,0a5.63,5.63,0,0,0-.4-1c0-.05-.09,0-.08,0Zm.15.13a4.85,4.85,0,0,1,.3.91.05.05,0,0,0,.1,0,1.76,1.76,0,0,0-.27-1c-.05-.08-.18,0-.13.06Zm-1.65-1.64a1.62,1.62,0,0,1-.19-.6c0-.09-.18-.07-.15,0A4.05,4.05,0,0,0,28,27.35c.06.06.17,0,.11-.09a.63.63,0,0,0-.1-.12s-.1,0-.08,0l.06.15.13-.06a12.4,12.4,0,0,1-.87-1.75l-.13.08a1.75,1.75,0,0,1,.32.54ZM27,25.22a4.14,4.14,0,0,0,1,2c.05.05.14,0,.1-.06a10.7,10.7,0,0,1-1-1.95c0-.08-.16,0-.15,0Zm3.69-1a6.55,6.55,0,0,0-.42,1,2.83,2.83,0,0,0-.18.9s0,0,.05,0a7.71,7.71,0,0,0,.27-1c.09-.32.2-.64.32-.95,0,0,0,0,0,0Zm.24-.1a2.79,2.79,0,0,0-.5,1.62,0,0,0,0,0,.06,0c.09-.26.12-.54.19-.81s.19-.52.29-.78c0,0,0-.05,0,0Zm.14,0a3.13,3.13,0,0,0-.35,1.53s.07.05.08,0c.06-.23.07-.47.11-.7a7.58,7.58,0,0,1,.21-.82,0,0,0,1,0,0,0Zm.16.06-.15.63a1.93,1.93,0,0,0-.08.58,0,0,0,0,0,.08,0,1.85,1.85,0,0,0,.1-.57c0-.22.06-.43.1-.64,0,0,0,0,0,0ZM31,25.3a8.09,8.09,0,0,0-.46.68,1.91,1.91,0,0,0-.29.59s0,0,0,0a2.09,2.09,0,0,0,.42-.6c.12-.22.25-.43.36-.66a0,0,0,0,0,0,0Zm.6-.36a5.46,5.46,0,0,0-1,1.25s0,.1.06.06a5.77,5.77,0,0,0,1-1.29s0,0,0,0Zm.31,1.11a6.27,6.27,0,0,0-.37,1.33s0,0,0,0a5.57,5.57,0,0,0,.36-1.33s0,0,0,0Zm.31,0a2,2,0,0,0-.51,1.42,0,0,0,0,0,.05,0,4.85,4.85,0,0,1,.15-.74,2.78,2.78,0,0,1,.33-.67s0,0,0,0Zm.76.14c.37.83-.05,2,.65,2.64,0,0,.06,0,0,0-.62-.79-.1-1.84-.67-2.62,0,0,0,0,0,0Zm.51,1.56a1.92,1.92,0,0,0,.25,1.22,0,0,0,0,0,.07,0,2.82,2.82,0,0,1-.3-1.18s0,0,0,0Zm-.31-1.58c0,.22.13.43.18.66s.05.45.07.68c0,0,0,0,.05,0a1.88,1.88,0,0,0-.28-1.35s0,0,0,0Zm.19,0c0,.21.09.41.13.61s.05.41.1.61a0,0,0,1,0,0,0,3.08,3.08,0,0,0-.22-1.23s-.06,0,0,0Zm.12-.05a4.81,4.81,0,0,0,.28,1.07,0,0,0,0,0,.06,0,4.9,4.9,0,0,0-.29-1.06s-.06,0,0,0Zm.18-.21A5.65,5.65,0,0,0,33.93,27s0,0,0,0a5.76,5.76,0,0,0-.26-1.07s0,0,0,0Zm.12.21a3,3,0,0,1,.17.64,0,0,0,0,0,.08,0,1.26,1.26,0,0,0-.16-.68,0,0,0,1,0-.09,0Zm2.56-2.8a11.2,11.2,0,0,0,1.64.11s0,0,0,0a11.21,11.21,0,0,0-1.64-.12s0,0,0,0Zm1.7.1s0,0,0,0,0,0,0,0Zm-1.59-.31a6.62,6.62,0,0,0,2.35.1s0,0,0,0c-.78,0-1.57-.1-2.34-.1,0,0,0,0,0,0Zm.14.05c.67.06,1.36.11,2,.14,0,0,0,0,0,0a8.31,8.31,0,0,0-2-.11s0,0,0,0Zm.55-.29a7.87,7.87,0,0,0,1.67.21,0,0,0,1,0,0,0,8.38,8.38,0,0,0-1.67-.2s0,0,0,0Zm.22-.07a10.22,10.22,0,0,1,2.26.29s0,0,0,0a5.16,5.16,0,0,0-2.27-.28s0,0,0,0Zm.55-.25c.59,0,1.16.15,1.74.22a0,0,0,0,0,0,0,6.07,6.07,0,0,0-1.75-.2s0,0,0,0Zm.22-.21a7.93,7.93,0,0,1,1.53.28s0,0,0,0a4.08,4.08,0,0,0-1.54-.28s0,0,0,0Zm-.49.82c.32,0,.63,0,1,.07s.86,0,1,.27a0,0,0,0,0,.07,0c0-.28-.41-.29-.62-.32a5.26,5.26,0,0,0-1.43-.06s0,.06,0,.06Zm.53.14c.29,0,.57,0,.85.08a8.33,8.33,0,0,0,.84.17,0,0,0,0,0,0-.08,3.06,3.06,0,0,0-1.72-.23s0,.06,0,.06Zm.34-.3.67.07c.23,0,.45.12.67.14a0,0,0,0,0,0,0,2.24,2.24,0,0,0-1.35-.2,0,0,0,0,0,0,0Zm.52-.18c.28,0,.53.14.8.2,0,0,0,0,0,0a1.7,1.7,0,0,0-.81-.19,0,0,0,0,0,0,0Zm-4.91.71a1.67,1.67,0,0,0,.16-1.14,0,0,0,0,0,0,0,4.86,4.86,0,0,1,0,.54,2.45,2.45,0,0,1-.14.58s0,0,0,0Zm.25-1.29c.06-.68.21-1.35.29-2,0,0,0,0,0,0a5,5,0,0,0-.27,2Zm.27-1.66a12.49,12.49,0,0,0-.24,3.28,0,0,0,0,0,0,0c.12-1.08.11-2.19.21-3.28Zm0,2c0,.18,0,.36,0,.53a2,2,0,0,0,0,.48,0,0,0,0,0,0,0,1.2,1.2,0,0,0,.08-.5,2.91,2.91,0,0,0,0-.51s0,0,0,0Zm.16-.1c0,.21,0,.42-.07.63a1.38,1.38,0,0,0,0,.57s0,0,.05,0a2,2,0,0,0,.08-.56c0-.21,0-.42,0-.63,0,0-.07-.05-.08,0Zm.13,0a5.22,5.22,0,0,0-.11,1.11c0,.05.09.06.1,0a4.54,4.54,0,0,0,.09-1.11c0-.05-.07-.06-.08,0Zm.15-.08a6.83,6.83,0,0,0-.11,1.1c0,.09.13.11.14,0a6.9,6.9,0,0,0,.07-1.11.05.05,0,0,0-.1,0Zm.35,1.08s0,0,0,0,0,0,0,0Zm0,0-.06.15h.06a3.29,3.29,0,0,0,.09-.88h0a1.41,1.41,0,0,0-.07.41c0,.15,0,.31-.06.46a0,0,0,0,0,.07,0,.83.83,0,0,1,0-.15,0,0,0,0,0,0,0Zm0-.91a4.82,4.82,0,0,1,.62-2.35s0,0,0,0a3.94,3.94,0,0,0-.62,2.36s0,0,0,0ZM36,20.24a1.91,1.91,0,0,1,.43-.51s0-.07,0,0a1.29,1.29,0,0,0-.42.53s0,0,0,0ZM36.82,22a3.92,3.92,0,0,0-.91,1.43s0,0,0,0c.34-.44.59-1,.91-1.42,0,0,0,0,0,0Zm-11.43-6.5a4.75,4.75,0,0,0,.39.82s0,0,0,0a5.08,5.08,0,0,0-.36-.83s-.06,0-.05,0Zm.22.44a5.32,5.32,0,0,1,.29.79s0,0,0,0a2.12,2.12,0,0,0-.3-.79s0,0,0,0Zm-3.78.49,0-.16-.1,0a1.73,1.73,0,0,0,.12.67,2.28,2.28,0,0,0,.32.69c.06.07.16,0,.13-.09s-.18-.42-.26-.63a6.18,6.18,0,0,0-.21-.65,0,0,0,0,0-.09,0,.29.29,0,0,0,.13.18s0,0,0,0Zm-.16.11a4.12,4.12,0,0,0,.28.95c.06.16.13.35.33.33,0,0,0,0,0-.07s-.11-.17-.15-.27a3.21,3.21,0,0,1-.12-.33,3.19,3.19,0,0,0-.28-.66c0-.05-.1,0-.1.05Zm.25,0a4.88,4.88,0,0,0,.2.65,1.76,1.76,0,0,0,.31.61,0,0,0,0,0,.08,0,2.47,2.47,0,0,0-.22-.59c-.09-.22-.17-.45-.27-.66s-.12,0-.1,0Zm.14.53a2.64,2.64,0,0,0,.79,1.27,0,0,0,0,0,.07-.06,6.06,6.06,0,0,0-.35-.53c-.15-.23-.27-.47-.42-.7,0,0-.1,0-.09,0Zm.19.06a2.84,2.84,0,0,0,.93,1.53s.08,0,.06-.05c-.13-.24-.32-.46-.47-.69s-.31-.55-.48-.81c0,0-.05,0,0,0Zm.31.66a3.75,3.75,0,0,0,.72,1s0,0,0,0c-.22-.34-.48-.66-.72-1,0,0,0,0,0,0Zm6,10.27a2.68,2.68,0,0,0,.13.56,3.47,3.47,0,0,0,.23.61s.05,0,.05,0a3,3,0,0,0-.16-.59,3.09,3.09,0,0,0-.23-.57s0,0,0,0Zm.05.25c.35,1.73,2.05,2.64,2.42,4.37,0,.07.13.08.13,0a3,3,0,0,0-.92-1.94c-.29-.34-.6-.66-.86-1a7.75,7.75,0,0,1-.74-1.43s0,0,0,0Zm.18,0a5.41,5.41,0,0,0,.87,1.6,0,0,0,0,0,.06,0c-.27-.54-.59-1.05-.86-1.59a0,0,0,1,0-.07,0Zm.43.27a4,4,0,0,0,.54,1.16s0,0,0,0c-.17-.38-.39-.74-.56-1.14,0,0,0,0,0,0Zm.1,0a7,7,0,0,0,.51,1.16s.05,0,0,0a6.38,6.38,0,0,0-.53-1.16s0,0,0,0ZM29,28.16a.57.57,0,0,1,0-.55s0-.07-.06,0a.57.57,0,0,0,0,.64c0,.05.1,0,.07-.06Zm-.63-.95s0,0,0,0,0,0,0,0Zm-.57-.43c.19.35,1.08,1.22,1.48.68,0,0,0-.05,0,0a.8.8,0,0,1-.88-.18,3.17,3.17,0,0,0-.56-.47Zm1.69,2.92A15.64,15.64,0,0,0,30.55,31s.05,0,0,0c-.34-.46-.74-.9-1.12-1.33a0,0,0,0,0,0,0Zm.14.18a2.3,2.3,0,0,0,1.31,1.27s0,0,0,0a4,4,0,0,1-1.3-1.25s0,0,0,0Zm.53.64a5.25,5.25,0,0,1,.82.88,7.21,7.21,0,0,1,.57,1.06s.05,0,0,0a3.3,3.3,0,0,0-1.4-2s-.05,0,0,0Zm.16.33a8.94,8.94,0,0,1,.66.95c.13.22.48.71.39,1a.05.05,0,0,0,.08,0c.25-.17,0-.56-.14-.75a4.93,4.93,0,0,0-.94-1.27s-.08,0-.05,0Zm.27,0a7.17,7.17,0,0,0,.47.86,4.24,4.24,0,0,0,.47.72.06.06,0,0,0,.1-.06,4.26,4.26,0,0,0-.49-.85,4.42,4.42,0,0,0-.48-.71s-.08,0-.07,0Zm.31.21a3.39,3.39,0,0,1,.44.63c.11.2.16.43.28.62s.1,0,.1,0A2.11,2.11,0,0,0,30.91,31s-.1,0-.06.07Zm.36.37a1.32,1.32,0,0,1,.2.32c.05.1.07.22.12.31s0,0,.06,0a1,1,0,0,0-.31-.67s-.1,0-.07.05Zm1.43-5.89c1.29-.23,2.39-1,3.73-1a0,0,0,0,0,0-.05c-1.32-.11-2.51.72-3.74,1.05Zm1.18-.06c.43-.21.85-.43,1.3-.6s.91-.26,1.36-.4c0,0,0-.05,0-.05a5.84,5.84,0,0,0-2.66,1s0,0,0,0Zm2.66-1a1.68,1.68,0,0,1,.67-.09,0,0,0,0,0,0,0,1,1,0,0,0-.69.12s0,0,0,0Zm-1.42,1.62c.45.78.55,1.89,1.3,2.46,0,0,0,0,0,0-.69-.7-.67-1.74-1.29-2.47,0,0,0,0,0,0Zm2,3.2c-.11-.15-.24-.3-.35-.46s-.2-.34-.32-.5,0,0,0,0a2,2,0,0,0,.69,1s0,0,0,0Zm-.53-.68c-.37-.85-.71-1.71-1.13-2.54,0,0,0,0,0,0,.34.85.76,1.69,1.15,2.52Zm.67-2.17c.67.71,1,2,2,2.41a0,0,0,0,0,0-.05c-.84-.67-1.15-1.72-2-2.39a0,0,0,1,0,0,0Zm2.13,2.62A11.27,11.27,0,0,0,38.64,28c-.3-.47-.57-.94-.86-1.42,0,0-.05,0,0,0a21.15,21.15,0,0,0,1.66,2.63s.07,0,.05,0l-.1-.15s0,0,0,0ZM36,25.8a4.12,4.12,0,0,0,2-.65c.47-.24.78-.06,1.25-.09a2.07,2.07,0,0,0,.93-.32,0,0,0,0,0,0,0,2.43,2.43,0,0,1-1.27.27,1.38,1.38,0,0,0-.67,0,5,5,0,0,0-.86.45,5.11,5.11,0,0,1-1.33.4Zm4.29-.9-1,.23s0,0,0,0a2.47,2.47,0,0,0,1-.23s0,0,0,0Zm-1.09.22-.18,0s0,0,0,0h.19s0,0,0,0Zm-.32,0c-.25,0-.47-.06-.69.07s-.78.66-1.16.49c0,0,0,0,0,0,.2.15.4,0,.59-.07a4.75,4.75,0,0,1,.63-.4,4.76,4.76,0,0,1,.66-.09,0,0,0,1,0,0,0Zm-.11,1.5a12.36,12.36,0,0,1,2.66-.8,0,0,0,0,0,0,0,5.86,5.86,0,0,0-2.66.84Zm1.27,2.44a1.79,1.79,0,0,0,1.88-.31s0-.06,0-.05A5.4,5.4,0,0,1,41,29a3.69,3.69,0,0,1-.94,0,0,0,0,0,0,0,.09Zm1.68-.24c0-.32,0-.64-.06-.95,0-.09-.15-.07-.14,0,0,.31.09.63.15.94,0,0,.05,0,.05,0ZM40.09,27a2.88,2.88,0,0,0,.5.15,1.27,1.27,0,0,0,.43.09s0-.05,0-.07a1.48,1.48,0,0,0-.41-.12,4.82,4.82,0,0,0-.52-.11s-.05.05,0,.06Zm-6.8-3.27a2,2,0,0,0,.55,0c.21,0,.42,0,.63-.08,0,0,0-.06,0-.06-.2,0-.4,0-.6.05a3,3,0,0,0-.59.08,0,0,0,0,0,0,0Zm-.06-.11a5.92,5.92,0,0,1,1.45-.16,0,0,0,1,0,0,0,3,3,0,0,0-1.46.16,0,0,0,0,0,0,0Zm.26,0A7.57,7.57,0,0,0,35,23.34s0,0,0,0a8.36,8.36,0,0,0-1.49.21,0,0,0,0,0,0,.06Zm.72.16a2.5,2.5,0,0,0,1.23-.26s0,0,0,0a10,10,0,0,1-1.21.26s0,0,0,0Zm.06.1a5.78,5.78,0,0,0,1.23-.22s0,0,0,0a5.69,5.69,0,0,0-1.22.22s0,.05,0,0Zm1-.76a8.42,8.42,0,0,0,.87,0s0,0,0,0a8.23,8.23,0,0,0-.86,0s0,0,0,0Zm.15-.24a9.1,9.1,0,0,0,1,.08s0,0,0,0a9.1,9.1,0,0,0-1-.08s0,0,0,0Zm-.15-.24a8,8,0,0,0,1.1.12s0,0,0,0a10.24,10.24,0,0,0-1.1-.11s0,0,0,0Zm.19-.13a3.2,3.2,0,0,0,1,.1s0,0,0,0a7.84,7.84,0,0,1-1-.11s0,0,0,.05Zm.17-.22c.3,0,.59.06.89.07,0,0,0,0,0,0-.29,0-.59-.05-.89-.07,0,0,0,0,0,0Zm.43,0a2.54,2.54,0,0,0,.87,0s0,0,0,0a3.53,3.53,0,0,1-.86,0s0,0,0,0Zm1.06-.15a6.22,6.22,0,0,0,1.05.1s0,0,0,0a7.46,7.46,0,0,0-1-.1s0,0,0,0Zm1.59.14a3.92,3.92,0,0,0,.84.07s0,0,0,0a4.68,4.68,0,0,0-.84-.06s0,0,0,0Zm-5.6,1.5a4.31,4.31,0,0,0-2.06,1.46s0,0,0,0a11,11,0,0,1,.89-.78c.36-.27.77-.45,1.16-.69Zm-1,.63A3.6,3.6,0,0,0,31,25.85s0,0,0,0c.2-.25.34-.54.53-.8s.4-.5.61-.74c0,0,0,0,0,0Zm-1.41,1.3A5.61,5.61,0,0,1,29.63,27a.05.05,0,1,0,.07.08,3.82,3.82,0,0,0,1.08-1.49Zm-.44.84A2.18,2.18,0,0,1,30,27c-.11.13-.25.24-.36.37a0,0,0,0,0,.05.06,1.18,1.18,0,0,0,.65-.9s0,0-.05,0Zm2.25-2.72a3.85,3.85,0,0,0-1.46,1.06s0,.05,0,0c.25-.17.46-.39.7-.57s.49-.33.74-.49c0,0,0,0,0,0Zm-.19-.12a4.42,4.42,0,0,0-1.45,1.2,0,0,0,1,0,0,0c.49-.4.93-.83,1.43-1.21,0,0,0,0,0,0Zm.31-1.54a2.44,2.44,0,0,0-.64,1.44s0,0,0,0c.08-.25.12-.49.22-.73a3.89,3.89,0,0,1,.4-.72Zm1.94-2.15a3.07,3.07,0,0,0-1.13,1.81s0,0,0,0A4.37,4.37,0,0,1,34.65,20s0,0,0,0Zm-.24.33a3.18,3.18,0,0,0-.69,1.57,0,0,0,0,0,0,0c.09-.26.14-.53.25-.78a5.36,5.36,0,0,1,.41-.79s0,0,0,0ZM33.21,23a2.63,2.63,0,0,1,.07-.49,2.28,2.28,0,0,1,.2-.45s0,0,0,0a1.14,1.14,0,0,0-.27,1Zm.28-.88a8.92,8.92,0,0,0-.2,1.15h0a8.9,8.9,0,0,0,.19-1.15Zm5.71-3a2.46,2.46,0,0,1,.42,1s0,0,0,0a1.38,1.38,0,0,0-.43-1Zm.23,4.23c0-.07,0-.09.08-.06l.07,0,.08,0a.11.11,0,0,0,.12-.05s0,0,0,0L39.12,23l0,.07.7.15v-.08a1.16,1.16,0,0,1-.63-.18l0,.06a1.73,1.73,0,0,0,.57.22s0,0,0,0c-.17-.08-.36-.15-.53-.24s-.09,0,0,.06a1.22,1.22,0,0,0,.67.2,0,0,0,0,0,0-.08l-.7-.15s-.06.06,0,.07l.66.22,0-.05c-.07.12-.25-.13-.34,0s0,.12,0,.12,0,0,0,0Zm-4.08,0,.27.08c.2,0,0,0,.05,0-.13.07-.48,0-.62,0s-.06.06,0,.07c.32,0,.64.06,1,.09,0,0,.06-.07,0-.08l-.76-.14c-.06,0-.06.07,0,.08a2.24,2.24,0,0,0,1.53-.17s0-.09,0-.08A1.57,1.57,0,0,1,35.36,23l0,.07a2.66,2.66,0,0,0,1.45.13s0-.05,0,0A3.43,3.43,0,0,1,35.35,23s-.08.05,0,.07a1.62,1.62,0,0,0,1.45.16l0-.08a2.2,2.2,0,0,1-1.49.17v.08l.76.14v-.08l-1-.08v.07h.74a0,0,0,0,0,0-.06l-.45-.07s0,0,0,0Zm4.09-4.18h-.15s0,0,0,0a4.48,4.48,0,0,1,.4.86s0,0,0,0a2.21,2.21,0,0,0-.37-.88l0,0,.15,0s0,0,0,0Zm-10.81,9.1A8.91,8.91,0,0,0,29.39,30s0,0,0,0a8.66,8.66,0,0,0-.78-1.76s0,0,0,0Zm0-.06a4.62,4.62,0,0,0,1.35,2.4s0,0,0,0a14.21,14.21,0,0,1-.83-1.2,10.91,10.91,0,0,1-.51-1.17s-.05,0,0,0Zm.45.86a5.69,5.69,0,0,0,1.06,1.58s.09,0,.06,0c-.37-.52-.73-1-1.06-1.56a0,0,0,1,0-.06,0Zm-6-4.91c-.2.45-.37.92-.59,1.37s-.55.95-.83,1.42c0,0,0,0,0,0A8.09,8.09,0,0,0,23,24.15s0,0,0,0Zm.12.32c-.41.87-.89,1.73-1.29,2.61a0,0,0,0,0,0,0,12,12,0,0,0,1.27-2.62Zm7.52,2.21a1.77,1.77,0,0,0,.57,1.4s0,0,0,0a2.21,2.21,0,0,1-.55-1.39s0,0,0,0Zm.72,1.6a1.93,1.93,0,0,0,.29.34s0,0,0,0a1.54,1.54,0,0,0-.29-.34s0,0,0,0Zm-.57-1.13a3.43,3.43,0,0,0,.92,1.31s0,0,0,0a5.34,5.34,0,0,1-.91-1.3s0,0,0,0Zm.17.05a3.27,3.27,0,0,0,.74,1.06s0,0,0,0c-.23-.36-.52-.68-.75-1Zm.21.1a5.32,5.32,0,0,0,.59.87s0,0,0,0a5,5,0,0,0-.59-.86s0,0,0,0Zm-.45-.38c0-.6.67-.9,1-1.33s.58-.93,1.16-1.13c0,0,0-.06,0-.05-.62.13-.87.65-1.21,1.14s-1.08.73-1,1.37c0,0,0,0,0,0Zm2.37-2.61c.11,0,.22-.07.33-.09l.26-.07a0,0,0,0,0,0,0,1.16,1.16,0,0,0-.59.18s0,0,0,0Zm.63,3.76a2.85,2.85,0,0,0,.94,1.55s0,0,0,0a3.5,3.5,0,0,1-.93-1.54s0,0,0,0Zm.11-.05a4.77,4.77,0,0,0,1,1.61s0,0,0,0a8.52,8.52,0,0,1-1-1.6Zm.23,0a3.79,3.79,0,0,0,1,1.59s0,0,0,0a11.84,11.84,0,0,1-1-1.58Zm.23,0a3,3,0,0,0,.85,1.35s0,0,0,0A5.79,5.79,0,0,1,34.32,28s0,0,0,0Zm-.21-.76a1.47,1.47,0,0,0,.21.64s0,0,0,0c-.06-.21-.14-.41-.2-.63,0,0,0,0,0,0Zm.55-1a16.83,16.83,0,0,0,.92,2s0,0,0,0a16.71,16.71,0,0,0-.9-2s0,0,0,0Zm.23.16A17.42,17.42,0,0,0,35.62,28s0,0,0,0c-.22-.57-.47-1.12-.74-1.66,0,0,0,0,0,0Zm.11-.05A10.87,10.87,0,0,0,35.74,28s0,0,0,0a9.31,9.31,0,0,0-.77-1.7s0,0,0,0Zm.09,0a9.25,9.25,0,0,0,.71,1.53s0,0,0,0a8.8,8.8,0,0,0-.68-1.54,0,0,0,0,0-.07,0Zm.69,1.87a2.61,2.61,0,0,0,1,1.15,0,0,0,1,0,0,0,4.78,4.78,0,0,1-1-1.15s-.06,0,0,0Zm.62-1.84a4.93,4.93,0,0,0,.43.74s0,0,0,0a5,5,0,0,0-.41-.75s0,0,0,0Zm.12,0a4.18,4.18,0,0,0,.4.68s0,0,0,0a4.72,4.72,0,0,0-.41-.68s0,0,0,0Zm.14.08a2.56,2.56,0,0,1,.2.26c.06.1.1.2.15.3s0,0,0,0a1.13,1.13,0,0,0-.35-.58s-.06,0,0,0Zm.17,0c.14.2.22.42.34.63h0a.47.47,0,0,1,0-.1s0,0,0,0a.42.42,0,0,1,0,.1s0,0,0,0a2,2,0,0,0-.34-.64s0,0,0,0Zm.17.12a2.82,2.82,0,0,0,.36.54s0,0,0,0a3.48,3.48,0,0,0-.33-.55,0,0,0,0,0-.05,0Zm.15-.06a3.29,3.29,0,0,0,.3.46s0,0,0,0a3.64,3.64,0,0,0-.3-.46s0,0,0,0Zm-.14.85a3.57,3.57,0,0,0,1.09,1.4h0A7,7,0,0,1,37,27.23s0,0,0,0Zm-.75,2.36a2.35,2.35,0,0,0,1.09.39s0-.05,0-.05a3,3,0,0,1-1.1-.35s0,0,0,0Zm2-.73a1.5,1.5,0,0,0,1.08.71,0,0,0,1,0,0,0,1.69,1.69,0,0,1-1.08-.68Zm.16,0a1.76,1.76,0,0,0,1.19.77s0,0,0,0A3.31,3.31,0,0,1,39,29.3a2.22,2.22,0,0,1-.53-.48s0,0,0,0Zm.24,0a1.93,1.93,0,0,0,1,.71s0,0,0,0-.33-.17-.49-.28a2.67,2.67,0,0,1-.46-.43s0,0,0,0Zm.52.26a1.07,1.07,0,0,0,.79.46s0,0,0,0a2.9,2.9,0,0,1-.41-.16,1.29,1.29,0,0,1-.37-.28Zm.31-5.28a4.38,4.38,0,0,1,1.31.75s0,0,0,0a2.51,2.51,0,0,0-1.31-.77s0,0,0,0Zm1.41.85a5.55,5.55,0,0,1,.89.71s0,0,0,0a2.44,2.44,0,0,0-.9-.72,0,0,0,0,0,0,0Zm0-.25a8.24,8.24,0,0,0,.9.78s0,0,0,0a7.41,7.41,0,0,0-.91-.77s0,0,0,0Zm-.77-.65c-.1-.06,0,0,.07.05a1.71,1.71,0,0,0,.23.13l.5.31c.31.2.6.43.89.66a0,0,0,0,0,0-.06A6.68,6.68,0,0,0,40,23.61s0,0,0,0a.36.36,0,0,0,.15.1s0,0,0,0Zm-5.79.23a7.94,7.94,0,0,1,1-.11h0a4.61,4.61,0,0,0-1,.12Zm-.53.16A4.88,4.88,0,0,1,34.7,24s0,0,0,0a1.89,1.89,0,0,0-.84.14Zm1.64-.19a11.76,11.76,0,0,1,3.4-.2s0,0,0,0a7.7,7.7,0,0,0-3.41.22Zm1.66-.14c.58,0,1.18,0,1.76-.1,0,0,0,0,0,0a8,8,0,0,0-1.76.11s0,0,0,0Zm.09.13c.56,0,1.11,0,1.66,0a0,0,0,1,0,0,0,7.1,7.1,0,0,0-1.66,0s0,0,0,0Zm.28,0c.44,0,.87,0,1.3,0,0,0,0,0,0,0a3.55,3.55,0,0,0-1.3,0Zm.54-.34Zm-14.22-3c0-.12.75.34.59.43.09-.05-.15-.23-.2-.28s-.3-.3-.13,0,.32.27.44.47c0,0,.08,0,.06,0a1.38,1.38,0,0,0-.59-.58s-.06,0,0,.06l.57.63a0,0,0,0,0,.05,0l-.41-.56-.05.05a5.67,5.67,0,0,1,.72,1l.06,0A5.73,5.73,0,0,0,24,20.51l-.05,0A5.36,5.36,0,0,1,25.09,22s.07,0,.05,0A4.17,4.17,0,0,0,24,20.5s-.08,0-.05.06a5.73,5.73,0,0,1,.91,1.11s.09,0,.07-.05a5.57,5.57,0,0,0-.74-1s-.08,0-.05.05a3.43,3.43,0,0,0,.24.33c.14.15.14.12,0,0s-.16-.17-.24-.26-.06-.07,0,0a1.19,1.19,0,0,1,.2.19c.33.26,0-.06-.06-.15A1.39,1.39,0,0,0,24,20.5s-.07,0,0,.06a1.94,1.94,0,0,1,.58.56s.07,0,.06,0-.49-.82-.73-.55h0l0,0ZM31.31,33.4c0-.12-.1-.25-.23-.24s0,0,0,0a.24.24,0,0,1,.21.22Zm-.42-1.26a5.09,5.09,0,0,0,.36,1.48s0,0,0,0c-.15-.49-.25-1-.38-1.48,0,0,0,0,0,0Zm.09.08a2.56,2.56,0,0,0,.65,1.9s.05,0,0,0A4.44,4.44,0,0,1,31,32.22Zm.07,0a3.33,3.33,0,0,0,.67,2s0,0,0,0a5.12,5.12,0,0,1-.65-1.94s0,0,0,0Zm.15-.07a3,3,0,0,0,.68,2.09s0,0,0,0a4.77,4.77,0,0,1-.67-2.08Zm.08.09a5.36,5.36,0,0,0,.63,1.84s.05,0,0,0c-.22-.62-.45-1.21-.63-1.83,0,0,0,0,0,0Zm.11-.05a4.55,4.55,0,0,0,.71,2s.06,0,0,0a8.68,8.68,0,0,1-.71-1.92s-.06,0-.05,0Zm-.29-.47a4.14,4.14,0,0,0,.37,1.9,0,0,0,0,0,.05,0,12.14,12.14,0,0,1-.37-1.89,0,0,0,0,0,0,0Zm-.08,0a3.25,3.25,0,0,0,.63,1.86s.05,0,0,0a6,6,0,0,1-.61-1.84s-.06,0-.06,0Zm.74,0c.2.36.39.71.56,1.08,0,0,0,0,0,0a3.68,3.68,0,0,0-.57-1.07s0,0,0,0Zm-.08-.09h0Zm0,.06c.09.18.2.35.29.53a3.89,3.89,0,0,0,.25.5c0,.06.12,0,.12-.05a1.5,1.5,0,0,0-.63-1,0,0,0,0,0,0,0Zm.16.18a16.68,16.68,0,0,1,.86,1.75,10.49,10.49,0,0,0,.85,1.79A9,9,0,0,0,36,38.1a.06.06,0,0,0,.09-.09,14.89,14.89,0,0,0-1.33-1.42,8.71,8.71,0,0,1-1.26-1.7c-.55-1-.75-2.34-1.64-3.11,0,0-.06,0,0,0Zm8.55,3.1c-.64,0-1,.59-1.41,1-.58.65-1.43.89-2.08,1.46-.81.71-1.57,2.23-.64,3.17a.1.1,0,0,0,.16-.11,2.46,2.46,0,0,1-.06-1.9A3.44,3.44,0,0,1,37.86,37a4.7,4.7,0,0,0,1-.69c.52-.52.78-1.1,1.51-1.38,0,0,0,0,0,0ZM36.31,40.4A2.47,2.47,0,0,0,38.16,42a0,0,0,0,0,0-.06,8.84,8.84,0,0,1-1-.53,3.62,3.62,0,0,1-.89-1s0,0,0,0Zm1.87,1.42c0-.45.11-.91.08-1.36,0-.07-.1-.07-.13,0a2,2,0,0,0,0,1.37s0,0,0,0ZM36.08,40A1.71,1.71,0,0,0,37,41.38a.05.05,0,0,0,.06-.08,6.38,6.38,0,0,0-.46-.6,4.7,4.7,0,0,0-.46-.7s-.06,0-.07,0Zm3-3.27c1.72.75,3.93.33,5.74.15a13.22,13.22,0,0,1,3.44-.09,20.71,20.71,0,0,1,3,1.11.11.11,0,0,0,.11-.19,8.22,8.22,0,0,0-5.7-1.2c-2.22.23-4.37.63-6.58.15,0,0,0,.06,0,.07ZM51.47,38a4.49,4.49,0,0,0,2.55.84s0,0,0,0c-.42-.16-.86-.22-1.28-.37s-.84-.32-1.27-.46c0,0,0,0,0,0ZM39.2,36.52a3.44,3.44,0,0,1,1,.38,6.18,6.18,0,0,0,.73.23,2.64,2.64,0,0,0,1.55,0s0-.07,0-.06a4.55,4.55,0,0,1-2.07-.16c-.34-.12-.79-.48-1.16-.37,0,0,0,0,0,0Zm1-1.52a1.72,1.72,0,0,0,.91-.34,5.4,5.4,0,0,1,1.64-.74A9.94,9.94,0,0,1,46,33.79s.07-.08,0-.09a6.21,6.21,0,0,0-3,0,5,5,0,0,0-1.41.47,12.61,12.61,0,0,1-1.42.84Zm-2.06,5.52c.48.64,1.69,1.63,2.55,1.09,0,0,0-.07,0-.07a2.29,2.29,0,0,1-1.45-.25c-.37-.23-.66-.57-1-.83,0,0-.08,0-.06.06Zm2.47,1.19a1.2,1.2,0,0,0,.18-1.14,0,0,0,0,0,0,0c0,.19,0,.38,0,.56s-.1.37-.14.55,0,0,.05,0Zm.18-1.07a1.81,1.81,0,0,0,1.08.91,3.42,3.42,0,0,0,1.65-.07,0,0,0,0,0,0-.08c-.5-.09-1,.15-1.48,0a2.19,2.19,0,0,1-1.14-.85c0-.06-.14,0-.11.07Zm2.73.84c.24-.35.5-.91.23-1.32a0,0,0,0,0-.09,0c0,.21,0,.42,0,.63a1.88,1.88,0,0,1-.16.66s0,0,0,0Zm.23-1.23a2.12,2.12,0,0,0,2.06.6c.05,0,0-.1,0-.1a4,4,0,0,1-1-.1,3.13,3.13,0,0,1-.92-.49.06.06,0,0,0-.09.09Zm2.11.53a2.07,2.07,0,0,0,.25-.62,1.63,1.63,0,0,0,.08-.62.06.06,0,0,0-.12,0,4.12,4.12,0,0,0-.12.59c0,.21-.1.42-.14.64,0,0,0,0,.05,0Zm.24-1.16a3.2,3.2,0,0,0,2.66.48s0-.07,0-.07a9.12,9.12,0,0,1-1.28,0,4.75,4.75,0,0,1-1.32-.48c-.06,0-.11.07-.05.1Zm2.71.42a2.44,2.44,0,0,0-.08-1.39,0,0,0,0,0-.06,0c0,.2,0,.41.05.61s0,.51,0,.76c0,.07.08.08.1,0Zm-.08-1.22a3.41,3.41,0,0,0,2.7.86,0,0,0,0,0,0-.07A11.27,11.27,0,0,1,50,39.4a6,6,0,0,1-1.27-.63s-.07,0,0,0Zm2.73.84a.63.63,0,0,0,.11-.46c0-.13,0-.34-.19-.39a0,0,0,0,0-.06,0c0,.11.06.25.08.36a2,2,0,0,1,0,.43s0,0,0,0Zm-.08-.82a3.35,3.35,0,0,0,3.3.13s0-.11,0-.09a6.27,6.27,0,0,1-1.55.31,5.63,5.63,0,0,1-1.71-.37s0,0,0,0Zm3.24,0c.1-.44-.36-.75-.67-1a4.24,4.24,0,0,0-1.52-.75s-.06.06,0,.08c.65.33,2,.76,2.12,1.65,0,.06.08.05.09,0ZM39.33,36.21a1.77,1.77,0,0,0,.5.36c.14.07.34.21.5.16s.06,0,0-.07-.27-.19-.42-.26-.36-.2-.55-.28a.06.06,0,0,0-.07.09Zm.93.3a3.29,3.29,0,0,0,2.05.34c.5-.05,1-.1,1.5-.12a9.37,9.37,0,0,0,1.76-.06s.06-.08,0-.09a6.41,6.41,0,0,0-2.47,0c-.92.08-2,.42-2.85,0a0,0,0,0,0,0,0Zm-8.94-3.24a4.09,4.09,0,0,0,.34.61.88.88,0,0,0,.32.39.07.07,0,0,0,.09-.05.93.93,0,0,0-.22-.52,4,4,0,0,0-.37-.54.1.1,0,0,0-.16.11Zm-.07,0c-.1.3.23.75.47.9.05,0,.12,0,.09-.07s-.2-.32-.29-.48a1.08,1.08,0,0,0-.24-.36,0,0,0,0,0,0,0Zm0,.2A2.6,2.6,0,0,0,32,34.76a7.88,7.88,0,0,1,1.16,1.74,5.42,5.42,0,0,0,.87,1.39c.22.23.49.4.69.63a2.72,2.72,0,0,1,.48,1c0,.07.14,0,.14,0a1.69,1.69,0,0,0-.58-1.23,5.81,5.81,0,0,1-1.26-1.57,10.11,10.11,0,0,0-.88-1.53,15.42,15.42,0,0,1-1.34-1.68s-.05,0,0,0Zm.42.74c-.54.27-1.25.17-1.69.61a2.91,2.91,0,0,0-.46.73,4.78,4.78,0,0,1-1,1.06c0,.05,0,.16.07.12a3.37,3.37,0,0,0,1.2-1.39,1.52,1.52,0,0,1,1.2-.74,1.22,1.22,0,0,0,.68-.31s0-.1-.05-.08Zm.81.89a2.17,2.17,0,0,0-1.67-.25,1.37,1.37,0,0,0-.63.54A12.7,12.7,0,0,1,29,36.56s0,.06,0,0a2.81,2.81,0,0,0,1.22-1A1.34,1.34,0,0,1,31.57,35c.31,0,.6.09.91.14a0,0,0,0,0,0,0Zm-.66-1,.1-.1-.14-.05a1.56,1.56,0,0,0,.2.53c.06.12.12.29.28.3a0,0,0,0,0,.06,0c.08-.15,0-.29-.1-.43a1.33,1.33,0,0,0-.31-.46.08.08,0,0,0-.13.06.71.71,0,0,1,0,.15s0,0,0,0Zm-.15-.1a.58.58,0,0,1,0,.19l0,.14a.88.88,0,0,0,.07.29.11.11,0,0,0,.21,0,.52.52,0,0,0,0-.37.87.87,0,0,0-.07-.17c0-.06-.1-.1-.14-.16s-.15,0-.12.08Zm0,.17a.45.45,0,0,0,0,.2,1.2,1.2,0,0,1,0,.27c0,.1-.09.34.08.34a.15.15,0,0,0,.14-.08.64.64,0,0,0,0-.47c0-.12-.1-.26-.23-.28l0,0Zm0,.06a.5.5,0,0,1,0,.13l.06,0h0a.17.17,0,0,0-.09.08c0,.13-.1.26-.12.39s.15.17.22.08a.57.57,0,0,0,.12-.42.12.12,0,0,0-.07-.12h0l0,.06c0-.05,0-.11,0-.16s-.06,0-.07,0Zm.22.36A.51.51,0,0,0,32,35s.08,0,.09,0a.5.5,0,0,0-.11-.4,0,0,0,0,0-.07,0Zm-.23-.07-.42.1a1.72,1.72,0,0,0-.38.08,0,0,0,0,0,0,.07.86.86,0,0,0,.87-.12c.05,0,0-.15-.06-.13Zm.29-.34c.09.16.2.29.28.45a2.3,2.3,0,0,0,.2.42s0,0,.06,0a.86.86,0,0,0-.18-.48,1.37,1.37,0,0,0-.33-.39s0,0,0,0ZM32,34a3.88,3.88,0,0,0,.59,1s.05,0,0,0a3.58,3.58,0,0,0-.58-1s-.06,0-.05,0Zm.27.14c.07.2.15.39.23.58a2.16,2.16,0,0,0,.24.48s.05,0,.05,0a1.87,1.87,0,0,0-.2-.49,5.85,5.85,0,0,0-.28-.56,0,0,0,0,0,0,0Zm-1.32.69c-.15-.12-.41,0-.57.06a.84.84,0,0,0-.51.41s0,.06.05,0c.2-.09.36-.24.57-.32s.35-.06.46-.19Zm4.17,4.41a3.74,3.74,0,0,0,1.5,2.71,0,0,0,0,0,.06-.06c-.28-.43-.64-.79-.89-1.24a6.1,6.1,0,0,1-.51-1.43.08.08,0,0,0-.16,0Zm1.26,2.65c.48.62,1,1.17,1.51,1.8a18.73,18.73,0,0,1,1.37,2.16c.08.15.33,0,.25-.11a11.42,11.42,0,0,0-3.1-3.89s0,0,0,0Zm-6.28-7.07c-.18-.16-.47-.19-.68-.32a6.57,6.57,0,0,1-.62-.55.07.07,0,0,0-.11.08,1.46,1.46,0,0,0,.66.64c.2.11.51.28.74.17,0,0,0,0,0,0Zm.43-.06a6.19,6.19,0,0,1-1.59-.88c-.07-.06-.15.06-.08.12a3.47,3.47,0,0,0,1.66.82s0-.05,0-.06ZM28.94,33.6c-.09.68-.76.39-1.16.2s-.91-.28-1.08-.84c0,0-.07,0-.08,0a.57.57,0,0,0,.31.65,6.22,6.22,0,0,0,1.13.46.79.79,0,0,0,.76,0c.14-.11.26-.3.15-.47,0,0,0,0,0,0Zm-2.22-.77c.42-.26.84-.63,1.38-.51a1,1,0,0,1,.64.54c.14.24.49.82,0,.93a.06.06,0,1,0,0,.12c.86,0,.19-1.21-.1-1.49-.58-.57-1.48-.14-1.94.37,0,0,0,.06,0,0Zm.22,0a1.34,1.34,0,0,1-.23-1c.18-.5.81-.38,1.22-.37a0,0,0,0,0,0-.05c-.42-.14-1-.18-1.3.25a1.23,1.23,0,0,0,.19,1.22c0,.06.14,0,.11,0Zm1-1.4a1,1,0,0,1,.23.82c0,.09.12.1.14,0a.84.84,0,0,0-.34-.86,0,0,0,0,0,0,0Zm-1.31.78a.94.94,0,0,0-.05,1.57c.47.4,2,1,2.42.29,0,0,0-.08,0-.05-.5.41-1.31.17-1.86-.07a1.32,1.32,0,0,1-.72-.61.8.8,0,0,1,.29-1.07,0,0,0,1,0,0-.06Zm1.64-.48s0,0,0,0,0,0,0,0Zm-.07.05a1.09,1.09,0,0,1,1,.89A1.38,1.38,0,0,1,28.71,34c-.06.06,0,.19.09.14a1.41,1.41,0,0,0,.5-1.66c-.12-.39-.67-1.08-1.12-.68,0,0,0,0,0,0Zm-1,.66a.15.15,0,0,1,.11-.21.18.18,0,0,1,.17.1s.08,0,.07,0a.24.24,0,0,0-.31-.13.24.24,0,0,0-.12.32c0,.05.11,0,.08,0Zm8.41,8.12a3.81,3.81,0,0,0,1.43,1.85c.06,0,.13,0,.08-.08a12.56,12.56,0,0,1-1.45-1.8,0,0,0,1,0-.06,0Zm.27.14a5.39,5.39,0,0,0,1.28,1.57c.06,0,.13,0,.08-.09-.4-.53-.91-1-1.33-1.5,0,0,0,0,0,0Zm.35.11c.18.54.65,1.31,1.25,1.44a0,0,0,0,0,0-.07,7.38,7.38,0,0,0-.63-.62,5.53,5.53,0,0,1-.58-.79c0-.06-.11,0-.09,0Zm.37.37a3.39,3.39,0,0,1,.42.33,1.79,1.79,0,0,0,.37.31s.06,0,0-.06c-.09-.31-.53-.51-.81-.62,0,0-.05,0,0,0Zm-1.58-2.66A4.73,4.73,0,0,0,36.17,41s.08,0,.06,0c-.19-.42-.47-.79-.66-1.21s-.32-.86-.47-1.3a0,0,0,0,0,0,0Zm.13.57a1,1,0,0,0-.24-.69,16.49,16.49,0,0,1-1-1.31,14.39,14.39,0,0,0-1.56-2.48.06.06,0,0,0-.11.06,11.77,11.77,0,0,0,1.24,2.15,5.85,5.85,0,0,0,.83,1.08c.36.35.79.62.83,1.19,0,0,0,0,0,0Zm-1.74-2.83a14.7,14.7,0,0,0,1,1.65s.08,0,.06,0a14.81,14.81,0,0,0-1.06-1.64s0,0,0,0Zm.43.33a6.28,6.28,0,0,0,.76,1.34s.08,0,.06,0a6,6,0,0,0-.79-1.33s0,0,0,0Zm.31.13a5.58,5.58,0,0,0,.34.75,2.15,2.15,0,0,0,.38.61s.05,0,.05,0a2.33,2.33,0,0,0-.32-.7,6.52,6.52,0,0,0-.42-.65s0,0,0,0Zm.29.22a2.74,2.74,0,0,1,.23.36c.06.12.1.24.16.35a0,0,0,0,0,0,0,1.15,1.15,0,0,0-.41-.71s0,0,0,0ZM33.3,36a7.34,7.34,0,0,1,.48.71c.12.21.21.45.34.67a0,0,0,0,0,.06,0,3,3,0,0,0-.83-1.41,0,0,0,0,0-.05,0Zm1.86,2.57A4.06,4.06,0,0,0,35.51,40a2.54,2.54,0,0,0,.65,1.11.07.07,0,0,0,.11-.07,4.67,4.67,0,0,0-.48-1.16c-.18-.44-.29-.9-.47-1.34,0-.1-.17,0-.16,0Zm.3.3a3,3,0,0,0,.44,1.3,1.81,1.81,0,0,0,.69.83.08.08,0,0,0,.1-.08,4.83,4.83,0,0,0-.61-1c-.2-.35-.34-.72-.55-1.06a0,0,0,0,0-.07,0Zm-1-1a2.77,2.77,0,0,1,.56.52,2.59,2.59,0,0,0,.41.46s.07,0,.06,0c-.06-.46-.65-.78-1-1,0,0,0,0,0,0Zm.36,0a5.43,5.43,0,0,1,.54.63,8.19,8.19,0,0,0,.47.68s.07,0,.07,0a3.06,3.06,0,0,0-1.05-1.32s0,0,0,0Zm.15-.07c.15.16.31.32.45.5s.26.37.42.52.07,0,0,0a2.67,2.67,0,0,0-.89-1s0,0,0,0Zm.13-.05a4.2,4.2,0,0,1,.65.74c.05.09.11.28.22.32a.06.06,0,0,0,.08,0,.14.14,0,0,0,0-.14s-.07,0-.07,0,0,0,.06,0-.05-.08-.06-.11a1.16,1.16,0,0,0-.13-.22,4.43,4.43,0,0,0-.67-.63s-.08,0-.05,0Zm0-.1c.36.3.62.67,1,1a0,0,0,0,0,.06,0,2.43,2.43,0,0,0-1-1c-.05,0-.09,0-.05.06Zm.25,0c.12.13.27.25.4.38a4,4,0,0,0,.36.35.05.05,0,0,0,.07-.06,1.43,1.43,0,0,0-.79-.72s-.06,0,0,.05ZM36,38a.77.77,0,0,0,.18.18s0,0,0,0a1,1,0,0,0-.17-.19s-.05,0,0,0ZM32.4,34.15a3.8,3.8,0,0,0,.85,1.67,0,0,0,0,0,.06,0,7.91,7.91,0,0,0-.42-.82c-.14-.28-.25-.57-.4-.84,0,0-.11,0-.09,0Zm.16-.06c.12.28.26.55.39.82a5.13,5.13,0,0,0,.39.69s.08,0,.07,0A4.54,4.54,0,0,0,33,34.8c-.14-.25-.27-.5-.43-.74,0,0-.06,0,0,0Zm.17,0a5.52,5.52,0,0,0,.73,1.27s.06,0,0,0a5.48,5.48,0,0,0-.72-1.27s-.07,0-.06,0Zm-4.06,2.43a4.47,4.47,0,0,0-1.34,2,8.94,8.94,0,0,1-2,2.55A7.39,7.39,0,0,0,23.2,46c0,.1.15.16.18,0,.26-.86.33-1.76.63-2.61a6.75,6.75,0,0,1,1.82-2.6A7.42,7.42,0,0,0,27.29,39a9,9,0,0,1,1.43-2.4s0-.08,0-.06Zm-4.54,7.36a4.22,4.22,0,0,0-.51,2.43s.05,0,.06,0a10.41,10.41,0,0,0,.16-1.1,12.38,12.38,0,0,1,.31-1.34Zm-.81,1.84c-.11.6-.13,1.22-.2,1.82s-.21,1.22-.22,1.83a0,0,0,0,0,.07,0,8,8,0,0,0,.3-1.83,9.45,9.45,0,0,0,.07-1.84Zm.26.62c-.09.61-.19,1.23-.28,1.84A16.87,16.87,0,0,0,23,50a0,0,0,0,0,.09,0,6.68,6.68,0,0,0,.38-1.73,13.07,13.07,0,0,0,.15-2s0,0,0,0Zm5.56-9.76A3,3,0,0,0,28.06,38a10.61,10.61,0,0,1-1.3,2.27c-.82,1-2.62,1.95-2.53,3.45,0,.06.09.05.1,0,.25-1.57,1.79-2.33,2.69-3.51s1.16-2.6,2.13-3.63c0,0,0,0,0,0Zm.07-.66a14,14,0,0,0-1.56.24c-.53.07-1.07.08-1.59.18s-1.46.41-1.59,1.11c0,0,0,.06.06,0a3.1,3.1,0,0,1,.92-.77,4.78,4.78,0,0,1,1.35-.28A7.86,7.86,0,0,0,29.22,36a0,0,0,0,0,0-.06Zm-4.7,1.67c.1,0,.24.13.35.1a0,0,0,0,0,0-.07c-.06-.1-.22-.12-.33-.16a.07.07,0,0,0,0,.13Zm.3,0a6.51,6.51,0,0,0-2.55.8,3.53,3.53,0,0,0-1.59,1.76s0,.07.07,0a7.82,7.82,0,0,0,.63-.77,4.65,4.65,0,0,1,1-.86,9.15,9.15,0,0,1,2.46-.83c.08,0,.07-.16,0-.14Zm-4,2.56.36.2a1.23,1.23,0,0,0,.32.17.06.06,0,0,0,.05-.08.62.62,0,0,0-.29-.24,1.84,1.84,0,0,0-.38-.17c-.07,0-.13.08-.06.12Zm.68.27a3.94,3.94,0,0,0-1.25,1.57,2.07,2.07,0,0,0-.32,1.63s.07,0,.08,0a5.13,5.13,0,0,1,.55-1.74c.28-.49.72-.9,1-1.39,0,0,0-.07-.05-.05Zm-1.6,2.76c-.1.37.39.91.75.61a0,0,0,0,0,0-.06c-.32,0-.68-.17-.65-.54a0,0,0,0,0-.07,0Zm.71.56a2,2,0,0,0-.46,2.26c0,.09.16,0,.13-.06a2.21,2.21,0,0,1,.43-2.11c.05-.06,0-.14-.1-.09Zm-.45,2.36a1.06,1.06,0,0,0,.19.06l.23,0a.61.61,0,0,0,.35-.19,0,0,0,0,0,0-.07c-.12,0-.24.07-.36.1l-.18,0a1.49,1.49,0,0,1-.18,0,0,0,0,0,0,0,0Zm.71-.19a2,2,0,0,0-.44,1.47A1.57,1.57,0,0,0,21,48.69a0,0,0,0,0,.06-.06,4,4,0,0,1-.5-1.16,2.12,2.12,0,0,1,.35-1.42.07.07,0,0,0-.11-.08ZM21,48.7c.07,0,.06,0,.12.07h.12a.57.57,0,0,0,.3-.1.49.49,0,0,0,.27-.46c0-.05-.06,0-.08,0a.85.85,0,0,1-.32.38.55.55,0,0,1-.22.06.57.57,0,0,1-.18,0s0,0,0,0Zm.72-.39A3,3,0,0,0,23.31,51s.09-.05.05-.08a5.7,5.7,0,0,1-1-1.08,3.92,3.92,0,0,1-.5-1.56c0-.09-.16-.09-.17,0Zm1.73,2.8a2.57,2.57,0,0,0,1.38-2.56,0,0,0,0,0-.07,0A3.41,3.41,0,0,1,24.35,50a3.63,3.63,0,0,1-1,1s0,.1.05.08ZM45.71,33.74a1.47,1.47,0,0,1,.42.28v-.09a1.64,1.64,0,0,1-.28.31,2.27,2.27,0,0,1-.32.22c-.08.07,0,.17.09.15a1.19,1.19,0,0,0,.64-.61.08.08,0,0,0,0-.07.6.6,0,0,0-.51-.27,0,0,0,0,0,0,.08Zm-.12.89a7.63,7.63,0,0,0,1.56-.34,3.38,3.38,0,0,1,1.73.07s.06,0,0,0c-.84-.69-2.45,0-3.32.28,0,0,0,0,0,0Zm3.24-.24a3.35,3.35,0,0,0-.45.27,2.11,2.11,0,0,0-.49.33.07.07,0,0,0,.07.12,2.39,2.39,0,0,0,.45-.28,5.22,5.22,0,0,0,.48-.34s0-.13-.06-.1Zm-.88.74c.95-.08,2.32-.66,3.13.09a0,0,0,0,0,0,0c-.8-.84-2.19-.41-3.18-.13a0,0,0,0,0,0,.09Zm3.15,0c-.18,0-.33.18-.47.28s-.46.26-.57.46,0,.11.06.1c.23,0,.43-.24.6-.38s.39-.26.39-.46Zm-.93.93a7.73,7.73,0,0,1,2.71.17c.1,0,.16-.11.06-.14A4.51,4.51,0,0,0,50.15,36s0,.06,0,.06Zm2.74.18a2.24,2.24,0,0,0-.34.35c-.12.14-.26.26-.37.41s0,.19.14.12a2.69,2.69,0,0,0,.36-.39,1.38,1.38,0,0,0,.27-.45,0,0,0,0,0-.06,0Zm-.78.92c.1,0,.19.05.29.06s0,0,0,0l-.3-.07s0,0,0,0ZM38.6,36.47l-.12,0c-.13,0,0,.23.07.15l.09-.07s0-.11,0-.1Zm-.43,5a1.54,1.54,0,0,0,.29.28,0,0,0,0,0,0,0,1.53,1.53,0,0,0-.31-.26s0,0,0,0Zm.1,0a4,4,0,0,0,.5.51s0,0,0,0a4.6,4.6,0,0,0-.46-.53,0,0,0,0,0-.07.06Zm0-.1a1.39,1.39,0,0,0,.48.81,5.35,5.35,0,0,1,1,1.18A16.67,16.67,0,0,0,41.07,46a.07.07,0,0,0,.13-.06,6.82,6.82,0,0,0-.56-1.27c-.23-.45-.44-.91-.69-1.35-.43-.76-1.16-1.2-1.62-1.93Zm-.26-.14a3.7,3.7,0,0,0,.21.33,1.13,1.13,0,0,0,.24.29.06.06,0,0,0,.09,0,.8.8,0,0,0-.44-.69c-.06,0-.13,0-.1.11Zm-1,.55a1.54,1.54,0,0,0,.53.37c.15.08.34.24.51.18a.09.09,0,0,0,0-.1c0-.17-.32-.24-.47-.3a1.41,1.41,0,0,0-.6-.19,0,0,0,0,0,0,0Zm-.37-.5a2.18,2.18,0,0,0,.9.77,1.71,1.71,0,0,0,1,.38.08.08,0,0,0,.05-.12,3.13,3.13,0,0,0-1-.54,5,5,0,0,0-1-.54s-.07,0,0,0Zm1.39.17a1.88,1.88,0,0,0,.16.56c.07.14.14.31.3.36s.08,0,.08-.05-.1-.27-.18-.4-.19-.33-.28-.49a0,0,0,0,0-.08,0Zm.11.13a.7.7,0,0,0-.09.32c0,.1,0,.23.07.29h.07c.08-.06.06-.18.06-.27a1.76,1.76,0,0,0,0-.33,0,0,0,0,0-.08,0Zm-.08-.23a1.61,1.61,0,0,0,0,.49c0,.14,0,.32.12.4a.09.09,0,0,0,.11,0c.1-.11,0-.29,0-.41a1.61,1.61,0,0,0-.12-.48.06.06,0,0,0-.12,0Zm.6-5a9.55,9.55,0,0,0-1.85.61c-.5.19-.68.52-1,.92,0,0,0,.1.07.08a.86.86,0,0,0,.27-.2,2.15,2.15,0,0,1,.85-.7,14.58,14.58,0,0,0,1.7-.66s0,0,0,0ZM24.78,48.47c.1.16.19.31.28.48s.1.13.17,0,0-.06,0-.09a1.54,1.54,0,0,0-.34-.54.08.08,0,0,0-.12.1Zm.44.6A5.66,5.66,0,0,0,26.8,46.5s-.05-.06-.07,0a12.93,12.93,0,0,0-.63,1.23c-.25.49-.62.89-.89,1.35,0,0,0,0,0,0Zm1.47-2.55a.55.55,0,0,0,.18.29l.29.33c.07.07.19,0,.12-.11a3.28,3.28,0,0,0-.31-.34.63.63,0,0,0-.26-.2s0,0,0,0Zm.6.62a3,3,0,0,0,.81-2.64,0,0,0,0,0-.08,0,7.79,7.79,0,0,1-.17,1.35,4.47,4.47,0,0,1-.64,1.2.05.05,0,0,0,.08.07Zm.74-2.5c.09.16.31.23.45.33s.34.27.51.4,0,0,0,0a1,1,0,0,0-.39-.56c-.15-.1-.41-.27-.59-.18,0,0,0,0,0,0Zm1,.58c1.48-1,1.48-3.41.6-4.79,0,0,0,0,0,0A4.34,4.34,0,0,1,30,42.91a5.69,5.69,0,0,1-1,2.28s0,.05,0,0Zm.66-4.42a2.8,2.8,0,0,0,.44.6,4.35,4.35,0,0,0,.5.55c.07.07.2,0,.15-.12a5.18,5.18,0,0,0-.47-.58,2.61,2.61,0,0,0-.52-.53c-.05,0-.12,0-.1.08Zm1,1.09a2.85,2.85,0,0,0,0-2.89.06.06,0,0,0-.11,0,10.94,10.94,0,0,1,.25,1.41,9.67,9.67,0,0,1-.18,1.42,0,0,0,0,0,0,0Zm-.07-2.82a1.15,1.15,0,0,1,.5.5.08.08,0,0,0,.16,0,3.89,3.89,0,0,0-.49-1.7c-.39-.63-.93-1-1.12-1.76,0-.12-.23-.1-.2,0,.28,1.33,1.78,1.92,1.64,3.43h.17a.7.7,0,0,0-.62-.55.05.05,0,0,0,0,.09Zm-3.23.57a2.6,2.6,0,0,0,0,.4.51.51,0,0,0,.07.3,0,0,0,0,0,.07,0,.56.56,0,0,0,0-.31c0-.13-.06-.26-.1-.38a0,0,0,1,0,0,0Zm.11.81c.24.5.55,1,.78,1.47a14.1,14.1,0,0,1,.52,1.55s.06,0,.06,0a6.54,6.54,0,0,0-1.3-3s-.08,0-.06,0Zm1.18,1.92c0,.24.06.48.1.72a2.18,2.18,0,0,0,.16.62s.05,0,.06,0a4.53,4.53,0,0,0-.29-1.34s0,0,0,0Zm0-.12a21.45,21.45,0,0,1-1.07-2.9s-.06,0-.06,0a6.91,6.91,0,0,0,1.11,2.89s0,0,0,0Zm-2.16-2.46c-.39.65-1.26.77-1.69,1.39a3.47,3.47,0,0,1-.93.94,3,3,0,0,0-.83.88,0,0,0,0,0,.05,0c.41-.33.76-.68,1.19-1a2.61,2.61,0,0,0,.66-.78c.45-.62,1.28-.73,1.58-1.47,0,0,0,0,0,0Zm-4.08,3.74a2.26,2.26,0,0,0-1.06,1.66,0,0,0,0,0,0,0,3,3,0,0,1,1.07-1.65s0,0,0,0Zm-.79,1.72a11.13,11.13,0,0,0,.86-1.55s0,0,0,0a11.19,11.19,0,0,0-.85,1.56s0,0,0,0Zm1.3-2a2.9,2.9,0,0,1,.72-.72,0,0,0,0,0,0,0,1.36,1.36,0,0,0-.8.69c0,.07.06.13.1.07Zm4.77-5.24a4.52,4.52,0,0,1-1.4.32,1.34,1.34,0,0,0-.9.38s0,.1.06.07a3.71,3.71,0,0,1,1.38-.36,1.27,1.27,0,0,0,.89-.38,0,0,0,0,0,0,0Zm-2.45.72a3.43,3.43,0,0,0-1.89,1.13s0,.05,0,0a7.4,7.4,0,0,1,1-.69c.29-.16.61-.26.9-.41,0,0,0-.07,0-.06Zm-1.55,1.12A4.71,4.71,0,0,1,27,38.78s0-.06,0-.07a4.12,4.12,0,0,0-3.25,1.17s0,0,0,0Zm1.36,2.27,0-.06s0,0,0,0,0,0,0,.06,0,0,0,0Zm0,.13a1.19,1.19,0,0,0,.3.94s0,0,0,0a1.28,1.28,0,0,1-.28-.92s0,0,0,0Zm.38,1.23a13.5,13.5,0,0,0,.44,1.5,2.08,2.08,0,0,1,.06,1.77c0,.05,0,.11.08.06a1.42,1.42,0,0,0,.16-1.28,11.4,11.4,0,0,0-.71-2.06s0,0,0,0Zm.1,4.06a4.51,4.51,0,0,0,.34-2.2s0,0,0,0c-.05.37-.05.74-.11,1.11a10.58,10.58,0,0,1-.26,1.08s0,0,.05,0Zm.2-2.86a8.21,8.21,0,0,0-.28-.88s0,0,0,0c.08.3.2.58.3.87ZM39.62,37a7.18,7.18,0,0,0-.33.92,3.6,3.6,0,0,0-.19.85s0,0,0,0c.11-.29.15-.6.24-.89s.22-.57.32-.87c0,0,0-.06-.06,0Zm-.4,2A2.42,2.42,0,0,0,40,40.8s.06,0,0,0c-.16-.28-.37-.53-.5-.82s-.2-.61-.31-.92c0,0,0,0,0,0ZM40,40.61a5.74,5.74,0,0,1-.52-2,16.73,16.73,0,0,1,.39-1.84,0,0,0,0,0-.07,0,4.57,4.57,0,0,0,.17,3.89s0,0,0,0Zm2.38-3.44.09-.14h-.08a2.31,2.31,0,0,0,1,1.3s0,0,0,0c-.15-.2-.33-.38-.48-.58s-.3-.48-.45-.72c0,0-.07,0-.08,0s0,.11,0,.16,0,0,0,0Zm1,1.16c.24.17.48.34.71.53s.43.43.67.6c0,0,.06,0,0-.05a2.85,2.85,0,0,0-.61-.59,6.05,6.05,0,0,0-.79-.53s0,0,0,0Zm1.52,1.14A2.52,2.52,0,0,0,44,38.6,4.54,4.54,0,0,1,42.77,37s-.07,0-.06,0a3.32,3.32,0,0,0,.86,1.36,11.28,11.28,0,0,1,1.27,1.13,0,0,0,1,0,0,0Zm-4.24-3-.14.07c-.09,0,0,.18,0,.16a3.49,3.49,0,0,0,1.71-1,2.7,2.7,0,0,1,.28-.31c.23-.18.39-.1.64-.14s.15,0,.26-.14,0-.09-.06-.07c-.4.22-.65-.11-1,.24a5.13,5.13,0,0,1-1.87,1.25l.11.1,0-.16s0,0,0,0Zm3-1.48a3.35,3.35,0,0,0,.9-.37s0,0,0,0a2.92,2.92,0,0,0-.89.38s0,0,0,0Zm1.33-.44c-.7.29-1.4.56-2.11.82s-1,1-1.79.88c0,0-.05,0,0,.07.54.26,1-.31,1.36-.59a5.85,5.85,0,0,1,1.41-.53,5.59,5.59,0,0,0,1.15-.63s0,0,0,0Zm-7.71,7.78c.31.49.67,1,1,1.43s.61,1,1,1.44c0,0,0,0,0,0a12.85,12.85,0,0,0-2-2.89s-.06,0,0,0Zm.68.68c.49.73,1,1.54,1.49,2.24,0,0,0,0,0,0A8.5,8.5,0,0,0,37.93,43s0,0,0,0Zm.27.13a19.62,19.62,0,0,0,1.35,2.13s.1,0,.08,0a9.35,9.35,0,0,0-1.41-2.09s0,0,0,0Zm.14-.12a14.57,14.57,0,0,0,1.38,2.15s0,0,0,0A10.62,10.62,0,0,0,38.37,43s-.08,0-.06,0Zm.15-.14c.44.71.83,1.45,1.29,2.14,0,0,.08,0,.06,0a9,9,0,0,0-1.31-2.13s0,0,0,0Zm.22,0a9.18,9.18,0,0,0,1.2,1.91s.07,0,0,0a8.66,8.66,0,0,0-1.22-1.9s0,0,0,0Zm-1.77-.84a9.44,9.44,0,0,1,.84.7c.23.23.41.5.62.74,0,0,.06,0,.05,0A3.11,3.11,0,0,0,36.94,42s-.06,0,0,0Zm.42-.13a6.21,6.21,0,0,1,1.18,1.38s0,0,0,0a3,3,0,0,0-1.18-1.41s-.06,0,0,0Zm.6.19a16.66,16.66,0,0,1,.93,1.43s0,0,0,0A4.67,4.67,0,0,0,38,42.11s0,0,0,0Zm-11-9.36a.32.32,0,0,0-.15.56s0,0,0,0a.32.32,0,0,1,.14-.48s0-.06,0,0Zm0-.12a.71.71,0,0,0-.07.63,0,0,0,0,0,.05,0c0-.1,0-.2,0-.3a.91.91,0,0,1,.06-.32s0,0,0,0Zm.07,0a.61.61,0,0,0-.07.58s0,0,0,0a1.19,1.19,0,0,1,.07-.56s0,0,0,0Zm-.12.33a1.15,1.15,0,0,1,.72-.48s0,0,0,0a.85.85,0,0,0-.73.49Zm.87-.58c.7.12.85.66,1.11,1.22a0,0,0,0,0,0,0c-.1-.53-.49-1.33-1.15-1.23,0,0,0,0,0,0Zm1.06,1a.4.4,0,0,1-.08.36.65.65,0,0,1-.26.17s0,0,0,0a.32.32,0,0,0,.32-.19.4.4,0,0,0,0-.37Zm-2.2-1.79a1.65,1.65,0,0,0,.33.86h0a2.66,2.66,0,0,0-.16-.39c-.06-.16-.1-.31-.15-.47a0,0,0,0,0,0,0Zm.15-.07a1.84,1.84,0,0,0,.29.88s0,0,0,0c-.1-.3-.21-.57-.28-.87,0,0,0,0,0,0Zm.72-.25a7.12,7.12,0,0,0,.29,1h0a7,7,0,0,0-.29-1s0,0,0,0Zm.18.06a4.85,4.85,0,0,0,.31,1s0,0,0,0a4.22,4.22,0,0,0-.34-1s0,0,0,0Zm.23,0a3.82,3.82,0,0,0,.26,1s0,0,0,0a4.07,4.07,0,0,0-.26-.95s0,0,0,0Zm.42.34a3.53,3.53,0,0,0,.24.69s0,0,0,0a3.46,3.46,0,0,0-.22-.69,0,0,0,0,0,0,0Zm.11-.05a4.17,4.17,0,0,0,.35,1,0,0,0,0,0,0,0,4.19,4.19,0,0,0-.36-1s0,0,0,0Zm.17.06A5.21,5.21,0,0,0,29,33s.05,0,0,0a5.57,5.57,0,0,0-.41-1.21s0,0,0,0Zm.21.09a6.54,6.54,0,0,0,.37,1.31,0,0,0,0,0,0,0,5.88,5.88,0,0,0-.38-1.3s0,0,0,0Zm.2.25a3.86,3.86,0,0,1,.1.49c0,.16,0,.33.07.49a0,0,0,1,0,0,0,2.28,2.28,0,0,0-.15-1s-.06,0-.05,0Zm-.83-.36a3.64,3.64,0,0,0,0,.56h.07a4,4,0,0,1-.06-.47,0,0,0,0,0-.06,0,.78.78,0,0,0,0,.4s.08,0,.07,0a1.14,1.14,0,0,1,0-.37h-.06a3.56,3.56,0,0,1,0,.47s.07,0,.07,0a4.86,4.86,0,0,0-.07-.55s0,0,0,0Zm-1.66.62c0,.12.1.31.21.38s0,0,0,0-.13-.28-.2-.38,0,0,0,0Zm0,0c.11.08.06.24.14.33a.1.1,0,0,0,.17,0s0,0,0,0-.14-.13-.16-.19a.18.18,0,0,0-.11-.13s0,0,0,0Zm.13.06a2.18,2.18,0,0,1,0-.72s0,0,0,0a1.11,1.11,0,0,0,0,.74s0,0,0,0Zm.26.37c-.13.22,0,.61.26.64,0,0,0,0,0,0a.49.49,0,0,1-.26-.61s0,0,0,0Zm-.1.17a2.49,2.49,0,0,0,1.82,1.06s0,0,0,0a3.27,3.27,0,0,1-1.8-1s0,0,0,0Zm1.14.59a3.84,3.84,0,0,0,.69.44s0,0,0,0a5,5,0,0,0-.69-.44s0,0,0,0Zm.15-.06c.21.12.38.27.58.41,0,0,0,0,0,0a1.55,1.55,0,0,0-.58-.4s0,0,0,0Zm.15-.12a.94.94,0,0,1,.29.2c.07.08.1.17.17.24s0,0,0,0c0-.22-.29-.39-.48-.45,0,0,0,0,0,0Zm.15-.08a4.17,4.17,0,0,0,.37.36s0,0,0,0a3.06,3.06,0,0,0-.37-.35s0,0,0,0Zm.17-.08a1.91,1.91,0,0,0,.26.41s0,0,0,0a2.19,2.19,0,0,0-.26-.41s0,0,0,0Zm-1.91-.13a.67.67,0,0,1,.6-.57s0,0,0,0a.55.55,0,0,0-.62.6Zm9.63,4.37a2.73,2.73,0,0,0,0,.9h0c0-.3,0-.6,0-.9Zm.23-.23a3.16,3.16,0,0,0-.14.86s0,0,0,0a3.5,3.5,0,0,0,.12-.86s0,0,0,0Zm.09-.1a2.29,2.29,0,0,1,0,.37c0,.11,0,.22-.06.33s0,0,0,0a1,1,0,0,0,0-.71Zm.25-.18a2.91,2.91,0,0,0,0,.59s0,0,0,0a3.88,3.88,0,0,0,0-.59s0,0,0,0Zm.57-.2a.23.23,0,0,0,.06.26s0,0,0,0a.59.59,0,0,1,0-.23s0,0,0,0Zm.23-.08a.28.28,0,0,1,0,.23s0,0,0,0a.21.21,0,0,0-.05-.26s0,0,0,0Zm-8.42-.53a2.83,2.83,0,0,1,.42-.07s0,0,0,0a.53.53,0,0,0-.44.07s0,0,0,0Zm.29-.22a1.68,1.68,0,0,0,.44-.07s0,0,0,0a1.67,1.67,0,0,0-.44.06s0,.05,0,0Zm.12-.33a1,1,0,0,0,.38,0s0,0,0,0a1,1,0,0,0-.38,0s0,0,0,0Zm.05-.28a.54.54,0,0,0,.39.08,0,0,0,1,0,0,0,1.54,1.54,0,0,1-.37-.09s0,0,0,0ZM30,35l.27.14s0,0,0,0L30,35s0,0,0,0Zm-1.92-7.72c.55.23,1.5.45,1.81-.25,0,0,0,0,0,0-.48.6-1.12.41-1.77.24,0,0,0,0,0,0Zm.71-.4a3.6,3.6,0,0,0,.52.43s0,0,0,0a3.67,3.67,0,0,0-.52-.44s0,0,0,0Zm.3-.07a3.59,3.59,0,0,0,.5.37s0,0,0,0-.34-.24-.51-.36c0,0,0,0,0,0Zm.3-.07a1.54,1.54,0,0,1,.47.33s0,0,0,0a.84.84,0,0,0-.48-.32s0,0,0,0Zm.27-.15a.44.44,0,0,1,.39.18s0,0,0,0a.32.32,0,0,0-.4-.18s0,0,0,0Zm.21-.38a.72.72,0,0,1,.25.18l.14.16s0,0,0,0c0-.18-.24-.3-.4-.37s0,0,0,0Zm.15-.29a1.72,1.72,0,0,0,.34.32s0,0,0,0a1.45,1.45,0,0,0-.34-.31s0,0,0,0Zm.13-.43a.32.32,0,0,1,.27.19,0,0,0,0,0,0,0,.3.3,0,0,0-.3-.22,0,0,0,1,0,0,0ZM38.89,45c.51,1,1,2,1.64,3,0,0,.06,0,0,0a19.18,19.18,0,0,0-1.65-3s0,0,0,0Zm.23.37c.41.78.86,1.55,1.27,2.33,0,0,0,0,0,0a10.77,10.77,0,0,0-1.28-2.33,0,0,0,1,0,0,0Zm0-.62c.42.94.83,1.88,1.22,2.83,0,0,0,0,0,0a14.66,14.66,0,0,0-1.22-2.82,0,0,0,0,0,0,0Zm.21.17c.47.88.88,1.76,1.27,2.68,0,0,0,0,0,0a10.26,10.26,0,0,0-1.28-2.67s0,0,0,0Zm.15-.06c.37.82.76,1.65,1.21,2.43,0,0,.05,0,0,0a24.91,24.91,0,0,0-1.22-2.42s0,0,0,0Zm.12-.06c.43.81.82,1.61,1.19,2.44,0,0,0,0,0,0a9.3,9.3,0,0,0-1.2-2.45s0,0,0,0Zm0-.42a.14.14,0,0,1,.13.15l.05.11L40,45a6.27,6.27,0,0,0,.35.74,0,0,0,0,0,.05,0c-.11-.32-.27-.62-.41-.93,0-.12-.14-.47-.26-.53s-.19,0-.11.08a0,0,0,1,0,0,0Zm.07-.28a10.65,10.65,0,0,0,.83,1.61s0,0,0,0a12.82,12.82,0,0,0-.8-1.62s-.08,0-.06,0Zm.13,0a7.35,7.35,0,0,1,.77,1.47l.07,0-.11-.12s-.05,0,0,0l.08.14a0,0,0,1,0,.07,0,4.32,4.32,0,0,0-.79-1.48s-.07,0,0,0Zm.19,0c.23.5.41,1.06.68,1.54,0,0,.06,0,.06,0a6.37,6.37,0,0,0-.68-1.56,0,0,0,0,0-.06,0Zm.26.42a11.77,11.77,0,0,1,.61,1.17s0,0,0,0a3.84,3.84,0,0,0-.59-1.2s-.07,0,0,0Zm-1,.43c.23.47.5.92.7,1.4s.34,1,.56,1.46c0,.07.13,0,.12,0a6,6,0,0,0-1.28-2.88c0-.06-.14,0-.1.06ZM39,44.8c.28.51.62,1,.89,1.51s.44,1.1.74,1.59a.07.07,0,0,0,.14,0,6.16,6.16,0,0,0-1.69-3.11s-.11,0-.08,0Zm.07.1a10.41,10.41,0,0,0,.72,1.46c.24.49.44,1,.7,1.47,0,.06.13,0,.12,0A7.55,7.55,0,0,0,40,46.27a5.47,5.47,0,0,0-.87-1.4s-.06,0,0,0Zm0,.15c.45,1,.92,2.08,1.46,3.05,0,0,.11,0,.09,0A9.26,9.26,0,0,0,39.14,45s-.1,0-.08,0Zm.47.67c.4.93.71,1.88,1.06,2.82A4.52,4.52,0,0,0,42,50.67s.11,0,.07-.08A9.1,9.1,0,0,1,40.66,48a9.69,9.69,0,0,0-1-2.38c0-.06-.13,0-.1.06Zm2.13,4.73a5,5,0,0,0,.67.15,1.75,1.75,0,0,0,.68.06s.07-.08,0-.1a1.45,1.45,0,0,0-.59-.12c-.26,0-.51,0-.76,0,0,0-.06,0,0,.06Zm.37,0v0a0,0,0,0,0,0,0c-.08,0-.09,0-.11.1a.08.08,0,0,0,.06.09,2,2,0,0,0,.64.17,1.22,1.22,0,0,0,.63,0,.05.05,0,0,0,0-.1,2.76,2.76,0,0,0-.64-.1l-.38-.08s-.22-.06-.22,0,0,0,0,0Zm1.26.26a8.53,8.53,0,0,0-1-2.93,10,10,0,0,0-1.67-2.63c-.05,0-.14,0-.1.07.5.9,1.13,1.71,1.59,2.64s.7,1.95,1.16,2.86c0,0,0,0,0,0Zm-2.87-4a22.72,22.72,0,0,0,1.29,3.66c0,.07.17,0,.14-.05a24.15,24.15,0,0,0-1.35-3.64s-.1,0-.08,0Zm.09.76A8.47,8.47,0,0,0,42,50.35a.07.07,0,0,0,.12-.08c-.23-.49-.56-.93-.82-1.41s-.51-1-.76-1.45a0,0,0,0,0-.07,0Zm1.24,2.81a5,5,0,0,0,.6.24c.14,0,.37.18.52.14s.15-.36,0-.29-.07.11,0,.14l0-.08-.06,0-.13,0-.29-.1-.51-.14a.08.08,0,0,0,0,.15Zm.07.08a2.62,2.62,0,0,0,.62.19.85.85,0,0,0,.55,0s0-.07,0-.09a1.49,1.49,0,0,0-.52,0,2.52,2.52,0,0,1-.61-.11,0,0,0,0,0,0,.09Zm-1.48-4.14c.28.76.62,1.49.95,2.22a9,9,0,0,0,1,2s.06,0,.06,0a9.63,9.63,0,0,0-.85-2c-.33-.73-.65-1.46-1-2.17,0,0-.1,0-.08,0Zm.65.51a36.76,36.76,0,0,0,1.7,3.86.06.06,0,0,0,.1-.05A34.85,34.85,0,0,0,41,46.68s0,0,0,0Zm.74,1.11a18.47,18.47,0,0,0,1.14,2.67.1.1,0,0,0,.18-.08,17,17,0,0,0-1.24-2.62,0,0,0,0,0-.08,0Zm.09,0A19.07,19.07,0,0,0,43,50.54s.08,0,.07,0a7.9,7.9,0,0,0-1.2-2.8s-.1,0-.09.05Zm.55,1.08a7,7,0,0,0-.7-1.93s-.06,0,0,0c.21.65.5,1.27.71,1.92,0,0,0,0,0,0Z"/></g></g></svg>