<svg xmlns="http://www.w3.org/2000/svg" viewBox="0 0 62.83 62.83"><defs><style>.cls-1{fill:#5e7461;}</style></defs><title>Ресурс 10</title><g id="Слой_2" data-name="Слой 2"><g id="БЛОК_СОСТАВ_" data-name="БЛОК &quot;СОСТАВ&quot;"><path class="cls-1" d="M31.41,62.83A31.42,31.42,0,1,1,62.83,31.41,31.45,31.45,0,0,1,31.41,62.83Zm0-61.67A30.26,30.26,0,1,0,61.67,31.41,30.28,30.28,0,0,0,31.41,1.16Zm-1.7,56.06a6,6,0,0,0,0-1.69,21.62,21.62,0,0,1,0-3c0-.3,0-.59,0-.86-.19-.09-.27,0-.36.1l-.83.84a3.47,3.47,0,0,1-2,1,8.78,8.78,0,0,1-2.05,0A6.25,6.25,0,0,1,22.43,53a.23.23,0,0,1-.13-.36,8.07,8.07,0,0,1,1.25-1.71,1.5,1.5,0,0,0,.37-.46,3.74,3.74,0,0,1,2-1.64,6,6,0,0,1,1.46-.48,4.3,4.3,0,0,1,1.6,0,1.17,1.17,0,0,0,1.11-.13,1.56,1.56,0,0,0-.57-.83A14.38,14.38,0,0,0,28.24,46c-.78-.59-1.54-1.22-2.34-1.78a15.49,15.49,0,0,1-1.56-1.34c-.4-.39-.8-.79-1.22-1.17a4.82,4.82,0,0,1-.88-1,.74.74,0,0,0-.43-.37c-.14,0-.15.12-.17.21a2,2,0,0,1-.6,1.07,1.64,1.64,0,0,0-.33.57c-.11.27-.24.54-.37.8a.81.81,0,0,1-.17.24.38.38,0,0,1-.66-.08,1.29,1.29,0,0,1-.12-.64A4.56,4.56,0,0,1,19.68,41a2.23,2.23,0,0,0,.09-.32,1.27,1.27,0,0,0-1.14.39,2.09,2.09,0,0,1-1.37.65.8.8,0,0,1-.85-.32,1,1,0,0,0-.91-.48,1.82,1.82,0,0,1-.5-.12,1,1,0,0,1-.72-.76,1,1,0,0,0-.41-.67.77.77,0,0,1-.34-.62,1.94,1.94,0,0,0-.28-.91.51.51,0,0,1,.05-.61c.29-.43.55-.88.82-1.32a.79.79,0,0,0,.09-.69c-.23-.84,0-1.07.68-1.5a1.68,1.68,0,0,1,.33-.16,1.07,1.07,0,0,0,.61-.59,1.33,1.33,0,0,1,1-.9,2.4,2.4,0,0,0,.39-.2.65.65,0,0,1,.56,0,6.62,6.62,0,0,0,.62.24,1.45,1.45,0,0,0,.35.12,3.89,3.89,0,0,1,1.93.58.28.28,0,0,0,.28,0c.31-.15.57.06.84.13a.39.39,0,0,1,.27.33,1.89,1.89,0,0,0,.45.82,1.58,1.58,0,0,1,.43,1.36A4,4,0,0,0,23,36.5a2,2,0,0,1-.26,1.34.33.33,0,0,0-.06.32,2,2,0,0,1,.76.06.52.52,0,0,1,.24.79.73.73,0,0,1-.3.19,2.57,2.57,0,0,0-.53.25.35.35,0,0,0-.09.61,5.49,5.49,0,0,0,.43.4c.65.56,1.31,1.1,1.95,1.67.42.38.79.81,1.19,1.21A8.51,8.51,0,0,0,28,44.8a13.4,13.4,0,0,1,2.32,2.44.54.54,0,0,0,.09.12s.09,0,.13,0a.2.2,0,0,0,.09-.09c0-.17,0-.34,0-.51,0-1.18.05-2.36.12-3.54.06-1,0-2,0-3a7.63,7.63,0,0,1,0-1c.16-1.51.33-3,.49-4.54.05-.41.07-.83.08-1.25,0-.18-.13-.26-.29-.18l-.8.37a14,14,0,0,1-2.12.64,3.59,3.59,0,0,1-2.3-.25c-.43-.18-.84-.41-1.25-.63a4,4,0,0,0-1.41-.59.28.28,0,0,1-.12-.51,9.21,9.21,0,0,1,.9-.64,4.09,4.09,0,0,1,.79-.38,6.75,6.75,0,0,0,1.42-.78A12.73,12.73,0,0,1,28,29.64a3.33,3.33,0,0,1,1.35-.34,4.78,4.78,0,0,1,1.51,0c.07-.16,0-.2-.1-.25l-1-.74a1.6,1.6,0,0,1-.27-.25c-.68-1-1.66-1.66-2.36-2.62a12.46,12.46,0,0,1-2.05-3.64,2.86,2.86,0,0,0-.15-.41c0-.13-.09-.33-.25-.33s-.26.21-.3.37a9.36,9.36,0,0,1-.76,1.75,1,1,0,0,1-.2.31.26.26,0,0,1-.33.06,1.53,1.53,0,0,1-.64-.78.54.54,0,0,1,.06-.43A2.63,2.63,0,0,1,23.58,21a1,1,0,0,0,.47-.64.19.19,0,0,0,0-.12s-.05,0-.06,0a2.54,2.54,0,0,1-1.4.3,2.83,2.83,0,0,0-.55.21,4,4,0,0,1-.48.2.86.86,0,0,1-.89-.19c-.1-.1-.2-.23-.37-.18s-.41-.12-.57-.33-.45-.44-.48-.8c-.28,0-.49.19-.74.2a.54.54,0,0,1-.63-.48,1.78,1.78,0,0,1,.37-1.72c.16-.15.25-.36.4-.53s.19-.33,0-.49a.28.28,0,0,1-.08-.33,1.6,1.6,0,0,0,0-1.08c.12-1.08.14-1.7,1.25-2.19.35-.16.47-.54.75-.78.05,0,.07-.13.1-.19a1.29,1.29,0,0,1,1.54-.71,1.62,1.62,0,0,0,1.31-.24l.33-.18a.4.4,0,0,1,.48,0,.73.73,0,0,0,.76.1l.85-.25c.35-.09.4-.07.61.23a1.19,1.19,0,0,0,.16.23c.22.17.58,0,.73.26a.76.76,0,0,0,.58.38c.31.07.44.22.37.53-.12.47.17.79.35,1.15a.22.22,0,0,0,.25.12.33.33,0,0,0,.21-.19s.05-.1,0-.14a1.86,1.86,0,0,1,.12-1.07c.08-.29,0-.34-.26-.36a3.15,3.15,0,0,1-.43-.05.46.46,0,0,1-.39-.6c.14-.38.22-.81.62-1a.57.57,0,0,0,.29-.41,1.09,1.09,0,0,1,.38-.7.53.53,0,0,0,.2-.37.79.79,0,0,1,.62-.66c.14,0,.29-.06.42-.12s.31-.12.44.09a.52.52,0,0,0,.45.22,2,2,0,0,1,1.1.34l.28.11a.31.31,0,0,0,.38-.14,4,4,0,0,0,.36-.64.62.62,0,0,1,.73-.48c-.22-.31-.34-.37-.59-.37s-.57.29-.92.2a.33.33,0,0,0-.11.17.53.53,0,0,1-.13.33c-.16.2-.46.25-.56,0s-.5-.37-.63-.68c0-.14-.28-.07-.34.08a.56.56,0,0,0,0,.22.17.17,0,0,1-.2.17.37.37,0,0,1-.19-.09.21.21,0,0,1,0-.27,1,1,0,0,1,.47-.45.45.45,0,0,1,.42,0l.44.28c.09.05.2.19.3,0s0-.2,0-.29h0c-.09,0-.17.1-.27,0s-.17-.27-.08-.3a1.35,1.35,0,0,0,.74-.65c.08-.16.29-.16.47-.13a.63.63,0,0,1,.44.25.73.73,0,0,0,.84.3,4.78,4.78,0,0,1,.65-.07,1,1,0,0,1,.78.14.56.56,0,0,0,.62,0c.19-.09.33,0,.46.14a1.45,1.45,0,0,0,.66.56.36.36,0,0,1,.22.35.76.76,0,0,0,.33.69,1.1,1.1,0,0,1,.42,1,.91.91,0,0,0,.16.55c.12.18.19.4.32.57a1,1,0,0,1,.17.56.73.73,0,0,0,.29.7.54.54,0,0,1,.15.6,4.54,4.54,0,0,0-.35,1.12c-.43.48-.57,1.21-1.25,1.49-.31.12-.46.42-.72.61a1.23,1.23,0,0,1-.92.35.83.83,0,0,0-.42.11c-.18.08-.22.33-.42.39s-.4,0-.57.1c0,.17.12.21.22.26.27.13.55.23.81.36a.37.37,0,0,1,.21.49,2,2,0,0,1-.9,1.12.21.21,0,0,1-.27,0c0-.05-.09-.15-.07-.19.27-.57-.1-.88-.47-1.17s-.61-.29-.65.23a26.1,26.1,0,0,0-.22,2.64c0,.3,0,.59-.05.89A17.24,17.24,0,0,0,33.65,23a25.12,25.12,0,0,1-.26,3,8.47,8.47,0,0,0-.07.88c0,.73,0,1.47,0,2.21a1.5,1.5,0,0,0,0,.29.15.15,0,0,0,.23.09,7.34,7.34,0,0,0,.76-.59,17.2,17.2,0,0,0,3.38-4.34c.15-.28.33-.54.49-.82.08-.12.17-.25,0-.39a.4.4,0,0,0-.47-.12c-.13.06-.25.16-.38.23a.24.24,0,0,1-.27,0,.26.26,0,0,1-.09-.33,1,1,0,0,1,.69-.71,3.26,3.26,0,0,1,1.51-.23.93.93,0,0,0,.29,0s.05,0,.05-.05,0-.11,0-.13a5.19,5.19,0,0,0-.46-.36,1.39,1.39,0,0,1-.74-1.33.25.25,0,0,0-.19-.27l-.27-.11c-.31-.11-.54-.26-.4-.64,0-.13,0-.23-.08-.35-.15-.47,0-.75.51-.82.07,0,.16,0,.22,0a.26.26,0,0,0,.14-.15,1.45,1.45,0,0,0,0-.36.63.63,0,0,1,.23-.66A1.09,1.09,0,0,0,39,16a3.42,3.42,0,0,1,0-.44c0-.19.09-.23.3-.21a.33.33,0,0,1,.14,0,.27.27,0,0,0,.37-.15,1.62,1.62,0,0,1,1.06-1,.31.31,0,0,0,.23-.26c0-.12,0-.24.06-.36a1.2,1.2,0,0,1,.74-.94l.39-.2a.2.2,0,0,1,.26.09c.15.43.47.81.41,1.31a.75.75,0,0,0,.23.61c.07.09.17.07.25,0a.71.71,0,0,0,.12-.18c.19-.46.58-.52,1-.56.68,0,1,.49,1.36.86A.49.49,0,0,1,46,15a.53.53,0,0,0,.37.56,1.93,1.93,0,0,1,.32.19,1.69,1.69,0,0,1,.81,1.41,4.43,4.43,0,0,0,.08.8,2.07,2.07,0,0,1-.18,1.36.53.53,0,0,0,0,.49,1.2,1.2,0,0,1-.11,1.06c-.27.47-.52.94-.8,1.41a2.52,2.52,0,0,0-.28.75.36.36,0,0,1-.31.28,1.07,1.07,0,0,1-.78-.11,1.36,1.36,0,0,0-1.38,0,.5.5,0,0,1-.49,0,1,1,0,0,0-1.1.14.86.86,0,0,1-.76.15c-.23-.05-.32,0-.36.25a2.38,2.38,0,0,1-.24.77.94.94,0,0,1-.32.39c-.37.2-.76.23-.87-.37a7.2,7.2,0,0,1,0-.81c0-.11-.05-.2-.16-.2a.25.25,0,0,0-.18.1c-.35.57-.71,1.12-1,1.71s-.59.9-.85,1.38a9.11,9.11,0,0,1-1.65,2.06,6,6,0,0,1-1,.79,1,1,0,0,0-.21.21.15.15,0,0,0,0,.13s.06.09.09.09a3.61,3.61,0,0,0,.66,0,3.88,3.88,0,0,1,2.79.67,5.66,5.66,0,0,1,1.75,1.86c.26.39.49.8.75,1.18a.76.76,0,0,1,.14.69c-.09.37-.28.53-.64.41a5.74,5.74,0,0,0-2.26-.09,9.88,9.88,0,0,1-2.49,0,4.23,4.23,0,0,1-1.79-.81l-.91-.66c0,.38-.09.71-.13,1A34.7,34.7,0,0,0,32,39.81a20,20,0,0,1-.06,2,18.56,18.56,0,0,0,0,2.79c0,.47,0,.93,0,1.4a5.85,5.85,0,0,0,0,.59c0,.09,0,.2.16.21a.27.27,0,0,0,.25-.12,16.5,16.5,0,0,1,2.18-2.08c.56-.48,1.07-1,1.64-1.47a19.19,19.19,0,0,1,2.17-1.52c.84-.51,1.66-1,2.49-1.57a1.64,1.64,0,0,0,.28-.23.14.14,0,0,0-.05-.24c-.3-.11-.61-.19-.9-.31a.88.88,0,0,1-.61-.76.34.34,0,0,1,.17-.37,1,1,0,0,1,.69-.21c.15,0,.29,0,.44,0a.2.2,0,0,0,.21-.17q.09-.44.15-.87c0-.13-.07-.22-.15-.31A.5.5,0,0,1,41,36c.1-.22.2-.44.32-.66a.84.84,0,0,1,.34-.38,2.54,2.54,0,0,0,1-1,.87.87,0,0,1,.56-.43.78.78,0,0,0,.45-.23,1,1,0,0,1,.66-.29,9.27,9.27,0,0,0,1.38-.24c.33-.1.54,0,.7.38a1.58,1.58,0,0,1,.13.34.52.52,0,0,0,.6.49,1.2,1.2,0,0,1,.89.47,1.12,1.12,0,0,0,.54.36.63.63,0,0,1,.47.59.6.6,0,0,0,.27.49.53.53,0,0,1,.22.52,1.49,1.49,0,0,0,.1.86,1,1,0,0,1-.26,1.15,3.49,3.49,0,0,0-.62.91c-.19.31-.34.64-.52,1a1.11,1.11,0,0,1-.22.3,2.6,2.6,0,0,0-.58.73,1.79,1.79,0,0,1-1.29.76c-.17,0-.35,0-.51,0a1.68,1.68,0,0,1-1.65-.3,1.5,1.5,0,0,1-1.12-1,.44.44,0,0,0-.36-.22c-.17,0-.15.17-.18.28a2.64,2.64,0,0,1-.92,1.12.18.18,0,0,1-.26,0,.19.19,0,0,1,0-.27,2.48,2.48,0,0,0,.39-.95.28.28,0,0,0,0-.2c-.07-.08-.18,0-.26,0a20.19,20.19,0,0,0-1.92,1.23,19.35,19.35,0,0,0-2.38,1.84c-.71.73-1.54,1.3-2.29,2s-1.25,1.18-1.87,1.77a1.23,1.23,0,0,0-.22.29c-.11.16-.06.29.13.31l.66,0a4.55,4.55,0,0,1,3,1.3,11.33,11.33,0,0,1,1.67,1.86c.22.32.43.65.64,1s.27.42.39.63.36.2.21.4-.32.1-.48.06a12.87,12.87,0,0,1-1.37-.3A5.88,5.88,0,0,0,36,52.79a10.92,10.92,0,0,0-2.06-.07,2.19,2.19,0,0,1-1.15-.21,9.63,9.63,0,0,1-1.25-.61c-.24-.14-.35-.08-.39.21a.82.82,0,0,0,0,.22,20,20,0,0,0,0,2.05,1,1,0,0,1,0,.3M48.92,36.26l0,0,0,0v0ZM36.85,43.17,37,43a.75.75,0,0,0,.44-.29l.16-.16a.82.82,0,0,0,.58-.43h0a.84.84,0,0,0-.59.43l-.15.16A.62.62,0,0,0,37,43l-.14.15a.19.19,0,0,0-.15.16,2.9,2.9,0,0,0-1.32,1.18l-.33.12-.42.46a3.54,3.54,0,0,0-1.32,1.17l-.16.16a.65.65,0,0,0-.16.13.51.51,0,0,0-.15.23c0,.08.16,0,.25-.17a.59.59,0,0,0,0-.2l.16-.16a4.44,4.44,0,0,0,1.32-1.17.5.5,0,0,0,.42-.46.5.5,0,0,0,.33-.12c.6-.21.92-.74,1.32-1.18A.22.22,0,0,0,36.85,43.17Zm-2.5-13.7a.18.18,0,0,0,.14-.15.58.58,0,0,0,.45-.2,12.69,12.69,0,0,0,1.67-1.77c.52-.71,1-1.47,1.44-2.22a1.26,1.26,0,0,0,.13-.26c0-.07,0-.16-.07-.18a.16.16,0,0,0-.19.07c-.08.13-.14.26-.22.38-.24.4-.48.8-.75,1.18a20.5,20.5,0,0,1-2,2.43c-.16.18-.38.32-.43.58a.19.19,0,0,0-.15.15l-.15.15c-.54.24-.63.32-.78.68a1.65,1.65,0,0,0,.77-.69Zm-5.61-2.8h0l-.14-.15a3.93,3.93,0,0,0-.67-1.13c-.44-.68-.94-1.33-1.32-2a21.23,21.23,0,0,0-1.26-2l-.13-.33a1,1,0,0,0-.25-.74,1.05,1.05,0,0,0,.26.73l.13.33a3.38,3.38,0,0,0,.34,1.12,17.71,17.71,0,0,0,2.25,3.44,2.3,2.3,0,0,0,.66.58ZM21.23,38.31h0l-.16.16-.13.3a.47.47,0,0,0-.14.45c-.18.07-.33.24-.53.23s-.13-.07-.17-.13,0-.11,0-.13a4.44,4.44,0,0,0,.72-1.1.75.75,0,0,1,.29-.32,1.75,1.75,0,0,0,.93-1c.07-.15.16-.32.37-.3s.18-.06.16-.18a3.54,3.54,0,0,1,0-1.17.68.68,0,0,0-.13-.49.2.2,0,0,0-.31,0,1.71,1.71,0,0,0-.56,1.16,1.36,1.36,0,0,1-.35.87l-.29.33h0a.69.69,0,0,1,.2-.68.53.53,0,0,0,.14-.54,1.14,1.14,0,0,1,.37-1.13.55.55,0,0,0,.12-.71,2.07,2.07,0,0,1-.1-.43.25.25,0,0,0-.25-.23.22.22,0,0,0-.27.17l-.06.22a.78.78,0,0,1-.67.59.84.84,0,0,0-.49.3c-.09.1-.14.23-.32.25a.27.27,0,0,0-.22.37c0,.12.18.16.36,0s.61-.09.92-.11c0,0,.1.09.13.16a.15.15,0,0,1-.08.18.77.77,0,0,1-.49.11c-.42,0-.57.16-.67.55a1.41,1.41,0,0,0,0,.58c0,.15.13.21.26.13a2.4,2.4,0,0,0,.86-1,.12.12,0,0,1,.18-.07c.05,0,.11.12.1.17a1.07,1.07,0,0,1-.49.78,4.11,4.11,0,0,0-.59.44.71.71,0,0,1-.6.21.56.56,0,0,0-.46.2,1.39,1.39,0,0,0-.44,1,.24.24,0,0,0,.1.26.2.2,0,0,0,.21,0,1.31,1.31,0,0,1,.24-.17,2.15,2.15,0,0,1,.27-.1.2.2,0,0,1,.27.24,2.15,2.15,0,0,1-.57,1.17c-.07.08-.13.17-.06.27s.16.08.26.08a.83.83,0,0,0,.63-.14,1.73,1.73,0,0,1,.92-.39.33.33,0,0,0,.23-.17c.08-.11,0-.23-.05-.34l.15-.45c0-.1.09-.2.14-.3ZM25.5,15.76l0,0,0,0ZM33,14h0Zm-.89,33.6h0l0,0Zm.28-.46h0ZM15.33,33.9s-.13,0-.08.08l.07-.09ZM28,45.4l-.15-.15a1.22,1.22,0,0,0-.73-.59,1.38,1.38,0,0,0-.2-.31c-.67-.67-1.34-1.35-2-2-.4-.36-.8-.71-1.18-1.09a5.19,5.19,0,0,0-.45-.37,3.22,3.22,0,0,0-.41-.32c-.14-.08-.22-.28-.44-.24a6.14,6.14,0,0,0,1.06,1.21c.72.69,1.44,1.39,2.18,2.06a5,5,0,0,0,1.49,1,.94.94,0,0,0,.73.59l.15.15a1,1,0,0,0,.11.15,0,0,0,0,0,.06-.07A.56.56,0,0,0,28,45.4ZM16.65,39.49a.41.41,0,0,0,.25-.23s0-.08,0-.12-.08,0-.11,0a.44.44,0,0,0-.1.32.34.34,0,0,0-.22.23s0,0,0,0,.05,0,.06,0S16.63,39.59,16.65,39.49Zm-.28-2.65a.68.68,0,0,0,.33-.36.14.14,0,0,0,0-.19.5.5,0,0,0-.2-.08c-.08,0-.13.06-.13.14s0,.33.05.5Zm29-1.92a1.13,1.13,0,0,0,.32-.13.39.39,0,0,0,.06-.63.24.24,0,0,0-.25-.09.19.19,0,0,0-.15.21c0,.22,0,.43,0,.65ZM29.93,47.3a.31.31,0,0,0,.2.33s.06,0,.06,0a.35.35,0,0,0-.27-.29c-.37-.78-.8-1.21-1.33-1.29A9.46,9.46,0,0,0,29.93,47.3Zm-13-14c.84-.18.87-.22.7-1,0-.07-.08-.14-.16-.12s-.16.08-.16.12a1.61,1.61,0,0,1-.37,1l-.71.11c-.1,0-.12.13,0,.22s.37.25.53,0A3.25,3.25,0,0,0,17,33.3Zm25.94,1.93a.19.19,0,0,0-.15-.15,2.44,2.44,0,0,1,.14-.34c.13-.22.23-.24.47-.12,0,0,.08.07.12.09s.12,0,.13-.09c0-.34,0-.37.25-.35s.4,0,.48-.23a.55.55,0,0,1,.44-.34.14.14,0,0,0,.11-.22s-.1-.12-.16-.12c-.32,0-.64,0-.79.37a.37.37,0,0,1-.46.26.41.41,0,0,0-.53.26,1.44,1.44,0,0,1-.27.34c-.14.18-.14.18.08.48l.15.15.12.49c0,.14-.18.29,0,.45.31-.14.56-.42.93-.35,0,.06,0,.15.07.18s.25,0,.38-.1a.93.93,0,0,0-.46-.07.45.45,0,0,0-.39-.53A4.48,4.48,0,0,0,42.89,35.23ZM19.45,14.43c.11-.13.22-.26.32-.4a3.83,3.83,0,0,0,.25-.44.28.28,0,0,0-.09-.33.29.29,0,0,0-.34,0,1.05,1.05,0,0,0-.48.54c-.08.24.22.29.28.47s.05.14.08.2l-.47.17a.26.26,0,0,0-.12.24.19.19,0,0,0,.05.13s.1,0,.11,0C19.19,14.82,19.41,14.69,19.45,14.43Zm14.9,1.78h0l1.23,1.33a.31.31,0,0,0,.13.06c.09,0,.27-.21.31-.37a.22.22,0,0,0-.11-.25ZM17,34.18l.26.13c.07,0,.17.07.2,0,.29-.23.67-.39.78-.79a.23.23,0,0,0,0-.14.16.16,0,0,0-.19-.06l-.61.23a.56.56,0,0,0-.41.6Zm27.42,7.38a1.36,1.36,0,0,0,1.23.24.15.15,0,0,0,.1-.09.13.13,0,0,0,0-.12c-.46-.43-.52-.44-1.11-.09l-.21.07c0-.32.33-.45.45-.71a1,1,0,0,0-.81-.29c-.26,0-.4.24-.52.49ZM27,16.79h0c-.06-.13-.1-.27-.16-.4-.26-.61-.59-.68-1.12-.24a.25.25,0,0,0,.07.42A3,3,0,0,0,27,16.79Zm17.37,1.95a1.58,1.58,0,0,1,.13-.57.27.27,0,0,0-.28-.33.53.53,0,0,0-.22,0c-.13.06-.28.11-.3.28a.36.36,0,0,0,.22.36l.46.22a1.56,1.56,0,0,0,0,1,.44.44,0,0,0,.54.23c.18-.05.21-.17.18-.34a2.17,2.17,0,0,1,0-.36.6.6,0,0,0-.21-.45A.53.53,0,0,0,44.35,18.74ZM18.43,17.67h.07c.31,0,.34.08.2.27s-.28.29,0,.48c.07,0,0,.14-.06.16h-.21a.24.24,0,0,0-.25.22.42.42,0,0,0,.21.43.29.29,0,0,0,.34-.06,2.69,2.69,0,0,0,.34-.47c.1-.16.17-.34.26-.51s.16-.48-.1-.68-.46-.3-.76.16l0,0ZM22,15c-.19-.13-.36-.24-.59-.07a1.41,1.41,0,0,1-.39.19,1,1,0,0,0-.61.84.19.19,0,0,0,.19.24c.66-.1,1.24-.3,1.37-1.07A.59.59,0,0,1,22,15l.13,0,.05-.05c0-.06-.05-.07-.09,0A.32.32,0,0,0,22,15Zm23.27,3.1s0-.1,0-.13-.08,0-.1,0,0,.05,0,.06l.13.05a2,2,0,0,1,.17.93,2.17,2.17,0,0,0,0,.36.29.29,0,0,0,.32.24c.31-.05.62-.1.93-.17a.28.28,0,0,0,.12-.42.32.32,0,0,0-.1-.1,1.68,1.68,0,0,1-.8-.82.26.26,0,0,0-.31-.12ZM32,29.77s0-.12-.1,0l.11,0a.15.15,0,0,0,0,.07c.05.12.13.24.26.23s.12-.18.13-.29A.82.82,0,0,0,32,29a11,11,0,0,1-1.35-1,4.33,4.33,0,0,0-1.42-.86l0,0h0a3.19,3.19,0,0,0,.72.91,8.19,8.19,0,0,0,1.61,1.13l.58.31C32.22,29.54,32.2,29.6,32,29.77ZM45.1,22.71v0h0a2.19,2.19,0,0,0,.42.28.29.29,0,0,0,.39-.12c.2-.42.41-.84.05-1.29a.52.52,0,0,0-.63-.21c-.23.05-.37.24-.57.32,0,0-.1,0-.13,0a.15.15,0,0,1,0-.13l.32-.39a.21.21,0,0,0,0-.12s0,0-.06,0a1.47,1.47,0,0,0-.64.57.13.13,0,0,0,0,.19c.16.13.29.35.56.24a.68.68,0,0,1,.63.1c.06,0,.12.09.07.17S45.4,22.7,45.1,22.71ZM21.82,11.51a1.38,1.38,0,0,0-.29,0,.62.62,0,0,0-.47.32c-.09.16.05.27.08.41a.26.26,0,0,1-.19.34,2.64,2.64,0,0,1-.29,0,.34.34,0,0,0-.28.3.48.48,0,0,0,.32.58,1.28,1.28,0,0,0,.92-.15c.24-.08.11-.34.13-.53a6.36,6.36,0,0,0,.06-1.31Zm8.7-3.25a.33.33,0,0,0-.33.25,1.27,1.27,0,0,1-.21.54.83.83,0,0,0-.19.54.51.51,0,0,1-.39.55,1.29,1.29,0,0,0-.76.92.24.24,0,0,0,.13.31.74.74,0,0,0,.9-.27,3.25,3.25,0,0,1,.7-.93c.14,0,.28-.1.43,0a.36.36,0,0,1,.23.26c0,.15-.09.23-.21.27l-.43.1a.3.3,0,0,0-.25.32,5.05,5.05,0,0,0,.15.85.38.38,0,0,0,.21.2,2.9,2.9,0,0,0,.42.12.36.36,0,0,0,.43-.19.58.58,0,0,0,.13-.26c0-.4.35-.58.64-.74a.81.81,0,0,1,1,.07l.38.35a.23.23,0,0,0,.33,0,4.33,4.33,0,0,0,.3-.41,1.7,1.7,0,0,1,.87-.76.13.13,0,0,0,.09-.17c0-.08-.11-.07-.19-.07a.29.29,0,0,1-.27,0,.31.31,0,0,1-.06-.13s0-.06,0-.06a1.31,1.31,0,0,1,.27-.12c.43-.12.44-.12.68.3a.69.69,0,0,0,.31.3c0,.11.06.23.1.34s.17.07.18,0a.16.16,0,0,0,0-.12,3.15,3.15,0,0,0-.29-.22,1.07,1.07,0,0,1,.48-.33c.13-.05.2-.15.13-.29a.68.68,0,0,1,0-.42.74.74,0,0,0-.19-.55c-.19-.22-.44-.2-.55.09s-.13.35-.32.35-.67-.06-1-.09c0,0,0,0,0-.05a.33.33,0,0,1,0-.14.57.57,0,0,1,.39-.18.66.66,0,0,0,.56-.29A.6.6,0,0,1,36,8.18.47.47,0,0,0,36.51,8l.39-.44a.23.23,0,0,0-.17-.33.64.64,0,0,0-.53.19.45.45,0,0,1-.59.12c-.23-.11-.42.07-.58.22s-.22.28-.08.46,0,.18-.07.23a.21.21,0,0,1-.26-.06,1.66,1.66,0,0,1-.17-.32A.21.21,0,0,0,34.21,8a.14.14,0,0,0-.11.22A.3.3,0,0,1,34,8.6c-.13.08-.27.15-.31.3s-.21.31-.39.4a.91.91,0,0,0-.53,1,.83.83,0,0,1,0,.22l0,0s-.11,0-.13,0a3.24,3.24,0,0,1-.17-.32c-.18-.28-.27-.31-.61-.24l-.14.05a.13.13,0,0,1-.16-.09.19.19,0,0,1,0-.14.72.72,0,0,1,.57-.28.64.64,0,0,0,.52-.36.28.28,0,0,0-.08-.44,2,2,0,0,0-1.2-.26c-.26,0-.36.08-.43.38,0,.13,0,.25-.13.33a1.19,1.19,0,0,0-.38,1.06.45.45,0,0,1-.32-.51A1.14,1.14,0,0,1,30.3,9a1,1,0,0,0,.2-.75h0ZM14.74,40.09h0c0,.23.23.31.41.37a1,1,0,0,0,.65,0,.28.28,0,0,0,.21-.38.56.56,0,0,1,.12-.61,7.26,7.26,0,0,0,.79-1.14c.1-.13.14-.27,0-.39s-.21-.29-.43-.18l-.27.11c-.42.18-.48.29-.37.73.23.93-.11,1.18-.82,1.43A.93.93,0,0,1,14.74,40.09ZM36,11.34a1.32,1.32,0,0,0-.5-.52c-.43-.26-.63-.24-.94.13s-.35.6.14.77c.09,0,.17.1.26.14.24.12.27.13.42-.08a.84.84,0,0,1,.63-.45l.13.17c.14.22.12.3-.12.34s-.31,0-.36.16a1.05,1.05,0,0,1-.87.66c-.07,0-.14,0-.13.16s.1.19.16.3l-.16.15s-.11,0-.14,0c-.24.18-.24.63,0,.71a2.56,2.56,0,0,1,1,.67,1.44,1.44,0,0,0,1.28.56c.19,0,.27-.12.15-.27a.32.32,0,0,1,0-.46.53.53,0,0,0,.2-.45c-.08-.35,0-.81-.58-.86a.85.85,0,0,1-.32-.18.72.72,0,0,0-.83,0c-.18.12-.33.29-.51.42s-.25,0-.3-.17l.16-.15.47-.34a.93.93,0,0,1,1.1-.09,1.36,1.36,0,0,0,.33.14c.25.06.56-.15.5-.38a.51.51,0,0,1,.1-.46c.14-.26.06-.42-.23-.48S36.34,11.39,36,11.34Zm.87-.44.21,0a.86.86,0,0,1,.81.89,1.08,1.08,0,0,1-.19.76c-.08.12-.24.18-.25.35.17.11.34,0,.5,0,.34.13.66.25.82-.25,0-.06.17-.08.26-.11a.23.23,0,0,0,.18-.21,1,1,0,0,1,.2-.54c.07-.11,0-.23-.18-.25a.39.39,0,0,0-.38.18,2.29,2.29,0,0,1-.48.64s-.1,0-.13,0a.15.15,0,0,1,0-.13,1.31,1.31,0,0,0,0-1.11,1.79,1.79,0,0,1-.07-.51.33.33,0,0,0-.3-.35,1,1,0,0,0-.64.07.54.54,0,0,0-.28.49ZM37,50.84l.15.15c-.06.32-.14.39-.33.29a3,3,0,0,1-.44-.28,6.9,6.9,0,0,0-1.89-1,6.81,6.81,0,0,1-.76-.26,12.78,12.78,0,0,0-2.19-.64,2.24,2.24,0,0,0-.58,0,.34.34,0,0,0-.33.25,1.3,1.3,0,0,0,.15,1.26,3.91,3.91,0,0,0,.92.94,4.54,4.54,0,0,0,2.56.78,10,10,0,0,1,3.56.45,2.75,2.75,0,0,0,.5.09c.1,0,.17-.11.12-.2A4.72,4.72,0,0,0,37.14,51L37,50.85a.69.69,0,0,0-.24-.44,8.38,8.38,0,0,0-1.39-1.2,3.62,3.62,0,0,0-1.63-.65,7.94,7.94,0,0,0-1.54-.05,2.3,2.3,0,0,0-.35.1s-.05,0,0,.06,0,.1,0,.11a5.32,5.32,0,0,0,.78.22,4.93,4.93,0,0,1,1.25.4l.69.27a9.39,9.39,0,0,1,1.72.83A1.46,1.46,0,0,0,37,50.84ZM47.45,39.5l-.13.07c-.1,0-.21,0-.19-.12a1.39,1.39,0,0,0-.19-.89.88.88,0,0,1-.09-.2.26.26,0,0,0-.3-.16.74.74,0,0,0-.51.25.62.62,0,0,1-.35.24.22.22,0,0,0-.22.24.28.28,0,0,0,.22.26c.37.11.6.42.92.6a.69.69,0,0,1,.33.46.2.2,0,0,1-.07.19.12.12,0,0,1-.19,0c-.1-.13-.13-.31-.3-.4a.29.29,0,0,0-.39.08,1.49,1.49,0,0,1-.51.7c-.07,0,0,.13,0,.19a.44.44,0,0,0,.36.22.5.5,0,0,1,.54.28c.06.14.19.13.31.07s.4-.21.44-.46a.83.83,0,0,1,.4-.58.75.75,0,0,0,.16-.15c.13-.15.09-.3-.12-.36s-.25-.13-.19-.31,0-.14,0-.21c.42-.24.49-.29.39-.66a1.1,1.1,0,0,1,.15-1l.07-.13c.08-.17,0-.28-.17-.32a.67.67,0,0,0-.7.3c-.14.17,0,.32.06.48a.73.73,0,0,0,.17.31A.7.7,0,0,1,47.45,39.5ZM32.72,15.17,33.89,15a1.73,1.73,0,0,1,1,.21.16.16,0,0,1,0,.12.15.15,0,0,1-.1.09,1.15,1.15,0,0,1-.37,0,2.67,2.67,0,0,0-1.09,0c-.24,0-.43.11-.42.4a.32.32,0,0,1-.29.37c-.51,0-.75.42-1.06.72a.91.91,0,0,0-.29.5c0,.06,0,.13.07.19a.16.16,0,0,0,.13,0,2.43,2.43,0,0,1,1.3-.8.71.71,0,0,0,.32-.17.46.46,0,0,0,.24-.43c0-.18,0-.34.16-.44a.87.87,0,0,1,.49-.14,2.07,2.07,0,0,1,.43.1,1.46,1.46,0,0,0,1-.05.3.3,0,0,0,.11-.52,1.49,1.49,0,0,1-.52-.51.7.7,0,0,0-.36-.24,2.07,2.07,0,0,0-1.43,0,.65.65,0,0,0-.51.85h0Zm-5-.72v0c0,.12.05.24.07.36a.17.17,0,0,1-.05.12.15.15,0,0,1-.13,0,.79.79,0,0,0-.86-.25,4.43,4.43,0,0,1-.51.06c-.34,0-.41.22-.23.51a.87.87,0,0,0,.4.31,1.37,1.37,0,0,1,.68.64,3.76,3.76,0,0,1,.39.71.19.19,0,0,0,.34.05c.18-.25.37-.52.54-.79a.66.66,0,0,0,0-.76.62.62,0,0,1,0-.81.86.86,0,0,0,0-1.09c-.13-.18-.12-.19-.4-.05a.17.17,0,0,1-.24-.09c-.09-.21,0-.49-.24-.67a.35.35,0,0,0-.41,0c-.13.08-.09.18,0,.31.12.34-.07.63-.38.59a.62.62,0,0,1-.26-.12.41.41,0,0,0-.41-.06,1.88,1.88,0,0,0-1.16,1c-.15.26-.09.33.25.34a2.58,2.58,0,0,0,.78-.11,9.62,9.62,0,0,1,1.52-.24C27.48,14.31,27.6,14.4,27.71,14.45Zm-2.94-2.21a1,1,0,0,1-.58.06.44.44,0,0,0-.49.24,2.81,2.81,0,0,0-.21.47.28.28,0,0,0,.16.36c.17.09.41.1.53.34-.1,0-.15,0-.18,0a.53.53,0,0,0-.79.27s0,0-.06.05c-.25.27-.25.27-.06.66.06.13,0,.27-.09.31s-.24,0-.36.08a.62.62,0,0,0-.48.5l-.06.28c0,.24-.15.33-.38.35a1.35,1.35,0,0,0-1.3.91c-.07.2-.21.25-.4.14s-.19,0-.22.12c-.07.25,0,.35.28.31.1,0,.21-.06.25.06s0,.14-.09.18-.25.17-.3.32c-.09.33-.19.66-.27,1a.35.35,0,0,0,.23.47.79.79,0,0,1,.38.32.24.24,0,0,0,.41-.1,8.5,8.5,0,0,0,.31-1.5,1.51,1.51,0,0,1,.46-1,.55.55,0,0,1,.79-.06c.14.1.26.22.41.31a.25.25,0,0,0,.33-.07.22.22,0,0,0,.05-.27,1,1,0,0,1-.11-.85.34.34,0,0,0,0-.2.66.66,0,0,1,.12-.81,1.84,1.84,0,0,1,1-.75.87.87,0,0,0,.59-.9,3.64,3.64,0,0,1,.17-1.67Zm16.06,9.12a2.37,2.37,0,0,1,.93-.41c.13,0,.28,0,.35.06a1.53,1.53,0,0,0,.72.48s.07.06.09.11a.17.17,0,0,1,0,.14.13.13,0,0,1-.1.09c-.31,0-.64,0-.81-.37a.29.29,0,0,0-.38-.14,1.24,1.24,0,0,0-.66.74c0,.08,0,.19.05.29s.13.25.32.16a.84.84,0,0,1,.84,0,6.87,6.87,0,0,0,.84.26.84.84,0,0,0,.95-.16c.08-.08.27-.13.22-.26s-.25,0-.37,0l-.14,0c-.21,0-.35-.15-.27-.32a2.45,2.45,0,0,1,.63-.9,1.27,1.27,0,0,0,.45-.47.15.15,0,0,0-.1-.23c-.15-.06-.35.05-.47-.13s0-.34,0-.5a.4.4,0,0,0,0-.15.17.17,0,0,0-.15-.13.35.35,0,0,0-.39.34.71.71,0,0,0,.16.4.91.91,0,0,1,0,.85.2.2,0,0,1-.35.06,6.15,6.15,0,0,0-.64-.9,1.58,1.58,0,0,1-.43-.59c-.06-.16-.18-.18-.35-.14a1.06,1.06,0,0,1-1.33-.47c-.1-.14-.1-.33-.29-.42s-.4.26-.62.37a.3.3,0,0,1-.21,0,.19.19,0,0,1,0-.26.67.67,0,0,1,.16-.24,1.31,1.31,0,0,1,.27-.12c.06,0,.12-.11.08-.18a.4.4,0,0,0-.18-.1.28.28,0,0,0-.28,0l-.39.33c-.12.11-.18.3-.38.33s-.33-.18-.47-.3a.09.09,0,0,0-.06,0,.22.22,0,0,0-.14,0,.13.13,0,0,0-.05.19A1,1,0,0,0,38,19c.14.11.13.22.06.38s0,.28.12.34.53-.07.7.13-.13.49-.1.76.16.29.31.22l.84-.43a.23.23,0,0,0,.07-.13c0-.09,0-.13-.12-.15A1.42,1.42,0,0,1,39.7,20a.2.2,0,0,1-.16-.21.4.4,0,0,1,.23-.35c.11-.06.17,0,.21.13s.15.1.24.13c.33.11.34.11.28.45,0,.13,0,.25.07.33.33.21.3.53.27.85l0,0ZM38.77,33.59a.86.86,0,0,1-.38-.22,3.63,3.63,0,0,0-1-.56,3.42,3.42,0,0,1-1-.58,4.8,4.8,0,0,0-3-1,.34.34,0,0,0-.35.22,2,2,0,0,0-.12,1.15.91.91,0,0,0,.29.5,4.34,4.34,0,0,0,3.2,1.26c.9,0,1.81,0,2.72,0,.36,0,.73,0,1.09.08a.2.2,0,0,0,.19-.26,1.18,1.18,0,0,0-.07-.2,11.67,11.67,0,0,0-1.52-2.16,4.15,4.15,0,0,0-1.18-1,4.69,4.69,0,0,0-3.51-.14c-.11,0-.25.07-.26.22s.09.07.13.07a4.31,4.31,0,0,1,2.43.92,6.59,6.59,0,0,0,1.2.7,3.44,3.44,0,0,1,1,.72.5.5,0,0,1,.15.32Zm-13,17.25h0a3.37,3.37,0,0,1,1.65-1.3,9.55,9.55,0,0,1,1.79-.64.09.09,0,0,0,.07,0s.08-.07.08-.1a.13.13,0,0,0-.09-.1c-.31-.06-.62-.12-.94-.15a2.26,2.26,0,0,0-.58,0,7,7,0,0,0-1.83.54,4.45,4.45,0,0,0-1.74,1.42,9.89,9.89,0,0,1-.64.81,4,4,0,0,0-.52.71c-.31.55-.3.61.26.87a3,3,0,0,0,.76.25,10.63,10.63,0,0,0,1.68.17,3.39,3.39,0,0,0,2.68-1.16,6.38,6.38,0,0,1,.51-.53,6.14,6.14,0,0,0,1-1.29,1.14,1.14,0,0,0,.15-.84c-.05-.26-.14-.35-.39-.3a7.75,7.75,0,0,0-3.21,1.21A1.88,1.88,0,0,1,25.8,50.84ZM29,14.15a1.4,1.4,0,0,0-.22,1.41.82.82,0,0,1-.17.89,1.18,1.18,0,0,0-.27,1.16.37.37,0,0,1-.22.49A3.65,3.65,0,0,0,27,19l-.28.24a.47.47,0,0,1-.55,0l-.13-.06a.47.47,0,0,0-.63.17.14.14,0,0,0,.07.23c.31.06.62.1.94.15s.58.08.87.15a.81.81,0,0,1,.57.43,2.48,2.48,0,0,1,.17,1.15.19.19,0,0,1-.33.12,1,1,0,0,0-.61-.2,2,2,0,0,1-1.28-.49c-.07-.06-.14-.15-.25,0a2.67,2.67,0,0,0,.09.26l1.64,2.79c.16.27.35.53.53.79.29.42.59.84.88,1.27a3.2,3.2,0,0,0,1.35,1.2,2.49,2.49,0,0,1,.6.42c.45.38.92.72,1.39,1.07a.2.2,0,0,0,.33-.13c0-.22,0-.44,0-.66,0-.66,0-1.32.09-2a13.28,13.28,0,0,0,0-1.54A43.24,43.24,0,0,1,32.75,20a2.33,2.33,0,0,1,.09-.58c.23-.69.11-1.41.27-2.11,0-.11-.07-.19-.18-.18a1.22,1.22,0,0,0-.94.5,2.85,2.85,0,0,1-.23.37.43.43,0,0,1-.73-.07.61.61,0,0,1,0-.57,3.76,3.76,0,0,1,.31-.5,7.3,7.3,0,0,1,.49-.59.31.31,0,0,0-.23-.22c-.29-.14-.58-.27-.87-.38s-.33-.31-.35-.58.17-.36.08-.56A2.26,2.26,0,0,1,29,14.15ZM26.54,31.57c0-.19.14-.18.22-.21.36-.1.71-.19,1.06-.3.61-.19,1.23-.32,1.83-.54a4.1,4.1,0,0,1,1.56-.31c.09,0,.21,0,.21-.14s-.08-.17-.17-.22a1.46,1.46,0,0,0-.7-.21,11.75,11.75,0,0,0-1.68.1,6.12,6.12,0,0,0-2.16.9A12.59,12.59,0,0,1,24.05,32a.55.55,0,0,0-.19.12.19.19,0,0,0,0,.31c.26.17.55.31.81.5a7,7,0,0,0,1.89,1,2.91,2.91,0,0,0,1.6.06c.71-.18,1.4-.42,2.1-.65a3.06,3.06,0,0,0,.65-.33,1.55,1.55,0,0,0,.76-.87,1.36,1.36,0,0,1,.32-.47.52.52,0,0,0-.25-.83,2.29,2.29,0,0,0-1.44,0c-.79.18-1.56.39-2.34.61A4.21,4.21,0,0,1,26.54,31.57Zm4.13,24.87c0-.84-.05-1.68,0-2.5a21.84,21.84,0,0,1,0-2.56.56.56,0,0,0-.35-.51c-.11,0-.23.13-.27.38a2.12,2.12,0,0,0,0,.44,22.77,22.77,0,0,0,0,4,3.23,3.23,0,0,1,0,.44m1.05-14.4v.7C31.08,44,31,45.62,31,47.24a4.85,4.85,0,0,0,0,.66c0,.39.11.42.47.3s.22-.1.05-.33-.13-.17-.07-.26a1.11,1.11,0,0,0,.1-.92,2.29,2.29,0,0,1,0-.37c.09-1.69-.08-3.38.11-5.07.09-.77,0-1.57,0-2.35A38.65,38.65,0,0,1,32,35a4.68,4.68,0,0,0,.08-1.9.75.75,0,0,1,.23-.74.13.13,0,0,0,0-.2c-.07,0-.13,0-.17.07a2.76,2.76,0,0,0-.31,1c-.07.54-.11,1.08-.17,1.61s-.15,1.37-.24,2A28.2,28.2,0,0,0,31.14,41.69Zm-5.87-25.4c-.06,0-.1,0-.11,0a2,2,0,0,1-.38.43c-.21.13-.32-.17-.51-.19l-.57-.11c-.27,0-.45.11-.48.42a.26.26,0,0,0,.07.2c.05.07.13,0,.18,0l.21-.2a.15.15,0,0,1,.25,0c.07.11.12.23,0,.34a1.26,1.26,0,0,1-.26.13c-.2.12-.22.22-.08.4l.41.52s0,.1,0,.13a.2.2,0,0,1-.13,0,.5.5,0,0,1-.19-.11.86.86,0,0,0-.68-.2c-.32,0-.37.07-.44.47a.2.2,0,0,1-.13.16c-.13,0-.37,0-.4-.09a.37.37,0,0,1,0-.21c0-.09.11-.17.15-.25a.28.28,0,0,0-.09-.43.38.38,0,0,0-.52.09.35.35,0,0,0,0,.13,2.4,2.4,0,0,1-.23.92.22.22,0,0,0,0,.21c.18.23.1.38-.1.55a.19.19,0,0,0,.11.33.87.87,0,0,0,.69-.17c.39-.32.81-.61,1.21-.93a.47.47,0,0,1,.55-.06,2.1,2.1,0,0,0,.26.13c.13.06.24,0,.28-.12a4,4,0,0,1,.48-1.3A6.26,6.26,0,0,0,25.27,16.29Zm8.36.38c-.09.34-.19.64-.26.94a2.84,2.84,0,0,0,0,.58,3.68,3.68,0,0,1-.12,1.1A5.44,5.44,0,0,0,33,20.74a7.11,7.11,0,0,1-.05,1,21.66,21.66,0,0,0-.09,2.42,11.33,11.33,0,0,1-.06,1.54,25.61,25.61,0,0,0-.11,3.16.32.32,0,0,0,0,.14.22.22,0,0,0,.09.1c.1,0,.13-.06.14-.13a2.19,2.19,0,0,0,0-.36c0-.54,0-1.08,0-1.62a5,5,0,0,1,0-.95,22.65,22.65,0,0,0,.3-4c0-1,.17-2.05.13-3.08a.36.36,0,0,1,0-.14c.17-.67.1-1.36.22-2A1,1,0,0,0,33.63,16.67Zm-14.1-1.05c-.15.07-.34,0-.48.12s-.15.3-.06.39.36.08.43.26-.17.34-.2.52a.11.11,0,0,0,0,.08s.07.1.08.09a4.47,4.47,0,0,0,.6-.25.21.21,0,0,0,.06-.19c0-.14-.12-.26-.16-.4a.51.51,0,0,1,.17-.6c.44-.27.75-.69,1.21-1,.17-.09.31-.22.53-.18s.4-.15.56-.3.05-.18,0-.27a.51.51,0,0,0-.36-.22,2,2,0,0,0-.87.09c-.24.07-.45.31-.75.13-.07,0-.18.07-.22.16a2.34,2.34,0,0,1-.53.79.37.37,0,0,0,0,.58S19.52,15.56,19.53,15.62ZM26,17a.62.62,0,0,0-.63.29,4.19,4.19,0,0,1-.28.34,1.58,1.58,0,0,0-.28,1c0,.11.08.19.19.15a1.14,1.14,0,0,0,.4-.19,1.81,1.81,0,0,1,1-.31.13.13,0,0,1,.11.06s0,.09,0,.13a.12.12,0,0,1,0,.05l-.13.08c-.08.07-.15.15,0,.24a.41.41,0,0,0,.26.1,1.23,1.23,0,0,0,.73-.68s0-.1,0-.14a1.65,1.65,0,0,1-.14-.48.79.79,0,0,0-.54-.55C26.38,17,26.18,17,26,17Zm.06-6c-.38.26-.83.16-1.22.3a.69.69,0,0,1-.56-.07c-.4-.19-.56-.17-.8.18s-.45.45-.62.72a.52.52,0,0,1-.56.27c-.11,0-.18.06-.19.17a1.3,1.3,0,0,0,.46,1.18.23.23,0,0,0,.37-.08c.12-.3.22-.6.33-.9a1,1,0,0,1,.5-.69c.36-.17.82-.05,1.15-.37,0,0,.14,0,.21,0h.07a.35.35,0,0,0,.44-.18C25.73,11.3,26,11.23,26.05,11Zm22.1,28.51a1.23,1.23,0,0,0,.43-.66.64.64,0,0,1,.32-.45c.43-.23.45-.61.34-1s-.16-.37-.57-.37q-.29,0-.21-.27s0,0,0-.06a.69.69,0,0,0-.46-1,.75.75,0,0,1-.25-.13.25.25,0,0,1-.09-.19c0-.08.1-.09.17-.08s.31.16.54,0a1.91,1.91,0,0,1-.79-.69.22.22,0,0,0-.13-.06.12.12,0,0,0-.11.15c0,.27.17.57.08.78-.17.43.06.7.24,1a1.59,1.59,0,0,1,.18.4c0,.14.13.18.24.24.36.18.43.36.29.69a1.34,1.34,0,0,0-.22.54,4.55,4.55,0,0,0,0,.52C48.25,39.08,48,39.24,48.15,39.49Zm-4,.65a3.08,3.08,0,0,0,1.05.37.41.41,0,0,0,.4-.27.35.35,0,0,0-.09-.4c-.1-.11-.3-.15-.28-.31,0-.31-.21-.62,0-.93a.18.18,0,0,0-.05-.26c-.28-.13-.11-.38-.15-.57-.53.13-.77.64-1.22.88a.17.17,0,0,0,0,.12,1.23,1.23,0,0,0,.25.14c.3.16.32.21.25.51S44.19,39.88,44.12,40.14Zm-7.27-30a1.91,1.91,0,0,1,1.33,0c.21.07.45,0,.45-.13s-.15-.23-.28-.29-.22-.24-.11-.42a1.21,1.21,0,0,0,.09-.2.64.64,0,0,0-.15-.67,5.34,5.34,0,0,0-.76-.59.23.23,0,0,0-.2,0,1.81,1.81,0,0,0-.62.61.43.43,0,0,0,.11.47c.13.09.24,0,.34,0s.2-.14.31-.2a.52.52,0,0,1,.5,0c.09,0,.17.12.13.23s-.1.1-.15.14-.05,0-.07,0c-.5,0-.58.07-.63.5A1.84,1.84,0,0,1,36.85,10.1Zm-5.13,5.39c.44-.1.74-.3.7-.82,0-.21.16-.4.11-.64s.06-.22.16-.29a.82.82,0,0,1,.75-.16,1.54,1.54,0,0,0,.35.1.2.2,0,0,0,.22-.16.39.39,0,0,0-.39-.48,5.83,5.83,0,0,0-.85.19.57.57,0,0,1-.61-.1c-.13-.11-.23,0-.31.09a.32.32,0,0,0-.08.33c.11.21.06.33-.1.51-.38.42-.37.63,0,1C31.86,15.27,31.72,15.37,31.72,15.49ZM28,12.23c0-.08,0-.18-.1-.17a1.2,1.2,0,0,1-1-.46c-.18-.18-.5-.11-.77,0a.24.24,0,0,0-.09.11c0,.08,0,.2-.1.27s-.24.56-.64.49c-.1,0-.17.09-.2.18s-.11.27-.16.41,0,.42.07.47.27-.07.39-.14.27-.13.39-.22c.27-.2.62-.26.87-.52a.85.85,0,0,1,1.17-.22C27.84,12.44,28,12.33,28,12.23ZM30.9,14c.34,0,.5-.15.47-.44,0-.08,0-.15,0-.22-.11-.66-.11-.66-.77-.86-.12,0-.23-.08-.35-.12a.52.52,0,0,0-.59.3c-.09.2.05.32.2.41a.52.52,0,0,1,.11.1c.1.1.06.21-.09.26a1.29,1.29,0,0,0-.21.05c-.12,0-.22.11-.24.26s.09.22.19.29a.39.39,0,0,0,.53,0,.53.53,0,0,1,.61-.08A.47.47,0,0,0,30.9,14ZM21,40a.93.93,0,0,0-.19,0,1.2,1.2,0,0,0-.73.68,6.8,6.8,0,0,0-.43,1.48.89.89,0,0,0,0,.51.24.24,0,0,0,.1.1.13.13,0,0,0,.12,0,2.72,2.72,0,0,0,.38-.53,3,3,0,0,1,.66-1,1.36,1.36,0,0,0,.39-.93A.37.37,0,0,0,21,40ZM31.91,12.48a1.74,1.74,0,0,1,.45.24.47.47,0,0,0,.53.11,2.13,2.13,0,0,1,.72-.16,1.67,1.67,0,0,0,1-.32c.16-.08.15-.25,0-.35s-.23-.15-.33-.08-.38,0-.56.08a.37.37,0,0,1-.47-.22.43.43,0,0,0-.67-.18A1.19,1.19,0,0,0,31.91,12.48ZM18.08,35.21c.05-.4-.15-.56-.57-.44a.49.49,0,0,1-.59-.14.11.11,0,0,0-.18,0,.28.28,0,0,0,0,.2c.11.22.25.42.35.64a1.49,1.49,0,0,1,0,1.06c-.06.19-.32.28-.28.5s.32.21.33.45.15.24.28.3a.13.13,0,0,0,.13,0,.16.16,0,0,0,0-.12.33.33,0,0,0-.07-.13,1,1,0,0,1-.14-.7c0-.23.2-.32.36-.44A.59.59,0,0,0,18,36C18,35.74,18,35.47,18.08,35.21ZM45.47,17.42a1.82,1.82,0,0,1,.85.8,1.64,1.64,0,0,0,.56.45c.15.08.28,0,.31-.17a2.69,2.69,0,0,0-.48-1.65.51.51,0,0,0-.77-.05A1.81,1.81,0,0,0,45.47,17.42ZM19.3,36.3c0-.29-.06-.4-.31-.43a1.36,1.36,0,0,0-.29,0,.24.24,0,0,0-.24.12,2.16,2.16,0,0,1-.77.87.28.28,0,0,0-.05.4c.24.44.46.49.85.18.13-.11.25-.23.39-.33A1.19,1.19,0,0,0,19.3,36.3Zm21-19.64a1,1,0,0,0-.55.12,1.18,1.18,0,0,1-.73.28c-.13,0-.24.15-.3.29a.46.46,0,0,0,.15.52c.16.13.28,0,.38-.1s.38-.38.66-.43.49.05.47.37.12.34.29.44a.59.59,0,0,0,.56,0,.14.14,0,0,0,.07-.1.19.19,0,0,0-.07-.12l-.2-.07c-.38-.14-.39-.16-.32-.51,0-.09.06-.19.08-.28a.32.32,0,0,0-.26-.38Zm5.51,21.48a4,4,0,0,0,1.57-1l0-.06a.43.43,0,0,0-.07-.48.3.3,0,0,0-.38-.12A3.14,3.14,0,0,0,46,37a2.1,2.1,0,0,0-.51.57C45.41,37.77,45.79,37.85,45.78,38.14ZM44.47,14.25h-.24a.27.27,0,0,0-.23.16c0,.11,0,.18.14.21a.77.77,0,0,1,.57.52.58.58,0,0,0,.39.41.51.51,0,0,1,.27.23,1.38,1.38,0,0,0,1.13.53.14.14,0,0,0,.1-.08.19.19,0,0,0,0-.14.55.55,0,0,0-.35-.25.65.65,0,0,1-.54-.75.48.48,0,0,0-.33-.51C45,14.43,44.74,14.21,44.47,14.25Zm-27.34,27A1.34,1.34,0,0,0,18,41a.33.33,0,0,0,.14-.32A6,6,0,0,0,18,40a.71.71,0,0,0-.95-.24.37.37,0,0,0-.15.23,2.07,2.07,0,0,1-.13,1c-.05.11.05.19.13.23A.73.73,0,0,0,17.13,41.27ZM44.69,17.56c.31,0,.44-.11.45-.44a.48.48,0,0,1,.21-.35c.21-.21.2-.24,0-.46a2,2,0,0,1-.19-.22c-.13-.24-.34-.23-.57-.18a.44.44,0,0,0-.35.41,5.18,5.18,0,0,0-.11.79c0,.27.11.38.39.43ZM27.12,21.05h.29a.29.29,0,0,0,.26-.42.64.64,0,0,0-.46-.43A6.57,6.57,0,0,0,25.62,20a.23.23,0,0,0-.17.11c-.06.1,0,.17.1.23l.54.38A1.6,1.6,0,0,0,27.12,21.05ZM43.55,18.8c-.07-.12-.15-.23-.23-.35s-.34-.34-.61-.26a1.26,1.26,0,0,0-.45.22c-.16.11-.28.47-.17.59a4.19,4.19,0,0,1,.52.86.14.14,0,0,0,.24,0A2.77,2.77,0,0,1,43.55,18.8Zm-.31,18.46c-.22-.14-.35-.24-.5-.32a.28.28,0,0,0-.2,0c-.19,0-.4.35-.3.51s.25.46,0,.68a.22.22,0,0,0,0,.21,1.18,1.18,0,0,1,.15.76.1.1,0,0,0,.15.09,2,2,0,0,0,.23-.17c.27-.18.47-.36.21-.7,0-.06,0-.18,0-.28A1.93,1.93,0,0,1,43.24,37.26Zm-27.79.68a.71.71,0,0,0,0-.19c0-.06-.07-.14-.12-.16a.27.27,0,0,0-.2,0,3.54,3.54,0,0,1-.58.44.75.75,0,0,0-.17,1c.06.12.16.13.29,0,.29-.23.29-.23.37.11,0,.07,0,.15,0,.22a.14.14,0,0,0,.22.08c.21-.16.39-.37.26-.62S15.26,38.23,15.45,37.94Zm27-22.63c.06-.25,0-.36-.22-.4-.4-.08-.48,0-.61.38-.06.16-.14.31-.2.47a.47.47,0,0,0,.22.68l.31.18c.16.08.29,0,.3-.19A4.84,4.84,0,0,1,42.46,15.31Zm.29-.73a3.59,3.59,0,0,1-.18-.81,1.62,1.62,0,0,0-.18-.55.28.28,0,0,0-.43-.13.84.84,0,0,0-.39.94c.07.43.12.49.62.56A.77.77,0,0,0,42.75,14.58Zm-.11,21.26a.51.51,0,0,0-.25-.51.42.42,0,0,0-.52.13,2.28,2.28,0,0,0-.29.33c-.37.46-.34.58.21.85a.47.47,0,0,0,.64-.13C42.61,36.31,42.56,36.05,42.64,35.84Zm-2.17,2.39a.46.46,0,0,0-.46.18.38.38,0,0,0,.19.49,2.65,2.65,0,0,0,.93.4,1.43,1.43,0,0,0,.36,0,.27.27,0,0,0,.23-.37.83.83,0,0,0-.37-.43A2.93,2.93,0,0,0,40.47,38.23ZM24.61,15.07a1.87,1.87,0,0,0-.6,0,1.12,1.12,0,0,0-.74.67.16.16,0,0,0,0,.13.13.13,0,0,0,.12,0,2.08,2.08,0,0,0,.21-.21,2,2,0,0,1,.27-.23.12.12,0,0,1,.13,0,.13.13,0,0,1,0,.12c-.06.11-.14.21-.19.32a.13.13,0,0,0,0,.13.48.48,0,0,0,.65,0c.19-.28.36-.58.52-.87a.11.11,0,0,0-.1-.16ZM47.14,35.5a.69.69,0,0,0-.1-.19.6.6,0,0,0-.46-.17,1.83,1.83,0,0,0-1.15.58.13.13,0,0,0,0,.19c.59.41.73.41,1.34,0A1,1,0,0,0,47,35.7,1,1,0,0,0,47.14,35.5ZM24.14,21c-.24.14-.36.23-.49.29a1.82,1.82,0,0,0-.83,1,.54.54,0,0,0,0,.55c.05.09.09.18.2.2a.22.22,0,0,0,.24-.13A7.71,7.71,0,0,0,24.14,21ZM43.76,39.82c0-.35-.14-.46-.42-.4l-.5.11a.27.27,0,0,0-.22.25.69.69,0,0,0,.58.78c.2,0,.46-.22.53-.52A.73.73,0,0,0,43.76,39.82Zm.29-24.26a.3.3,0,0,0,.36-.17.43.43,0,0,0-.23-.42,1.1,1.1,0,0,0-.36,0,3.82,3.82,0,0,1-.57.11c-.29,0-.39.16-.47.38a1.73,1.73,0,0,0-.1.71.12.12,0,0,0,.1.09.17.17,0,0,0,.12-.07A.2.2,0,0,0,43,16c0-.4.28-.49.58-.52A2.92,2.92,0,0,1,44.05,15.56Zm2.51,5.6c.12-.15.21-.29.32-.42a.33.33,0,0,0,0-.41,1.58,1.58,0,0,0-.13-.26.35.35,0,0,0-.51-.08.89.89,0,0,0-.25.26c-.28.47-.5.64.28.82A2.67,2.67,0,0,1,46.56,21.16ZM16,35.1a.35.35,0,0,0-.33.11.57.57,0,0,0-.17.47,3,3,0,0,1,0,1.15c0,.11.05.18.17.19a.19.19,0,0,0,.25-.19,1.29,1.29,0,0,0,0-.44.71.71,0,0,1,.27-.71c.06-.07.17-.1.23-.17s.09-.19,0-.24S16.08,35.14,16,35.1Zm2.43,4.83.2-.18a1.08,1.08,0,0,0,.11-.18c.07-.13,0-.21-.14-.24-.6-.1-.6-.1-.63-.65,0,0,0-.1,0-.15s-.06-.24-.2-.26a.29.29,0,0,0-.34.21,5.54,5.54,0,0,0-.07.57.33.33,0,0,0,.23.34c.16.06.32.11.47.18S18.21,39.87,18.42,39.93Zm26.1-4.46a.94.94,0,0,0,.18-.06,1,1,0,0,0,.32-1c-.06-.15-.24-.23-.35-.13s-.41.34-.61.52a.3.3,0,0,0-.08.19A.62.62,0,0,0,44.52,35.47Zm-20.29-16c-.26-.21-.45-.42-.69-.39s-.31.2-.47.31-.4.27-.59.42a.14.14,0,0,0,0,.13s.06.06.1.08a.08.08,0,0,0,.07,0,6.94,6.94,0,0,0,.79,0c.24,0,.29-.32.48-.42A2.47,2.47,0,0,1,24.23,19.48Zm15.71,4.28a1.62,1.62,0,0,0,.07.66.22.22,0,0,0,.36.06,1.13,1.13,0,0,0,.11-1.42.24.24,0,0,0-.37,0A1,1,0,0,0,39.94,23.76Zm-21,8.81c-.32,0-.53.15-.38.49a1.47,1.47,0,0,1,.08.28c0,.17,0,.36.26.38s.3-.15.4-.28l.12-.19c.25-.49.14-.64-.34-.66Zm26,4.56a1.44,1.44,0,0,0,.63-.13.26.26,0,0,0,.11-.37.55.55,0,0,0-.32-.28,4.34,4.34,0,0,1-.48-.14.32.32,0,0,0-.39.09.32.32,0,0,0,0,.4l.1.2A.33.33,0,0,0,44.85,37.13Zm-31,1.1c.16-.18.27-.31.39-.42a.42.42,0,0,0,.13-.52,4,4,0,0,0-.23-.74c-.26.14-.3.37-.42.55C13.48,37.48,13.57,37.82,13.87,38.23Zm29.9-21.88s0-.1,0-.17a.2.2,0,0,0-.34-.07,2.91,2.91,0,0,1-.33.37c-.47.34-.36.43-.05.79a1,1,0,0,0,.22.18.19.19,0,0,0,.13,0A3.8,3.8,0,0,0,43.77,16.35ZM34.67,6.7a.71.71,0,0,0,1,.49s0,0,.07,0c.32,0,.4-.23.23-.51a.55.55,0,0,0-.55-.28A1,1,0,0,0,34.67,6.7ZM18.87,34.1c-.59,0-.67.16-.42.69l0,.07c.12.15.06.51.36.44s.21-.35.29-.54a1.08,1.08,0,0,0,0-.36C19.17,34.17,19.1,34.1,18.87,34.1Zm2.47,5s.08-.05.1-.09a1.88,1.88,0,0,1,.56-.66l.26-.26a2.06,2.06,0,0,0,.41-.84.14.14,0,0,0-.05-.13s-.09,0-.12,0a1.75,1.75,0,0,0-.38.34c-.25.35-.49.71-.73,1.08a.74.74,0,0,0-.14.48.09.09,0,0,0,0,.06ZM20,32.93s-.12,0-.16.1a1.92,1.92,0,0,0-.14.33.44.44,0,0,0,.21.5.48.48,0,0,0,.55,0,.52.52,0,0,0,.23-.43.17.17,0,0,0-.05-.13A.9.9,0,0,0,20,32.93ZM42.11,18h.15a.36.36,0,0,0,.35-.21.51.51,0,0,0-.14-.53.29.29,0,0,0-.4,0,.57.57,0,0,1-.54.13s-.08.05-.08.08A.68.68,0,0,0,42.11,18Zm-4.54-3.78c0,.09.1.15.21.12a1.34,1.34,0,0,0,.82-.69c0-.08,0-.19-.14-.2A.78.78,0,0,0,37.57,14.19ZM23.21,38.68c0-.12-.13-.17-.23-.13a2.08,2.08,0,0,0-.91.6c-.09.1-.23.19-.24.35s.28.07.47,0l.84-.59A.17.17,0,0,0,23.21,38.68Zm17.4-23.82a.46.46,0,0,0-.37.32.2.2,0,0,0,.17.27.58.58,0,0,1,.36.21c.11.14.21.05.29-.05a.89.89,0,0,0,.14-.25.23.23,0,0,0,0-.2A1.29,1.29,0,0,0,40.61,14.86ZM16,34.3a.21.21,0,0,0-.13-.07A1,1,0,0,0,15,35a.19.19,0,0,0,.14.23.18.18,0,0,0,.17-.08,1.67,1.67,0,0,1,.61-.51C16,34.56,16,34.49,16,34.3ZM39.39,16.18c0,.33.06.41.28.33l.6-.25a.08.08,0,0,0,0-.06s0-.11-.06-.11a.85.85,0,0,1-.52-.23.19.19,0,0,0-.29.11A1.12,1.12,0,0,0,39.39,16.18ZM38,22.78l.53.25a.41.41,0,0,0,.56-.15.43.43,0,0,0,.09-.26c0-.1-.14-.11-.23-.11A1.84,1.84,0,0,0,38,22.78Zm8,11.1a.15.15,0,0,0,.18-.12.49.49,0,0,0-.07-.41.28.28,0,0,0-.32-.11c-.14,0-.27.1-.3.27s.08.21.21.25A1.7,1.7,0,0,1,45.93,33.88Zm-1.77,3.69a.8.8,0,0,0-.58.08.44.44,0,0,0-.21.43.19.19,0,0,0,.08.11.47.47,0,0,0,.47-.12C44,37.93,44.06,37.77,44.16,37.57Zm0-.51c-.13-.31-.2-.52-.29-.71a.25.25,0,0,0-.24-.14.29.29,0,0,0-.24.24c0,.11,0,.21.11.23S43.84,37,44.17,37.06Zm-29-.46s-.05-.11-.11-.14a.35.35,0,0,0-.2,0,.29.29,0,0,0-.17.22.68.68,0,0,0,.11.42.14.14,0,0,0,.11.06.17.17,0,0,0,.12-.06A.85.85,0,0,0,15.15,36.6ZM40,20.84s-.12,0-.13.07a.28.28,0,0,0,0,.2c.08.22.31.3.46.44a.06.06,0,0,0,.07,0s.08-.09.07-.11a4.89,4.89,0,0,0-.26-.51C40.15,20.89,40.06,20.87,40,20.84Zm1.79,16.59s0,0,0-.11,0-.16-.09-.17-.16.08-.2.17a.75.75,0,0,0,0,.49c0,.09.06.21.18.18a.26.26,0,0,0,.11-.17A2.13,2.13,0,0,0,41.79,37.43ZM33.15,6.52a.15.15,0,0,0,0,.07c0,.07,0,.14.1.14a.17.17,0,0,0,.12-.05.58.58,0,0,0,.09-.55A.26.26,0,0,0,33.14,6c-.09,0-.18.13-.13.2S33.26,6.34,33.15,6.52ZM41.23,19a.93.93,0,0,0,0,.13c0,.11,0,.21.14.22a.39.39,0,0,0,.2-.08.17.17,0,0,0,0-.25,3.25,3.25,0,0,0-.23-.29s-.1,0-.12,0A1.31,1.31,0,0,0,41.23,19ZM16.86,32.69s0-.09-.07-.11a.15.15,0,0,0-.13,0,.46.46,0,0,0-.35.4s0,.1.07.1A.5.5,0,0,0,16.86,32.69Zm-2,2.92s-.09,0-.12.08a.16.16,0,0,0,0,.24A.26.26,0,0,0,15,36a.07.07,0,0,0,0-.06A.34.34,0,0,0,14.81,35.61Zm6.34-15.27c-.11,0-.18.05-.15.14a.27.27,0,0,0,.41.06s0-.11,0-.12A1.6,1.6,0,0,0,21.15,20.34ZM41.91,40.39c0,.26-.09.44-.13.62,0,0,0,0,0,.05s.06,0,.07,0A.65.65,0,0,0,41.91,40.39Zm-14-22.79s0-.11-.09-.15-.17,0-.22.1a.41.41,0,0,0,0,.19.17.17,0,0,0,.06.12.25.25,0,0,0,.29-.26Zm5,12.49a1.18,1.18,0,0,0,0-.16c0-.07,0-.13-.13-.11a.13.13,0,0,0-.08.1,2,2,0,0,0,0,.35s.06.08.09.08a.17.17,0,0,0,.1-.07A1.14,1.14,0,0,0,32.91,30.09Zm9-7.15c0-.05,0-.11-.08-.13a.28.28,0,0,0-.32.08.13.13,0,0,0,0,.12.19.19,0,0,0,.25.06A.93.93,0,0,0,41.91,22.94Zm-5-16.13a.14.14,0,0,0-.11-.16.14.14,0,0,0-.17.08c0,.08,0,.13.1.14S36.84,6.88,36.88,6.81Zm2.1,4-.11-.13s0,.08,0,.12a.15.15,0,0,0,.06.1S39,10.86,39,10.78Zm8,24s0-.1,0-.11-.1,0-.11,0a.09.09,0,0,0,.08.14S46.94,34.78,47,34.76Zm-24.38-23c-.06,0-.1,0-.1.07s0,.05,0,.05.09,0,.09-.07A.09.09,0,0,0,22.59,11.72Z"/></g></g></svg>