<svg xmlns="http://www.w3.org/2000/svg" viewBox="0 0 62.83 62.83"><defs><style>.cls-1{fill:#5e7461;}</style></defs><title>Ресурс 6</title><g id="Слой_2" data-name="Слой 2"><g id="БЛОК_СОСТАВ_" data-name="БЛОК &quot;СОСТАВ&quot;"><path class="cls-1" d="M31.41,62.83A31.42,31.42,0,1,1,62.83,31.41,31.45,31.45,0,0,1,31.41,62.83Zm0-61.67A30.26,30.26,0,1,0,61.67,31.41,30.28,30.28,0,0,0,31.41,1.16ZM46.62,44.79a1.36,1.36,0,0,0-.54-.9c-.32-.29-.64-.58-.95-.88-.64-.62-1.26-1.26-1.86-1.93a23.34,23.34,0,0,1-1.67-2c-.5-.71-1-1.44-1.45-2.16A8.93,8.93,0,0,0,38.58,35a5.9,5.9,0,0,0-1.12-.71c-.4-.19-.82-.34-1.22-.53A18.54,18.54,0,0,1,34,32.45c-.71-.47-1.4-1-2.12-1.41a17.16,17.16,0,0,0-2.22-1.23,3.45,3.45,0,0,0-1.24-.39,1.47,1.47,0,0,0-1,.42c-.15.12-.28.25-.42.38s0,.15,0,.18l-.21.3c0,.05-.07.12-.14.13a.49.49,0,0,1-.16,0,.69.69,0,0,0-.25,0,.88.88,0,0,0-.7.59,1.23,1.23,0,0,0,.24,1.09,7.87,7.87,0,0,0,1,1c.38.37.79.71,1.2,1.05s.79.7,1.18,1.07c.75.7,1.47,1.43,2.22,2.11a11.34,11.34,0,0,0,2.29,1.6,16.46,16.46,0,0,0,2.49,1c.85.28,1.72.53,2.58.8l1.29.4a9.64,9.64,0,0,1,1.25.51,13.22,13.22,0,0,1,2.23,1.47,7.9,7.9,0,0,0,2.27,1.34,4.75,4.75,0,0,0,.63.14A.15.15,0,0,0,46.62,44.79ZM44.18,43.6c-.71-.51-1.37-1.07-2.12-1.51-.38-.22-.76-.42-1.15-.61s-.8-.39-1.2-.56c-.8-.34-1.66-.58-2.49-.84a17.31,17.31,0,0,1-4.81-2,17.28,17.28,0,0,1-2.21-1.88L29.08,35.1c-.38-.36-.74-.75-1.11-1.13s-.71-.74-1.09-1.1A4.41,4.41,0,0,1,26,32a.71.71,0,0,1,.09-.89c.15-.15.29-.1.47,0a.38.38,0,0,0,.46-.16c.15-.2.29-.42.43-.63a.14.14,0,0,0,0-.11,1.77,1.77,0,0,1,.64-.36,1.73,1.73,0,0,1,1.21.22,14,14,0,0,1,2.19,1.17C32.9,32,34.21,33,35.61,33.9c.36.22.73.42,1.1.61a12.91,12.91,0,0,1,1.16.62,6.69,6.69,0,0,1,1.61,1.66c.24.32.47.65.71,1s.52.67.79,1c.55.66,1.1,1.31,1.66,2s1.14,1.28,1.75,1.88c.3.31.6.61.91.9a6.68,6.68,0,0,1,.85.83,1,1,0,0,1,.15.29A5.18,5.18,0,0,1,44.18,43.6Zm-11.53-.24s0,0,0,0S32.66,43.36,32.65,43.36Zm-.21,0a.16.16,0,0,0,0,.31A.16.16,0,0,0,32.44,43.32ZM17.51,15.63a0,0,0,1,0-.08,0c0,.16-.05.32-.07.48a0,0,0,0,0,.07,0C17.47,16,17.48,15.79,17.51,15.63Zm.32.19c-.11.4-.23.81-.33,1.22,0,0,.05.05.06,0l.33-1.23S17.84,15.78,17.83,15.82ZM27.92,30.69c-.11.24-.22.48-.32.73a0,0,0,1,0,.07,0l.33-.73S27.94,30.64,27.92,30.69Zm.49-.48c-.08.3-.16.61-.25.92s-.17.6-.23.92c0,0,0,0,.05,0,.1-.3.17-.61.25-.91s.17-.62.25-.93A0,0,0,1,0,28.41,30.21Zm.55.22c0-.05-.07-.06-.08,0a11.23,11.23,0,0,0-.28,1.28A7,7,0,0,0,28.49,33s.05,0,.06,0c0-.43.07-.86.14-1.29S28.85,30.85,29,30.43Zm.22,2.47c0-.23,0-.46.07-.69q.08-.67.21-1.35s-.06-.05-.07,0c-.09.45-.16.9-.22,1.36,0,.22-.06.45-.08.67a5.32,5.32,0,0,0,0,.69s.07,0,.07,0C29.16,33.35,29.16,33.12,29.18,32.9Zm.55.93c0-.14,0-.28,0-.43s0-.55.05-.82A15.07,15.07,0,0,1,30,30.94c0-.06-.09-.07-.1,0a14.89,14.89,0,0,0-.3,2.57v.35a1.62,1.62,0,0,0,0,.38s.06,0,.07,0A2.67,2.67,0,0,0,29.73,33.83Zm.45.23c0-.22,0-.44,0-.66,0-.46,0-.91.07-1.36,0-.26.06-.51.1-.76,0-.05-.07-.07-.08,0a15.33,15.33,0,0,0-.19,2.7,4,4,0,0,0,.05.77s.07,0,.07,0C30.21,34.51,30.19,34.28,30.18,34.06Zm.66,1.47c0-.25-.05-.49-.08-.73s0-.49-.05-.73a14.61,14.61,0,0,1,0-1.48c0-.27,0-.55.05-.83a0,0,0,1,0-.08,0,15.31,15.31,0,0,0,0,3,8,8,0,0,0,.11.84A0,0,0,0,0,30.84,35.53Zm.61,1.06c-.05-.61-.12-1.21-.15-1.82s0-1.22,0-1.82c0-.35,0-.69.06-1,0-.05-.08-.06-.08,0a22.37,22.37,0,0,0,0,3.66c0,.35.07.69.13,1A0,0,0,1,0,31.45,36.59Zm.71.46c0-.29-.07-.58-.11-.88S32,35.59,32,35.3c0-.6,0-1.19,0-1.78,0-.34,0-.68,0-1a0,0,0,0,0-.09,0,21.17,21.17,0,0,0,.05,3.56,8.28,8.28,0,0,0,.13,1A.05.05,0,0,0,32.16,37.05Zm.64.59c0-.66-.1-1.31-.13-2s-.06-1.31-.08-2c0-.38,0-.75,0-1.12,0,0-.07,0-.07,0,0,1.31,0,2.63.12,3.94,0,.37,0,.74.09,1.11C32.72,37.71,32.8,37.69,32.8,37.64ZM38,35.9s-.05-.07-.07,0l-.78,1.36L37,36.82l.27-.38.44-.64c0-.07,0-.14-.1-.08l-.66,1a.14.14,0,0,0,0-.06c0-.06-.1,0-.09,0a.56.56,0,0,1,0,.12l-.54.79c-.06-.18-.11-.35-.16-.53.28-.33.55-.67.83-1l.54-.68s0-.07,0,0L36.1,36.91c0-.15-.07-.31-.1-.46s.19-.23.3-.34.35-.39.54-.58,0-.13-.09-.08c-.27.28-.53.56-.78.85,0-.22-.07-.44-.09-.67a0,0,0,0,0,0,0l.32-.32c.21-.21.43-.4.65-.59,0,0,0-.1,0-.07a14.06,14.06,0,0,0-1.52,1.47c0-.11,0-.22,0-.33.2-.26.4-.53.59-.81,0-.05,0-.12-.08-.06-.18.24-.35.48-.53.71,0-.15,0-.31,0-.46v-.07c.13-.2.25-.4.37-.6,0,0,0-.08-.08,0s-.2.33-.3.49l0-.61c0-.05-.07,0-.07,0,0,.24,0,.48,0,.71-.18.27-.37.53-.57.79,0-.25,0-.51,0-.76s0-.24,0-.36l.18-.28c0-.05,0-.1-.07-.06l-.12.18v-.33c0-.06-.09-.05-.09,0s0,.3,0,.45c-.18.26-.37.51-.57.76l-.06-.63a5,5,0,0,0,.65-1s0,0,0,0c-.2.3-.4.6-.62.89h0l-.06-.61a2.25,2.25,0,0,0,.12-.21c0-.05,0-.09-.08,0l0,.1,0-.17s-.06,0-.06,0,0,.17,0,.26a4.91,4.91,0,0,1-.38.55c0-.08,0-.16,0-.24l-.09-1.16a0,0,0,0,0-.09,0c0,.49.08,1,.11,1.49l-.15.16s0,.09.07,0l.09-.09,0,.54-.1.1a1.45,1.45,0,0,0-.21.22s0,.07,0,0a1.12,1.12,0,0,0,.21-.17.23.23,0,0,1,.07-.07l0,.68-.27.3s0,.1.06.07l.22-.21,0,1c0,.19,0,.38,0,.57s0,.4,0,.6c0,0,.09,0,.09,0a4.34,4.34,0,0,0,0-.51c0-.17,0-.34,0-.51,0-.35,0-.7,0-1a1.48,1.48,0,0,0,0-.21c.15-.16.29-.33.42-.5,0,.33.06.66.08,1l-.37.43s0,.09.05.06a3.51,3.51,0,0,0,.33-.34l0,.18c0,.12,0,.23,0,.35l-.06.08s0,.1.07.06h0c0,.14,0,.29.06.43s.08.05.08,0a5.07,5.07,0,0,0,0-.55c.18-.21.36-.43.53-.65a2.51,2.51,0,0,0,0,.27,4.31,4.31,0,0,0-.39.56c0,.05,0,.1.09.05s.21-.29.32-.44c0,0,0,.05,0,.07s0,.29.07.43a2.23,2.23,0,0,0,0,.23,2.71,2.71,0,0,0-.24.35c0,.05,0,.08.07.05A1.64,1.64,0,0,0,34.7,38v0s.08,0,.08,0a.41.41,0,0,0,0-.11l.15-.19.41-.51c0,.15.06.31.1.46a6.64,6.64,0,0,0-.48.6c0,.05,0,.11.08.06s.3-.34.44-.51l.06.18s.1,0,.09,0l-.06-.27.43-.53,0-.06c.05.18.1.36.16.53A3.62,3.62,0,0,1,36,38a6.4,6.4,0,0,0-.42.64c0,.05,0,.09.08.05a3.74,3.74,0,0,0,.41-.55l.21-.3a3.05,3.05,0,0,0,.13.32,0,0,0,0,0,.08,0c0-.07.09-.13.13-.19s0-.08-.06,0l-.09.11-.12-.32.11-.15.43-.63.15.4c-.18.31-.36.61-.55.91l-.21.33a2.17,2.17,0,0,0-.19.33c0,.06,0,.09.08.05a1.73,1.73,0,0,0,.19-.28l.18-.29.36-.6.19-.33c.07.16.15.32.23.48s.12,0,.09,0-.18-.37-.26-.56c.15-.25.29-.5.43-.75Zm-4.72-.68,0-.53a4.6,4.6,0,0,0,.38-.52c0,.2,0,.4.05.6s-.25.29-.38.43Zm.12.72-.07.08c0-.22,0-.45,0-.67l0-.05c.12-.13.24-.27.35-.41,0,.22,0,.43,0,.64Zm.52.62,0-.27c0-.24,0-.47-.07-.71l.06-.07c.18-.22.34-.45.5-.68,0,.36,0,.73.06,1.1l-.5.6Zm.06.65a.34.34,0,0,0,0-.1l0-.4q.24-.27.45-.54l.07-.09c0,.15,0,.31.05.46ZM34.5,36l.56-.78c0,.17,0,.35,0,.52s-.22.31-.34.45l-.21.27C34.53,36.28,34.51,36.12,34.5,36Zm.1.89,0-.26.28-.36.27-.37c0,.11,0,.21,0,.32-.18.21-.36.42-.53.64Zm.29.73s-.09.11-.14.17,0,0,0-.08-.05-.25-.07-.37,0-.19,0-.28l0-.05.48-.6,0,0c0,.24.08.48.13.73C35.16,37.24,35,37.41,34.89,37.59Zm.43-1c0-.11,0-.22,0-.34.17-.19.35-.39.53-.57,0,.24.05.48.09.73L35.4,37C35.37,36.83,35.35,36.7,35.32,36.57Zm.22,1c0-.1,0-.2-.07-.3a.94.94,0,0,1,0-.16c.16-.2.32-.39.49-.58,0,.16.06.31.1.46Zm3.08.63v-.06A11.44,11.44,0,0,1,39,37c0-.06-.07-.11-.09,0-.13.35-.23.72-.33,1.09-.07-.24-.15-.49-.23-.73a8.63,8.63,0,0,1,.39-1s0-.06-.06,0c-.14.29-.26.59-.38.89,0-.14-.09-.28-.13-.42l.29-.63a.06.06,0,0,0-.1-.05l-.25.52,0-.13a0,0,0,1,0-.08,0l.07.22-.4.83c-.12.25-.24.49-.35.74l-.17.36A1.69,1.69,0,0,0,37,39s0,.07.08,0a3.13,3.13,0,0,0,.19-.36l.17-.36c.11-.24.23-.49.34-.74l.34-.72c.05.14.09.28.14.43l-.15.43c-.07.25-.14.5-.19.75a5,5,0,0,0-.14.77.06.06,0,0,0,.12,0l0-.16a.18.18,0,0,1,0-.07,0,0,0,0,0,0-.07c0-.16.05-.32.08-.47s.12-.49.19-.74l.09-.31c.08.25.16.5.25.75a5.23,5.23,0,0,0-.12.54,2.7,2.7,0,0,0-.08.62c0,.06.08,0,.09,0,.05-.2.07-.41.1-.61s.05-.24.07-.36v0c0,.05.1,0,.08,0S38.64,38.27,38.62,38.21Zm.52,1.09,0-.29c0-.21,0-.43,0-.64a6.29,6.29,0,0,1,.18-1.23s-.06-.06-.08,0a5.92,5.92,0,0,0-.2,1.25c0,.21,0,.41,0,.62s0,.21,0,.32a1,1,0,0,0,.06.3s.09,0,.09,0S39.15,39.4,39.14,39.3Zm.74.81c0,.08-.1,0-.11-.06a1.2,1.2,0,0,1,0-.2c0-.16,0-.32-.05-.48,0-.32,0-.65,0-1,0-.06-.09-.07-.09,0q0,.61,0,1.23l0,.31a.59.59,0,0,0,0,.22c.06.1.24.12.26,0A0,0,0,0,0,39.88,40.11Zm.75.39c-.09-.35-.19-.69-.28-1,0-.07-.12,0-.1,0,.09.34.18.68.29,1C40.55,40.6,40.65,40.56,40.63,40.5Zm1.9,1-.07-.27-.14-.56s-.1,0-.08,0l.13.57.07.29a2.76,2.76,0,0,0,.08.27,0,0,0,0,0,.07,0A1.5,1.5,0,0,0,42.53,41.45Zm.68.59a2.49,2.49,0,0,0-.16-.53A1.83,1.83,0,0,0,42.8,41s-.06,0,0,0a5.11,5.11,0,0,1,.22.48c.06.17.11.34.16.52S43.22,42.08,43.21,42Zm.7.5-.28-.47s0,0-.06,0a.06.06,0,0,0,0,.07l.28.46a0,0,0,0,0,.07,0S43.93,42.56,43.91,42.54ZM19.38,37.26a8.33,8.33,0,0,1-1.44.7s0,.08,0,.06a7.3,7.3,0,0,0,1.46-.71S19.42,37.23,19.38,37.26Zm3,3.4s0-.1-.07-.06c-.3.35-.58.7-.85,1.07l-.11.15c0-.23.09-.46.14-.7s.07-.28.11-.42l.29-.3.53-.5s0-.12-.06-.08l-.7.67.09-.29c0-.05-.06-.08-.07,0s-.09.29-.13.44a14.12,14.12,0,0,0-1,1.09,2.09,2.09,0,0,1-.14.17,10.62,10.62,0,0,1,.24-1.12c0-.12.06-.23.1-.35l.43-.38.54-.43c.05,0,0-.12-.07-.08-.28.22-.56.45-.83.69l.09-.26s-.07-.09-.09,0l-.15.43c-.26.24-.52.49-.77.76,0-.3.09-.59.14-.89l0-.18L20.2,40c.44-.37.9-.71,1.37-1l.81-.53c.05,0,0-.09-.05-.06a17.88,17.88,0,0,0-2.16,1.52l.06-.4s-.06-.05-.07,0-.05.32-.08.48l-.53.45s0,0-.05,0c.07-.31.16-.62.25-.93l.11-.09a15.08,15.08,0,0,1,1.57-1c.31-.17.62-.33.94-.48.06,0,0-.12,0-.09a14.07,14.07,0,0,0-3.21,2l-.31.28h0c.07-.32.14-.64.22-1l.52-.37c.49-.33,1-.65,1.5-.94q.45-.26.9-.48s0-.09,0-.07A23,23,0,0,0,19.07,39c0-.15.07-.31.11-.46s-.05-.06-.07,0-.09.36-.13.54l-.1.07-.54.41v0q.06-.36.09-.72l.58-.4c.41-.28.84-.56,1.27-.82l.73-.43s0-.09-.05-.07c-.87.5-1.71,1-2.53,1.6a0,0,0,0,0-.08,0v0c-.21.15-.42.3-.62.46a0,0,0,0,0,0,.06l.56-.4c0,.22-.05.43-.08.64l0,.15-.14.11s0,.1,0,.07l.07-.06c0,.17-.07.35-.1.52s.06.06.07,0a3.22,3.22,0,0,0,.15-.63l.62-.46-.21.87,0,.13c-.12.11-.23.23-.34.35s0,.09.05.06l.25-.23c0,.16-.06.32-.1.48s-.11.53-.14.8c0,0,.06,0,.08,0,.07-.26.11-.53.16-.8l.12-.59c.28-.24.56-.48.86-.71-.1.32-.18.64-.26,1s-.36.34-.53.52,0,.1.06.06l.42-.39c0,.08,0,.16,0,.24-.06.25-.11.51-.16.77a7.18,7.18,0,0,0-.12.79,0,0,0,1,0,.08,0c.05-.25.09-.51.13-.76l.15-.78.09-.37c.2-.18.39-.36.6-.53l-.18,1,0,.1-.17.18a2,2,0,0,0-.22.27s0,.08.08.06a1.9,1.9,0,0,0,.19-.21l.08-.09-.09.51a8.38,8.38,0,0,0-.13.83s.06.07.08,0c.06-.2.08-.42.12-.62s.07-.44.11-.65l0-.23h0l.41-.43.33-.32a11.28,11.28,0,0,0-.34,1.53,1.76,1.76,0,0,0-.14.23c0,.05,0,.08.07,0l0,0c0,.17,0,.35,0,.53s0,.28,0,.43a1.41,1.41,0,0,0,0,.41c0,.05.09.06.09,0a2,2,0,0,0,0-.35c0-.13,0-.25,0-.37s0-.5.06-.75a.2.2,0,0,1,0-.07l.21-.29c.13-.16.26-.33.4-.49s.3-.35.46-.52c-.1.39-.19.78-.26,1.18l-.15.23a5.5,5.5,0,0,0-.36.57c0,.05.05.1.09.05s.21-.26.31-.4,0-.05,0-.06l.07-.12,0,0c-.07.43-.11.85-.14,1.28s0,.64,0,1a.06.06,0,0,0,.11,0,16.11,16.11,0,0,1,.07-1.7c0-.24.06-.48.09-.72l.24-.34C21.84,41.36,22.12,41,22.41,40.66Zm.18.58s0-.07-.05,0l-.49.66c.06-.23.14-.45.22-.67,0-.06-.06-.1-.08,0a7.89,7.89,0,0,0-.3.94l-.13.2a5.18,5.18,0,0,0-.31.57,2.19,2.19,0,0,0-.12.33s0,.09,0,.09.09-.07.1-.1,0,0,0,0,0-.09.05-.13a5.77,5.77,0,0,1,.27-.56l.09-.15a7.87,7.87,0,0,0-.15,1.94c0,.14,0,.29,0,.43a2.15,2.15,0,0,0,.09.44s.07,0,.07,0c0-.26-.05-.52-.07-.77a6.66,6.66,0,0,1,0-.77,8.33,8.33,0,0,1,.2-1.5Zm1.06-.41s0-.08-.07,0l-.77,1.47-.08.15.09-.66a0,0,0,1,0-.08,0c0,.29-.09.58-.12.88l-.19.36-.26.49a0,0,0,0,0-.06,0,1.82,1.82,0,0,1-.07.25s.06.07.08,0c.14-.24.26-.49.38-.73l.1-.19a12.79,12.79,0,0,0,0,1.75,5.69,5.69,0,0,0,.08.82c0,.07.1.06.09,0,0-.24,0-.47-.05-.71s0-.47,0-.71a11.92,11.92,0,0,1,.05-1.34l.18-.35Zm1.47-.51c-.42,1.12-.85,2.24-1.28,3.36l-.17.42a7.63,7.63,0,0,1,0-1.17c0-.23,0-.45,0-.67s.27-.65.4-1l.33-.76a0,0,0,1,0-.06,0c-.24.54-.47,1.08-.7,1.63a0,0,0,0,0-.06,0c0,.05,0,.1,0,.15l-.35.89a5.13,5.13,0,0,0-.27.78s0,.05.06,0a5.6,5.6,0,0,0,.26-.68l.27-.69v0a10.12,10.12,0,0,0,0,1.74c0,.1-.07.21-.11.31a.05.05,0,0,0,.1,0s0-.08,0-.11,0,.2.05.3a3.73,3.73,0,0,0,.18.75s.1,0,.09,0c0-.22-.09-.44-.14-.66l-.09-.6c.06-.17.12-.34.19-.51L24.2,43l.63-1.67.36-1S25.14,40.28,25.12,40.32Zm0,5.67a7,7,0,0,1-.54-1.94c0-.2.07-.4.11-.59a18.5,18.5,0,0,1,.56-2.19c.12-.4.27-.8.42-1.2,0,0,0-.06-.06,0a21.51,21.51,0,0,0-1.07,3.62,5.8,5.8,0,0,1,0-.59c0-.07-.1-.08-.1,0a6.55,6.55,0,0,0,0,1l-.06.37-.09.62a4.48,4.48,0,0,0-.06.63c0,.06.09,0,.1,0s0-.37.07-.55,0-.37.07-.56,0-.1,0-.16a6.52,6.52,0,0,0,.25,1A4.35,4.35,0,0,0,25,46C25.06,46.08,25.15,46.05,25.13,46Zm.68-3.59c.08-.31.16-.62.25-.92,0-.06-.08-.1-.09,0a16.89,16.89,0,0,0-.64,3.3c0,.31-.06.63-.06.94,0,.06.11.07.11,0,0-.55.07-1.1.15-1.65S25.69,42.94,25.81,42.4Zm1.66,1.17a5.56,5.56,0,0,1-.49.9,3.79,3.79,0,0,1-.3.4c-.1.14-.22.26-.32.4s0,.08.05,0a2.47,2.47,0,0,0,.35-.37l.31-.42a6.28,6.28,0,0,0,.5-.92A.05.05,0,0,0,27.47,43.57Zm1.66-1.09a11.55,11.55,0,0,1-1.43,3.11l-.26.4c-.09.13-.19.25-.27.39s0,.09.08,0a2.78,2.78,0,0,0,.26-.34c.08-.12.17-.24.25-.37s.3-.48.43-.73a12.45,12.45,0,0,0,.73-1.57c.11-.3.21-.61.3-.92C29.23,42.45,29.15,42.43,29.13,42.48Zm.78.54a29,29,0,0,0-1.16,3c-.06.18-.13.37-.19.56,0,0,0,0,0,0l0,.27c0,.06.08.09.1,0,.09-.24.16-.5.24-.75s.17-.51.25-.76c.18-.5.36-1,.56-1.48.11-.28.23-.55.35-.83C30,43,29.93,43,29.91,43Zm.26.53a21.38,21.38,0,0,0-.66,2.5c0,.12-.05.23-.07.35a2.52,2.52,0,0,0-.05.37c0,.06.08.09.1,0s.05-.26.08-.39,0-.27.07-.41.11-.54.17-.81a15.24,15.24,0,0,1,.45-1.6C30.27,43.53,30.19,43.5,30.17,43.55Zm.24,3.35,0-.31a5,5,0,0,1,0-.67,5.82,5.82,0,0,1,.18-1.31s-.08-.07-.09,0a6.57,6.57,0,0,0-.2,1.33c0,.21,0,.43,0,.65l0,.34a1.14,1.14,0,0,0,.07.32s.09,0,.09,0A1.24,1.24,0,0,0,30.41,46.9Zm1.67.17a.55.55,0,0,1-.56-.16s-.12,0-.08.06a.56.56,0,0,0,.66.17A0,0,0,0,0,32.08,47.07Zm-6-1.6L26,45a.05.05,0,0,0-.07,0,.05.05,0,0,0,0,.07l.13.51a.05.05,0,0,0,.07,0A.05.05,0,0,0,26.08,45.47Zm6.85,1.82c-.09-.18-.2-.34-.29-.52a5.55,5.55,0,0,1-.24-.56,0,0,0,1,0-.07,0,3,3,0,0,0,.24.56,2.51,2.51,0,0,0,.32.52S33,47.32,32.93,47.29Zm1,.06a.22.22,0,0,1-.26-.09c-.07-.08-.13-.17-.2-.26a4.38,4.38,0,0,1-.37-.58,4.73,4.73,0,0,1-.5-1.29s-.08,0-.07,0a5.3,5.3,0,0,0,1,2.14c.08.1.29.29.41.13S34,47.34,34,47.35Zm1.26.38a0,0,0,0,0-.08,0,.19.19,0,0,1-.07.13c-.29-.38-.56-.76-.82-1.16a12.49,12.49,0,0,1-.7-1.3c-.12-.25-.23-.5-.33-.76a0,0,0,1,0-.09,0,12.56,12.56,0,0,0,1.37,2.62c.16.24.33.46.51.68a0,0,0,0,0,.06,0A.25.25,0,0,0,35.22,47.73Zm1.07-.12c-.19.07-.35-.16-.45-.28a6.12,6.12,0,0,1-.39-.5,10.41,10.41,0,0,1-.69-1c-.12-.21-.23-.42-.33-.64,0-.06-.14,0-.11,0a10.5,10.5,0,0,0,1.48,2.3c.12.14.33.35.53.21S36.34,47.6,36.29,47.61Zm1.14,0a.23.23,0,0,1-.25-.08,3.07,3.07,0,0,1-.25-.26l-.48-.55c-.32-.38-.62-.77-.9-1.16,0-.06-.14,0-.09.06a17.39,17.39,0,0,0,1.57,2c.11.11.31.26.44.11S37.46,47.64,37.43,47.65Zm.74,0a.71.71,0,0,1-.4-.36l-.39-.58-.77-1.13c0-.07-.13,0-.09.06l.82,1.22c.13.2.26.41.4.61s.24.31.43.28A.05.05,0,0,0,38.17,47.62Zm.87.44c-.13-.14-.29-.27-.42-.41a6,6,0,0,1-.41-.47,5.23,5.23,0,0,1-.61-1,0,0,0,1,0-.09,0,5.38,5.38,0,0,0,.61,1.07c.13.17.26.33.4.48a2.55,2.55,0,0,0,.46.41S39.08,48.1,39,48.06Zm.88.19c-.21,0-.33-.17-.44-.31l-.38-.52-.79-1s-.08,0-.06,0l.84,1.17c.14.18.27.38.41.56s.28.27.44.17A0,0,0,0,0,39.92,48.25Zm.69-.06a0,0,0,0,0,0,.08l-.06-.05-.09-.09-.17-.19L40,47.55a9.68,9.68,0,0,1-.61-.82c0-.06-.13,0-.09.07a12.27,12.27,0,0,0,.82,1.08c.08.09.15.18.23.26l.11.12a.35.35,0,0,0,.11.1c.07,0,.16,0,.17-.06A.08.08,0,0,0,40.61,48.19Zm1,.23c-.42-.5-.89-1-1.34-1.47,0,0-.12,0-.07.06.45.49.88,1,1.35,1.47A0,0,0,0,0,41.62,48.42Zm5.14,1.13a2.69,2.69,0,0,0-.26-.33l-.27-.32-.2-.23.13-.14c.05-.05,0-.12-.09-.07l-.12.12-.26-.3L44.6,47c-.05-.06-.15,0-.1.07l.78.91c-.18.12-.35.25-.51.38l-.28-.32-.1-.12.24-.2c0-.05,0-.14-.07-.09l-.25.2L44,47.46l0,0s0-.1-.05-.07l0,0-.26-.33-.42-.58a0,0,0,0,0-.06,0l.67.92a4.83,4.83,0,0,0-.58.43,2.34,2.34,0,0,1-.24-.31c0-.05-.12,0-.09.06l.25.32a3.86,3.86,0,0,0-.64.7,0,0,0,1,0,.07.06,8.43,8.43,0,0,1,.65-.69l.09.11.23.22,0,0-.15.12-.17.14a.81.81,0,0,0-.16.16s0,.1,0,.07a1.77,1.77,0,0,0,.35-.26l.18-.15.12.06s.07,0,0-.06l-.09-.07.09-.07.38-.32c.13.15.25.3.38.44l0,0-.3.26a2.61,2.61,0,0,0-.27.3s0,.09.06.06l.28-.27.3-.28,0,0,0,0,.24.27a2,2,0,0,0,.25.25,0,0,0,0,0,.06-.06,2.31,2.31,0,0,0-.2-.24l-.22-.23-.07-.08a6.12,6.12,0,0,1,.5-.39l.25.3.27.31c-.19.19-.38.38-.56.58s0,.11.09.07l.55-.56.2.23.27.32a4,4,0,0,0,.28.3C46.74,49.66,46.79,49.6,46.76,49.55Zm-2.9-1.33-.11.09-.06,0-.24-.22-.09-.1a5.68,5.68,0,0,1,.56-.44l.32.4Zm4.33,1.56a5.08,5.08,0,0,1-1.4-1.52c0-.06-.13,0-.1,0a4.26,4.26,0,0,0,1.45,1.56S48.23,49.81,48.19,49.78ZM23.67,28.62a3.59,3.59,0,0,1-1.46-.51c-.05,0-.09,0-.05.06a3.33,3.33,0,0,0,1.5.52S23.72,28.62,23.67,28.62Zm1.49-.84-1-.79s-.1,0-.06.06l1,.79S25.2,27.81,25.16,27.78Zm3.2.42A4.22,4.22,0,0,1,28,26.52c0-.06-.1-.05-.1,0a3.75,3.75,0,0,0,.38,1.71A0,0,0,1,0,28.36,28.2Zm2.53-.82-.27.88c0,.06.07.1.08,0,.1-.29.19-.59.28-.88C31,27.36,30.91,27.32,30.89,27.38Zm-.54,10.73-.59.62c-.05.05,0,.12.08.07l.58-.62S30.39,38.07,30.35,38.11Zm-1.7-19.37c-.25.2-.48.42-.71.64a5.4,5.4,0,0,0-.63.73,0,0,0,0,0,.05.05c.22-.23.42-.47.64-.7a8.72,8.72,0,0,1,.71-.64S28.7,18.7,28.65,18.74Zm1.24.1-1,.78a12.17,12.17,0,0,0-.95.8s0,.08,0,0c.34-.23.65-.51,1-.77l1-.78C30,18.88,29.94,18.8,29.89,18.84Zm1.37,0a7.63,7.63,0,0,0-1.87,1.27,3.84,3.84,0,0,0-.44.46s0,.08.06.05a7.94,7.94,0,0,1,2.28-1.71S31.31,18.83,31.26,18.85Zm1,.21a8.31,8.31,0,0,0-2.4,1.8,4.48,4.48,0,0,0-.54.68s0,.07.06,0a13,13,0,0,1,1-1.1,8.63,8.63,0,0,1,1.18-.91c.24-.15.49-.29.74-.42C32.31,19.12,32.28,19,32.22,19.06Zm2.35-.14-.37.35V19a0,0,0,1,0-.08,0c0,.11,0,.22,0,.33l-.67.65a8.51,8.51,0,0,0,.14-1.13s-.06-.05-.06,0,0,.07,0,.1a.06.06,0,0,0-.07,0l-.62.5.09-.34c0-.06-.07-.07-.08,0l-.13.46c-.35.29-.69.6-1,.92l0-.08.22-.79c0-.05-.07-.07-.08,0l-.23.79a2.17,2.17,0,0,0-.07.24,16.46,16.46,0,0,0-1.13,1.23c-.12.15-.25.3-.36.45a5.48,5.48,0,0,0-.35.49s0,.07.07,0c.24-.26.44-.55.66-.81s.44-.53.67-.78l.37-.39c0,.11-.06.21-.08.31a0,0,0,0,0,.08,0c.05-.15.1-.31.14-.47.32-.32.65-.63,1-.93a.1.1,0,0,0,0,0l-.14.52c-.09.35-.19.69-.28,1l-.52.62a7.89,7.89,0,0,0-.71.93s0,.07.07,0c.23-.25.43-.54.65-.8s.34-.42.52-.62c0,0,0,0,.05,0s0,0,0-.06l.07-.08c.3-.35.61-.68.92-1-.11.47-.26.92-.41,1.37,0,0,0,.06.07,0a7.23,7.23,0,0,0,.42-1.37l0-.13c.12-.13.24-.26.37-.38s.21-.21.32-.32c0,.29-.05.58-.09.86s-.07.44-.12.65-.05.22-.07.33a1.94,1.94,0,0,0-.07.33s0,.06.07,0a2.8,2.8,0,0,0,.09-.31c0-.11.05-.22.07-.33s.09-.44.12-.66.08-.65.1-1l.43-.41S34.61,18.89,34.57,18.92Zm-1.24,1.21c-.33.33-.65.66-1,1,.08-.28.15-.56.22-.84l.17-.65c.24-.2.48-.4.73-.59A9.87,9.87,0,0,1,33.33,20.13Zm2.32,1.5c0-.11,0-.22,0-.33s0-.43,0-.65a9.41,9.41,0,0,1,.15-1.3.05.05,0,0,0-.1,0,9.86,9.86,0,0,0-.16,1.33c0,.21,0,.43,0,.65s0,.22,0,.33a1.65,1.65,0,0,0,0,.32,0,0,0,0,0,.09,0A1.74,1.74,0,0,0,35.65,21.63Zm2.33-.4c0-.05-.08-.06-.08,0-.11.74-.24,1.48-.32,2.22,0,0,.05,0,.06,0C37.77,22.71,37.87,22,38,21.23Zm1.68.93a15.47,15.47,0,0,1-2,2.6c-.18.18-.38.36-.56.55,0,0,0-.07,0-.1s-.05-.06-.06,0,0,.16-.07.25,0,.07.08,0c.22-.18.41-.38.61-.57s.38-.4.56-.61c.36-.42.7-.86,1-1.31.18-.26.35-.52.51-.79C39.77,22.17,39.69,22.12,39.66,22.16Zm1.73,2.59-2,2a5.21,5.21,0,0,0-.56.59s0,.11.07.07a5.9,5.9,0,0,0,.51-.49l.5-.5,1-1,.58-.58S41.45,24.7,41.39,24.75Zm.76,1.19a13.7,13.7,0,0,0-1.92,2.31c-.08.12-.16.23-.23.36a1.58,1.58,0,0,0-.2.36.05.05,0,0,0,.09.06,6.73,6.73,0,0,0,.4-.63c.13-.21.28-.41.42-.61a14.88,14.88,0,0,1,.94-1.16c.19-.21.39-.42.59-.61S42.2,25.88,42.15,25.94Zm.39.35a24.72,24.72,0,0,0-1.46,2.06c-.07.1-.13.21-.19.31a1.39,1.39,0,0,0-.18.31.06.06,0,0,0,.1.06,2.26,2.26,0,0,0,.16-.26l.16-.27c.11-.18.22-.36.34-.54.23-.35.46-.7.71-1l.42-.58S42.57,26.25,42.54,26.29Zm0,1a6.93,6.93,0,0,0-.71,1.13,3,3,0,0,0-.15.31.72.72,0,0,0-.1.29c0,.07,0,.15.14.12a.08.08,0,0,0,0-.14.05.05,0,0,0,0,0v0s0-.07,0-.11l.1-.22c.07-.15.14-.3.22-.44a6.52,6.52,0,0,1,.55-.82A.07.07,0,0,0,42.57,27.27Zm.25,1.92a.31.31,0,0,1-.19,0c.11-.27.21-.55.32-.82,0-.07-.08-.12-.11-.05-.12.3-.24.59-.35.88a.08.08,0,0,0,0,.09.4.4,0,0,0,.32,0A.05.05,0,0,0,42.82,29.19Zm1-.36-.3,1.09c0,.06.09.08.11,0,.1-.36.21-.72.31-1.08C44,28.77,43.84,28.75,43.82,28.83ZM44,30.36c-.47.12-.94.25-1.4.41l-.68.25a5.19,5.19,0,0,0-.68.3,0,0,0,1,0,0,.08c.23-.08.46-.18.69-.27l.67-.25c.46-.16.93-.3,1.4-.42C44.07,30.45,44.05,30.35,44,30.36Zm.69.61a8.54,8.54,0,0,0-3.09,1.1,5.91,5.91,0,0,0-.77.54s0,.1,0,.07a12.5,12.5,0,0,1,1.4-.86,10.11,10.11,0,0,1,1.5-.58,9.4,9.4,0,0,1,.92-.2S44.73,31,44.68,31Zm-.11.61a9.49,9.49,0,0,0-2.43,1.25,5.69,5.69,0,0,0-.61.49.06.06,0,0,0,.07.09,12.34,12.34,0,0,1,1.1-.8A9.21,9.21,0,0,1,43.9,32l.72-.28C44.69,31.67,44.65,31.56,44.57,31.58Zm.46.79a10.86,10.86,0,0,0-2.2,1.25c-.19.14-.38.29-.56.45,0,0,0,0,0,.07a.22.22,0,0,0,.36,0s0-.09-.06-.06a.12.12,0,0,1-.16,0,11.07,11.07,0,0,1,2-1.36l.64-.31A0,0,0,0,0,45,32.37Zm-.29,2.31a5.12,5.12,0,0,0-.91,1.21,0,0,0,0,0,.07,0,6.58,6.58,0,0,1,.91-1.19C44.85,34.69,44.78,34.64,44.74,34.68Zm.13,1.79-.23.6c0,.08.08.13.11,0l.23-.6C45,36.45,44.9,36.4,44.87,36.47Zm3.39,1.12-.58.56-.13.12c0-.09,0-.18,0-.27a4.51,4.51,0,0,0,0-.52l.18-.11c.06,0,0-.11-.06-.08l-.12.08a1.8,1.8,0,0,1,0-.22,0,0,0,0,0-.07,0c0,.08,0,.16,0,.25l-.29.17-.24.15-.1.06a5.93,5.93,0,0,0,0-.73.05.05,0,0,0-.1,0,5.6,5.6,0,0,1-.49,2.45s.06.09.08,0a5,5,0,0,0,.48-1.65l0,0,.13-.07.24-.15.24-.15a7.85,7.85,0,0,1,0,.84l-.35.35s0,.09,0,.06l.28-.25a7.13,7.13,0,0,1-.26,1.3l-.12.35-.07.18s-.06.12-.08.09-.1,0-.08,0a.11.11,0,0,0,.17,0,.5.5,0,0,0,.14-.27,6,6,0,0,0,.22-.72,7.13,7.13,0,0,0,.18-1.11l.2-.2.58-.57S48.3,37.56,48.26,37.59Zm.3,1a2.26,2.26,0,0,0-.42.26v0c0-.29.08-.58.1-.87a0,0,0,0,0-.09,0c0,.33-.07.67-.12,1l0,0-.23.23-.1.14a.39.39,0,0,0-.08.14s0,0,.07,0a.31.31,0,0,0,.09-.11l.11-.13.13-.14a14.3,14.3,0,0,1-.43,1.83c0,.14-.09.28-.13.42a1.87,1.87,0,0,0-.13.4c0,.06.06.07.09,0a2.2,2.2,0,0,0,.13-.36l.12-.37c.07-.24.14-.49.2-.74.11-.44.19-.87.26-1.31a2,2,0,0,1,.5-.32C48.67,38.63,48.63,38.53,48.56,38.56Zm.63,1.33c-.19.94-.39,1.88-.58,2.81l-.08.39a1.16,1.16,0,0,1,0,.18s0,0,0,.06l0,0v0a0,0,0,0,0-.06-.06.11.11,0,0,0,0,.18.14.14,0,0,0,.2-.09,2.22,2.22,0,0,0,.09-.37l.08-.43c.11-.56.23-1.13.34-1.7l.19-1A.05.05,0,0,0,49.19,39.89Zm.39,1.53c0-.3.06-.59.08-.89,0-.05-.08-.06-.08,0a11.62,11.62,0,0,1-.59,3c0,.13-.09.27-.14.41a2.67,2.67,0,0,0-.13.4,0,0,0,0,0,.06,0,2.94,2.94,0,0,0,.29-.71,6.75,6.75,0,0,0,.22-.73A11.77,11.77,0,0,0,49.58,41.42ZM51.49,43a6.28,6.28,0,0,0-.54.49,3.29,3.29,0,0,0-.42.49c.07-.39.14-.78.19-1.16v0h0a5.27,5.27,0,0,1,.8-.63c.05,0,0-.1,0-.07a5.68,5.68,0,0,0-.74.55c0-.25.07-.51.1-.76,0,0-.07-.06-.08,0v0h0a3.4,3.4,0,0,0-.63.38h0a.29.29,0,0,0,0-.09c0-.3.09-.6.13-.9,0-.06-.09-.08-.1,0,0,.37-.11.74-.17,1.11a2.16,2.16,0,0,0-.4.4s0,.1.07.06l.3-.3c-.11.62-.24,1.23-.39,1.84,0,.17-.08.34-.13.5l0,0-.06.34c0,.07.09.1.11,0a7.1,7.1,0,0,0,.2-.76l.18-.78q.13-.66.24-1.32l.09-.08a3.41,3.41,0,0,1,.57-.36c0,.25-.07.5-.11.74a4.6,4.6,0,0,0-.65.75s0,.11.07.06c.18-.21.35-.43.55-.63-.13.75-.27,1.49-.44,2.23a7.15,7.15,0,0,0-.19.92s.07.08.09,0a7.37,7.37,0,0,0,.2-.81c.06-.27.12-.54.17-.82l.06-.34h0c.16-.18.31-.37.48-.54a.47.47,0,0,1,.1-.1c-.07.46-.14.93-.22,1.39l-.11.7a3.23,3.23,0,0,0-.07.69,0,0,0,0,0,.07,0,2.64,2.64,0,0,0,.13-.68l.1-.7c.07-.46.13-.93.2-1.4a0,0,0,0,0-.06-.05c.13-.12.26-.24.4-.35A.06.06,0,0,0,51.49,43ZM53,46.74c0-.47,0-.93,0-1.4,0-.9,0-1.8,0-2.7a2.34,2.34,0,0,0-.26-1.1,4,4,0,0,0-.64-.73l-.21-.22a.24.24,0,0,0,0-.08A15.93,15.93,0,0,0,51,38.93l-.87-1.53-1.76-3c-.54-.93-1.08-1.86-1.53-2.84s-.65-1.71-1-2.55a4.75,4.75,0,0,0-1.62-2.12,2.84,2.84,0,0,0-.28-1.18,9,9,0,0,0-.6-1.2c-.43-.73-.89-1.44-1.3-2.17a8.79,8.79,0,0,0-3.17-3.68c-.77-.42-1.75-.6-2.33-1.31a.27.27,0,0,0-.31-.07,3.34,3.34,0,0,0-.94-.48,4.21,4.21,0,0,0-1.16-.24,5.25,5.25,0,0,0-1.19.06,9,9,0,0,0-1.16.3,5.87,5.87,0,0,1-1.1.26,6.88,6.88,0,0,1-1.11.05,11.14,11.14,0,0,0-2.16,0,3.45,3.45,0,0,0-1.52.62c.16-.78.18-1.59.33-2.38,0-.12.05-.23.07-.34a1.36,1.36,0,0,1,.1-.36,3,3,0,0,1,.39-.59,4.21,4.21,0,0,1,1.1-.82c.2-.12.4-.22.61-.32a.28.28,0,0,0,.16-.27.27.27,0,0,0-.22-.23l-.53-.05a4.28,4.28,0,0,0-.62,0,5.21,5.21,0,0,0-1.12.15,3.44,3.44,0,0,0-1,.35,2.86,2.86,0,0,0-.76.71c-.43.55-.85,1.11-1.24,1.69-.2.31-.41.6-.58.92s-.32.65-.47,1-.18.43-.26.65c0-.34,0-.68,0-1,0-.66-.07-1.33-.17-2A5,5,0,0,0,21,13.06a11.88,11.88,0,0,0-1.13-1.51c-.43-.53-.89-1-1.32-1.54s-1-1.18-1.45-1.77c-.23-.28-.46-.56-.7-.83a1.64,1.64,0,0,0-.82-.55.13.13,0,0,0-.15,0,.13.13,0,0,0-.1.2,5.45,5.45,0,0,1,.73,3.4A2.74,2.74,0,0,1,16,11c0,.18-.11.35-.16.53-.08.35-.18.7-.27,1.05a15.3,15.3,0,0,0-.47,2.11,4.24,4.24,0,0,0,.17,2.09,7.92,7.92,0,0,0,1.06,1.7c.79,1.11,1.64,2.19,2.33,3.38a10.28,10.28,0,0,1,.89,1.9A8.3,8.3,0,0,1,19.88,25c-.24-.12-.49-.23-.73-.33-.5-.22-1-.4-1.54-.58l-1.5-.47a7.52,7.52,0,0,0-1.4-.34,3.65,3.65,0,0,0-1.4.13.19.19,0,0,0-.27,0,2.4,2.4,0,0,0-.68,1.64.21.21,0,0,0,.33.14c.86-.64,1.9.1,2.67.54.46.27.94.5,1.42.75l.68.36.42.22-.68,0-1.7.05-.83,0a1.52,1.52,0,0,0-.81.17c-.42.25-.53.78-.73,1.18a4.64,4.64,0,0,1-.71,1,5.44,5.44,0,0,1-1,.76,5.2,5.2,0,0,1-2.3.74,5.66,5.66,0,0,1-.58,0,.25.25,0,0,0-.29.21.28.28,0,0,0,.17.28.15.15,0,0,0,.13,0,3.75,3.75,0,0,1,1.52.16c.51.14,1,.32,1.53.47a4.49,4.49,0,0,0,2.94-.09L15,32a.35.35,0,0,0,0,.08,3.11,3.11,0,0,0-.27.55,3.89,3.89,0,0,0-.13.68c0,.22-.07.45-.12.67a1.47,1.47,0,0,0-.1.13.08.08,0,0,0,0,.13c0,.14-.07.28-.11.42s-.05.18-.07.27l0,.07a.1.1,0,0,0,0,.09l-.22.82a7,7,0,0,0-.16,1.29,7.49,7.49,0,0,0,0,1.34,6.33,6.33,0,0,0,.6,2.14,5,5,0,0,0,.68,1,2.8,2.8,0,0,0,.76.69,1.73,1.73,0,0,0,.36,1.24,1.63,1.63,0,0,0,1.21.69l.06,0c.47.58,1,1.15,1.47,1.69a9,9,0,0,0,1.95,1.6h0l.08,0a5.12,5.12,0,0,0,1.78.64c1.67.29,3.36-.28,5,.16.81.22,1.56.59,2.34.87a7.31,7.31,0,0,0,2.54.41c.88,0,1.75-.09,2.63-.1s1.77,0,2.64,0a14.22,14.22,0,0,1,2.61.43l.36.1a.11.11,0,0,0,.14.07h0c.66.2,1.3.44,1.95.66a13,13,0,0,0,2.44.66,8.2,8.2,0,0,0,2.1,0,.18.18,0,0,0,.2,0l0,0a8.21,8.21,0,0,0,3.84-1.65A3.36,3.36,0,0,0,53,48,6.19,6.19,0,0,0,53,46.74Zm-3.77-9.25L50,38.7a0,0,0,0,0,0,.08h0c.08.13.16.26.23.39.27.44.52.9.81,1.33a.93.93,0,0,0,0,.13l-.28-.25a2.79,2.79,0,0,1-.59-.92,7,7,0,0,0-.45-.91c-.11-.18-.24-.36-.36-.53s-.1-.26-.14-.39a0,0,0,1,0-.07,0,.78.78,0,0,0,0,.14l-.17-.2L49,37.27,48.94,37Zm-.44-.75.11.55,0,.14-.29-.34a1.36,1.36,0,0,0,0-.17l-.09-.49a1.85,1.85,0,0,1,0-.23ZM48.35,36c0,.17,0,.33.07.49l.09.47-.32-.37v0L48.09,36,48,35.37Zm-.46-.79c0,.26.07.52.11.78l.07.47-.31-.36,0-.2-.06-.54,0-.58C47.73,34.89,47.81,35,47.89,35.18Zm-.34-.6q0,.38,0,.75l.06.6-.32-.4c0-.15,0-.31,0-.47s0-.43,0-.65,0-.18,0-.26Zm-.75-1.4v.35c0,.31,0,.61,0,.92,0,0,0,0,.06,0a.2.2,0,0,0,.1-.24,0,0,0,0,0-.06,0,.09.09,0,0,1,0,.09c0-.27,0-.54,0-.81v-.19c.12.23.24.46.37.69a2.56,2.56,0,0,0,0,.39c0,.21,0,.43,0,.64s0,.23,0,.34a5.44,5.44,0,0,1-.9-1.72.78.78,0,0,0,.09-.45,5.44,5.44,0,0,0,0-.57,4.62,4.62,0,0,0-.13-.6C46.43,32.44,46.61,32.81,46.8,33.18Zm-.69.18a.1.1,0,0,1,0,.07h0c-.06,0-.12-.12-.15-.17a2,2,0,0,1-.36-.81,2.7,2.7,0,0,1,0-.94s0-.05,0-.08c.4.07.58,1.22.58,1.47A1.79,1.79,0,0,1,46.11,33.36Zm-1-4.26c.35.79.6,1.63.93,2.44l0-.07a.66.66,0,0,0-.42-.31h0a.36.36,0,0,0,0-.1,3.52,3.52,0,0,0-.18-.45,3.7,3.7,0,0,1-.16-.94,2.88,2.88,0,0,0-.13-.65A.3.3,0,0,0,45.11,29.1Zm-2.68-4.54,0,.05-.34-.45-.72-1c0-.08,0-.17,0-.26l-.06-.29Q41.85,23.62,42.43,24.56Zm-1.25-2.12h0c0,.16.06.33.1.49l0,.11-.2-.26,0-.1-.06-.2a3.15,3.15,0,0,1-.11-.44c0-.05,0-.1,0-.14Zm-.43-.73c0,.12,0,.23,0,.35a3.48,3.48,0,0,0,.1.44v0l-.17-.23c0-.09-.08-.17-.11-.26s-.13-.38-.18-.57l-.09-.37C40.5,21.3,40.63,21.5,40.75,21.71Zm-.89-1.29c.14.17.27.35.4.53s.07.37.11.55.1.35.16.52l-.11-.15-.23-.3a1.76,1.76,0,0,1-.09-.2,2.5,2.5,0,0,1-.16-.43,3.69,3.69,0,0,1-.11-.56Zm-.14-.16a3.45,3.45,0,0,0,.13.7,2.29,2.29,0,0,0,.09.28c-.11-.13-.21-.26-.33-.39l-.16-.43c-.08-.21-.14-.43-.2-.64A4.27,4.27,0,0,1,39.72,20.26Zm-.64-.63.07.07c.07.25.14.49.22.74,0,.07.05.15.07.23a3.89,3.89,0,0,0-.48-.43l-.09-.3-.17-.58A4.44,4.44,0,0,1,39.08,19.63Zm-.5-.35.25.85h0l-.2-.13-.23-.13c0-.11-.07-.23-.1-.34s-.09-.33-.14-.49A4.16,4.16,0,0,1,38.58,19.28Zm-.5-.28c0,.19.09.37.14.56a2.68,2.68,0,0,0,.07.27l-.43-.19c0-.05,0-.11-.07-.17-.08-.24-.15-.48-.22-.72Zm-.63-.31c.07.28.16.55.25.82l0,.08-.19-.07-.13-.28c-.06-.12-.11-.24-.16-.36l-.12-.36Zm-.4-.22c0,.14.08.28.13.42l.15.38a2,2,0,0,0,.1.21L37,19.34c0-.09-.07-.17-.1-.25l-.15-.38-.23-.57A4.2,4.2,0,0,0,37.05,18.47Zm-1-.65a.3.3,0,0,0,.13,0c.07.08.15.15.23.23l.28.71.15.38.06.16-.24-.09a2.38,2.38,0,0,0-.11-.38c-.06-.15-.12-.3-.19-.45a4.37,4.37,0,0,0-.32-.55Zm-6.7-.16a8.07,8.07,0,0,0,2.25-.05,8.68,8.68,0,0,1,2.07-.29,7.28,7.28,0,0,1,1.22.16,5.6,5.6,0,0,1,.7.2,4.74,4.74,0,0,1,.45,1.15,0,0,0,0,0,.07,0,2.86,2.86,0,0,0-.19-.65,3.45,3.45,0,0,0-.24-.47l.27.08a5.45,5.45,0,0,1,.35.62c.06.14.12.28.17.43l.11.33L36.18,19c-1-.36-2-.72-3-1.06H33.1a2,2,0,0,0-.93-.33.13.13,0,0,0-.12.11H31.9c-.2,0-.55.09-.59.33a.21.21,0,0,0,0,.16h0a3,3,0,0,1-.6,0c-.43-.07-.85-.18-1.27-.26a11.62,11.62,0,0,0-2.12-.2A8,8,0,0,1,29.37,17.66Zm-.54,3.74c-.2.11-.37.24-.56.37a3.87,3.87,0,0,1-.53.37.73.73,0,0,1-1.06-.3,2,2,0,0,1-.16-1.54,3.72,3.72,0,0,1,.72-1.48,1.56,1.56,0,0,1,1.4-.69c.06,0,.1-.05.09-.1l.78.13c.41.08.82.2,1.24.26a2.63,2.63,0,0,0,.93,0,.38.38,0,0,0,.1,0,1.84,1.84,0,0,0,.7,0,2.27,2.27,0,0,0,.65-.22l1.74.64c0,.45,0,.91-.09,1.36,0,.24-.05.47-.07.7s-.07.48-.09.73a6.26,6.26,0,0,0-.67.78A16.1,16.1,0,0,1,31.29,24a2,2,0,0,1-1.44.13,1.61,1.61,0,0,1-1-.9A1.68,1.68,0,0,1,29,21.6C29,21.51,29,21.34,28.83,21.4Zm2.79-3.28.06,0,.16-.05a1,1,0,0,1,.65,0,.14.14,0,0,0,.17-.07c.09,0,.19.07.28.12a2,2,0,0,1-.9.1.1.1,0,0,0-.12-.09l-.16,0-.1,0ZM24.4,15.41a2.5,2.5,0,0,1,.46-1.25,1.86,1.86,0,0,1,.62-.37,7.15,7.15,0,0,1,.77-.29l.93-.27a3.63,3.63,0,0,0-1.09,1.15c-.11.21-.22.42-.32.63a3.61,3.61,0,0,0-.21.71c-.28.08-.55.17-.83.27l-.6.22.06-.14a6,6,0,0,1,1.37-.54c.07,0,.06-.13,0-.11a4.84,4.84,0,0,0-1.32.52A3.62,3.62,0,0,0,24.4,15.41Zm-2.32,7c0-.13,0-.27.05-.4l0-.14.09-.07a5.54,5.54,0,0,1,.45-.37l-.33.7Zm.12.05c-.07.14-.14.27-.2.41a2.17,2.17,0,0,1,0-.25Zm0-.83-.05.05c0-.18.05-.36.07-.53h0c.22-.18.43-.35.66-.52l.18-.13-.3.68Zm.05-.66c0-.25.08-.49.13-.73l.13-.1a10.51,10.51,0,0,1,1-.6l-.33.76C22.87,20.5,22.57,20.72,22.28,21Zm.17-.92.09-.36.37-.22c.26-.15.53-.29.8-.42,0,.1-.08.2-.13.3A11.11,11.11,0,0,0,22.45,20Zm2.27-3.3q.34-.14.72-.24c0,.12,0,.23-.05.35l-.62.23.07-.19A.12.12,0,0,0,24.72,16.74Zm.8-.79a7.49,7.49,0,0,0-.81.23,5.6,5.6,0,0,0-.68.26.47.47,0,0,1,0-.1,7.07,7.07,0,0,1,.69-.27l.77-.26S25.53,15.91,25.52,16Zm-.79.32a6.77,6.77,0,0,1,.77-.22s0,.06,0,.09a8.6,8.6,0,0,0-1.63.67.37.37,0,0,1,.05-.11,1.17,1.17,0,0,1,.05-.11C24.22,16.47,24.47,16.36,24.73,16.27Zm-.13.29a7.2,7.2,0,0,1,.88-.33l0,.17a6.29,6.29,0,0,0-1.25.47,4.11,4.11,0,0,0-.51.27l.09-.18C24.05,16.82,24.32,16.68,24.6,16.56Zm-.35.39.43-.19s0,0,0,0-.1.26-.16.39l-1.05.44.17-.32,0,0C23.84,17.17,24,17.05,24.25,17Zm-.57.68.76-.32-.12.27a7.3,7.3,0,0,0-1.07.4,2.12,2.12,0,0,0,.11-.21Zm-.1.34a5.54,5.54,0,0,1,.68-.25c0,.09-.07.19-.11.28a7.44,7.44,0,0,0-1.15.51l.16-.34C23.3,18.1,23.43,18,23.58,18Zm-.3.52a7.59,7.59,0,0,1,.82-.37c-.05.11-.1.22-.14.33a13.07,13.07,0,0,0-1.19.58c.05-.11.09-.23.14-.34S23.15,18.55,23.28,18.49Zm-.47.67q.53-.29,1.08-.54c0,.09-.08.18-.11.27a10.18,10.18,0,0,0-1.18.62l.09-.28Zm.6,1.68.13-.09a2.83,2.83,0,0,0-.2.28h0C23.36,21,23.39,20.91,23.41,20.84Zm.09-.22c.08-.19.15-.37.22-.56l.58-.35h0l-.09.14-.44.58Zm.28-.71c.09-.22.17-.44.25-.66l.68-.32c.07,0,0-.14,0-.11l-.58.26,0-.07.06-.18.41-.17.42-.15-.05.11a6.46,6.46,0,0,1-.53.92C24.21,19.66,24,19.78,23.78,19.91Zm.45-1.22.09-.25.82-.31a1.83,1.83,0,0,1-.08.25Zm.93-.69c-.27.08-.53.18-.79.28,0-.1.07-.2.1-.29l.11,0c.22-.07.44-.12.66-.17l-.06.21Zm-.65-.12a2.41,2.41,0,0,1,.08-.25l.32-.07c.07,0,.06-.13,0-.11l-.26.05c0-.1.07-.21.11-.31l.24-.1.4-.15c0,.1,0,.2,0,.29s-.05.31-.08.46C25,17.74,24.75,17.81,24.51,17.88Zm-2.14-.11c.27-.63.58-1.23.9-1.83a9.45,9.45,0,0,1,1.15-1.66l0,0a2.17,2.17,0,0,0-.17.47c-.06.22-.1.44-.16.65s-.16.46-.25.69-.11.23-.17.35a.61.61,0,0,1-.14.07s0,.08,0,.07l.06,0c-.1.21-.21.41-.32.61l-.11.06a0,0,0,0,0,0,.07l0,.06-.13.23-.1.09a0,0,0,0,0,0,.05l-.12.21-.52.26s0,.09,0,.07l.4-.19c-.06.11-.12.21-.17.32a3.88,3.88,0,0,0-.33.23.05.05,0,0,0,.06.08l.15-.1c-.06.13-.12.25-.17.38l-.33.25s0,.1,0,.07l.2-.14-.1.28-.05,0-.3.2c0-.12,0-.24,0-.36C22,18.75,22.17,18.26,22.37,17.77Zm-.58,2.77c0-.12,0-.23,0-.35l.17-.12c0,.13-.06.26-.08.39A.39.39,0,0,0,21.79,20.54Zm.06.11c0,.17-.06.33-.08.5V21a2.81,2.81,0,0,0,0-.29ZM21.8,20c0-.08,0-.17,0-.25l.28-.19h0a2.45,2.45,0,0,0-.08.29Zm-.6,2.73c0,.36-.07.73-.12,1.1,0,.21-.06.41-.08.61l0,0a.24.24,0,0,0,0,.12v.07c-.05.07-.09.15-.14.23h0c0-.25.08-.5.11-.75s.09-.4.14-.6c0,0,0-.06-.06-.06,0-.2.05-.4.08-.6l.12-.33S21.21,22.7,21.2,22.76Zm.05-.51h0l-.12.28c0-.21,0-.43,0-.65a2.44,2.44,0,0,0,0-.27c0-.09.09-.18.13-.26C21.3,21.66,21.27,22,21.25,22.25Zm0-1.14,0,0v.05l-.14.27v0c0-.08.05-.16.07-.24Zm.05-.7h0a0,0,0,0,0,0,.07v.05c-.06.16-.12.33-.17.5,0-.11,0-.23,0-.35l.19-.36Zm0-.89v0c0,.22,0,.44,0,.65l-.2.37c0-.13,0-.26,0-.39s.12-.33.17-.5Zm-.12-1.6,0-.07c.05.45.07.9.09,1.35l-.11.32-.15.23c0-.2-.07-.4-.11-.6l.29-.55a0,0,0,0,0-.08,0l-.24.46h0c0-.12.06-.23.1-.35Zm-.81,6.93c0-.1,0-.2-.05-.3a1,1,0,0,1,0-.17s0,0,0,0a2.9,2.9,0,0,0,.12-.42,1.46,1.46,0,0,1,.05-.2C20.48,24.1,20.43,24.48,20.38,24.85Zm.81-7.37c0,.15-.07.31-.11.46l-.3.58-.09-.29c0-.2.09-.4.12-.6h0c.1-.25.21-.51.3-.76C21.15,17.06,21.17,17.27,21.19,17.48Zm-.37,1.17a2.44,2.44,0,0,0,.14-.28v0l-.12.45Zm-.25,1.91c-.12.23-.25.46-.36.69l.18-.53.15-.47C20.56,20.35,20.56,20.46,20.57,20.56Zm-.08-.77c-.22.39-.44.77-.67,1.15.15-.37.3-.76.42-1.14,0-.09.06-.19.09-.28l.09-.14a.36.36,0,0,0,0,.1C20.46,19.58,20.47,19.69,20.49,19.79ZM16.2,7.72l.63.73c.43.51.85,1,1.25,1.53s.74,1,1.1,1.58.73,1,1,1.6a5.39,5.39,0,0,1,.58,1.63c.13.63.22,1.26.3,1.89v0c-.07.2-.15.4-.23.6.05-.32.1-.64.14-1,0,0-.06-.05-.06,0q-.07.63-.21,1.26l-.15.33c-.06-.16-.13-.32-.2-.48l0-.16a.25.25,0,0,0,0-.07c.15-.29.28-.58.41-.88,0-.05-.06-.09-.08,0-.1.22-.2.43-.31.65,0-.2.07-.4.1-.6s-.07-.06-.07,0c0,.28-.09.56-.14.84l-.05.09c-.05-.12-.11-.24-.17-.36a6.53,6.53,0,0,0,.35-.7c.13-.26.24-.53.35-.8a0,0,0,0,0-.06,0,11,11,0,0,1-.68,1.43l0,0,.09-.54c.05-.09.1-.19.14-.28.12-.24.24-.47.34-.71,0-.06-.05-.09-.08,0-.11.25-.23.5-.36.74h0s0-.05-.06,0l0,.18c-.06.12-.13.24-.2.36a3.59,3.59,0,0,0-.17-.34,5.7,5.7,0,0,0,.32-.6,6,6,0,0,0,.27-.63s-.05-.06-.06,0a7.47,7.47,0,0,1-.54,1.1,0,0,0,0,0-.06,0l-.21-.41c.18-.31.35-.63.5-.95,0-.05-.06-.09-.08,0-.15.31-.3.6-.47.89l-.18-.35c.21-.32.43-.62.65-.92a0,0,0,0,0,0-.05c-.22.29-.43.59-.64.89l-.15-.3.59-.72s0-.09-.06-.05c-.2.22-.38.46-.57.69l-.1-.21a1,1,0,0,1-.07-.15c.19-.25.38-.5.56-.76,0,0,0-.07-.05,0l-.54.72c0-.09-.08-.18-.11-.27l.4-.5s0-.1-.07-.05l-.37.45c-.05-.12-.09-.24-.13-.36l.65-.75a0,0,0,1,0-.05,0l-.63.7c0-.14-.09-.28-.12-.42v0l.5-.54s0-.08-.06-.05l-.48.51c0-.11-.06-.23-.08-.34-.14-.65-.25-1.31-.45-1.95A8.26,8.26,0,0,0,16.18,7.7Zm4,10.9c-.07.12-.13.24-.2.35,0-.17.1-.35.14-.53Zm-1.89-1.35a3,3,0,0,0,.32-.39,7.61,7.61,0,0,1-.5,1.53,1.86,1.86,0,0,1-.1.2c-.06-.13-.13-.27-.2-.4l.15-.32c.08-.2.16-.4.22-.6a6.34,6.34,0,0,0,.21-.86l.38-.61a7.86,7.86,0,0,1-.11.83c-.14.19-.28.38-.41.58C18.28,17.27,18.32,17.3,18.34,17.27Zm.15.59a7.6,7.6,0,0,0,.3-1.16l0-.05c.13-.18.26-.37.38-.56l0,.05q-.06.42-.15.84l-.17.21a1,1,0,0,0-.21.26,0,0,0,0,0,0,0,.86.86,0,0,0,.2-.18l.11-.12a12.52,12.52,0,0,1-.5,1.61l-.16.4-.24-.46A8.36,8.36,0,0,0,18.49,17.86Zm.42-2.19.06-.09.18.4c-.1.17-.21.33-.32.49h0A6.82,6.82,0,0,0,18.91,15.67Zm.35.55.15.32c-.08.12-.17.23-.25.34a1.85,1.85,0,0,1,0-.23Zm.19.42c0,.09.08.19.13.28s0,.14,0,.21-.2.31-.31.46-.25.34-.37.52c.1-.34.19-.69.26-1h0C19.24,16.93,19.34,16.79,19.45,16.64Zm-.65,1.65s0,0,.05,0a7.7,7.7,0,0,0,.63-.87c0,.21-.1.42-.15.63l0,0-.25.33c-.09.11-.18.23-.26.35s0,.07,0,.05a3.47,3.47,0,0,0,.4-.46c-.1.31-.21.62-.34.92a3.73,3.73,0,0,1-.16.35.35.35,0,0,1-.12.07h0l-.2-.37A9.48,9.48,0,0,0,18.8,18.29Zm.46.3.15-.5.36-.52a.41.41,0,0,1,.05-.09l0,.08c-.08.35-.18.7-.29,1-.12.19-.24.37-.37.55a1.94,1.94,0,0,1-.26.31C19.05,19.18,19.16,18.88,19.26,18.59Zm.22-.77c.05-.2.1-.41.13-.61l0-.06,0,0c0,.08.07.16.11.25ZM20,16.59l.1-.18c0,.09,0,.19-.05.28Zm-.09,1.09v0a1.19,1.19,0,0,0,.08.2l-.26.43C19.79,18.11,19.85,17.9,19.9,17.68ZM16.12,8.1a.49.49,0,0,0,0-.11,10.22,10.22,0,0,1,1.39,2.39A10.91,10.91,0,0,1,18,12.23c.06.3.12.59.17.89-.11.13-.21.27-.31.41s0,.06,0,0,.2-.23.29-.35c0,.15.07.3.1.45L18,14s0,.08.06,0l.24-.27.11.41c-.18.21-.36.43-.53.65,0,0,0,.09.06,0s.34-.39.5-.59l.1.3c-.24.31-.47.62-.7.94,0,0,0,.07.05,0,.24-.29.46-.59.69-.88,0,.12.09.25.14.37-.19.24-.36.49-.54.75a3.89,3.89,0,0,0,0-.49s-.07-.05-.07,0a4.48,4.48,0,0,1-.07.64l0,0a0,0,0,0,0,0,.05c0,.13,0,.25-.07.38a8.55,8.55,0,0,1-.36,1.08s0,.07.07,0a4.65,4.65,0,0,0,.36-1.07,4.37,4.37,0,0,0,.09-.5l.59-.81.15.35-.07.09,0,0v0c-.12.18-.24.37-.35.56,0-.05,0-.09,0-.13s-.07-.06-.07,0,0,.2-.05.3l-.2.36s.05.07.07,0l.08-.13a4,4,0,0,1-.18.66q-.09.29-.21.57l-.13.27a17.14,17.14,0,0,1-.88-2,10,10,0,0,1-.43-1.67,8.92,8.92,0,0,1-.08-1.93C16.48,11.05,16.75,9.45,16.12,8.1Zm1.13,10.55a12,12,0,0,1-1-1.73c-.06-.14-.12-.28-.17-.42a1.72,1.72,0,0,1-.07-.21l0-.09,0-.09s0,0,0,0a3.93,3.93,0,0,1-.06-.48,2.35,2.35,0,0,1,0-.46,17.72,17.72,0,0,1,.28-2.05,8,8,0,0,0,0,1,9.27,9.27,0,0,0,.33,1.65A19.63,19.63,0,0,0,17.86,19l-.06.12s0,.07.06,0a.21.21,0,0,0,0-.06c.29.6.59,1.21.87,1.82C18.28,20.17,17.75,19.42,17.25,18.65Zm1.48,1.23.11-.22a1.53,1.53,0,0,0,.35-.32l.25-.35c-.07.21-.15.43-.23.64s-.17.46-.27.68Zm.84-1,.06-.19h0L20,18l.09.26c-.07.28-.15.57-.24.85l-.05.14c-.1.17-.21.34-.32.5l-.28.39a.8.8,0,0,1-.2.21A13.41,13.41,0,0,0,19.57,18.88ZM19,20.48c.16,0,.3-.26.38-.38l.29-.42c0,.09-.07.19-.1.29a1.9,1.9,0,0,1-.48.71Zm.24.51c0-.09-.08-.17-.13-.26a1.15,1.15,0,0,0,.48-.56,5.69,5.69,0,0,0,.29-.82h0l.34-.59c0,.12.07.25.1.37s-.07.21-.1.31c-.17.28-.33.56-.51.83s-.33.48-.48.73Zm0,.06s.05,0,.06,0a7.49,7.49,0,0,0,.45-.65l.3-.47c-.1.26-.19.52-.3.78s-.22.5-.33.74Zm.45,1.07c-.07-.17-.13-.35-.21-.52.24-.35.45-.72.66-1.09l.32-.57v0c-.17.54-.35,1.08-.55,1.61Zm.1.27,0-.08c0-.06.05-.13.08-.2s0,0,0,0c.11-.19.18-.39.27-.58l.28-.57.11-.19c0,.15,0,.3,0,.46l-.3.84,0,.06c-.11.22-.23.43-.33.65Zm.2.67s0,0,0,0l.06-.09a.36.36,0,0,0,0-.11l.08-.21.15-.44,0-.08.2-.38c0,.3,0,.61,0,.91l-.1.25c-.05.12-.09.25-.13.37a1.27,1.27,0,0,0-.1.37s.06.05.08,0a1.55,1.55,0,0,0,.13-.36l.1-.28v0l-.09.32c0,.16-.08.32-.13.48s-.06.21-.08.32c0-.05,0-.09,0-.14C20.2,23.7,20.13,23.37,20,23.06ZM20,25.86l-.2.18-.07.06,0,0,.06-.35Zm-.49-.25.13.07-.06.39h-.31c0-.18,0-.36.07-.54Zm-.77-.37.52.25-.09.56A1.65,1.65,0,0,1,18.8,26q0-.3.09-.6c0-.06-.07-.07-.09,0s-.07.39-.1.58l-.1,0c0-.05,0-.1,0-.16l0-.55Zm.06,1.18h0l.3.07v0l0,.12a2.62,2.62,0,0,1-.34.24s0-.05,0-.07l0,0C18.73,26.66,18.73,26.54,18.75,26.42Zm-.19.26-.08-.05a0,0,0,0,0,0,0,2,2,0,0,0,.06-.26l.09,0v.05a1.51,1.51,0,0,0,0,.3Zm-.14,1.09-.11.12v-.07ZM18.2,28s.05.08.08,0a1.69,1.69,0,0,1,.28-.32l0,.08c-.2.21-.4.42-.62.62l0,0a.43.43,0,0,0,0-.05l0-.11,0,0,.29-.37S18.21,28,18.2,28Zm.2-1.45-.29-.16v0l0-.2.3.12A2.56,2.56,0,0,0,18.4,26.58Zm-.27,1.31-.2.25v0L18,28Zm.45-2.71c0,.19,0,.39,0,.58a.68.68,0,0,0,0,.14l-.3-.1v0c0-.24.05-.49.06-.74ZM17.15,26l-1-.47c-.41-.17-.81-.32-1.23-.47l-.45-.18c.27.07.55.16.8.24.48.16,1,.33,1.43.51l.5.2A1,1,0,0,1,17.15,26Zm0-.49c0-.26,0-.52,0-.78,0,0-.06,0-.06,0,0,.25,0,.5,0,.75l-.39-.14-.08,0s0,0,0,0l-.05-.15s0,0,0,0,0,0,0,0l0,.14-1.27-.49a3.94,3.94,0,0,0-1.42-.34,1.8,1.8,0,0,0-1,.26,2.67,2.67,0,0,1,.32-.76l.09,0a2.86,2.86,0,0,1,1.3-.15A6,6,0,0,1,15.9,24a14.61,14.61,0,0,1,1.43.56h0a7.19,7.19,0,0,1-.09.91Zm.2.59L17.23,26h0a1,1,0,0,1,0-.17l.17.08a1.1,1.1,0,0,1,0,.18Zm.32.15-.17-.08,0-.19.17.07Zm.09-.55-.19-.06v-.07c0-.21,0-.42,0-.63,0,0-.08,0-.08,0q0,.32,0,.63v0l-.17-.05a5.62,5.62,0,0,0,.05-.92l.5.24q0,.38-.09.75S17.77,25.64,17.77,25.66Zm.4-.68c0,.26,0,.51-.06.76v0l-.24-.08a.17.17,0,0,1,0-.07q0-.37.06-.75Zm-.39,1.28,0-.21.24.1c0,.07,0,.13,0,.2v0Zm0,1.74v.08l0,.26c-.09.11-.18.21-.26.32,0-.14,0-.27,0-.41s0-.1,0-.16Zm-.09.62-.19.16a2.43,2.43,0,0,1,.2-.25A.28.28,0,0,0,17.73,28.62Zm-.42-.44-.19.23c0-.06,0-.12,0-.18Zm-.26.68c0-.09,0-.17,0-.25l.36-.45a.38.38,0,0,0,0,.1c0,.2-.06.39-.09.58s-.13.15-.19.22l-.17.12Zm-.37.07c0-.15.06-.31.08-.46l.17-.18.09,0c0,.11,0,.22-.05.33Zm.26-.14v0l-.09.45-.3.2.09-.32C16.73,29,16.83,28.91,16.94,28.79Zm.13-1-.29.09v-.09Zm-2,8.88-.24.19-.12.1s0-.1,0-.16l.12-.25.05,0,.27-.19Zm-.08.7a1.62,1.62,0,0,0,0,.19l0,0s0-.05,0-.08Zm0-3.76.24-.32-.16.36-.08.11-.1.06A2,2,0,0,0,14.93,33.58Zm-.09-.23v0l.15-.17h0Zm.69-1.42h0a0,0,0,0,0,0,0l0,.1-.05.11h0l-.27.37h0a1.54,1.54,0,0,1,.08-.19,5.45,5.45,0,0,1,.39-.66C15.58,31.79,15.56,31.86,15.53,31.93Zm-.36,3v.11l-.13.08A2.14,2.14,0,0,1,15.17,35Zm.05-1.65c0,.08,0,.16,0,.24h0l-.06,0Zm0-.46,0-.12,0,0s0,.08,0,.11l0,0Zm-.06.93c0,.09,0,.18,0,.27l-.31.2Zm0,1.43L15,35.7l-.06,0-.23.17.06-.2,0-.08.16-.26Zm-.2,1.07c.09-.16.17-.32.27-.48a2.81,2.81,0,0,0,0,.29Zm1.08-6-.33.31,0,0h0a2.75,2.75,0,0,0,.2-.38l.34-.19-.05.11Zm.12-.55.31-.35c0,.07-.05.14-.07.21Zm0-.13c.06-.19.12-.39.16-.58l.3-.33.07-.07c0,.16-.06.32-.1.48v0Zm.55-1.13-.36.37c0-.12,0-.23.05-.34l.07-.06.25-.06S16.65,28.42,16.65,28.45Zm-.23-.69h.29s0,.07,0,.11l-.33.09v-.19ZM16.14,29l-.36.38a4.15,4.15,0,0,0,.11-.48l.06-.05.26-.23C16.19,28.72,16.17,28.84,16.14,29Zm-.22-.25,0-.19.25-.06Zm.35-.95a1.62,1.62,0,0,1,0,.22l-.27.07a2.62,2.62,0,0,0,0-.28Zm-.18,1.4a3.79,3.79,0,0,1-.21.65l0,.05-.28.14a2.09,2.09,0,0,0,.08-.23,1.46,1.46,0,0,0,.07-.19Zm-1.17,1.12-.11,0c.09-.2.17-.4.25-.61s.47-.5.71-.73c0,.18-.09.35-.14.53C15.39,29.77,15.16,30,14.92,30.29Zm.61-.5-.12.29-.24.1.2-.22Zm-1,.33a3.39,3.39,0,0,0-.33.42h0a5.19,5.19,0,0,0,.49-1s0-.09.05-.13a5.44,5.44,0,0,1,.42-.41,6.4,6.4,0,0,1-.2.62C14.83,29.81,14.69,30,14.57,30.12Zm.28-.16c0,.07-.06.15-.1.23l-.09.2-.24.09C14.56,30.3,14.7,30.13,14.85,30Zm-.69-.16h0l-.11.24a0,0,0,1,0,.09,0,4.93,4.93,0,0,0,.22-.53l.38-.39s0,.05,0,.08l-.07.19a6,6,0,0,0-.5.63,5.39,5.39,0,0,0-.3.52c0,.05,0,.07.07,0a5.7,5.7,0,0,1,.62-.92,8.82,8.82,0,0,1-.48.91l-.5.14A7,7,0,0,1,14.16,29.8Zm-.67,1-.52.11a11.55,11.55,0,0,1-1.2.18A4.88,4.88,0,0,0,13.56,30c.26-.26.48-.56.75-.81l.09-.06a4.58,4.58,0,0,1-.15.49l-.15.18A3.83,3.83,0,0,0,13.49,30.76Zm.93-1.38a2.79,2.79,0,0,0,.1-.39,2.16,2.16,0,0,1,.34-.17c0,.07,0,.14-.07.21S14.54,29.26,14.42,29.38Zm1.51-1.6c0,.1,0,.2,0,.3l-.5.14,0-.41Zm-.33.83-.29.21,0-.14Zm-.31.32a3.79,3.79,0,0,1,.45-.34h0l.11,0a2.56,2.56,0,0,1,0,.27c-.23.21-.46.43-.67.66Zm.07-1.11c0,.14,0,.28,0,.43a1.14,1.14,0,0,0-.26.09c0-.17,0-.34.07-.5ZM15,28.88l-.06.05a.74.74,0,0,0,0-.14l.28-.09c0,.08,0,.15,0,.22s-.26.22-.38.34c0-.07,0-.14.07-.22l.13-.11S15,28.85,15,28.88Zm-.27-1,.35,0c0,.18-.05.36-.08.53a2.75,2.75,0,0,0-.38.2,4.63,4.63,0,0,0,0-.65,0,0,0,0,0,0,0Zm-1.6,1.74a5.27,5.27,0,0,0,.78-1c.06-.09.11-.18.16-.27a1.18,1.18,0,0,1,.15-.25.3.3,0,0,1,.18-.13l.19,0s0,0,0,0a3.49,3.49,0,0,1,0,.72l0,0a5.24,5.24,0,0,0-.75.74,4.8,4.8,0,0,1-1.56,1.2,3.61,3.61,0,0,1-.62.24A7,7,0,0,0,13.1,29.61Zm1.73,1.52a0,0,0,0,0,0,0h0l-.08,0-.16.08a3.61,3.61,0,0,1-.62.24,2.52,2.52,0,0,1-.6.14,4.21,4.21,0,0,1-1.41-.09l-.53-.12a10.4,10.4,0,0,0,3-.61h0a2.91,2.91,0,0,0-.26.33s0,.1.06.06a5.12,5.12,0,0,0,.44-.49l.52-.22,0,0a5.36,5.36,0,0,0-.4.43,0,0,0,0,0,.06.06l.09-.08Zm.25-.13-.08.05c.08-.11.16-.23.23-.35l.18-.2.1-.1.14-.08c-.08.16-.17.32-.26.48Zm-.56,4h0s0-.09,0-.13l.15-.34.08-.11,0-.06s0,0,0,0l.3-.18,0,.07-.49.68Zm-.09,1.7.06-.22.12-.41.28-.19a5.86,5.86,0,0,0-.42.78Zm0,.86a.64.64,0,0,0,0,.07v-.26h.07C14.42,37.42,14.41,37.49,14.39,37.56Zm.18,1a2.58,2.58,0,0,0-.08.26l0-.15c0-.06,0-.11,0-.16a3.16,3.16,0,0,0,.22-.5c0,.15-.05.3-.08.45S14.57,38.52,14.57,38.55Zm.24-1.39c-.11.23-.22.46-.32.69L14.4,38c0-.12,0-.23.08-.35s.08-.34.13-.51.22-.2.34-.29C14.9,37,14.85,37.06,14.81,37.16Zm0,.68c0-.05,0-.1,0-.14l.05,0a.77.77,0,0,0,0,.15,2.14,2.14,0,0,0-.1.22Zm0,1.15c-.05.22-.1.44-.13.66a.14.14,0,0,1,0-.06l-.06-.18.09-.36c.06-.2.11-.39.18-.58l0,0a.65.65,0,0,0,0,.13A3.17,3.17,0,0,0,14.84,39Zm.29-2.08h0c0-.09.07-.18.11-.27v.19A.41.41,0,0,0,15.13,36.91ZM14.93,39l.09-.34s0,0,0,.05Zm.61.37s0,0,0,.06l0,.16c-.06.2-.11.39-.15.59s-.06.35-.08.52a2.33,2.33,0,0,1-.17-.26v-.15c0-.15,0-.29,0-.44a4.56,4.56,0,0,1,.2-.81.68.68,0,0,0,.27.13.11.11,0,0,0,0,0A.88.88,0,0,0,15.54,39.4Zm.17-.64a.19.19,0,0,1,0,.07h0a.69.69,0,0,1-.13-.11,1.06,1.06,0,0,1-.26-.59,1.55,1.55,0,0,1,0-.22l.09-.21a.05.05,0,0,0-.07-.06.28.28,0,0,1,0-.09.41.41,0,0,1,0-.09.15.15,0,0,0,.13,0,1.78,1.78,0,0,1,.12.29,2.15,2.15,0,0,1,.13.75,1.09,1.09,0,0,1,0,.18A.29.29,0,0,1,15.71,38.76Zm0,1.68c0,.17-.07.34-.1.51l0,.22-.1-.11a.13.13,0,0,0,.11-.1,8.11,8.11,0,0,1,.13-1.47.09.09,0,0,0-.08-.11v0h0l.29.25C15.84,39.87,15.76,40.16,15.7,40.44Zm.37.36-.09.53,0,.22a2.44,2.44,0,0,1-.28-.25v-.06c0-.09,0-.17,0-.26s.06-.33.09-.49.13-.54.21-.81l.19.21C16.16,40.19,16.11,40.5,16.07,40.8Zm.07.86v.05l-.09-.07a2.7,2.7,0,0,1,0-.28l.07-.55.12-.84.25.3,0,0c-.09.3-.18.61-.25.91C16.21,41.36,16.17,41.51,16.14,41.66Zm.12.05c0-.15.06-.31.09-.46s.15-.6.24-.89a2.2,2.2,0,0,1,.17.25q-.12.38-.21.78c0,.18-.07.37-.1.55a3.19,3.19,0,0,0-.06.53l-.08-.1a.34.34,0,0,0,.05-.41,1,1,0,0,0-.12-.15Zm.49.24c0,.19-.07.38-.1.58a1.64,1.64,0,0,0,0,.23l-.18-.22s0,0,0,0c0-.18.06-.37.09-.55s.06-.36.1-.55a6.62,6.62,0,0,1,.17-.71c.06.1.12.2.17.3C16.9,41.31,16.82,41.63,16.75,42Zm.32-.83.18.36c-.05.3-.09.59-.14.89L17,42.9c0,.09,0,.18-.05.27a.13.13,0,0,1,0,.06L16.8,43l-.08-.1c0-.11,0-.23,0-.35s.06-.38.1-.56S17,41.41,17.07,41.12Zm-.25,2.63a1.49,1.49,0,0,1-.41-.38,1.4,1.4,0,0,1-.27-.61c.13.17.28.33.43.49s.34.4.51.61A1.45,1.45,0,0,1,16.82,43.75Zm.25-.41c0-.05,0-.1,0-.14a2.51,2.51,0,0,0,0-.27l.08-.55c0-.25.07-.51.11-.76a.54.54,0,0,0,.05.11l.09.22c-.06.3-.11.6-.15.91s-.05.46-.06.69Zm.27.34c0-.27,0-.55.07-.82s.07-.49.12-.73l.15.33-.12,1.27,0,.18C17.47,43.83,17.41,43.75,17.34,43.68Zm.62.74-.33-.4V44c0-.17,0-.34,0-.51s0-.57.08-.85a5.09,5.09,0,0,0,.3.5v0h0a.13.13,0,0,0-.15.12,4.68,4.68,0,0,0,0,.65,2.39,2.39,0,0,0,.1.52Zm.47.54-.11-.13-.24-.27a.12.12,0,0,0,.15-.12,1.94,1.94,0,0,0,0-.24,1,1,0,0,1,.09-.13.35.35,0,0,1,.05-.08,2,2,0,0,0,0,.42,1.23,1.23,0,0,0,0,.2l-.09.08a0,0,0,0,0,.06.06.1.1,0,0,0,.05,0s0,.11,0,.16l0,.06Zm-.25-1.7.25.32a1.17,1.17,0,0,1-.05.2c-.05.08-.11.15-.17.23l0,.05V44A3.56,3.56,0,0,0,18.18,43.26Zm.43,1.12a2.41,2.41,0,0,1,0-.6l.23.25a0,0,0,0,0,0,0c0,.06,0,.13,0,.19l-.08.07-.11.09Zm0,.14.16-.14h0a1.34,1.34,0,0,1,0,.2l0,0-.08.09C18.66,44.63,18.64,44.58,18.63,44.52Zm.15.47a1.46,1.46,0,0,1-.07-.19l.07-.08a1.7,1.7,0,0,1,0,.22V45Zm-.05.3h0a.11.11,0,0,0,.09-.09h0l0,.16v0Zm.35-.81.1-.07.09.1-.19.13Zm0,.44a.76.76,0,0,1,0-.15,1.24,1.24,0,0,1,.22-.18,1.93,1.93,0,0,0,0,.34.43.43,0,0,0-.12.11l-.07.07A1.23,1.23,0,0,1,19.1,44.92Zm.1.63a1.42,1.42,0,0,0-.05-.22.15.15,0,0,0,0-.07.86.86,0,0,1,.13-.14l0,0c0,.12,0,.23,0,.34h0l-.1.1Zm.14.24a.1.1,0,0,0,0,.05l-.09-.07a0,0,0,0,0,0,0v-.05l.08-.09.05-.06,0,.19Zm.19-.91.06,0a2.09,2.09,0,0,0,.22.2l-.24.18C19.55,45.11,19.54,45,19.53,44.88Zm.06.52a.22.22,0,0,0,0-.08,3.15,3.15,0,0,1,.29-.22l0,0a.16.16,0,0,0-.05.11v0a2.73,2.73,0,0,0-.25.23A.29.29,0,0,0,19.59,45.4Zm.05.22.22-.21c0,.07,0,.14,0,.2l0,0a1.37,1.37,0,0,0-.17.17C19.67,45.74,19.65,45.68,19.64,45.62Zm.07.32a1.63,1.63,0,0,1,.17-.2l0,.28-.12.17C19.76,46.1,19.74,46,19.71,45.94Zm.21.43-.07-.06.09-.13a1.55,1.55,0,0,0,0,.23Zm.21-1.06a.35.35,0,0,0,.09.07l-.09,0Zm0,.22.15-.1.15.11-.28.22A1.79,1.79,0,0,1,20.14,45.53Zm.07.58,0-.22a2.55,2.55,0,0,1,.3-.26v.28l-.1.1-.15.17S20.22,46.13,20.21,46.11Zm.2.58h0l0,0-.06-.16a1.8,1.8,0,0,0,0-.19l.2-.25,0,0c0,.15,0,.29,0,.44v0A1.83,1.83,0,0,0,20.41,46.69Zm.1.07.06-.07a.5.5,0,0,0,0,.12Zm.22-.83a.31.31,0,0,1,0-.1l.09-.06.08,0a1.67,1.67,0,0,1,.24.16.14.14,0,0,0-.12.07h0l-.24.22C20.75,46.16,20.74,46.05,20.73,45.93Zm.07.53v0l.18-.17a.75.75,0,0,0,0,.21l-.13.13A.68.68,0,0,1,20.8,46.46Zm.18.48-.05.06h0l-.06-.24.1-.12a2,2,0,0,0,0,.26.06.06,0,0,1,0,0Zm.3-.11.17-.12c.06,0,0-.13-.07-.09a1.1,1.1,0,0,0-.14.09,1.37,1.37,0,0,1,0-.35l.13-.1a.66.66,0,0,1,0,.15,1.45,1.45,0,0,0,.1.25l.06.19s0,0,0,0a.8.8,0,0,0-.21.15A1.8,1.8,0,0,1,21.28,46.83Zm0-.6s0,0,0-.06a.11.11,0,0,0,0-.05l.05.05h0Zm.23,1a.61.61,0,0,1-.07-.1A.61.61,0,0,1,21.6,47a2.24,2.24,0,0,0,.13.27l.07.11Zm.37-1a1.42,1.42,0,0,1,.29.1,4.88,4.88,0,0,1,.66.29,1.56,1.56,0,0,1,.28.16l.09.07,0,.06h-.15a.13.13,0,0,0-.14-.06l-.06,0-.1,0a1.58,1.58,0,0,1-.37-.11.15.15,0,0,0-.16-.09h0l-.08,0a1.07,1.07,0,0,1-.22-.15A.49.49,0,0,1,21.85,46.2Zm.34,1.24v0a.36.36,0,0,0-.1-.18L22,47.09a.41.41,0,0,1-.05-.09l.23.1a1.08,1.08,0,0,0,.08.19l.12.18Zm.59.09h0a.14.14,0,0,0,0-.06l0-.06h0c.06,0,.08-.1,0-.11a.06.06,0,0,0-.06.06v0h0l-.07-.08a2.2,2.2,0,0,0,.37.06,1.07,1.07,0,0,0,.16.25Zm1.31,0h-.65a.36.36,0,0,0,0-.09l-.1-.13,0-.05a.41.41,0,0,0,.24-.11h0l0,0a.16.16,0,0,0,.12.21.15.15,0,0,0,.16-.1,6.14,6.14,0,0,0,.73.22ZM32.15,49l-.18-.1s0,0,0,0l.11.06a6,6,0,0,1-.84-.08,7.13,7.13,0,0,1-1-.26l.65.11a10.43,10.43,0,0,0,1.76.13l.12.08Zm.7,0-.13-.08.54,0,.24,0,.1.07Zm.9-.06h0l-.1-.06.56,0,.16.08Zm.77,0a.85.85,0,0,1-.22-.09l.42,0,.18.13Zm.57,0h0l-.2-.12.59-.07a1.71,1.71,0,0,0,.23.13l.15.07Zm1.43,0h-.19l-.26,0a1.82,1.82,0,0,1-.37-.13l-.16-.08.51-.06.31.18.17.11Zm.14,0-.25-.15-.2-.11.41,0a2.75,2.75,0,0,0,.26.22Zm.31-.1-.24-.2h.5l.13.1-.38.11Zm.82.3L37.36,49l-.09,0,0,0,.37-.08.08.05.19.13Zm-.4-.51h.3l-.21.06ZM38,49l-.28-.17h0l.3-.08.22.19Zm.1-.27.3-.08.19,0,.16.13-.42.11A2.11,2.11,0,0,1,38.12,48.7Zm.22.42.15,0,.13.07Zm.55.07-.21-.1-.06,0L39,49l.15.12Zm.39-.14-.14-.11.19,0h0l.12.11Zm.12-.21h0l.31.09-.16,0Zm.21.49h0a.12.12,0,0,0,.09-.08l.1,0,.06,0Zm.26-.13a2.47,2.47,0,0,0,.36-.11l.15,0a3.58,3.58,0,0,0-.45.09Zm1,.24-.31.11-.08,0-.28-.13a4.52,4.52,0,0,1,.53-.06l0,0,.13.08Zm.16,0-.16-.09.24.07Zm.4.4-.07,0L41,49.67l.21-.05,0,0,.24.13Zm.23-.08h0l-.08,0-.18-.1.2,0,0,0,.17.15Zm.45.25a.1.1,0,0,0,0,0l-.23-.08.18,0,0,0,.09.06Zm.15,0-.12-.09a1.14,1.14,0,0,0,.26-.09l.09,0,0,.05Zm.49.3,0,0-.15-.09.16-.06.09,0,.15.11ZM43,50h0l.14,0,.24,0-.26.11Zm.51.5-.35-.12.16,0,0,0,.19.1A.1.1,0,0,0,43.47,50.48Zm.2-.09-.25-.12.07,0,.32-.11.11,0,.45.09-.16.05Zm1.47.5-.23,0,.26-.08h0A.23.23,0,0,0,45.14,50.89Zm-.07-.4-.67.22s0,0,0,0l-.18-.07.14,0a2.9,2.9,0,0,0,.66-.25h0l.38.07Zm1.22.48h-.2l-.4,0,.3-.1.29-.07a.59.59,0,0,0,.34-.15s0,0,0-.05l.3,0Zm.86-.23a.12.12,0,0,0,0-.1h.14Zm1,0h0l-.48.1.23-.15h.35Zm1.48-1.28h0a.4.4,0,0,1-.13-.13l-.29-.48a6.22,6.22,0,0,0-.69-.93,2.21,2.21,0,0,0-1.75-.76,1.47,1.47,0,0,0-.74.26,3.66,3.66,0,0,0-1.63-1.53,2,2,0,0,0-2.28.32,1.54,1.54,0,0,0-.37.73A7.92,7.92,0,0,0,40,45.26a1.62,1.62,0,0,0-1.22-.09,1.19,1.19,0,0,0-.64.48,2.87,2.87,0,0,0-1.54-1.47,1.51,1.51,0,0,0-1.26.21,1.33,1.33,0,0,0-.31-.67c-.09-.1-.19-.19-.28-.28a2.85,2.85,0,0,0-.32-.27.72.72,0,0,0-.66-.13.06.06,0,1,0,.05.11c.23-.08.44.09.6.25a2.81,2.81,0,0,1,.41.55,1.33,1.33,0,0,1,.16.62c0,.23,0,.45-.07.68a.17.17,0,0,0,.34.06,2.16,2.16,0,0,0,.09-.62,1.23,1.23,0,0,1,1.26-.26A2.94,2.94,0,0,1,38,46c0,.11.24.15.29,0a1,1,0,0,1,.7-.6,1.51,1.51,0,0,1,1.09.23c.74.45,1.15,1.24,1.8,1.8a.2.2,0,0,0,.31-.17,1.26,1.26,0,0,1,1-1.34,2.27,2.27,0,0,1,2.06.74,3.13,3.13,0,0,1,.63,1,.18.18,0,0,0,.31,0,1.38,1.38,0,0,1,1.65-.07,4.49,4.49,0,0,1,1.35,1.75,1.18,1.18,0,0,0,.22.28l-.42.37a3.88,3.88,0,0,1-1.27.14A18.8,18.8,0,0,1,45.43,50c-.45-.07-.9-.15-1.34-.24h0c-1.18-.24-2.36-.52-3.51-.87l-.66-.2,0,0h-.06a9.26,9.26,0,0,0-1.56-.35,10.39,10.39,0,0,0-2.23,0c-.72.07-1.43.18-2.15.25h0s0,0,0,0l-.51,0,0,0s-.06,0-.06,0a10.17,10.17,0,0,1-1.83,0A25.63,25.63,0,0,1,28.65,48L28.28,48a8.17,8.17,0,0,0-1.7-.36L26,47.47a.15.15,0,0,0-.07,0c-.37-.08-.75-.11-1.12-.19a6.6,6.6,0,0,1-1.09-.35h-.06a.7.7,0,0,0-.33-.47,5.33,5.33,0,0,0-.83-.41L22,45.87a.72.72,0,0,0-.35-.06,2,2,0,0,0-.61-.49,10,10,0,0,1-2-1.7,9.76,9.76,0,0,1-.91-1,3.53,3.53,0,0,1-.35-.59c-.09-.21-.17-.42-.25-.63a5.92,5.92,0,0,0-1.62-2.3.42.42,0,0,0,.09-.27,3.37,3.37,0,0,0-.09-1,2.49,2.49,0,0,0-.3-.71,12.92,12.92,0,0,1,1.25-.71c.05,0,0-.11,0-.09a14.25,14.25,0,0,0-1.27.71h0c0-.21,0-.42,0-.63a5.4,5.4,0,0,1,.79-.41,4.8,4.8,0,0,1,.63-.24.06.06,0,0,0,0-.11,7.07,7.07,0,0,0-1.38.61V36a10.39,10.39,0,0,1,1.28-.67l.8-.29c.06,0,0-.1,0-.08a9,9,0,0,0-2,.9l0-.07a.06.06,0,0,0,0-.09v-.25A9.81,9.81,0,0,1,16.69,35q.36-.14.72-.24c.07,0,0-.12,0-.1a8.73,8.73,0,0,0-1.82.75v0a.61.61,0,0,1,.07-.1.1.1,0,0,0-.07-.15V35a10.2,10.2,0,0,1,1.3-.6c.25-.1.51-.19.77-.27,0,0,0-.08,0-.07a11.6,11.6,0,0,0-2,.82v-.32c.4-.21.8-.4,1.2-.59l.74-.33a.05.05,0,1,0,0-.1c-.65.28-1.28.57-1.9.89,0-.17,0-.33,0-.5l.51-.26a10.17,10.17,0,0,1,1.29-.51,6.77,6.77,0,0,1,.77-.22c.05,0,0-.09,0-.08a10.46,10.46,0,0,0-2.55,1l0-.36a10,10,0,0,1,1.43-.6c.22-.08.44-.14.66-.2.06,0,0-.1,0-.09a11.22,11.22,0,0,0-2.05.77s0-.05,0-.08l.06-.13a.05.05,0,0,0,0-.07,2.34,2.34,0,0,0,0-.26c.46-.2.92-.38,1.39-.54l.71-.22c.05,0,0-.08,0-.06a15.24,15.24,0,0,0-2.06.72c0-.11,0-.21.07-.32.24-.1.48-.21.72-.3.45-.19.91-.36,1.37-.52.06,0,0-.11,0-.09-.46.16-.91.33-1.36.51l-.66.27c0-.15.09-.29.14-.44a8.85,8.85,0,0,1,2-.53s0-.06,0-.05a8,8,0,0,0-2,.5l.14-.32a3.63,3.63,0,0,1,1.4-.47c.05,0,0-.08,0-.07a3.67,3.67,0,0,0-1.34.41l0,0a2.57,2.57,0,0,1,1.08-.48,2.12,2.12,0,0,1,1.66.37,1.45,1.45,0,0,1,.32,1.58,14.77,14.77,0,0,1-.8,1.77c-.17.38-.38.75-.57,1.12l-.62,1.15a.11.11,0,0,0,.17.14,11.45,11.45,0,0,1,1.95-1.12,6.45,6.45,0,0,1,1.93-.59,1.9,1.9,0,0,1,1.6.46,1.84,1.84,0,0,1,.29,1.56c0,.33-.1.66-.13,1a3.64,3.64,0,0,0,.06,1c0,.16.27.27.39.11.25-.38.57-.91,1.06-1s.79.22.7.62c-.05.19.28.29.35.1a.43.43,0,0,1,.51-.25.67.67,0,0,1,.56.45,2,2,0,0,1,0,1.07c-.07.44-.17.87-.26,1.31s-.22,1.05-.31,1.58a.26.26,0,1,0,.51.08,3,3,0,0,1,2.16-2.08.09.09,0,0,0,.08.06,1,1,0,0,1,1,.88.14.14,0,0,0,.26,0c.16-.25.52-.17.7,0a1.09,1.09,0,0,1,.24.82,19.3,19.3,0,0,0,0,2.28.2.2,0,0,0,.39.06A12.94,12.94,0,0,0,32.21,44a.07.07,0,0,0-.11-.07,9.72,9.72,0,0,0-.7.86c0-.31,0-.62,0-.93a3.7,3.7,0,0,0-.1-1.1A1.1,1.1,0,0,0,30.7,42a.79.79,0,0,0-.62,0,1.16,1.16,0,0,0-.85-.77l.11,0c.19,0,.15-.31,0-.3a3.55,3.55,0,0,0-2.43,1.21l.06-.34c.09-.5.2-1,.25-1.5A2,2,0,0,0,27,39a1,1,0,0,0-.8-.49.93.93,0,0,0-.57.11,1.11,1.11,0,0,0-.9-.53,1.54,1.54,0,0,0-1.11.56c0-.12,0-.24,0-.35,0-.33.08-.65.11-1a2.56,2.56,0,0,0-.41-1.77c-.9-1.14-2.62-.57-3.72-.11a10.53,10.53,0,0,0-1.9,1c.32-.61.65-1.22,1-1.8a6.3,6.3,0,0,0,.92-1.92,1.63,1.63,0,0,0-.48-1.66,2.36,2.36,0,0,0-1.74-.51,3,3,0,0,0-.73.17l.24-.21c.76-.72,1.49-1.49,2.19-2.26.41-.46.8-.93,1.17-1.42l.53-.75a5.13,5.13,0,0,0,.41-.72,9.27,9.27,0,0,0,1.3-1.69c.27-.48.49-1,.74-1.46A9.78,9.78,0,0,1,24.07,21a9.57,9.57,0,0,0,1.57-2.37h0a.25.25,0,0,0,.22-.08,2.26,2.26,0,0,1,.82-.59h0c.44,0,.88,0,1.31,0a1.83,1.83,0,0,0-.76.46,4.29,4.29,0,0,0-1,1.57,2.57,2.57,0,0,0,0,1.87,1.17,1.17,0,0,0,1.36.78,2.25,2.25,0,0,0,.91-.65,2.06,2.06,0,0,0-.09,1,2,2,0,0,0,.89,1.31,2.09,2.09,0,0,0,1.65.27,6.24,6.24,0,0,0,1.73-.82c.29-.18.58-.36.85-.56a5.77,5.77,0,0,0-.22.58,2.55,2.55,0,0,0,.26,2.43,1.43,1.43,0,0,0,1,.49l-.07.12a.79.79,0,0,0-.09.23.59.59,0,0,0,.07.48,1.46,1.46,0,0,0,.88.54,2.55,2.55,0,0,0,1.42,0,1.23,1.23,0,0,0-.27.63,1.21,1.21,0,0,0,.58,1.18,3.16,3.16,0,0,0,1.41.41,14.54,14.54,0,0,0,2,0l.71-.05-.2.19a6.15,6.15,0,0,0-1.19,1.5,2.22,2.22,0,0,0-.15,1.73,2.1,2.1,0,0,0,1.13,1.12,3.16,3.16,0,0,0,1,.25,2.55,2.55,0,0,0,.39,0,1.29,1.29,0,0,0-.39.56,1.1,1.1,0,0,0,.4,1.25.83.83,0,0,0,.32.14c.08,0,.29,0,.3.08s0,.11-.06.15a1.34,1.34,0,0,0-.07.18,1.1,1.1,0,0,0,0,.36,1.42,1.42,0,0,0,.78,1.14,1.92,1.92,0,0,0,1,.19.85.85,0,0,0-.09.31,1.36,1.36,0,0,0,1,1.32,1.83,1.83,0,0,0,.56.13,2.25,2.25,0,0,0,.58,0,.06.06,0,0,0,0-.12c-.17,0-.35-.06-.52-.1a3.1,3.1,0,0,1-.52-.15,1.35,1.35,0,0,1-.67-.6.8.8,0,0,1,0-.79l0,0a5.2,5.2,0,0,0,.68-.17c.24-.08.09-.44-.14-.36l-.19.05-.16,0a2,2,0,0,1-1.17,0,1.13,1.13,0,0,1-.76-.91c0-.22.09-.38.14-.59a.37.37,0,0,0-.35-.44.78.78,0,0,1-.49-.23.91.91,0,0,1-.21-.54.92.92,0,0,1,.26-.63,1.17,1.17,0,0,1,.31-.25A1.1,1.1,0,0,0,43,35a.19.19,0,0,0,.1-.08.19.19,0,0,0,.28.08s0-.12-.05-.09-.11,0-.13-.07,0-.13,0-.19a1.66,1.66,0,0,1,.21-.16l.23-.18.94-.71a.06.06,0,0,0-.08-.1l-1.18.89a.72.72,0,0,0-.3.3l0,0a2.9,2.9,0,0,0-.93-.06,4.63,4.63,0,0,1-.91-.12,2,2,0,0,1-1.14-.74c-.69-1,.24-2.16.91-2.88a3.47,3.47,0,0,1,.72-.65,5.15,5.15,0,0,0,1-.18c.21-.07.12-.37-.09-.36s-.59.11-.88.15l-.86.1a16.84,16.84,0,0,1-1.74,0,5.52,5.52,0,0,1-1.46-.19,1.15,1.15,0,0,1-.84-.78,1,1,0,0,1,.57-1.07.11.11,0,0,0,0-.2c.14-.13,0-.4-.17-.3a2.52,2.52,0,0,1-1.74.27,1.09,1.09,0,0,1-.7-.38c-.07-.11,0-.22,0-.33a.79.79,0,0,0,.08-.45.18.18,0,0,0-.19-.16,1.14,1.14,0,0,1-.93-.62,2.12,2.12,0,0,1-.12-1.34,5,5,0,0,1,.72-1.84l.11-.09a.14.14,0,0,0,0-.13,5.45,5.45,0,0,1,.38-.46c.11-.11,0-.3-.18-.25A6.17,6.17,0,0,0,34.8,21c0-.24.05-.47.07-.71,0-.45.05-.9.07-1.35l.73.27.92.33a8.61,8.61,0,0,0-.11,2.21,3.38,3.38,0,0,0,.1.71c0,.06.1.05.09,0,0-.26-.07-.53-.09-.79a7.3,7.3,0,0,1,0-.81,7.81,7.81,0,0,1,.11-1.28l.3.11a8.4,8.4,0,0,1,.94.38.9.9,0,0,0,.13.28s.07,0,.06,0a1.21,1.21,0,0,0-.05-.18l.08,0A5.76,5.76,0,0,1,39.87,22l.64.87a1.76,1.76,0,0,1-.45.72c-.21.24-.43.48-.65.71-.45.46-.91.9-1.39,1.33-.27.24-.55.47-.82.72,0,0,0,.1,0,.07a9.84,9.84,0,0,0,.78-.64c.24-.21.47-.43.7-.66a18.38,18.38,0,0,0,1.36-1.43,2,2,0,0,0,.46-.76l.56.75a33,33,0,0,1-2.54,2.75l-.39.38-.2.18L37.9,27a1.09,1.09,0,0,1-.1.11s0,.08.06.06l.1-.07a.27.27,0,0,0,.08-.07l.19-.17.34-.32.68-.67c.44-.46.87-.92,1.29-1.4.22-.25.43-.51.64-.77.12.15.23.31.34.46l.73,1a30.29,30.29,0,0,0-2.77,2.66c-.13.14-.25.27-.36.41a2,2,0,0,0-.34.42s0,.09.08.06a3.49,3.49,0,0,0,.32-.35c.1-.12.2-.24.31-.35s.43-.48.65-.71c.44-.46.89-.91,1.36-1.35l.8-.72.16.22.47.63a6.26,6.26,0,0,0,.45.57l0,.07a2.16,2.16,0,0,0,.13.41.32.32,0,0,0,.14.16A6.26,6.26,0,0,1,44.76,29a4.6,4.6,0,0,1,.18,1.1,2.05,2.05,0,0,0,.1.54,3.17,3.17,0,0,1,.2.51v.08a.24.24,0,0,0-.06.1.12.12,0,0,0,0,.14,2.21,2.21,0,0,0,0,.25,2.35,2.35,0,0,0,0,.53,2.67,2.67,0,0,0,.34,1c.1.17.31.47.54.5a7.27,7.27,0,0,0,1.83,3c.4.46.81.92,1.18,1.42a7,7,0,0,1,.47.73c.17.32.29.66.45,1a2.89,2.89,0,0,0,.67.84,4.49,4.49,0,0,1,.76.75,3.31,3.31,0,0,1,.5,1.77c0,.24,0,.48,0,.72a3,3,0,0,0-.47.53s0,.12.08.06l.08-.09c0,.32-.07.64-.11.95s-.1.67-.11,1a0,0,0,0,0,.09,0c.06-.33.08-.67.12-1s.07-.68.11-1a.08.08,0,0,0,0-.05l.23-.23c0,.43,0,.86-.07,1.28a4.49,4.49,0,0,1-.58,2,2.58,2.58,0,0,1-.77-.16,2.41,2.41,0,0,1-1-.62,2.6,2.6,0,0,1-.54-.92c-.06-.18-.08-.36-.13-.54a.79.79,0,0,0-.31-.39,4.71,4.71,0,0,1-.8-.81.16.16,0,0,0,0-.07,7.35,7.35,0,0,0,.2-1.14.24.24,0,0,0,0-.15c.13-.39.24-.8.34-1.21s.23-1,.32-1.54c0-.12,0-.24,0-.36l.32-.33s0-.09-.06,0l-.24.22c0-.12,0-.24,0-.37a.05.05,0,0,0-.1,0c0,.16,0,.33-.07.5l-.32.33s0,.1.07.06l.23-.23A20,20,0,0,1,48,42.11l-.15.5h-.05A1.84,1.84,0,0,1,46.62,42c-.19-.27-.23-.77.12-.94.11-.06,0-.25-.08-.19a.92.92,0,0,0-.41,1.22,1.73,1.73,0,0,0,1.31.86,6,6,0,0,0-.09.84.12.12,0,0,0,0,.18,4.39,4.39,0,0,0,.81,1c.14.13.33.23.37.43a5,5,0,0,0,.11.56,2.8,2.8,0,0,0,1.52,1.71,2.71,2.71,0,0,0,.8.22,10.31,10.31,0,0,1-1.28,1.52A.12.12,0,0,0,49.67,49.44Zm.28.46-.06.18-.07,0a.15.15,0,0,0,0-.19l.22-.2A1.34,1.34,0,0,0,50,49.9Zm.47-.12L50,50V50c.05-.14.09-.27.14-.4s.37-.38.54-.58l-.09.26-.15.4Zm.14-.09v0c0-.14.1-.29.14-.43s.09-.28.13-.43l.3-.37v0c-.1.37-.22.73-.34,1.1Zm.73-.54v-.08c0-.26.08-.52.11-.78,0,0-.06-.06-.07,0l-.12.78,0,.17-.23.18c.11-.37.22-.76.32-1.14a0,0,0,0,0,0,0c.08-.12.16-.23.23-.36l.14,0,0,0c0,.29,0,.58,0,.87,0,0,0,.09,0,.14Zm.7-.71c0-.14,0-.27,0-.4a7.23,7.23,0,0,1,0-.93,0,0,0,0,0-.08,0c0,.31,0,.62,0,.93a4.86,4.86,0,0,0,0,.54l-.16.17v0c0-.33,0-.67,0-1v0a.15.15,0,0,0-.09-.17,5.06,5.06,0,0,0,.43-1.18c0-.2.08-.39.1-.59v.9a1.85,1.85,0,0,1,0,.23.05.05,0,0,0-.07,0,3.54,3.54,0,0,0,.07.47,3.87,3.87,0,0,1,0,.48A1.37,1.37,0,0,1,52,48.44ZM46.36,36.18l-.55.42s0,.09,0,.06l.56-.41S46.4,36.15,46.36,36.18Zm.86.41-.56.38-.27.18a2.43,2.43,0,0,0-.28.2s0,.09,0,.07a2.68,2.68,0,0,0,.28-.18l.28-.2.55-.38A0,0,0,0,0,47.22,36.59Zm2.14,3.9a.07.07,0,0,0,0,.13C49.42,40.63,49.44,40.5,49.36,40.49Zm-6.54,7-.45.36a3.91,3.91,0,0,0-.44.37s0,.09.06.07.3-.23.45-.35l.44-.36C42.94,47.58,42.87,47.49,42.82,47.54Z"/></g></g></svg>